<svg xmlns="http://www.w3.org/2000/svg" width="199" height="50" fill="none" xmlns:v="https://vecta.io/nano"><g clip-path="url(#A)" fill="#f26333"><path d="M26.359 13.828c.766-.905 1.67-1.357 2.714-1.357.974 0 1.844.383 2.61 1.148.8.731 1.2 1.583 1.2 2.558 0 .87-.331 1.688-.992 2.453l-11.43 13.571v13.623c0 1.322-.383 2.331-1.148 3.027s-1.723 1.044-2.871 1.044c-1.218 0-2.21-.348-2.975-1.044s-1.148-1.705-1.148-3.027V32.201L.992 18.63C.331 17.934 0 17.116 0 16.177c0-.974.365-1.827 1.096-2.558.766-.765 1.636-1.148 2.61-1.148 1.044 0 1.949.452 2.714 1.357l9.97 12.162 9.97-12.162zm26.186 9.604c1.218 0 2.175.331 2.871.992.731.661 1.096 1.566 1.096 2.714v19.156c0 1.079-.383 1.949-1.148 2.61-.731.661-1.688.992-2.871.992-1.114 0-2.001-.313-2.662-.94s-.992-1.462-.992-2.505v-.522c-.8 1.322-1.862 2.331-3.184 3.027C44.367 49.652 42.906 50 41.27 50c-3.236 0-5.655-.887-7.255-2.662-1.566-1.809-2.349-4.524-2.349-8.143V27.138c0-1.148.348-2.053 1.044-2.714.731-.661 1.705-.992 2.923-.992s2.175.331 2.871.992 1.044 1.566 1.044 2.714v12.214c0 1.531.313 2.662.94 3.393.661.731 1.653 1.096 2.975 1.096 1.531 0 2.766-.522 3.706-1.566.974-1.044 1.462-2.419 1.462-4.123V27.138c0-1.148.348-2.053 1.044-2.714s1.653-.992 2.871-.992zm41.593-.104c2.784 0 4.924.853 6.42 2.558 1.497 1.67 2.245 4.419 2.245 8.247V46.19c0 1.218-.365 2.14-1.096 2.767s-1.67.94-2.819.94c-1.114 0-2.053-.313-2.819-.94s-1.148-1.548-1.148-2.767V34.028c0-1.67-.296-2.836-.887-3.497-.557-.696-1.427-1.044-2.61-1.044-1.462 0-2.627.505-3.497 1.514s-1.305 2.419-1.305 4.228V46.19c0 1.218-.365 2.14-1.096 2.767s-1.67.94-2.819.94c-1.114 0-2.053-.313-2.819-.94s-1.148-1.548-1.148-2.767V34.028c0-1.67-.296-2.836-.887-3.497-.557-.696-1.427-1.044-2.61-1.044-1.462 0-2.627.505-3.497 1.514s-1.305 2.419-1.305 4.228V46.19c0 1.218-.383 2.14-1.148 2.767-.731.626-1.653.94-2.766.94s-2.053-.313-2.819-.94-1.148-1.548-1.148-2.767V27.034c0-1.148.383-2.036 1.148-2.662.8-.626 1.757-.94 2.871-.94 1.044 0 1.914.313 2.61.94.696.592 1.044 1.427 1.044 2.505v.522c.835-1.322 1.914-2.331 3.236-3.027 1.357-.696 2.888-1.044 4.593-1.044 1.844 0 3.393.383 4.645 1.148 1.288.731 2.279 1.931 2.975 3.602a8.73 8.73 0 0 1 3.393-3.445c1.496-.87 3.184-1.305 5.063-1.305zm46.182 0c2.784 0 4.924.853 6.42 2.558 1.497 1.67 2.245 4.419 2.245 8.247V46.19c0 1.218-.366 2.14-1.096 2.767s-1.671.94-2.819.94c-1.114 0-2.053-.313-2.819-.94s-1.148-1.548-1.148-2.767V34.028c0-1.67-.296-2.836-.887-3.497-.557-.696-1.427-1.044-2.61-1.044-1.462 0-2.627.505-3.497 1.514s-1.305 2.419-1.305 4.228V46.19c0 1.218-.366 2.14-1.096 2.767s-1.671.94-2.819.94c-1.113 0-2.053-.313-2.819-.94s-1.148-1.548-1.148-2.767V34.028c0-1.67-.296-2.836-.887-3.497-.557-.696-1.427-1.044-2.61-1.044-1.462 0-2.627.505-3.497 1.514s-1.305 2.419-1.305 4.228V46.19c0 1.218-.383 2.14-1.148 2.767-.731.626-1.653.94-2.767.94s-2.053-.313-2.819-.94-1.148-1.548-1.148-2.767V27.034c0-1.148.383-2.036 1.148-2.662.801-.626 1.758-.94 2.871-.94 1.044 0 1.914.313 2.61.94.696.592 1.044 1.427 1.044 2.505v.522c.835-1.322 1.914-2.331 3.236-3.027 1.357-.696 2.888-1.044 4.594-1.044 1.844 0 3.392.383 4.645 1.148 1.288.731 2.279 1.931 2.975 3.602a8.73 8.73 0 0 1 3.393-3.445c1.496-.87 3.184-1.305 5.063-1.305zm18.57 26.568c-1.148 0-2.105-.313-2.871-.94-.731-.626-1.096-1.548-1.096-2.767V27.138c0-1.218.383-2.14 1.148-2.766s1.705-.94 2.819-.94 2.036.313 2.766.94c.766.626 1.149 1.548 1.149 2.766V46.19c0 1.218-.383 2.14-1.149 2.767-.73.626-1.653.94-2.766.94zm0-30.639c-1.392 0-2.488-.348-3.289-1.044-.8-.731-1.2-1.705-1.2-2.923s.4-2.175 1.2-2.871 1.897-1.044 3.289-1.044c1.357 0 2.436.365 3.236 1.096.835.696 1.253 1.636 1.253 2.819 0 1.218-.4 2.192-1.201 2.923-.8.696-1.896 1.044-3.288 1.044zm30.514 22.705a1.98 1.98 0 0 1 1.67.835c.453.557.679 1.27.679 2.14 0 .592-.174 1.148-.522 1.67-.348.487-.835.905-1.461 1.253-1.184.626-2.558 1.148-4.124 1.566-1.566.383-3.01.574-4.332.574-2.784 0-5.22-.539-7.308-1.618a11.41 11.41 0 0 1-4.75-4.593c-1.113-2.018-1.67-4.385-1.67-7.099 0-2.61.539-4.924 1.618-6.942s2.575-3.584 4.489-4.698c1.914-1.148 4.089-1.723 6.525-1.723 2.331 0 4.367.522 6.107 1.566 1.774 1.009 3.149 2.471 4.123 4.384.974 1.879 1.462 4.089 1.462 6.629 0 .766-.192 1.357-.575 1.775-.348.383-.852.574-1.513.574h-14.615c.243 2.053.87 3.549 1.879 4.489 1.009.905 2.453 1.357 4.332 1.357 1.009 0 1.914-.122 2.714-.365s1.688-.574 2.662-.992c.487-.209.957-.383 1.41-.522.452-.174.852-.261 1.2-.261zm-8.978-13.206c-1.496 0-2.697.487-3.601 1.462-.905.939-1.444 2.314-1.618 4.124h10.074c-.105-1.844-.575-3.236-1.41-4.176-.8-.94-1.948-1.409-3.445-1.409zm13.104-11.121l-13.247-3.167c-.243-.058-.488.092-.547.336l-.31 1.287c-.115.482-.036.979.223 1.402a1.84 1.84 0 0 0 1.148.834l10.528 2.517c.994.238 1.995-.378 2.233-1.371l.308-1.29c.059-.244-.092-.489-.336-.547zm1.613-14.557a4.72 4.72 0 0 0-.862-.119c-.729-1.42-2.017-2.437-3.574-2.809a5.46 5.46 0 0 0-6.568 4.033c-.058.244-.303.394-.547.336s-.395-.304-.336-.547a6.27 6.27 0 0 1 1.311-2.593c.114-.136.139-.326.063-.486s-.238-.261-.415-.26a4.98 4.98 0 0 0-4.809 3.82c-.439 1.836.197 3.752 1.625 4.966l-.871 3.619c-.028.117-.008.241.055.344a.45.45 0 0 0 .281.204l13.245 3.167c.244.058.489-.092.547-.336l.868-3.627c1.817-.44 3.246-1.86 3.683-3.69a5 5 0 0 0-3.696-6.02zm-10.623 8.561a.45.45 0 0 1-.303.033c-.128-.031-.242-.116-.304-.243-.103-.213-1.002-2.111-.724-3.271.058-.244.303-.394.547-.336s.394.303.336.547c-.153.639.323 1.972.658 2.663.11.226.016.497-.21.607zm3.777.542c-.059.244-.303.395-.547.336s-.395-.303-.337-.547l.634-2.65c.058-.244.303-.394.547-.336s.395.303.336.547l-.633 2.65zm3.366 1.101c-.113.085-.252.11-.38.08a.45.45 0 0 1-.256-.167c-.151-.2-.113-.485.087-.636.612-.465 1.639-1.44 1.792-2.077.058-.244.303-.394.547-.336s.394.303.336.547c-.277 1.16-1.937 2.446-2.126 2.59z"/></g><defs><clipPath id="A"><path fill="#fff" d="M0 0h198.977v50H0z"/></clipPath></defs></svg>