<svg xmlns="http://www.w3.org/2000/svg" width="185" height="185" fill="none" xmlns:v="https://vecta.io/nano"><g clip-path="url(#A)"><g fill-rule="evenodd"><path opacity=".163" d="M171.023 106.387h-15.105c-1.893 0-3.442-1.549-3.442-3.443v-15.11c0-1.894 1.549-3.443 3.442-3.443h15.105c1.893 0 3.441 1.549 3.441 3.443v15.11c0 1.894-1.548 3.443-3.441 3.443z" fill="#597ef7"/><path d="M22.269 93.302h-6.701c-.845 0-1.536-.737-1.536-1.637v-7.226c0-.9.691-1.637 1.536-1.637h6.701c.845 0 1.536.737 1.536 1.637v7.226c0 .9-.691 1.637-1.536 1.637z" fill="#ffc540"/><path d="M171.114 134.899c-.845 0-1.536-.686-1.536-1.524v-6.728c0-.838.691-1.523 1.536-1.523h6.701c.844 0 1.536.685 1.536 1.523v6.728c0 .838-.692 1.524-1.536 1.524h-6.701z" fill="#ff7a46"/><path opacity=".497" d="M9.894 61.684c-2.262 0-4.112-1.851-4.112-4.112V39.523c0-2.262 1.851-4.112 4.112-4.112h18.049c2.262 0 4.112 1.851 4.112 4.112v18.049c0 2.262-1.851 4.112-4.112 4.112H9.894z" fill="#adc6ff"/><path d="M134.685 14.738c-20.247 0-36.661 16.414-36.661 36.661s16.414 36.661 36.661 36.661 36.661-16.413 36.661-36.661-16.414-36.661-36.661-36.661z" fill="#0bb8e4"/><g fill="#fff"><path d="M136.182 61.873h-1.309c-1.085 0-1.964-.879-1.964-1.964V35.032c0-1.085.879-1.964 1.964-1.964h1.309c1.085 0 1.964.879 1.964 1.964v24.877c0 1.085-.879 1.964-1.964 1.964zm0 8.051h-1.309c-1.085 0-1.964-.879-1.964-1.964v-1.309c0-1.085.879-1.964 1.964-1.964h1.309c1.085 0 1.964.879 1.964 1.964v1.309c0 1.085-.879 1.964-1.964 1.964z"/></g><path d="M133.089 103.584c0 31.764-25.749 57.513-57.513 57.513s-57.513-25.749-57.513-57.513 25.749-57.513 57.513-57.513 57.513 25.749 57.513 57.513z" fill="#a3b5d6"/><g fill="#fff"><path d="M73.227 95.33a12.09 12.09 0 0 1-12.085 12.086A12.09 12.09 0 0 1 49.056 95.33a12.09 12.09 0 0 1 12.085-12.086A12.09 12.09 0 0 1 73.227 95.33zm28.87 0a12.09 12.09 0 0 1-12.085 12.086A12.09 12.09 0 0 1 77.926 95.33a12.09 12.09 0 0 1 12.085-12.086 12.09 12.09 0 0 1 12.085 12.086z"/></g><g fill="#253368"><path d="M66.512 94.995c0 2.781-2.255 5.035-5.036 5.035s-5.036-2.254-5.036-5.035 2.255-5.035 5.036-5.035 5.036 2.254 5.036 5.035zm28.2 0c0 2.781-2.254 5.035-5.036 5.035s-5.036-2.254-5.036-5.035 2.255-5.035 5.036-5.035 5.036 2.254 5.036 5.035zm-.453 34.578c-.741 0-1.453-.41-1.805-1.118-2.842-5.714-9.466-9.406-16.877-9.406s-14.035 3.692-16.877 9.406c-.495.996-1.704 1.402-2.701.907s-1.402-1.705-.907-2.701c3.517-7.071 11.558-11.641 20.484-11.641s16.967 4.57 20.484 11.641c.495.996.09 2.205-.906 2.701a2.01 2.01 0 0 1-.895.211z"/></g></g><g clip-path="url(#B)" fill-rule="evenodd"><path d="M139.647 117.109a18.43 18.43 0 0 0 31.917 18.427 18.43 18.43 0 0 0-31.917-18.427z" fill="#a3b5d6"/><g fill="#fff"><path d="M157.58 124.409c-1.069 1.852-.435 4.22 1.417 5.29s4.221.434 5.29-1.418.435-4.22-1.417-5.289-4.221-.435-5.29 1.417zm-8.011-4.626c-1.069 1.853-.435 4.221 1.417 5.29s4.22.435 5.29-1.417.435-4.221-1.418-5.29-4.22-.435-5.289 1.417z"/></g><g fill="#253368"><path d="M159.497 125.391c-.446.772-.181 1.759.59 2.204s1.759.181 2.204-.59.182-1.759-.59-2.204-1.759-.181-2.204.59zm-7.825-4.517c-.445.771-.181 1.758.591 2.204s1.758.181 2.204-.591.181-1.758-.591-2.204-1.758-.181-2.204.591zm-5.414 9.667c.206.118.469.119.68-.021 1.704-1.131 4.134-1.094 6.19.093s3.303 3.273 3.176 5.314c-.022.356.249.662.604.684s.662-.248.685-.604c.156-2.525-1.343-5.081-3.819-6.511s-5.441-1.451-7.549-.052c-.297.197-.378.598-.181.895.057.086.131.153.214.202z"/></g></g></g><defs><clipPath id="A"><path fill="#fff" d="M0 0h185v185H0z"/></clipPath><clipPath id="B"><path fill="#fff" transform="matrix(-.866025 -.5 -.5 .866025 185.443 118.327)" d="M0 0h43.704v43.704H0z"/></clipPath></defs></svg>