<svg xmlns="http://www.w3.org/2000/svg" width="1128" height="848" fill="none" xmlns:v="https://vecta.io/nano"><style><![CDATA[.B{fill:#637d2a}.C{fill-rule:evenodd}.D{fill:#506422}.E{fill:#7b913f}.F{fill:#e3ab92}]]></style><path d="M880.581 243.492c107.768 100.678 225.459 198.52 243.899 314.796 18.43 116.276-62.4 250.986-170.163 281.473-107.768 30.487-242.478-43.249-370.098-50.339-126.911-7.799-247.441 51.757-355.918 21.27S21.982 659.675 3.548 520.711c-19.143-138.964 40.413-296.362 148.89-397.04C261.624 22.993 419.022-20.965 547.351 9.522c127.62 29.778 225.462 133.292 333.23 233.97z" fill="#fff"/><g class="C"><path opacity=".163" d="M861.502 468.92h-59.177c-7.416 0-13.483-6.069-13.483-13.488v-59.196a13.53 13.53 0 0 1 13.483-13.488h59.177c7.416 0 13.484 6.07 13.484 13.488v59.196a13.53 13.53 0 0 1-13.484 13.488z" fill="#597ef7"/><path d="M278.722 417.658H252.47c-3.309 0-6.017-2.886-6.017-6.412v-28.311c0-3.527 2.708-6.413 6.017-6.413h26.252c3.31 0 6.017 2.886 6.017 6.413v28.311c0 3.526-2.707 6.412-6.017 6.412z" fill="#0bb8e4"/><path d="M861.86 580.624c-3.31 0-6.017-2.687-6.017-5.97v-26.359c0-3.283 2.707-5.97 6.017-5.97h26.251c3.31 0 6.018 2.687 6.018 5.97v26.359c0 3.283-2.708 5.97-6.018 5.97H861.86z" fill="#ff7a46"/><path opacity=".497" d="M230.24 293.789c-8.861 0-16.111-7.251-16.111-16.112v-70.712c0-8.861 7.25-16.111 16.111-16.111h70.712c8.862 0 16.112 7.25 16.112 16.111v70.712c0 8.861-7.25 16.112-16.112 16.112H230.24z" fill="#adc6ff"/></g><path d="M359.575 537.854a4.18 4.18 0 0 1-3.698-2.233c-7.222-13.674-9.412-29.45-6.5-46.881 2.756-16.513 9.97-33.825 21.441-51.461 23.313-35.841 61.746-69.232 108.216-94.02s95.531-38.057 138.152-37.381c20.964.332 39.281 4.027 54.438 10.983 16.01 7.345 27.786 18 35.016 31.679a4.21 4.21 0 0 1-1.733 5.677 4.17 4.17 0 0 1-5.652-1.741c-6.345-12.003-16.808-21.416-31.101-27.975-14.105-6.468-31.297-9.91-51.103-10.241-41.226-.664-88.851 12.289-134.094 36.402s-82.587 56.536-105.142 91.213c-10.834 16.661-17.628 32.892-20.193 48.254-2.602 15.567-.701 29.548 5.644 41.551a4.22 4.22 0 0 1-.104 4.126 4.18 4.18 0 0 1-3.566 2.048h-.021z" fill="#ff7946"/><g clip-path="url(#A)"><g class="C"><path d="M416.781 411.106c-2.241 2.981-8.585 7.083-15.422 11.029l29.455 80.027 70.273-24.972 1.121-109.528-27.796-9.46 2.376-61.623c.157-4.618-5.155-6.837-11.544-8.025-2.846-19.346-25.643-31.966-25.643-12.8l.269 71.98c-7.689 21.116-16.409 27.998-23.089 63.372z" class="F"/><g fill="#c88972"><path d="M455.807 494.204l45.28-17.014 1.121-109.528-27.796-9.46 2.376-61.623c.157-4.618-5.155-6.837-11.544-8.026a30.49 30.49 0 0 0-9.683-17.933v220.558c0 1.014.082 2.026.246 3.026h0z"/><path d="M460.537 410.993c.025-.625-.196-1.235-.615-1.7s-1.002-.748-1.627-.788c-.626-.031-1.24.188-1.706.608s-.747 1.007-.782 1.633a111.24 111.24 0 0 1-3.116 24.771c-.962 4.401-3.466 8.313-7.061 11.029-6.926 4.775-9.459 5.201-9.459 5.201-.311.053-.608.166-.874.334s-.498.386-.68.644a2.4 2.4 0 0 0-.407 1.79c.053.311.166.608.334.874s.386.498.644.68a2.4 2.4 0 0 0 1.79.407s3.497-.538 11.432-5.873c4.54-3.317 7.725-8.167 8.966-13.651a115.53 115.53 0 0 0 3.161-25.959h0z"/></g><path d="M655.129 316.866h-66.284c-4.745.035-9.286 1.936-12.641 5.292s-5.256 7.896-5.291 12.642a18.06 18.06 0 0 0 5.291 12.641c3.355 3.356 7.896 5.257 12.641 5.292h66.284c4.745-.035 9.286-1.936 12.641-5.292s5.256-7.896 5.292-12.641h0a18.07 18.07 0 0 0-5.292-12.642c-3.355-3.356-7.896-5.257-12.641-5.292h0z" class="F"/><path d="M603.483 248.854H476.116c-4.311.18-8.377 2.054-11.314 5.215a16.38 16.38 0 0 0-4.377 11.664v225.49c-.134 4.312 1.439 8.504 4.377 11.664s7.003 5.035 11.314 5.215h127.367a16.4 16.4 0 0 0 11.307-5.221c2.937-3.159 4.512-7.347 4.384-11.658v-225.49c.128-4.311-1.447-8.499-4.384-11.658a16.4 16.4 0 0 0-11.307-5.221h0z" fill="#363d4e"/><path d="M599.47 257.013h-37.098v.964c-.006 2.091-.839 4.094-2.317 5.573s-3.482 2.311-5.573 2.317h-24.344a7.91 7.91 0 0 1-5.587-2.309 7.92 7.92 0 0 1-2.326-5.581v-.964h-42.097c-3.022.111-5.878 1.413-7.944 3.622s-3.175 5.146-3.084 8.169v192.559c-.091 3.026 1.017 5.965 3.082 8.177a11.48 11.48 0 0 0 7.946 3.637H599.47c3.025-.117 5.881-1.424 7.946-3.637s3.174-5.151 3.083-8.177V268.804c.091-3.023-1.018-5.96-3.084-8.169s-4.922-3.511-7.945-3.622h0z" fill="#ffebe4"/><path d="M609.311 466.698c.79-1.667 1.196-3.49 1.188-5.335v-30.666h-12.284c-4.745.035-9.286 1.936-12.641 5.292s-5.256 7.896-5.292 12.641a18.07 18.07 0 0 0 5.292 12.642c3.355 3.356 7.896 5.257 12.641 5.292l11.096.134zm1.188-36.135v-36.002h-12.284c-4.745.036-9.286 1.936-12.641 5.292a18.07 18.07 0 0 0-5.292 12.642 18.07 18.07 0 0 0 5.292 12.642c3.355 3.355 7.896 5.256 12.641 5.291l12.284.135zm0-36.136v-36.001h-12.284c-4.745.035-9.286 1.936-12.641 5.291a18.07 18.07 0 0 0-5.292 12.642 18.07 18.07 0 0 0 5.292 12.642 18.06 18.06 0 0 0 12.641 5.291l12.284.135z" fill="#f0ca0c"/><path d="M594.113 266.63h-28.558a17.71 17.71 0 0 1-6.119 6.299 17.22 17.22 0 0 1-9.101 2.556h-24.344a17.33 17.33 0 0 1-9.101-2.556 17.71 17.71 0 0 1-6.119-6.299h-29.768a1.09 1.09 0 0 0-.485.146c-.147.085-.273.204-.367.347-.351.492-.546 1.078-.561 1.681v192.56h-2.398v-192.56a5.42 5.42 0 0 1 1.076-3.138 3.38 3.38 0 0 1 2.735-1.435h31.225l.336.65a15.06 15.06 0 0 0 5.567 6.001c2.374 1.448 5.102 2.211 7.883 2.204h24.321a15.06 15.06 0 0 0 7.845-2.242c2.384-1.451 4.322-3.529 5.604-6.007l.337-.65h29.992v2.443z" fill="#fff"/></g><path d="M548.004 478.513h-16.431a3.16 3.16 0 0 0-3.161 3.16v16.432a3.16 3.16 0 0 0 3.161 3.161h16.431a3.16 3.16 0 0 0 3.16-3.161v-16.432a3.16 3.16 0 0 0-3.16-3.16z" fill="#323231"/><g class="C"><g class="F"><path d="M625.338 353.001h-24.5a18.07 18.07 0 0 0-17.933 17.933h0a17.93 17.93 0 0 0 5.252 12.681c3.363 3.363 7.925 5.253 12.681 5.253h24.657a18.07 18.07 0 0 0 12.642-5.292c3.355-3.355 5.256-7.896 5.291-12.642a18.07 18.07 0 0 0-5.347-12.697c-3.389-3.36-7.97-5.242-12.743-5.236h0zm0 36.136h-24.5a18.07 18.07 0 0 0-17.933 17.933c0 4.756 1.889 9.318 5.252 12.681s7.925 5.252 12.681 5.252h24.657c4.745-.035 9.286-1.935 12.642-5.291a18.07 18.07 0 0 0 5.291-12.642 18.07 18.07 0 0 0-5.347-12.697c-3.389-3.36-7.97-5.242-12.743-5.236h0zm0 36.135h-24.5a18.07 18.07 0 0 0-17.933 17.934c0 4.756 1.889 9.317 5.252 12.681a17.93 17.93 0 0 0 12.681 5.252h24.657a18.07 18.07 0 0 0 17.933-17.933 18.07 18.07 0 0 0-5.347-12.697c-3.389-3.36-7.97-5.243-12.743-5.237h0z"/></g><g fill="#e6b8a2"><path d="M607.025 359.144h-4.91v23.739h4.91c3.145-.012 6.157-1.268 8.379-3.494s3.473-5.242 3.479-8.387h0c-.006-3.143-1.258-6.156-3.48-8.379a11.88 11.88 0 0 0-8.378-3.479h0zm0 36.135h-4.91v23.74h4.91c3.145-.012 6.157-1.269 8.379-3.495s3.473-5.241 3.479-8.386c-.006-3.144-1.258-6.156-3.48-8.379a11.88 11.88 0 0 0-8.378-3.48h0zm0 36.136h-4.91v23.672h4.91c3.145-.012 6.157-1.268 8.379-3.494s3.473-5.242 3.479-8.387a11.88 11.88 0 0 0-11.858-11.791h0z"/></g><g fill="#d5a695"><path d="M582.905 371.002a17.93 17.93 0 0 0 5.252 12.681c3.363 3.363 7.925 5.253 12.681 5.253h8.137a18 18 0 0 1-12.728-5.273c-3.376-3.375-5.272-7.954-5.272-12.728a18 18 0 0 1 5.272-12.728c3.375-3.376 7.954-5.272 12.728-5.272h-8.137a18.06 18.06 0 0 0-10.861 3.669 18.07 18.07 0 0 0-6.467 9.467c-.434 1.607-.638 3.267-.605 4.931h0zm7.352 21.564a17.93 17.93 0 0 0-6.724 9.707c-.451 1.582-.677 3.219-.673 4.864 0 4.757 1.89 9.318 5.253 12.681s7.924 5.253 12.68 5.253h8.137a17.94 17.94 0 0 1-9.961-2.935c-2.958-1.94-5.277-4.711-6.664-7.965a17.94 17.94 0 0 1-1.133-10.322c.649-3.478 2.312-6.685 4.779-9.22l.404-.292a17.93 17.93 0 0 1 12.597-5.2h-8.114a17.94 17.94 0 0 0-10.581 3.429h0zm0 36.136a17.93 17.93 0 0 0-6.724 9.707c-.452 1.581-.679 3.219-.673 4.864 0 4.756 1.89 9.318 5.253 12.681a17.93 17.93 0 0 0 12.68 5.252h8.137c-3.537.026-7.003-.995-9.961-2.935a17.93 17.93 0 0 1-6.664-7.964c-1.387-3.254-1.781-6.845-1.133-10.323a17.94 17.94 0 0 1 4.779-9.22l.404-.336a17.93 17.93 0 0 1 12.597-5.2h-8.114c-3.806.006-7.512 1.222-10.581 3.474z"/></g><g class="D"><path d="M542.915 313.302c7.532 17.418 11.589 30.823 10.244 40.35s-.224 13.45-6.052 9.325-8.428-.224-10.222-13.248c-1.414-8.681-2.298-17.439-2.645-26.228-.067-6.344 8.675-10.199 8.675-10.199z"/><path d="M549.797 313.167c-1.838-8.316-4.483-10.468-6.546-9.885s-1.703.336-3.026-.65-3.9-.359-4.685 3.564a20.05 20.05 0 0 0 2.242 11.208c.897 1.188.202 2.982 2.757 3.43s9.258-7.667 9.258-7.667z"/></g><g class="B"><path d="M548.698 310.387a11.21 11.21 0 0 1 4.484 4.483c1.26.464 2.372 1.258 3.22 2.299s1.4 2.291 1.599 3.619c1.098 4.954.628 7.218 1.569 9.146a7.76 7.76 0 0 1 1.082 2.932 7.75 7.75 0 0 1-.163 3.121 18.83 18.83 0 0 0-.874 3.968 13.67 13.67 0 0 1 1.031 9.571c-1.614 4.484-3.564 6.569-5.447 5.829s-6.725-4.304-7.061-8.788 2.085-6.478-1.188-8.966-5.29-4.035-4.035-7.51 2.713-5.178.314-8.63 0-4.102 1.345-6.344-1.367-8.474 4.124-4.73zm-6.612 41.448c3.026-2.488 6.254-8.966 3.609-12.194s-4.775-5.313-3.34-10.85-1.995-4.819-2.242-8.967 1.256-4.864-1.614-7.823.919-5.133-1.569-6.949-4.483-.292-5.245 3.699-4.618 1.322-5.133 7.532 2.846 5.402 0 11.208 4.191 6.568 3.25 10.581c-.578 2.175-.634 4.456-.163 6.658a14.29 14.29 0 0 0 2.875 6.007c3.318 3.923 10.043 7.532 9.572 1.098z"/></g><path d="M550.38 320.722c.784 4.483 3.743 9.258 7.173 18.471s5.38 15.557 1.659 23.941-9.796 7.824-17.642 2.892-7.307-12.352-8.226-20.982-2.78-18.113-1.995-23.739a30.91 30.91 0 0 1 1.636-7.443s1.704 12.195 4.64 25.869 7.98 18.853 9.594 19.929 5.626-5.739 3.564-20.557-2.264-19.143-.403-18.381z" fill="#c0c8a1"/><path d="M549.393 370.509c-2.846-.314-2.039-3.901 2.959-3.609 3.654.201 3.475 4.304-2.959 3.609z" fill="#8e9f6a"/><path d="M550.043 325.765c0 .449 0 .919.18 1.39.082.022.156.068.212.131a.44.44 0 0 1 .102.228c2.241 9.191 10.199 26.182 1.322 35.059 5.671-10.984 3.945-17.126-.179-28.379a52.87 52.87 0 0 1 1.614 11.365c0 8.384-1.457 16.768-4.618 16.858s-8.406-4.484-11.006-16.028c-.673-2.915-1.255-6.143-1.771-9.281.314 7.196 1.569 16.185 4.304 20.175 1.538 2.405 3.41 4.578 5.559 6.456a23.06 23.06 0 0 1-5.895-6.232c-4.484-6.366-6.277-38.691-7.285-37.391s.717 35.688 4.684 39.969c2.444 2.645 7.173 8.16 10.85 6.546a8.68 8.68 0 0 1 2.465-.628 13.62 13.62 0 0 1 2.04 0c2.623 0 1.749 1.099 3.407-1.457a19.59 19.59 0 0 0 3.318-11.208c-.426-6.905-3.071-14.369-8.025-27.236-.403-1.032-1.479-2.758-1.278-.337z" fill="#ecefe9"/><g fill="#69822c"><path d="M548.474 337.489c-1.771-2.533-5.155-3.295-4.304-6.03s3.273-5.492 1.57-8.742-3.475-3.049-1.188-4.977 2.577-2.69 2.846-4.483 2.533-.628 4.035 1.928 4.483 2.241 5.201 5.649-1.009 4.662-.157 6.388 3.833 4.887 3.542 6.546a11.01 11.01 0 0 1-1.054 2.981c-.154-1.806-.831-3.528-1.95-4.954a14.16 14.16 0 0 1-2.69-9.078c-.157-4.484-3.295-6.456-5.268-4.618s-.359 4.147-1.278 7.308-2.981 4.147-1.277 5.783 3.093 4.483 2.667 5.627-.695.672-.695.672zm-6.433 10.76a8.68 8.68 0 0 0 2.103-3.201 8.69 8.69 0 0 0 .52-3.793c-.337-1.592-2.242-3.206-3.251-4.932a6.37 6.37 0 0 1-1.29-2.43 6.36 6.36 0 0 1-.144-2.748c.515-2.488 1.927-4.484.784-6.905s-2.959-3.698-1.928-5.693a4.48 4.48 0 0 0 .442-3.155c-.243-1.07-.871-2.013-1.764-2.651-1.681-1.861-1.681-1.121-1.681-3.721-.628 2.645-1.076 3.183.583 5.155 1.12 1.301 1.591 2.802.538 4.035-1.973 2.242.851 3.273 2.062 5.986.941 2.241 0 5.761-.292 7.958-.582 3.384 1.032 3.855 3.363 6.725 2.712 3.564 1.367 5.424-.045 9.37z"/></g><path d="M550.021 370.352c-2.242-.224-1.524-2.892 2.242-2.668 2.712.157 2.533 3.206-2.242 2.668z" fill="#aeb994"/><path d="M563.089 337.265c4.455-11.047 7.14-22.728 7.958-34.611 0-5.246-4.954-.964-5.043 4.012s-5.022 4.304-3.542 10.424 0 5.537-1.166 9.886 1.793 10.289 1.793 10.289z" class="B"/><path d="M563.269 337.063c5.223-18.606 9.325-28.648 14.099-33.311s2.107 3.25.516 6.725.381 2.242 0 5.649-5.402 5.604-5.918 7.106 2.466.695-.246 4.483c-2.597 3.309-5.421 6.432-8.451 9.348z" fill="#576e26"/><path d="M563.784 336.772c4.484-6.972 13.831-19.211 20.982-24.053s-.292 3.587-1.502 4.932.964 4.707-.964 6.344-2.892.627-4.035 3.788-14.481 8.989-14.481 8.989z" class="B"/><g class="E"><path d="M566.452 319.534a53.54 53.54 0 0 0 2.869-19.122 7.41 7.41 0 0 0-2.463 2.726c-.58 1.1-.874 2.329-.854 3.573 0 4.977-5.022 4.304-3.542 10.424s0 5.537-1.166 9.886a8.82 8.82 0 0 0-.269 2.443c1.883-.807 3.945-5.245 5.425-9.93zm10.916-15.782c-3.183 3.093-6.052 8.585-9.168 17.373-.986 2.802-2.017 5.963-3.071 9.482a3.6 3.6 0 0 0 .538-.516c1.233-1.367 3.183-4.64 4.663-6.725 2.241-3.25 5.761-6.276 5.738-7.711-.471-2.747-.144-5.571.942-8.137a15.55 15.55 0 0 0 1.838-4.865c-.53.314-1.026.682-1.48 1.099h0zm-8.944 28.043c.785 0 2.242-1.076 4.484-2.645 3.765-2.578 2.958-3.609 4.483-5.649s3.676-1.233 4.304-3.116a17.93 17.93 0 0 1 5.693-7.98c.807-1.345.561-1.883-2.667.314a64.31 64.31 0 0 0-12.038 11.903l-4.953 6.411c.134.516.358.762.694.762z"/></g><path d="M554.19 335.381c-7.15 5.38-18.358 34.029-16.117 43.287-1.232 4.192-1.905 4.82-2.891 4.259-1.39-.762-1.637-3.407-3.026-1.457-.965 1.44-1.72 3.01-2.242 4.663 0 0 1.748-3.856 3.138-2.645s1.614 4.371 9.168-2.04h.135a25.59 25.59 0 0 0 8.966-6.479c8.563-8.406 19.704-27.191 18.426-33.019-1.412-7.398-9.258-11.254-15.557-6.569z" fill="#d8d6a6"/><path d="M561.072 355.647c2.847-5.918 8.966-16.364 5.851-19.39-.292-.292-.583-.538-.875-.785l-.448-.336a8.76 8.76 0 0 0-.964-.606l-.426-.224c-.897-.442-1.857-.745-2.847-.896a9.66 9.66 0 0 0-3.783.27c-1.231.338-2.383.917-3.39 1.702-6.904 5.156-17.26 31.384-16.274 41.875.852.291-2.241 4.483 3.609 2.241s16.723-17.933 19.547-23.851z" fill="#f6f2d1"/><path d="M558.248 337.556c-6.882-.493-19.39 29.433-14.705 29.142 4.147-.359 23.357-28.514 14.705-29.142z" fill="#fbfaed"/><path d="M538.32 343.138v58.732h-.135c-.605 1.905-3.295 3.34-6.5 3.34a9.62 9.62 0 0 1-3.318-.56c-1.072.378-2.202.568-3.34.56a9.71 9.71 0 0 1-3.317-.56c-1.065.378-2.188.568-3.318.56-3.228 0-5.895-1.435-6.523-3.34h-.134v-58.732c0-13.293 6.725-12.15 9.93-18.224v-3.228h6.725v3.228c3.317 6.074 9.93 5.514 9.93 18.224z" fill="#55352a"/></g><g fill="#c10016"><path d="M538.32 343.564h-26.585v15.961h26.585v-15.961zm-9.953-25.488h-6.657v3.609h6.657v-3.609z"/></g><g class="C"><path d="M515.971 401.018a.92.92 0 0 1-.31.555c-.167.142-.379.221-.597.221s-.431-.079-.598-.221a.92.92 0 0 1-.31-.555v-57.88c0-9.258 3.115-11.859 6.231-14.437.645-.508 1.258-1.055 1.838-1.636a.92.92 0 0 1 .639-.258c.239 0 .468.092.639.258a.9.9 0 0 1 .256.628c0 .234-.092.46-.256.627-.628.628-1.3 1.188-1.95 1.726-2.78 2.242-5.559 4.641-5.559 13.069l-.023 57.903z" fill="#fff"/><path d="M535.002 343.564h3.318v-.426c0-12.71-6.725-12.15-9.93-18.224v-3.228h-3.318v3.228c3.318 6.074 9.93 5.514 9.93 18.224v.426z" fill="#452c22"/></g><path d="M538.32 343.564h-3.318v15.961h3.318v-15.961z" fill="#911b19"/><g class="C"><path d="M538.32 359.524h-3.318v42.346h-.134a5.84 5.84 0 0 1-1.993 2.248 5.82 5.82 0 0 1-2.849.957c.548.092 1.103.137 1.659.135 3.205 0 5.895-1.435 6.5-3.34h.135v-42.346z" fill="#452c22"/><path d="M511.511 328.231c3.228 6.3 1.031 9.819-1.659 10.021-1.351-.099-2.608-.728-3.497-1.749-2.421-2.981-2.085-22.416 5.156-8.272z" class="D"/><g class="B"><path d="M504.45 327.088c.851 3.968 3.071 3.161 3.003 1.748s-4.326-8.002-3.003-1.748zm6.321-.852c-.359 4.035-2.645 3.52-2.757 2.13s3.295-8.518 2.757-2.13z"/><path d="M508.44 324.465c1.367 3.834-.942 4.327-1.614 3.094s-.538-9.213 1.614-3.094z"/></g><path d="M508.103 331.549c1.883 12.083 4.484 19.211 11.993 32.437s10.378 11.051 10.782 8.496-8.025-6.501-15.557-24.457-4.909-19.099-7.218-16.476z" class="D"/><g class="B"><path d="M530.542 371.271c-1.659-2.757-8.765-7.868-15.221-23.246-6.949-16.566-5.267-18.83-6.724-17.014 1.86 10.917 4.483 17.933 11.678 30.464 6.165 10.805 9.146 11.343 10.267 9.796zm-24.972-35.172c.919 2.466 3.834 2.757 3.497 1.3s-5.873-7.846-3.497-1.3z"/><path d="M513.416 333.723c0 5.604-2.488 4.483-2.735 2.959s2.735-8.564 2.735-2.959zm-8.182-2.353c1.637 4.035 3.811 2.779 3.475 1.322s-6.075-7.622-3.475-1.322zm6.434-2.019c.358 4.304-2.242 4.192-2.511 2.735s2.017-9.594 2.511-2.735z"/></g><g class="D"><path d="M515.254 341.39c0 4.349-2.533 3.99-2.757 2.511s2.802-9.371 2.757-2.511zm-4.326 7.33c1.703 3.99 3.878 2.69 3.519 1.233s-6.254-7.532-3.519-1.233zm5.671 11.948c1.726 3.968 3.878 2.668 3.519 1.211s-6.254-7.51-3.519-1.211zm3.542-7.398c1.3 4.147-1.166 4.595-1.861 3.25s-.381-9.796 1.861-3.25z"/></g><path d="M510.278 333.746c1.39 3.497-.269 4.483-1.233 3.766-.154-.106-.284-.244-.381-.404-.83-1.367-.942-9.796 1.614-3.362z" class="B"/><g class="E"><path d="M504.607 326.617c.47 2.533 1.546 2.017 1.479 1.121s-2.219-5.134-1.479-1.121zm.874 4.932c1.255 2.959 2.421 2.04 2.129.964s-4.102-5.649-2.129-.964zm.314 4.326c1.232 2.959 2.42 2.04 2.107.964s-4.08-5.627-2.107-.964z"/></g><path d="M508.619 334.351c.134 3.206 1.547 2.757 1.636 1.659s-1.86-6.725-1.636-1.659z" fill="#6d852c"/><g class="E"><path d="M510.121 329.352c-.807 3.093.672 3.093 1.098 2.04s.18-6.95-1.098-2.04zm1.838 4.685c-.807 3.094.672 3.094 1.098 2.04s.18-6.971-1.098-2.04zm-2.555-8.339c-1.144 2.667.201 2.847.694 1.995s1.076-6.21-.694-1.995zm-1.413-1.86c.606 2.107-.426 2.376-.717 1.703s-.247-4.954.717-1.703z"/></g><path d="M508.933 327.985c1.726 3.99-.718 4.662-1.524 3.407s-1.121-9.707 1.524-3.407z" class="B"/><path d="M507.027 328.567c.135 3.206 1.57 2.757 1.659 1.659s-1.86-6.725-1.659-1.659z" class="E"/><g class="B"><path d="M513.797 340.919c-.807 3.093.695 3.071 1.098 2.04s.18-6.949-1.098-2.04zm-1.816 7.218c1.704 2.241.516 2.69-.179 1.995s-2.511-5.492.179-1.995zm7.936 5.133c.739 2.668-.561 2.668-.919 1.794s-.269-6.03.919-1.794zm-2.018 6.86c1.816 2.107.65 2.667 0 2.017s-2.869-5.335 0-2.017z"/></g><path d="M537.087 328.859c-.829.283-1.592.733-2.239 1.323s-1.168 1.307-1.527 2.107c-.793 1.618-1.163 3.411-1.072 5.211a10.62 10.62 0 0 0 1.588 5.078l.695.695-.471-.83a10.5 10.5 0 0 1-1.195-4.44c-.066-1.55.212-3.096.814-4.526.282-.864.765-1.649 1.407-2.292a5.8 5.8 0 0 1 2.292-1.407.56.56 0 0 0 .358-.65c-.054-.119-.151-.213-.272-.263s-.256-.052-.378-.006h0z" class="D"/><path d="M531.506 339.014c.777.26 1.499.663 2.129 1.188.241.273.458.565.65.874l-1.143.157.74 1.749-.673-.112a3.76 3.76 0 0 1 0 1.524 5.47 5.47 0 0 1-.538 1.233l-1.591-2.623c-.314-.74-.269-.269-.269-.269v1.861h-.404l-.762 1.412-.224.403s-1.009-1.053-.897-1.143c-.404.597-.973 1.064-1.636 1.345-.611.297-1.259.508-1.928.628.143-1.097.414-2.173.807-3.206.359-.448.516-.426.359-.448h-.695l2.241-2.242-2.465 1.883c-.493.336-.516.404-.516.404l-.381-.628a3.86 3.86 0 0 1-.919.852c-.493.314-.65.291-.65.291v-.201l-1.838.448.538-1.502h-.247l.449-.538-1.883.448c-.426.045-.314-.65-.314-.65l-2.892-.471c.789-.506 1.605-.97 2.443-1.389 0 0-.425-.628 0-.718s1.951-.201 1.951-.201l-.807-.404h.224l-1.211-1.21 1.906-.202v-.224h.739a4.32 4.32 0 0 1 1.233.493l.135-.628.65.224c.65.224 3.138.897 3.138.897l-3.093-1.323.627-.269c.135 0 0 0-.56-.291a15.91 15.91 0 0 1-2.242-2.69 7.66 7.66 0 0 1 2.063 0 4.65 4.65 0 0 1 2.107.672c-.135 0 .314-1.345.314-1.345l.403.292 1.345 1.053.359-.156.829 1.726s.157.426 0-.337a29.43 29.43 0 0 1 .202-2.981c.39.276.744.6 1.053.964a4.31 4.31 0 0 1 .785 1.39l.538-.337.134 1.861 1.121-.247c-.036.342-.104.68-.202 1.009a5.29 5.29 0 0 1-1.232 1.704h0z" class="E"/><g fill="#687e2c"><path d="M531.864 339.17a5.47 5.47 0 0 1 1.771 1.031c.241.273.458.565.65.874l-1.143.157.74 1.749-.673-.112a3.76 3.76 0 0 1 0 1.524 5.43 5.43 0 0 1-.538 1.233l-1.591-2.623c-.314-.74-.269-.269-.269-.269v1.861h-.404l-.762 1.412-.224.404s-1.009-1.054-.897-1.144c-.404.597-.973 1.064-1.636 1.345-.611.297-1.259.508-1.928.628a14.18 14.18 0 0 1 .807-3.206c.359-.448.516-.426.359-.448h-.695l2.241-2.242-2.465 1.883c-.493.337-.516.404-.516.404l-.381-.628a3.84 3.84 0 0 1-.919.852c-.493.314-.65.291-.65.291v-.201l-1.838.448.538-1.502h-.247l.449-.538-1.883.448c-.426.045-.314-.65-.314-.65l-2.892-.47 4.17-.561 8.114-1.793 3.026-.157z"/><path d="M524.736 342.578c-1.143.474-2.132 1.255-2.86 2.255a6.73 6.73 0 0 0-1.265 3.416 4.02 4.02 0 0 0-.919 3.856c.18 1.367.494 1.995.404 0-.207-1.048-.065-2.134.403-3.094a.63.63 0 0 1 .202-.224c.493 2.242 3.497 1.412 2.892-.269a1.84 1.84 0 0 0-2.242-.74 6.33 6.33 0 0 1 1.255-2.672c.623-.779 1.422-1.4 2.332-1.811a.41.41 0 0 0 .135-.08c.04-.036.072-.079.095-.127s.036-.099.039-.152a.4.4 0 0 0-.023-.157c-.04-.097-.116-.174-.212-.216s-.205-.045-.303-.008l.067.023zm-3.318 5.873a1.25 1.25 0 0 1 .765-.085 1.26 1.26 0 0 1 .67.376c.404.628-1.255 1.3-1.435-.291z"/></g><path d="M536.078 340.403c-3.205 1.39-5.985 3.161-6.03 5.291a25.21 25.21 0 0 0 1.301 7.778c.515.516 9.952 6.725 10.849 7.398s1.569 2.735 2.959.515 3.138-4.73 1.053-8.742-5.043-12.083-10.132-12.24z" fill="#4b2747"/><g fill="#61345e"><path d="M546.726 361.587a2.24 2.24 0 0 0 2.071-1.384c.17-.41.214-.86.127-1.295a2.25 2.25 0 0 0-.613-1.148 2.23 2.23 0 0 0-1.148-.613c-.435-.086-.885-.043-1.295.127a2.24 2.24 0 0 0 .858 4.313zm-6.927-6.366a2.71 2.71 0 0 0 2.661-3.242c-.105-.526-.363-1.009-.743-1.389a2.71 2.71 0 0 0-1.388-.742c-.526-.105-1.072-.051-1.568.154a2.72 2.72 0 0 0-1.217.999c-.298.446-.457.971-.457 1.507 0 .72.286 1.41.794 1.918s1.199.795 1.918.795h0zm3.923-6.86a2.71 2.71 0 0 0 1.918-4.63 2.71 2.71 0 0 0-2.956-.588c-.495.205-.919.553-1.217.999a2.71 2.71 0 0 0-.457 1.507c0 .719.286 1.409.794 1.918a2.71 2.71 0 0 0 1.918.794h0z"/><path d="M544.574 353.517c.536 0 1.061-.159 1.507-.457a2.71 2.71 0 0 0 1.153-2.785c-.104-.526-.363-1.009-.742-1.389a2.71 2.71 0 0 0-2.956-.588c-.496.206-.919.553-1.217.999s-.457.971-.457 1.507a2.71 2.71 0 0 0 .794 1.918c.509.509 1.199.795 1.918.795h0zm-8.204-4.662a2.72 2.72 0 0 0 1.488-.49 2.71 2.71 0 0 0 1.096-2.792c-.112-.522-.375-.999-.757-1.371s-.865-.625-1.39-.724a2.71 2.71 0 0 0-1.557.165c-.491.207-.912.555-1.207 1a2.71 2.71 0 0 0-.24 2.553 2.69 2.69 0 0 0 .605.888c.259.253.566.452.903.584a2.72 2.72 0 0 0 1.059.187h0zm4.214-3.856c.536 0 1.061-.159 1.507-.457a2.72 2.72 0 0 0 .999-1.217c.205-.496.259-1.041.154-1.568a2.71 2.71 0 0 0-3.698-1.976 2.71 2.71 0 0 0-.88 4.424c.509.508 1.199.794 1.918.794h0z"/><path d="M535.608 343.653c.536 0 1.06-.159 1.507-.457s.793-.721.998-1.217a2.71 2.71 0 0 0 .155-1.567c-.105-.526-.363-1.01-.742-1.389s-.863-.638-1.389-.742a2.71 2.71 0 0 0-2.785 1.153 2.71 2.71 0 0 0-.457 1.507c0 .719.286 1.409.795 1.918a2.71 2.71 0 0 0 1.918.794z"/><path d="M531.662 346.254a2.71 2.71 0 0 0 1.507-.457c.446-.298.794-.722.999-1.217s.259-1.041.155-1.568a2.71 2.71 0 0 0-2.131-2.131c-.527-.104-1.072-.051-1.568.155s-.919.553-1.217.999a2.71 2.71 0 0 0 .338 3.424 2.71 2.71 0 0 0 1.917.795h0z"/><path d="M531.192 350.469a2.72 2.72 0 0 0 2.685-3.228c-.102-.528-.359-1.013-.737-1.395a2.71 2.71 0 0 0-1.388-.748c-.527-.107-1.074-.054-1.571.15a2.72 2.72 0 0 0-1.22.999c-.299.447-.459.972-.459 1.509a2.71 2.71 0 0 0 .786 1.91c.504.508 1.188.797 1.904.803zm11.365 14.077a2.72 2.72 0 0 0 1.515-.448c.449-.296.8-.72 1.008-1.216a2.71 2.71 0 0 0 .16-1.572c-.104-.528-.363-1.014-.743-1.394s-.866-.64-1.394-.744a2.71 2.71 0 0 0-2.789 1.169c-.296.449-.452.976-.447 1.515.006.711.291 1.392.794 1.895a2.71 2.71 0 0 0 1.896.795h0z"/><path d="M539.06 361.497a2.71 2.71 0 0 0 2.524-1.664c.208-.497.263-1.044.159-1.572s-.362-1.014-.743-1.394-.866-.64-1.394-.744a2.71 2.71 0 0 0-1.572.16c-.497.208-.92.559-1.216 1.009a2.7 2.7 0 0 0-.448 1.515c.006.712.291 1.392.794 1.896s1.184.788 1.896.794h0z"/><path d="M535.944 358.382c.538.004 1.066-.152 1.515-.448a2.71 2.71 0 0 0 1.009-1.216c.208-.497.263-1.044.159-1.572s-.362-1.014-.743-1.395a2.72 2.72 0 0 0-1.394-.743 2.71 2.71 0 0 0-2.788 1.168c-.297.45-.452.977-.448 1.516a2.69 2.69 0 0 0 .205 1.029 2.68 2.68 0 0 0 .583.873c.25.25.546.448.872.583a2.7 2.7 0 0 0 1.03.205h0zm-5.021-3.229c.537 0 1.062-.159 1.509-.458a2.72 2.72 0 0 0 .999-1.221c.204-.497.257-1.044.15-1.571a2.71 2.71 0 0 0-.748-1.388c-.382-.378-.867-.635-1.395-.737a2.72 2.72 0 0 0-1.569.163 2.71 2.71 0 0 0-1.659 2.522 2.7 2.7 0 0 0 .207 1.035c.137.328.337.625.589.875a2.7 2.7 0 0 0 .88.582 2.69 2.69 0 0 0 1.037.198h0zm16.655 10.715a2.71 2.71 0 0 0 1.49-.491c.438-.307.775-.736.969-1.234s.237-1.042.123-1.565a2.71 2.71 0 0 0-.763-1.37c-.385-.372-.87-.622-1.396-.719s-1.068-.036-1.559.175a2.71 2.71 0 0 0-1.202 1.009c-.292.447-.446.971-.442 1.505.003.36.077.716.219 1.047a2.71 2.71 0 0 0 .607.881c.259.25.565.447.9.578a2.73 2.73 0 0 0 1.054.184h0zm-1.412-8.271a2.72 2.72 0 0 0 1.515-.448c.449-.296.8-.72 1.008-1.216a2.71 2.71 0 0 0 .16-1.572 2.72 2.72 0 0 0-2.138-2.138 2.71 2.71 0 0 0-1.571.16c-.497.208-.92.559-1.217 1.008a2.71 2.71 0 0 0 .347 3.411c.503.503 1.184.789 1.896.795z"/><path d="M542.557 359.614c.537.005 1.064-.151 1.512-.446a2.71 2.71 0 0 0 1.173-2.782c-.102-.527-.359-1.013-.737-1.394a2.72 2.72 0 0 0-1.389-.749c-.527-.107-1.073-.054-1.57.151a2.71 2.71 0 0 0-.893 4.418c.504.508 1.188.796 1.904.802zm-7.936-5.963a2.71 2.71 0 0 0 1.918-4.63c-.379-.379-.862-.638-1.388-.742s-1.072-.051-1.568.154a2.71 2.71 0 0 0-1.217.999c-.298.446-.457.971-.457 1.507 0 .719.286 1.409.794 1.918a2.71 2.71 0 0 0 1.918.794h0zm5.694-2.869c.536 0 1.061-.159 1.507-.457s.794-.722.999-1.217a2.71 2.71 0 0 0-3.544-3.544 2.71 2.71 0 0 0-.88 4.424c.509.508 1.199.794 1.918.794z"/></g><g fill="#6e3b6e"><path d="M539.911 340.135c.495-.117 1.014-.063 1.473.153a2.24 2.24 0 0 1 1.233 2.509c-.109.496-.383.941-.778 1.26a2.24 2.24 0 0 1-2.802-1.053c-.234-.502-.275-1.073-.113-1.603a2.24 2.24 0 0 1 .987-1.266zm-5.178-1.257c.357-.282.79-.449 1.244-.479a2.24 2.24 0 0 1 1.295.312 2.23 2.23 0 0 1 .89.991c.19.413.249.874.17 1.322s-.291.861-.61 1.184a2.24 2.24 0 0 1-1.174.63c-.446.085-.908.034-1.324-.149s-.767-.487-1.006-.874a2.07 2.07 0 0 1-.339-.752c-.062-.271-.069-.551-.021-.825a2.09 2.09 0 0 1 .875-1.36h0z"/><path d="M530.385 341.592a2.24 2.24 0 0 1 1.099-.753c.434-.133.898-.132 1.331.004s.815.401 1.095.759a2.25 2.25 0 0 1 .471 1.245 2.24 2.24 0 0 1-1.314 2.177c-.414.188-.875.245-1.322.164a2.24 2.24 0 0 1-1.181-.615 2.13 2.13 0 0 1-.179-2.981h0zm-.583 4.124a2.24 2.24 0 0 1 2.823.235c.371.359.608.834.669 1.347a2.24 2.24 0 0 1-.331 1.466 2.11 2.11 0 0 1-2.982 0 2.24 2.24 0 0 1-.179-3.048h0zm5.133-1.412a2.24 2.24 0 0 1 1.442-.356c.507.048.983.268 1.348.623a2.25 2.25 0 0 1 .663 1.33c.064.506-.048 1.018-.315 1.452a2.1 2.1 0 0 1-.683.457 2.11 2.11 0 0 1-1.614 0c-.256-.106-.488-.261-.684-.457-.406-.395-.648-.928-.677-1.494a2.24 2.24 0 0 1 .52-1.555zm3.901 2.129a2.24 2.24 0 0 1 1.102-.753c.436-.133.901-.131 1.335.008s.816.405 1.095.765a2.24 2.24 0 0 1 .464 1.252 2.25 2.25 0 0 1-.329 1.294 2.24 2.24 0 0 1-1.007.877c-.417.183-.88.235-1.327.149a2.24 2.24 0 0 1-1.177-.633c-.205-.183-.373-.405-.492-.653a2.08 2.08 0 0 1-.203-.793 2.07 2.07 0 0 1 .539-1.513h0z"/><path d="M542.557 343.923a2.24 2.24 0 0 1 1.102-.754c.436-.133.901-.13 1.336.008a2.24 2.24 0 0 1 1.094.765c.279.36.44.797.464 1.252a2.25 2.25 0 0 1-.329 1.294 2.24 2.24 0 0 1-1.007.877c-.417.183-.88.235-1.327.149a2.24 2.24 0 0 1-1.177-.632c-.205-.184-.373-.406-.492-.654a2.08 2.08 0 0 1-.203-.793c-.014-.275.025-.551.118-.81a2.05 2.05 0 0 1 .421-.702h0zm.941 4.976a1.95 1.95 0 0 1 2.712 0 1.84 1.84 0 0 1 .458.943c.058.352.012.713-.132 1.039a1.84 1.84 0 0 1-.678.799c-.299.195-.647.298-1.004.298a1.84 1.84 0 0 1-1.356-3.079h0zm1.95 4.282c.361-.358.848-.558 1.356-.558s.996.2 1.356.558c.198.161.36.361.476.589a1.83 1.83 0 0 1 .198.73 1.82 1.82 0 0 1-.113.749 1.84 1.84 0 0 1-.405.64c-.178.182-.392.326-.629.421s-.49.141-.745.133a1.84 1.84 0 0 1-1.337-.639 1.91 1.91 0 0 1-.157-2.623h0zm-4.236 1.95a1.93 1.93 0 0 1 2.712 0c.198.161.36.362.476.589s.183.476.198.731-.024.509-.113.748a1.84 1.84 0 0 1-.406.64 1.86 1.86 0 0 1-.628.422 1.85 1.85 0 0 1-.746.132c-.255-.008-.505-.069-.735-.179a1.83 1.83 0 0 1-.601-.46c-.358-.334-.574-.792-.603-1.28s.13-.969.446-1.343h0zm-2.511-4.214c.36-.351.843-.547 1.345-.547s.985.196 1.345.547a1.84 1.84 0 0 1 .34 1.986c-.142.328-.378.608-.677.804a1.84 1.84 0 0 1-1.008.301c-.358 0-.708-.105-1.008-.301s-.535-.476-.677-.804a1.84 1.84 0 0 1 .34-1.986h0z"/><path d="M538.073 357.328c.357-.356.841-.556 1.345-.556s.988.2 1.345.556c.19.165.345.366.455.591a1.87 1.87 0 0 1 .19.721c.015.251-.021.502-.105.739a1.87 1.87 0 0 1-.383.639c-.376.27-.835.4-1.297.369s-.898-.223-1.235-.541a1.99 1.99 0 0 1-.315-2.518h0zm-3.496-3.116a2 2 0 0 1 1.346-.449c.489.021.953.22 1.304.561a2 2 0 0 1 .602 1.285 1.99 1.99 0 0 1-.406 1.36c-.378.31-.858.469-1.346.449s-.953-.22-1.304-.56a2 2 0 0 1-.602-1.286 1.99 1.99 0 0 1 .406-1.36zm6.814 6.075a1.93 1.93 0 0 1 2.712 0c.188.166.341.368.45.595a1.89 1.89 0 0 1 .184.722 1.91 1.91 0 0 1-.111.737 1.89 1.89 0 0 1-.388.636c-.379.31-.858.469-1.347.449a2 2 0 0 1-1.304-.56c-.351-.341-.565-.798-.601-1.286s.108-.972.405-1.36v.067zm4.326-2.78a1.93 1.93 0 0 1 2.713 0c.197.161.359.362.475.589s.184.476.198.731a1.82 1.82 0 0 1-.113.748 1.84 1.84 0 0 1-.405.64c-.178.182-.392.326-.629.422a1.84 1.84 0 0 1-2.082-.507 1.91 1.91 0 0 1-.157-2.623h0z"/><path d="M546.659 361.52a1.84 1.84 0 0 1 1.255-.443c.459.014.896.2 1.225.521s.526.752.552 1.211a1.84 1.84 0 0 1-.41 1.266c-.339.351-.803.553-1.291.561a1.84 1.84 0 0 1-1.354-3.116h.023zm-13.54-12.195c.28-.359.663-.625 1.097-.761a2.24 2.24 0 0 1 1.336-.002c.435.134.818.399 1.099.757s.447.793.474 1.248a2.24 2.24 0 0 1-.32 1.296 2.25 2.25 0 0 1-1 .885 2.24 2.24 0 0 1-2.506-.464c-.414-.37-.665-.889-.698-1.443a2.11 2.11 0 0 1 .518-1.516h0z"/><path d="M528.95 350.939c.283-.357.667-.62 1.103-.753s.901-.131 1.335.007a2.25 2.25 0 0 1 1.094.766c.279.36.441.797.465 1.252a2.24 2.24 0 0 1-1.337 2.171c-.417.183-.88.235-1.327.149s-.857-.307-1.176-.633c-.41-.373-.657-.893-.686-1.447a2.11 2.11 0 0 1 .529-1.512h0z"/></g><g fill="#7d4f7c"><path d="M545.067 343.856c.964.605 1.121 1.995.471 1.614a3.24 3.24 0 0 0-.964-.83c-.471-.224-1.345-.224-1.39-.493-.134-.695 1.233-.695 1.883-.291zm-3.228-3.274c.964.605 1.121 1.995.449 1.592-.262-.334-.59-.609-.964-.807-.449-.224-1.323-.224-1.368-.493-.134-.695 1.233-.695 1.883-.292zm-5.021-1.434c.942.605 1.121 1.995.448 1.591-.261-.333-.589-.608-.963-.807-.449-.224-1.323-.224-1.39-.493-.112-.695 1.255-.695 1.905-.291zm-4.012 2.377c.964.605 1.143 1.995.47 1.591-.261-.333-.589-.608-.963-.807-.449-.224-1.345-.224-1.39-.493-.112-.695 1.255-.695 1.883-.291zm4.685 2.869c.963.605 1.12 1.995.448 1.591a3.04 3.04 0 0 0-.964-.807c-.448-.224-1.323-.224-1.39-.493-.112-.695 1.256-.695 1.906-.291zm3.855 1.927c.964.605 1.121 1.995.448 1.614a2.78 2.78 0 0 0-.941-.83c-.471-.224-1.345-.224-1.39-.493-.134-.695 1.233-.672 1.883-.291zm4.394 2.556c.963.605 1.12 2.017.47 1.614a3.24 3.24 0 0 0-.964-.762c-.47-.202-1.345-.224-1.389-.493-.135-.763 1.233-.74 1.883-.359zm1.927 4.348c.964.605 1.144 2.018.471 1.614a3.24 3.24 0 0 0-.964-.829c-.471-.202-1.345-.224-1.39-.493-.134-.695 1.256-.673 1.883-.292zm.449 4.439c.851.673.851 2.04.246 1.569-.201-.353-.476-.659-.807-.896-.403-.247-1.233-.382-1.255-.628-.022-.673 1.278-.493 1.816-.045zm.829 3.878c.852.695.852 2.04.247 1.569-.193-.359-.47-.667-.807-.897-.404-.246-1.233-.381-1.256-.627-.089-.65 1.278-.493 1.816-.045zm-5.245-1.054c.852.695.829 2.04.246 1.569-.201-.353-.476-.659-.807-.896-.403-.247-1.233-.381-1.255-.628-.045-.672 1.278-.493 1.816-.045zm-.135-5.155c.852.672.83 2.04.247 1.569a2.84 2.84 0 0 0-.807-.897c-.404-.246-1.233-.381-1.255-.627-.045-.673 1.277-.493 1.815-.045zm-2.488-4.438c.852.672.829 2.017.247 1.569a2.83 2.83 0 0 0-.807-.897c-.404-.247-1.233-.381-1.256-.628-.044-.672 1.278-.493 1.816-.044zm-5.245-1.346c.852.672.829 2.017.246 1.569a2.83 2.83 0 0 0-.807-.897c-.403-.246-1.255-.381-1.255-.627-.157-.673 1.143-.516 1.816-.045zm1.008 5.089c.852.672.83 2.04.247 1.569-.201-.354-.476-.66-.807-.897-.403-.246-1.255-.381-1.255-.628-.045-.672 1.278-.47 1.815-.044zm3.475 2.824c.852.672.829 2.04.247 1.569-.202-.353-.477-.659-.807-.897-.404-.246-1.233-.381-1.256-.627.023-.673 1.345-.493 1.816-.045zm-8.002-11.634c.851.673.829 2.018.246 1.57a3.17 3.17 0 0 0-.807-.897c-.403-.269-1.255-.381-1.255-.628-.045-.627 1.255-.515 1.816-.045zm-.964 5.425c.851.672.829 2.017.246 1.569a2.83 2.83 0 0 0-.807-.897c-.403-.246-1.255-.381-1.255-.627-.112-.673 1.188-.493 1.816-.045z"/></g><path d="M505.324 349.19h21.609 17.013 21.609l6.434 71.084h-28.043-17.013-28.042l6.433-71.084z" fill="#b49061"/><path d="M513.73 349.19h21.609 17.013 21.609l6.434 71.084h-28.043-17.013-28.043l6.434-71.084z" fill="#e2c077"/><g fill="#764633"><path d="M529.6 359.615a1.66 1.66 0 0 0 1.659-1.659 1.66 1.66 0 0 0-1.659-1.659 1.67 1.67 0 0 0-.635.126c-.201.084-.384.206-.538.36s-.276.337-.359.538-.127.417-.127.635a1.65 1.65 0 0 0 .127.635c.083.201.205.384.359.538s.337.276.538.359a1.65 1.65 0 0 0 .635.127h0zm26.832 0c.328 0 .649-.098.922-.28a1.65 1.65 0 0 0 .61-.744 1.66 1.66 0 0 0 .095-.959c-.064-.322-.222-.617-.454-.849a1.66 1.66 0 0 0-.849-.454c-.322-.064-.656-.031-.959.094a1.66 1.66 0 0 0-.744.611c-.183.273-.28.594-.28.922a1.66 1.66 0 0 0 1.659 1.659h0z"/></g><path d="M555.625 358.449a.83.83 0 0 1 .829-.83c.22 0 .431.088.587.243s.243.367.243.587c-.146 3.674-1.708 7.15-4.36 9.698s-6.186 3.972-9.863 3.972-7.212-1.424-9.863-3.972-4.214-6.024-4.36-9.698a.83.83 0 0 1 .019-.357.82.82 0 0 1 .451-.532c.109-.05.228-.077.348-.077a.84.84 0 0 1 .633.294.82.82 0 0 1 .167.315c.032.116.038.238.018.357 0 3.335 1.325 6.534 3.684 8.892a12.57 12.57 0 0 0 8.892 3.683c3.335 0 6.533-1.324 8.892-3.683s3.683-5.557 3.683-8.892h0z" fill="#e0a519"/><path d="M560.33 377.965h-33.915c-3.124.012-6.116 1.258-8.324 3.466s-3.455 5.201-3.467 8.325h0c.012 3.124 1.258 6.116 3.467 8.325s5.2 3.454 8.324 3.466h33.915c3.127-.006 6.125-1.249 8.339-3.459a11.84 11.84 0 0 0 3.474-8.332h0a11.84 11.84 0 0 0-3.474-8.332c-2.214-2.21-5.212-3.453-8.339-3.459h0z" fill="#f26333"/></g><g fill="#fff"><path d="M533.068 384.882h2.561c1.167 0 2.013.167 2.538.501s.794.857.794 1.581c0 .492-.116.895-.349 1.211a1.38 1.38 0 0 1-.917.568v.056c.521.117.896.334 1.125.653s.349.743.349 1.273c0 .75-.272 1.335-.816 1.756s-1.276.63-2.206.63h-3.079v-8.229zm1.745 3.259h1.013c.473 0 .814-.073 1.024-.22s.321-.388.321-.726c0-.315-.116-.54-.349-.675s-.593-.208-1.092-.208h-.917v1.829zm0 1.385v2.144h1.137c.48 0 .835-.092 1.064-.276s.343-.465.343-.844c0-.683-.488-1.024-1.464-1.024h-1.08zm12.698-4.644v5.325c0 .608-.137 1.14-.411 1.598s-.662.809-1.176 1.053-1.122.366-1.824.366c-1.058 0-1.88-.27-2.465-.811s-.878-1.287-.878-2.229v-5.302h1.739v5.038c0 .634.127 1.099.383 1.396s.677.444 1.266.444c.57 0 .983-.148 1.238-.444s.389-.77.389-1.408v-5.026h1.739zm4.576 3.388l1.717-3.388h1.88l-2.73 5.026v3.203h-1.734v-3.146l-2.73-5.083h1.891l1.706 3.388z"/></g><g class="C"><path d="M470.602 641.348c.964 4.259-.247 13.45-1.906 22.416h106.341l34.991-100.606c.224-.493.426-1.009.605-1.524l2.242-6.972 5.514-16.297c1.515-4.513 1.188-9.442-.911-13.715a18.07 18.07 0 0 0-10.297-9.105h0c-3.085-1.036-6.393-1.219-9.574-.528a18.04 18.04 0 0 0-8.493 4.451c.737-4.238-.065-8.599-2.259-12.298s-5.639-6.493-9.711-7.877h0a18.04 18.04 0 0 0-13.718.903c-4.275 2.1-7.546 5.804-9.101 10.305l-2.242 6.725 3.923-11.724c1.521-4.513 1.197-9.444-.903-13.719s-5.804-7.546-10.305-9.101h0a17.94 17.94 0 0 0-11.118-.128 17.93 17.93 0 0 0-9.056 6.45l18.852-59.718c1.484-4.514 1.143-9.43-.952-13.695s-5.776-7.541-10.256-9.125h0a17.94 17.94 0 0 0-6.956-.941 17.92 17.92 0 0 0-6.783 1.802c-2.121 1.041-4.015 2.492-5.573 4.267a17.95 17.95 0 0 0-3.508 6.08l-26.54 81.798a18.58 18.58 0 0 0-.762 3.071l-15.467 47.277c-69.287-61.713-87.444-16.498-70.767-2.824 18.538 15.265 21.923 20.914 40.483 36.135 11.387 19.458 11.163 30.554 34.207 58.217z" class="F"/><path d="M537.199 426.147l1.323-4.685-22.864-6.456-1.323 4.707c-.843 3.029-.453 6.269 1.084 9.011a11.9 11.9 0 0 0 7.12 5.627h0a11.9 11.9 0 0 0 9.025-1.074c2.747-1.538 4.774-4.102 5.635-7.13h0z" fill="#e6b8a2"/></g></g><path d="M582.318 540.853a4.18 4.18 0 0 1-4.064-3.18c-.466-1.873.401-3.824 2.099-4.727 45.244-24.122 82.547-56.509 105.091-91.155 10.85-16.65 17.621-32.894 20.184-48.237 2.601-15.561.706-29.537-5.637-41.534a4.21 4.21 0 0 1 1.733-5.676 4.17 4.17 0 0 1 5.649 1.74c7.223 13.669 9.411 29.434 6.522 46.862-2.76 16.506-9.97 33.811-21.432 51.435-23.302 35.83-61.718 69.203-108.172 93.981a4.14 4.14 0 0 1-1.973.491z" fill="#faad14"/><defs><clipPath id="A"><path fill="#fff" transform="translate(390.129 248.854)" d="M0 0h283v415H0z"/></clipPath></defs></svg>