<svg width="1128" height="848" viewBox="0 0 1128 848" fill="none" xmlns="http://www.w3.org/2000/svg">
<path d="M880.581 243.492C988.349 344.17 1106.04 442.012 1124.48 558.288C1142.91 674.564 1062.08 809.274 954.317 839.761C846.549 870.248 711.839 796.512 584.219 789.422C457.308 781.623 336.778 841.179 228.301 810.692C119.824 780.205 21.9818 659.675 3.54781 520.711C-15.5952 381.747 43.9608 224.349 152.438 123.671C261.624 22.9929 419.022 -20.9651 547.351 9.52189C674.971 39.2999 772.813 142.814 880.581 243.492Z" fill="white"/>
<path opacity="0.163388" fill-rule="evenodd" clip-rule="evenodd" d="M861.502 468.92H802.325C794.909 468.92 788.842 462.851 788.842 455.432V396.236C788.842 388.818 794.909 382.748 802.325 382.748H861.502C868.918 382.748 874.986 388.818 874.986 396.236V455.432C874.986 462.851 868.918 468.92 861.502 468.92Z" fill="#597EF7"/>
<path fill-rule="evenodd" clip-rule="evenodd" d="M278.722 417.658H252.47C249.161 417.658 246.453 414.772 246.453 411.246V382.935C246.453 379.408 249.161 376.522 252.47 376.522H278.722C282.032 376.522 284.739 379.408 284.739 382.935V411.246C284.739 414.772 282.032 417.658 278.722 417.658Z" fill="#0BB8E4"/>
<path fill-rule="evenodd" clip-rule="evenodd" d="M861.86 580.624C858.55 580.624 855.843 577.937 855.843 574.654V548.295C855.843 545.012 858.55 542.325 861.86 542.325H888.111C891.421 542.325 894.129 545.012 894.129 548.295V574.654C894.129 577.937 891.421 580.624 888.111 580.624H861.86Z" fill="#FF7A46"/>
<path opacity="0.49707" fill-rule="evenodd" clip-rule="evenodd" d="M230.24 293.789C221.379 293.789 214.129 286.538 214.129 277.677V206.965C214.129 198.104 221.379 190.854 230.24 190.854H300.952C309.814 190.854 317.064 198.104 317.064 206.965V277.677C317.064 286.538 309.814 293.789 300.952 293.789H230.24Z" fill="#ADC6FF"/>
<path d="M359.575 537.854C358.026 537.854 356.602 536.996 355.877 535.621C348.655 521.947 346.465 506.171 349.377 488.74C352.133 472.227 359.347 454.915 370.818 437.279C394.131 401.438 432.564 368.047 479.034 343.259C525.505 318.471 574.565 305.202 617.186 305.878C638.15 306.21 656.467 309.905 671.624 316.861C687.634 324.206 699.41 334.861 706.64 348.54C707.722 350.588 706.947 353.13 704.907 354.217C702.868 355.305 700.338 354.525 699.255 352.476C692.91 340.473 682.447 331.06 668.154 324.501C654.049 318.033 636.857 314.591 617.051 314.26C575.825 313.596 528.2 326.549 482.957 350.662C437.714 374.774 400.37 407.198 377.815 441.875C366.981 458.536 360.187 474.767 357.622 490.129C355.02 505.696 356.921 519.677 363.266 531.68C363.952 532.979 363.913 534.543 363.162 535.806C362.412 537.068 361.059 537.845 359.596 537.854H359.575Z" fill="#FF7946"/>
<g clip-path="url(#clip0_413_7731)">
<path fill-rule="evenodd" clip-rule="evenodd" d="M416.781 411.106C414.54 414.087 408.196 418.189 401.359 422.135L430.814 502.162L501.087 477.19L502.208 367.662L474.412 358.202L476.788 296.579C476.945 291.961 471.633 289.742 465.244 288.554C462.398 269.208 439.601 256.588 439.601 275.754C439.601 299.74 439.825 323.725 439.87 347.734C432.181 368.85 423.461 375.732 416.781 411.106Z" fill="#E3AB92"/>
<path fill-rule="evenodd" clip-rule="evenodd" d="M455.807 494.204L501.087 477.19L502.208 367.662L474.412 358.202L476.788 296.579C476.945 291.961 471.633 289.742 465.244 288.553C464.169 281.642 460.75 275.31 455.561 270.62V491.178C455.561 492.192 455.643 493.204 455.807 494.204V494.204Z" fill="#C88972"/>
<path fill-rule="evenodd" clip-rule="evenodd" d="M460.537 410.993C460.562 410.368 460.341 409.758 459.922 409.293C459.504 408.828 458.92 408.545 458.295 408.505C457.669 408.474 457.055 408.693 456.589 409.113C456.123 409.533 455.842 410.12 455.807 410.746C455.701 419.094 454.656 427.403 452.691 435.517C451.729 439.918 449.225 443.83 445.63 446.546C438.704 451.321 436.171 451.747 436.171 451.747C435.86 451.8 435.563 451.913 435.297 452.081C435.03 452.249 434.799 452.467 434.617 452.725C434.435 452.982 434.305 453.272 434.235 453.579C434.165 453.886 434.157 454.204 434.21 454.515C434.263 454.826 434.376 455.123 434.544 455.389C434.712 455.656 434.93 455.887 435.188 456.069C435.445 456.251 435.735 456.381 436.042 456.451C436.349 456.521 436.667 456.529 436.978 456.476C436.978 456.476 440.475 455.938 448.41 450.603C452.95 447.286 456.135 442.436 457.376 436.952C459.409 428.446 460.469 419.738 460.537 410.993V410.993Z" fill="#C88972"/>
<path fill-rule="evenodd" clip-rule="evenodd" d="M655.129 316.866H588.845C584.1 316.901 579.559 318.802 576.204 322.158C572.848 325.513 570.948 330.054 570.913 334.8C570.948 339.545 572.848 344.086 576.204 347.441C579.559 350.797 584.1 352.698 588.845 352.733H655.129C659.874 352.698 664.415 350.797 667.77 347.441C671.126 344.086 673.026 339.545 673.062 334.8V334.8C673.026 330.054 671.126 325.513 667.77 322.158C664.415 318.802 659.874 316.901 655.129 316.866V316.866Z" fill="#E3AB92"/>
<path fill-rule="evenodd" clip-rule="evenodd" d="M603.483 248.854H476.116C471.805 249.034 467.739 250.908 464.802 254.069C461.864 257.229 460.291 261.42 460.425 265.733V491.223C460.291 495.535 461.864 499.727 464.802 502.887C467.739 506.048 471.805 507.922 476.116 508.102H603.483C607.792 507.916 611.854 506.04 614.79 502.881C617.727 499.722 619.302 495.534 619.174 491.223V265.733C619.302 261.422 617.727 257.234 614.79 254.075C611.854 250.916 607.792 249.04 603.483 248.854V248.854Z" fill="#363D4E"/>
<path fill-rule="evenodd" clip-rule="evenodd" d="M599.47 257.013H562.372V257.977C562.366 260.068 561.533 262.071 560.055 263.55C558.576 265.028 556.573 265.861 554.482 265.867H530.138C528.043 265.867 526.034 265.037 524.551 263.558C523.068 262.078 522.231 260.071 522.225 257.977V257.013H480.128C477.106 257.124 474.25 258.426 472.184 260.635C470.118 262.844 469.009 265.781 469.1 268.804V461.363C469.009 464.389 470.117 467.328 472.182 469.54C474.248 471.753 477.104 473.06 480.128 473.177H599.47C602.495 473.06 605.351 471.753 607.416 469.54C609.482 467.328 610.59 464.389 610.499 461.363V268.804C610.59 265.781 609.481 262.844 607.415 260.635C605.349 258.426 602.493 257.124 599.47 257.013V257.013Z" fill="#FFEBE4"/>
<path fill-rule="evenodd" clip-rule="evenodd" d="M609.311 466.698C610.101 465.031 610.507 463.208 610.499 461.363V430.697H598.215C593.47 430.732 588.929 432.633 585.574 435.989C582.218 439.344 580.318 443.885 580.282 448.63C580.318 453.376 582.218 457.917 585.574 461.272C588.929 464.628 593.47 466.529 598.215 466.564L609.311 466.698ZM610.499 430.563V394.561H598.215C593.47 394.597 588.929 396.497 585.574 399.853C582.218 403.208 580.318 407.749 580.282 412.495C580.318 417.24 582.218 421.781 585.574 425.137C588.929 428.492 593.47 430.393 598.215 430.428L610.499 430.563ZM610.499 394.427V358.426H598.215C593.47 358.461 588.929 360.362 585.574 363.717C582.218 367.073 580.318 371.614 580.282 376.359C580.318 381.104 582.218 385.645 585.574 389.001C588.929 392.357 593.47 394.257 598.215 394.292L610.499 394.427Z" fill="#F0CA0C"/>
<path fill-rule="evenodd" clip-rule="evenodd" d="M594.113 266.63H565.555C564.077 269.21 561.972 271.376 559.436 272.929C556.7 274.613 553.547 275.499 550.335 275.485H525.991C522.779 275.493 519.629 274.608 516.89 272.929C514.354 271.376 512.249 269.21 510.771 266.63H481.003C480.832 266.64 480.666 266.69 480.518 266.776C480.371 266.861 480.245 266.98 480.151 267.123C479.8 267.615 479.605 268.201 479.59 268.804V461.364H477.192V268.804C477.214 267.672 477.59 266.574 478.268 265.666C478.577 265.227 478.987 264.868 479.462 264.619C479.938 264.369 480.466 264.236 481.003 264.231H512.228L512.564 264.881C513.83 267.357 515.757 269.434 518.131 270.882C520.505 272.33 523.233 273.093 526.014 273.086H550.335C553.106 273.075 555.821 272.299 558.18 270.844C560.564 269.393 562.502 267.315 563.784 264.837L564.121 264.187H594.113V266.63Z" fill="white"/>
<path d="M548.004 478.513H531.573C529.827 478.513 528.412 479.928 528.412 481.673V498.105C528.412 499.851 529.827 501.266 531.573 501.266H548.004C549.749 501.266 551.164 499.851 551.164 498.105V481.673C551.164 479.928 549.749 478.513 548.004 478.513Z" fill="#323231"/>
<path fill-rule="evenodd" clip-rule="evenodd" d="M625.338 353.001H600.838C596.093 353.036 591.552 354.937 588.196 358.292C584.841 361.648 582.94 366.189 582.905 370.934V370.934C582.905 375.691 584.794 380.252 588.157 383.615C591.52 386.978 596.082 388.868 600.838 388.868H625.495C630.24 388.832 634.781 386.932 638.137 383.576C641.492 380.221 643.393 375.68 643.428 370.934C643.392 366.162 641.47 361.597 638.081 358.237C634.692 354.877 630.111 352.995 625.338 353.001V353.001Z" fill="#E3AB92"/>
<path fill-rule="evenodd" clip-rule="evenodd" d="M625.338 389.137H600.838C596.093 389.172 591.552 391.073 588.196 394.428C584.841 397.784 582.94 402.325 582.905 407.07C582.905 411.826 584.794 416.388 588.157 419.751C591.52 423.114 596.082 425.003 600.838 425.003H625.495C630.24 424.968 634.781 423.068 638.137 419.712C641.492 416.356 643.393 411.815 643.428 407.07C643.392 402.298 641.47 397.733 638.081 394.373C634.692 391.013 630.111 389.131 625.338 389.137V389.137Z" fill="#E3AB92"/>
<path fill-rule="evenodd" clip-rule="evenodd" d="M625.338 425.272H600.838C596.093 425.308 591.552 427.208 588.196 430.564C584.841 433.92 582.94 438.46 582.905 443.206C582.905 447.962 584.794 452.523 588.157 455.887C591.52 459.25 596.082 461.139 600.838 461.139H625.495C630.24 461.104 634.781 459.203 638.137 455.848C641.492 452.492 643.393 447.951 643.428 443.206C643.392 438.433 641.47 433.869 638.081 430.509C634.692 427.149 630.111 425.266 625.338 425.272V425.272Z" fill="#E3AB92"/>
<path fill-rule="evenodd" clip-rule="evenodd" d="M607.025 359.144H602.115V382.883H607.025C610.17 382.871 613.182 381.615 615.404 379.389C617.626 377.162 618.877 374.147 618.883 371.002V371.002C618.877 367.859 617.625 364.846 615.403 362.623C613.18 360.401 610.168 359.149 607.025 359.144V359.144Z" fill="#E6B8A2"/>
<path fill-rule="evenodd" clip-rule="evenodd" d="M607.025 395.279H602.115V419.019H607.025C610.17 419.007 613.182 417.75 615.404 415.524C617.626 413.298 618.877 410.283 618.883 407.138C618.877 403.994 617.625 400.982 615.403 398.759C613.18 396.536 610.168 395.285 607.025 395.279V395.279Z" fill="#E6B8A2"/>
<path fill-rule="evenodd" clip-rule="evenodd" d="M607.025 431.415H602.115V455.087H607.025C610.17 455.075 613.182 453.819 615.404 451.593C617.626 449.367 618.877 446.351 618.883 443.206C618.859 440.075 617.6 437.079 615.379 434.871C613.159 432.663 610.156 431.421 607.025 431.415V431.415Z" fill="#E6B8A2"/>
<path fill-rule="evenodd" clip-rule="evenodd" d="M582.905 371.002C582.905 375.759 584.794 380.32 588.157 383.683C591.52 387.046 596.082 388.936 600.838 388.936H608.975C604.201 388.936 599.622 387.039 596.247 383.663C592.871 380.288 590.975 375.709 590.975 370.935C590.975 366.161 592.871 361.583 596.247 358.207C599.622 354.831 604.201 352.935 608.975 352.935H600.838C596.915 352.946 593.103 354.234 589.977 356.604C586.851 358.974 584.581 362.297 583.51 366.071C583.076 367.678 582.872 369.338 582.905 371.002V371.002Z" fill="#D5A695"/>
<path fill-rule="evenodd" clip-rule="evenodd" d="M590.257 392.566C586.984 394.95 584.614 398.371 583.533 402.273C583.082 403.855 582.856 405.492 582.86 407.137C582.86 411.894 584.75 416.455 588.113 419.818C591.476 423.181 596.037 425.071 600.793 425.071H608.93C605.393 425.096 601.927 424.075 598.969 422.136C596.011 420.196 593.692 417.425 592.305 414.171C590.918 410.917 590.524 407.326 591.172 403.849C591.821 400.371 593.484 397.164 595.951 394.629L596.355 394.337C599.706 391.013 604.232 389.145 608.952 389.137H600.838C597.037 389.13 593.332 390.331 590.257 392.566V392.566Z" fill="#D5A695"/>
<path fill-rule="evenodd" clip-rule="evenodd" d="M590.257 428.702C586.984 431.086 584.614 434.507 583.533 438.409C583.081 439.99 582.854 441.628 582.86 443.273C582.86 448.029 584.75 452.591 588.113 455.954C591.476 459.317 596.037 461.206 600.793 461.206H608.93C605.393 461.232 601.927 460.211 598.969 458.271C596.011 456.332 593.692 453.561 592.305 450.307C590.918 447.053 590.524 443.462 591.172 439.984C591.821 436.507 593.484 433.299 595.951 430.764L596.355 430.428C599.706 427.104 604.232 425.236 608.952 425.228H600.838C597.032 425.234 593.326 426.45 590.257 428.702Z" fill="#D5A695"/>
<path fill-rule="evenodd" clip-rule="evenodd" d="M542.915 313.302C550.447 330.72 554.504 344.125 553.159 353.652C551.814 363.179 552.935 367.102 547.107 362.977C541.279 358.852 538.679 362.753 536.885 349.729C535.471 341.048 534.587 332.29 534.24 323.501C534.173 317.157 542.915 313.302 542.915 313.302Z" fill="#506422"/>
<path fill-rule="evenodd" clip-rule="evenodd" d="M549.797 313.167C547.959 304.851 545.314 302.699 543.251 303.282C541.189 303.865 541.548 303.618 540.225 302.632C538.903 301.645 536.325 302.273 535.54 306.196C535.184 310.07 535.963 313.965 537.782 317.404C538.679 318.592 537.984 320.386 540.539 320.834C543.095 321.282 549.797 313.167 549.797 313.167Z" fill="#506422"/>
<path fill-rule="evenodd" clip-rule="evenodd" d="M548.698 310.387C550.593 311.419 552.15 312.975 553.182 314.87C554.442 315.334 555.554 316.128 556.402 317.169C557.25 318.21 557.802 319.46 558.001 320.788C559.099 325.742 558.629 328.006 559.57 329.934C560.126 330.828 560.494 331.826 560.652 332.866C560.81 333.907 560.755 334.968 560.489 335.987C560.056 337.274 559.762 338.604 559.615 339.955C561.108 342.915 561.474 346.316 560.646 349.526C559.032 354.01 557.082 356.095 555.199 355.355C553.316 354.615 548.474 351.051 548.138 346.567C547.802 342.084 550.223 340.089 546.95 337.601C543.677 335.113 541.66 333.566 542.915 330.091C544.17 326.617 545.628 324.913 543.229 321.461C540.831 318.009 543.229 317.359 544.574 315.117C545.919 312.875 543.207 306.643 548.698 310.387Z" fill="#637D2A"/>
<path fill-rule="evenodd" clip-rule="evenodd" d="M542.086 351.835C545.112 349.347 548.34 342.869 545.695 339.641C543.05 336.413 540.92 334.328 542.355 328.791C543.789 323.254 540.36 323.972 540.113 319.824C539.867 315.677 541.369 314.96 538.499 312.001C535.63 309.042 539.418 306.868 536.93 305.052C534.442 303.236 532.447 304.76 531.685 308.751C530.923 312.741 527.067 310.073 526.552 316.283C526.036 322.492 529.398 321.685 526.552 327.491C523.705 333.297 530.743 334.059 529.802 338.072C529.224 340.247 529.168 342.528 529.639 344.73C530.111 346.931 531.096 348.989 532.514 350.737C535.832 354.66 542.557 358.269 542.086 351.835Z" fill="#637D2A"/>
<path fill-rule="evenodd" clip-rule="evenodd" d="M550.38 320.722C551.164 325.205 554.123 329.98 557.553 339.193C560.982 348.406 562.933 354.75 559.212 363.134C555.491 371.518 549.416 370.958 541.57 366.026C533.725 361.094 534.263 353.674 533.344 345.044C532.425 336.413 530.564 326.931 531.349 321.305C531.585 318.766 532.135 316.266 532.985 313.862C532.985 313.862 534.689 326.057 537.625 339.731C540.562 353.405 545.605 358.584 547.219 359.66C548.833 360.736 552.845 353.921 550.783 339.103C548.721 324.286 548.519 319.96 550.38 320.722Z" fill="#C0C8A1"/>
<path fill-rule="evenodd" clip-rule="evenodd" d="M549.393 370.509C546.547 370.195 547.354 366.608 552.352 366.9C556.006 367.101 555.827 371.204 549.393 370.509Z" fill="#8E9F6A"/>
<path fill-rule="evenodd" clip-rule="evenodd" d="M550.043 325.765C550.043 326.214 550.043 326.684 550.223 327.155C550.305 327.177 550.379 327.223 550.435 327.286C550.49 327.35 550.526 327.43 550.537 327.514C552.778 336.705 560.736 353.696 551.859 362.573C557.53 351.589 555.804 345.447 551.68 334.194C552.629 337.913 553.17 341.723 553.294 345.559C553.294 353.943 551.837 362.327 548.676 362.417C545.515 362.506 540.27 357.933 537.67 346.389C536.997 343.474 536.415 340.246 535.899 337.108C536.213 344.304 537.468 353.293 540.203 357.283C541.741 359.688 543.613 361.861 545.762 363.739C543.425 362.049 541.425 359.935 539.867 357.507C535.383 351.141 533.59 318.816 532.582 320.116C531.573 321.416 533.299 355.804 537.266 360.085C539.71 362.73 544.439 368.245 548.116 366.631C548.902 366.302 549.733 366.09 550.581 366.003C551.26 365.952 551.942 365.952 552.621 366.003C555.244 366.003 554.37 367.102 556.028 364.546C558.249 361.235 559.406 357.324 559.346 353.338C558.92 346.433 556.275 338.969 551.321 326.102C550.918 325.07 549.842 323.344 550.043 325.765Z" fill="#ECEFE9"/>
<path fill-rule="evenodd" clip-rule="evenodd" d="M548.474 337.489C546.703 334.956 543.319 334.194 544.17 331.459C545.022 328.724 547.443 325.967 545.74 322.717C544.036 319.466 542.265 319.668 544.552 317.74C546.838 315.812 547.129 315.05 547.398 313.257C547.667 311.463 549.931 312.629 551.433 315.185C552.935 317.74 555.916 317.426 556.634 320.834C557.351 324.241 555.625 325.496 556.477 327.222C557.329 328.948 560.31 332.109 560.019 333.768C559.813 334.807 559.458 335.811 558.965 336.749C558.811 334.943 558.134 333.221 557.015 331.795C555.103 329.167 554.154 325.962 554.325 322.717C554.168 318.233 551.03 316.261 549.057 318.099C547.085 319.937 548.698 322.246 547.779 325.407C546.86 328.567 544.798 329.554 546.502 331.19C548.205 332.826 549.595 335.673 549.169 336.817C548.743 337.96 548.474 337.489 548.474 337.489Z" fill="#69822C"/>
<path fill-rule="evenodd" clip-rule="evenodd" d="M542.041 348.249C542.971 347.352 543.69 346.259 544.144 345.048C544.597 343.838 544.775 342.542 544.664 341.255C544.327 339.663 542.422 338.049 541.413 336.323C540.811 335.617 540.371 334.787 540.123 333.893C539.875 332.998 539.826 332.06 539.979 331.145C540.494 328.657 541.906 326.661 540.763 324.24C539.62 321.819 537.804 320.542 538.835 318.547C539.364 317.585 539.521 316.462 539.277 315.392C539.034 314.322 538.406 313.379 537.513 312.741C535.832 310.88 535.832 311.62 535.832 309.02C535.204 311.665 534.756 312.203 536.415 314.175C537.535 315.476 538.006 316.977 536.953 318.21C534.98 320.452 537.804 321.483 539.015 324.196C539.956 326.437 539.015 329.957 538.723 332.154C538.141 335.538 539.755 336.009 542.086 338.879C544.798 342.443 543.453 344.303 542.041 348.249Z" fill="#69822C"/>
<path fill-rule="evenodd" clip-rule="evenodd" d="M550.021 370.352C547.779 370.128 548.497 367.46 552.263 367.684C554.975 367.841 554.796 370.89 550.021 370.352Z" fill="#AEB994"/>
<path fill-rule="evenodd" clip-rule="evenodd" d="M563.089 337.265C567.544 326.218 570.229 314.537 571.047 302.654C571.047 297.408 566.093 301.69 566.004 306.666C565.914 311.643 560.982 310.97 562.462 317.09C563.941 323.21 562.462 322.627 561.296 326.976C560.131 331.324 563.089 337.265 563.089 337.265Z" fill="#637D2A"/>
<path fill-rule="evenodd" clip-rule="evenodd" d="M563.269 337.063C568.492 318.457 572.594 308.415 577.368 303.752C582.143 299.089 579.475 307.002 577.884 310.477C576.292 313.952 578.265 312.719 577.884 316.126C577.503 319.533 572.482 321.73 571.966 323.232C571.451 324.734 574.432 323.927 571.72 327.715C569.123 331.024 566.299 334.147 563.269 337.063Z" fill="#576E26"/>
<path fill-rule="evenodd" clip-rule="evenodd" d="M563.784 336.772C568.268 329.8 577.615 317.561 584.766 312.719C591.916 307.877 584.474 316.306 583.264 317.651C582.053 318.996 584.228 322.358 582.3 323.995C580.372 325.631 579.408 324.622 578.265 327.783C577.122 330.944 563.784 336.772 563.784 336.772Z" fill="#637D2A"/>
<path fill-rule="evenodd" clip-rule="evenodd" d="M566.452 319.534C568.561 313.387 569.533 306.907 569.321 300.412C568.284 301.1 567.437 302.037 566.858 303.138C566.278 304.238 565.984 305.467 566.004 306.711C566.004 311.688 560.982 311.015 562.462 317.135C563.941 323.255 562.462 322.672 561.296 327.021C561.093 327.819 561.002 328.641 561.027 329.464C562.91 328.657 564.972 324.219 566.452 319.534Z" fill="#7B913F"/>
<path fill-rule="evenodd" clip-rule="evenodd" d="M577.368 303.752C574.185 306.845 571.316 312.337 568.2 321.125C567.214 323.927 566.183 327.088 565.129 330.607C565.326 330.454 565.506 330.281 565.667 330.091C566.9 328.724 568.85 325.451 570.33 323.366C572.571 320.116 576.091 317.09 576.068 315.655C575.597 312.908 575.924 310.084 577.01 307.518C577.891 306.011 578.513 304.367 578.848 302.653C578.318 302.967 577.822 303.335 577.368 303.752V303.752Z" fill="#7B913F"/>
<path fill-rule="evenodd" clip-rule="evenodd" d="M568.424 331.795C569.209 331.795 570.666 330.719 572.908 329.15C576.673 326.572 575.866 325.541 577.391 323.501C578.915 321.461 581.067 322.268 581.695 320.385C582.814 317.248 584.786 314.485 587.388 312.405C588.195 311.06 587.949 310.522 584.721 312.719C580.201 316.139 576.154 320.141 572.683 324.622C570.913 326.864 569.231 328.949 567.73 331.033C567.864 331.549 568.088 331.795 568.424 331.795Z" fill="#7B913F"/>
<path fill-rule="evenodd" clip-rule="evenodd" d="M554.19 335.381C547.04 340.761 535.832 369.41 538.073 378.668C536.841 382.86 536.168 383.488 535.182 382.927C533.792 382.165 533.545 379.52 532.156 381.47C531.191 382.91 530.436 384.48 529.914 386.133C529.914 386.133 531.662 382.277 533.052 383.488C534.442 384.698 534.666 387.859 542.22 381.448H542.355C545.78 379.968 548.84 377.757 551.321 374.969C559.884 366.563 571.025 347.778 569.747 341.95C568.335 334.552 560.489 330.696 554.19 335.381Z" fill="#D8D6A6"/>
<path fill-rule="evenodd" clip-rule="evenodd" d="M561.072 355.647C563.919 349.729 570.038 339.283 566.923 336.257C566.631 335.965 566.34 335.719 566.048 335.472L565.6 335.136C565.292 334.913 564.97 334.711 564.636 334.53L564.21 334.306C563.313 333.864 562.353 333.561 561.363 333.41C560.097 333.249 558.811 333.341 557.58 333.68C556.349 334.018 555.197 334.597 554.19 335.382C547.286 340.538 536.93 366.766 537.916 377.257C538.768 377.548 535.675 381.74 541.525 379.498C547.376 377.257 558.248 361.565 561.072 355.647Z" fill="#F6F2D1"/>
<path fill-rule="evenodd" clip-rule="evenodd" d="M558.248 337.556C551.366 337.063 538.858 366.989 543.543 366.698C547.69 366.339 566.9 338.184 558.248 337.556Z" fill="#FBFAED"/>
<path fill-rule="evenodd" clip-rule="evenodd" d="M538.32 343.138V401.87H538.185C537.58 403.775 534.89 405.21 531.685 405.21C530.555 405.22 529.432 405.03 528.367 404.65C527.295 405.028 526.165 405.218 525.027 405.21C523.897 405.218 522.775 405.028 521.71 404.65C520.645 405.028 519.522 405.218 518.392 405.21C515.164 405.21 512.497 403.775 511.869 401.87H511.735V343.138C511.735 329.845 518.46 330.988 521.665 324.914V321.686H528.39V324.914C531.707 330.988 538.32 330.428 538.32 343.138Z" fill="#55352A"/>
<path d="M538.32 343.564H511.735V359.525H538.32V343.564Z" fill="#C10016"/>
<path d="M528.367 318.076H521.71V321.685H528.367V318.076Z" fill="#C10016"/>
<path fill-rule="evenodd" clip-rule="evenodd" d="M515.971 401.018C515.937 401.234 515.827 401.431 515.661 401.573C515.494 401.715 515.282 401.794 515.064 401.794C514.845 401.794 514.633 401.715 514.466 401.573C514.3 401.431 514.19 401.234 514.156 401.018V343.138C514.156 333.88 517.271 331.279 520.387 328.701C521.032 328.193 521.645 327.646 522.225 327.065C522.397 326.899 522.626 326.807 522.864 326.807C523.103 326.807 523.332 326.899 523.503 327.065C523.667 327.233 523.759 327.458 523.759 327.693C523.759 327.927 523.667 328.153 523.503 328.32C522.875 328.948 522.203 329.508 521.553 330.046C518.773 332.288 515.994 334.687 515.994 343.115L515.971 401.018Z" fill="white"/>
<path fill-rule="evenodd" clip-rule="evenodd" d="M535.002 343.564H538.32V343.138C538.32 330.428 531.595 330.988 528.39 324.914V321.686H525.072V324.914C528.39 330.988 535.002 330.428 535.002 343.138V343.564Z" fill="#452C22"/>
<path d="M538.32 343.564H535.002V359.525H538.32V343.564Z" fill="#911B19"/>
<path fill-rule="evenodd" clip-rule="evenodd" d="M538.32 359.524H535.002V401.87H534.868C534.411 402.78 533.724 403.556 532.875 404.118C532.025 404.681 531.043 405.011 530.026 405.075C530.574 405.167 531.129 405.212 531.685 405.21C534.89 405.21 537.58 403.775 538.185 401.87H538.32V359.524Z" fill="#452C22"/>
<path fill-rule="evenodd" clip-rule="evenodd" d="M511.511 328.231C514.739 334.531 512.542 338.05 509.852 338.252C508.501 338.153 507.244 337.524 506.355 336.503C503.934 333.522 504.27 314.087 511.511 328.231Z" fill="#506422"/>
<path fill-rule="evenodd" clip-rule="evenodd" d="M504.45 327.088C505.301 331.056 507.521 330.249 507.453 328.836C507.386 327.424 503.127 320.834 504.45 327.088Z" fill="#637D2A"/>
<path fill-rule="evenodd" clip-rule="evenodd" d="M510.771 326.236C510.412 330.271 508.126 329.756 508.014 328.366C507.902 326.976 511.309 319.848 510.771 326.236Z" fill="#637D2A"/>
<path fill-rule="evenodd" clip-rule="evenodd" d="M508.44 324.465C509.807 328.299 507.498 328.792 506.826 327.559C506.153 326.326 506.288 318.346 508.44 324.465Z" fill="#637D2A"/>
<path fill-rule="evenodd" clip-rule="evenodd" d="M508.103 331.549C509.986 343.632 512.587 350.76 520.096 363.986C527.605 377.212 530.474 375.037 530.878 372.482C531.281 369.926 522.853 365.981 515.321 348.025C507.79 330.069 510.412 328.926 508.103 331.549Z" fill="#506422"/>
<path fill-rule="evenodd" clip-rule="evenodd" d="M530.542 371.271C528.883 368.514 521.777 363.403 515.321 348.025C508.372 331.459 510.054 329.195 508.597 331.011C510.457 341.928 513.08 348.944 520.275 361.475C526.44 372.28 529.421 372.818 530.542 371.271Z" fill="#637D2A"/>
<path fill-rule="evenodd" clip-rule="evenodd" d="M505.57 336.099C506.489 338.565 509.404 338.856 509.067 337.399C508.731 335.942 503.194 329.553 505.57 336.099Z" fill="#637D2A"/>
<path fill-rule="evenodd" clip-rule="evenodd" d="M513.416 333.723C513.416 339.327 510.928 338.206 510.681 336.682C510.435 335.157 513.416 328.118 513.416 333.723Z" fill="#637D2A"/>
<path fill-rule="evenodd" clip-rule="evenodd" d="M505.234 331.37C506.871 335.405 509.045 334.149 508.709 332.692C508.372 331.235 502.634 325.07 505.234 331.37Z" fill="#637D2A"/>
<path fill-rule="evenodd" clip-rule="evenodd" d="M511.668 329.351C512.026 333.655 509.426 333.543 509.157 332.086C508.888 330.629 511.174 322.492 511.668 329.351Z" fill="#637D2A"/>
<path fill-rule="evenodd" clip-rule="evenodd" d="M515.254 341.39C515.254 345.739 512.721 345.38 512.497 343.901C512.273 342.421 515.299 334.53 515.254 341.39Z" fill="#506422"/>
<path fill-rule="evenodd" clip-rule="evenodd" d="M510.928 348.72C512.631 352.71 514.806 351.41 514.447 349.953C514.088 348.496 508.193 342.421 510.928 348.72Z" fill="#506422"/>
<path fill-rule="evenodd" clip-rule="evenodd" d="M516.599 360.668C518.325 364.636 520.477 363.336 520.118 361.879C519.76 360.422 513.864 354.369 516.599 360.668Z" fill="#506422"/>
<path fill-rule="evenodd" clip-rule="evenodd" d="M520.141 353.27C521.441 357.417 518.975 357.865 518.28 356.52C517.585 355.175 517.899 346.724 520.141 353.27Z" fill="#506422"/>
<path fill-rule="evenodd" clip-rule="evenodd" d="M510.278 333.746C511.668 337.243 510.009 338.229 509.045 337.512C508.891 337.406 508.761 337.268 508.664 337.108C507.834 335.741 507.722 327.312 510.278 333.746Z" fill="#637D2A"/>
<path fill-rule="evenodd" clip-rule="evenodd" d="M504.607 326.617C505.077 329.15 506.153 328.634 506.086 327.738C506.019 326.841 503.867 322.604 504.607 326.617Z" fill="#7B913F"/>
<path fill-rule="evenodd" clip-rule="evenodd" d="M505.481 331.549C506.736 334.508 507.902 333.589 507.61 332.513C507.319 331.437 503.508 326.864 505.481 331.549Z" fill="#7B913F"/>
<path fill-rule="evenodd" clip-rule="evenodd" d="M505.795 335.875C507.027 338.834 508.215 337.915 507.902 336.839C507.588 335.763 503.822 331.212 505.795 335.875Z" fill="#7B913F"/>
<path fill-rule="evenodd" clip-rule="evenodd" d="M508.619 334.351C508.753 337.557 510.166 337.108 510.255 336.01C510.345 334.912 508.395 329.285 508.619 334.351Z" fill="#6D852C"/>
<path fill-rule="evenodd" clip-rule="evenodd" d="M510.121 329.352C509.314 332.445 510.793 332.445 511.219 331.392C511.645 330.338 511.399 324.442 510.121 329.352Z" fill="#7B913F"/>
<path fill-rule="evenodd" clip-rule="evenodd" d="M511.959 334.037C511.152 337.131 512.631 337.131 513.057 336.077C513.483 335.024 513.237 329.106 511.959 334.037Z" fill="#7B913F"/>
<path fill-rule="evenodd" clip-rule="evenodd" d="M509.404 325.698C508.26 328.365 509.605 328.545 510.098 327.693C510.592 326.841 511.174 321.483 509.404 325.698Z" fill="#7B913F"/>
<path fill-rule="evenodd" clip-rule="evenodd" d="M507.991 323.838C508.597 325.945 507.565 326.214 507.274 325.541C506.983 324.869 507.027 320.587 507.991 323.838Z" fill="#7B913F"/>
<path fill-rule="evenodd" clip-rule="evenodd" d="M508.933 327.985C510.659 331.975 508.215 332.647 507.409 331.392C506.602 330.137 506.288 321.685 508.933 327.985Z" fill="#637D2A"/>
<path fill-rule="evenodd" clip-rule="evenodd" d="M507.027 328.567C507.162 331.773 508.597 331.324 508.686 330.226C508.776 329.127 506.826 323.501 507.027 328.567Z" fill="#7B913F"/>
<path fill-rule="evenodd" clip-rule="evenodd" d="M513.797 340.919C512.99 344.012 514.492 343.99 514.895 342.959C515.299 341.928 515.075 336.01 513.797 340.919Z" fill="#637D2A"/>
<path fill-rule="evenodd" clip-rule="evenodd" d="M511.981 348.137C513.685 350.378 512.497 350.827 511.802 350.132C511.107 349.437 509.291 344.64 511.981 348.137Z" fill="#637D2A"/>
<path fill-rule="evenodd" clip-rule="evenodd" d="M519.917 353.27C520.656 355.938 519.356 355.938 518.998 355.064C518.639 354.189 518.729 349.034 519.917 353.27Z" fill="#637D2A"/>
<path fill-rule="evenodd" clip-rule="evenodd" d="M517.899 360.13C519.715 362.237 518.549 362.797 517.899 362.147C517.249 361.497 515.03 356.812 517.899 360.13Z" fill="#637D2A"/>
<path fill-rule="evenodd" clip-rule="evenodd" d="M537.087 328.859C536.258 329.142 535.495 329.592 534.848 330.182C534.2 330.772 533.68 331.489 533.321 332.289C532.528 333.907 532.158 335.7 532.249 337.5C532.339 339.3 532.885 341.047 533.837 342.578L534.532 343.273L534.061 342.443C533.34 341.07 532.931 339.553 532.866 338.003C532.8 336.453 533.078 334.907 533.68 333.477C533.962 332.613 534.445 331.828 535.087 331.185C535.73 330.543 536.515 330.061 537.379 329.778C537.507 329.732 537.615 329.641 537.681 329.521C537.747 329.401 537.767 329.261 537.737 329.128C537.683 329.009 537.586 328.915 537.465 328.865C537.344 328.815 537.209 328.813 537.087 328.859V328.859Z" fill="#506422"/>
<path fill-rule="evenodd" clip-rule="evenodd" d="M531.506 339.014C532.283 339.274 533.005 339.677 533.635 340.202C533.876 340.475 534.093 340.767 534.285 341.076L533.142 341.233L533.882 342.982L533.209 342.87C533.313 343.372 533.313 343.891 533.209 344.394C533.081 344.825 532.901 345.239 532.671 345.627C532.097 344.78 531.566 343.904 531.08 343.004C530.766 342.264 530.811 342.735 530.811 342.735V344.596H530.407L529.645 346.008L529.421 346.411C529.421 346.411 528.412 345.358 528.524 345.268C528.12 345.865 527.551 346.332 526.888 346.613C526.277 346.91 525.629 347.121 524.96 347.241C525.103 346.144 525.374 345.068 525.767 344.035C526.126 343.587 526.283 343.609 526.126 343.587H525.431L527.672 341.345C527.672 341.345 525.7 342.892 525.207 343.228C524.714 343.564 524.691 343.632 524.691 343.632L524.31 343.004C524.052 343.336 523.742 343.624 523.391 343.856C522.898 344.17 522.741 344.147 522.741 344.147V343.946L520.903 344.394L521.441 342.892H521.194L521.643 342.354C521.643 342.354 520.186 342.757 519.76 342.802C519.334 342.847 519.446 342.152 519.446 342.152C519.446 342.152 517.204 341.861 516.554 341.681C517.343 341.175 518.159 340.711 518.997 340.292C518.997 340.292 518.572 339.664 518.997 339.574C519.423 339.485 520.948 339.373 520.948 339.373L520.141 338.969H520.365L519.154 337.759L521.06 337.557V337.333C521.06 337.333 521.06 337.333 521.799 337.333C522.233 337.433 522.649 337.599 523.032 337.826L523.167 337.198C523.167 337.198 523.167 337.198 523.817 337.422C524.467 337.646 526.955 338.319 526.955 338.319L523.862 336.996L524.489 336.727C524.624 336.727 524.489 336.727 523.929 336.436C523.085 335.625 522.333 334.722 521.687 333.746C522.372 333.653 523.065 333.653 523.75 333.746C524.496 333.797 525.219 334.028 525.857 334.418C525.722 334.418 526.171 333.073 526.171 333.073L526.574 333.365L527.919 334.418L528.278 334.262L529.107 335.988C529.107 335.988 529.264 336.414 529.107 335.651C529.124 334.655 529.191 333.66 529.309 332.67C529.699 332.946 530.053 333.27 530.362 333.634C530.708 334.044 530.974 334.516 531.147 335.024L531.685 334.687L531.819 336.548L532.94 336.301C532.904 336.643 532.836 336.981 532.738 337.31C532.446 337.955 532.026 338.534 531.506 339.014V339.014Z" fill="#7B913F"/>
<path fill-rule="evenodd" clip-rule="evenodd" d="M531.864 339.17C532.514 339.399 533.115 339.749 533.635 340.201C533.876 340.474 534.093 340.766 534.285 341.075L533.142 341.232L533.882 342.981L533.209 342.869C533.313 343.371 533.313 343.89 533.209 344.393C533.081 344.825 532.901 345.239 532.671 345.626C532.097 344.779 531.566 343.903 531.08 343.003C530.766 342.263 530.811 342.734 530.811 342.734V344.595H530.407L529.645 346.007L529.421 346.411C529.421 346.411 528.412 345.357 528.524 345.267C528.12 345.864 527.551 346.331 526.888 346.612C526.277 346.909 525.629 347.12 524.96 347.24C525.103 346.143 525.374 345.068 525.767 344.034C526.126 343.586 526.283 343.608 526.126 343.586H525.431L527.672 341.344C527.672 341.344 525.7 342.891 525.207 343.227C524.714 343.564 524.691 343.631 524.691 343.631L524.31 343.003C524.052 343.336 523.742 343.623 523.391 343.855C522.898 344.169 522.741 344.146 522.741 344.146V343.945L520.903 344.393L521.441 342.891H521.194L521.643 342.353C521.643 342.353 520.186 342.757 519.76 342.801C519.334 342.846 519.446 342.151 519.446 342.151C519.446 342.151 517.204 341.86 516.554 341.681L520.724 341.12L528.838 339.327L531.864 339.17Z" fill="#687E2C"/>
<path fill-rule="evenodd" clip-rule="evenodd" d="M524.736 342.578C523.593 343.052 522.604 343.833 521.876 344.833C521.148 345.834 520.711 347.016 520.611 348.249C520.138 348.757 519.804 349.38 519.643 350.056C519.482 350.731 519.499 351.438 519.692 352.105C519.872 353.472 520.186 354.1 520.096 352.105C519.889 351.057 520.031 349.971 520.499 349.011C520.547 348.921 520.617 348.844 520.701 348.787C521.194 351.029 524.198 350.199 523.593 348.518C523.365 348.151 523.016 347.876 522.606 347.741C522.197 347.606 521.752 347.619 521.351 347.778C521.553 346.801 521.983 345.885 522.606 345.106C523.229 344.327 524.028 343.706 524.938 343.295C524.988 343.277 525.034 343.25 525.073 343.215C525.113 343.179 525.145 343.136 525.168 343.088C525.191 343.04 525.204 342.989 525.207 342.936C525.21 342.883 525.202 342.829 525.184 342.779C525.144 342.682 525.068 342.605 524.972 342.563C524.876 342.521 524.767 342.518 524.669 342.555L524.736 342.578ZM521.418 348.451C521.658 348.343 521.925 348.313 522.183 348.366C522.44 348.418 522.674 348.55 522.853 348.742C523.257 349.37 521.598 350.042 521.418 348.451Z" fill="#687E2C"/>
<path fill-rule="evenodd" clip-rule="evenodd" d="M536.078 340.403C532.873 341.793 530.093 343.564 530.048 345.694C530.071 348.339 530.51 350.964 531.349 353.472C531.864 353.988 541.301 360.197 542.198 360.87C543.095 361.542 543.767 363.605 545.157 361.385C546.547 359.166 548.295 356.655 546.21 352.643C544.126 348.63 541.167 340.56 536.078 340.403Z" fill="#4B2747"/>
<path fill-rule="evenodd" clip-rule="evenodd" d="M546.726 361.587C547.169 361.587 547.603 361.455 547.971 361.209C548.34 360.963 548.627 360.613 548.797 360.203C548.967 359.793 549.011 359.343 548.924 358.908C548.838 358.473 548.624 358.074 548.311 357.76C547.997 357.447 547.598 357.233 547.163 357.147C546.728 357.06 546.278 357.104 545.868 357.274C545.458 357.444 545.108 357.731 544.862 358.1C544.616 358.468 544.484 358.902 544.484 359.345C544.484 359.94 544.72 360.51 545.141 360.93C545.561 361.351 546.131 361.587 546.726 361.587Z" fill="#61345E"/>
<path fill-rule="evenodd" clip-rule="evenodd" d="M539.799 355.221C540.336 355.221 540.86 355.062 541.306 354.764C541.752 354.466 542.1 354.042 542.305 353.546C542.511 353.051 542.564 352.505 542.46 351.979C542.355 351.453 542.097 350.97 541.717 350.59C541.338 350.211 540.855 349.953 540.329 349.848C539.802 349.743 539.257 349.797 538.761 350.002C538.266 350.208 537.842 350.555 537.544 351.001C537.246 351.447 537.087 351.972 537.087 352.508C537.087 353.228 537.373 353.918 537.881 354.426C538.39 354.935 539.08 355.221 539.799 355.221V355.221Z" fill="#61345E"/>
<path fill-rule="evenodd" clip-rule="evenodd" d="M543.722 348.361C544.259 348.361 544.783 348.202 545.229 347.904C545.675 347.606 546.023 347.183 546.228 346.687C546.433 346.191 546.487 345.646 546.382 345.12C546.278 344.594 546.019 344.11 545.64 343.731C545.261 343.352 544.777 343.093 544.251 342.989C543.725 342.884 543.18 342.938 542.684 343.143C542.189 343.348 541.765 343.696 541.467 344.142C541.169 344.588 541.01 345.112 541.01 345.649C541.01 346.368 541.296 347.058 541.804 347.567C542.313 348.076 543.003 348.361 543.722 348.361V348.361Z" fill="#61345E"/>
<path fill-rule="evenodd" clip-rule="evenodd" d="M544.574 353.517C545.11 353.517 545.635 353.358 546.081 353.06C546.527 352.761 546.875 352.338 547.08 351.842C547.285 351.347 547.339 350.801 547.234 350.275C547.13 349.749 546.871 349.266 546.492 348.886C546.113 348.507 545.629 348.249 545.103 348.144C544.577 348.039 544.032 348.093 543.536 348.298C543.04 348.504 542.617 348.851 542.319 349.297C542.021 349.743 541.862 350.268 541.862 350.804C541.862 351.524 542.147 352.214 542.656 352.722C543.165 353.231 543.855 353.517 544.574 353.517V353.517Z" fill="#61345E"/>
<path fill-rule="evenodd" clip-rule="evenodd" d="M536.37 348.855C536.903 348.841 537.421 348.671 537.858 348.365C538.295 348.059 538.632 347.631 538.827 347.134C539.022 346.638 539.066 346.095 538.954 345.573C538.842 345.051 538.579 344.574 538.197 344.202C537.815 343.829 537.332 343.577 536.807 343.478C536.283 343.379 535.741 343.436 535.25 343.643C534.758 343.851 534.338 344.198 534.043 344.643C533.748 345.087 533.59 345.609 533.59 346.142C533.59 346.504 533.662 346.862 533.803 347.196C533.943 347.53 534.149 347.832 534.408 348.084C534.667 348.337 534.974 348.536 535.311 348.668C535.648 348.8 536.008 348.864 536.37 348.855V348.855Z" fill="#61345E"/>
<path fill-rule="evenodd" clip-rule="evenodd" d="M540.584 344.999C541.12 344.999 541.645 344.84 542.091 344.542C542.537 344.244 542.884 343.82 543.09 343.325C543.295 342.829 543.349 342.284 543.244 341.757C543.139 341.231 542.881 340.748 542.502 340.369C542.123 339.989 541.639 339.731 541.113 339.626C540.587 339.522 540.042 339.575 539.546 339.781C539.05 339.986 538.627 340.334 538.329 340.78C538.031 341.226 537.872 341.75 537.872 342.287C537.872 343.006 538.157 343.696 538.666 344.205C539.175 344.713 539.865 344.999 540.584 344.999V344.999Z" fill="#61345E"/>
<path fill-rule="evenodd" clip-rule="evenodd" d="M535.608 343.653C536.144 343.653 536.668 343.494 537.115 343.196C537.561 342.898 537.908 342.475 538.113 341.979C538.319 341.483 538.372 340.938 538.268 340.412C538.163 339.886 537.905 339.402 537.526 339.023C537.146 338.644 536.663 338.385 536.137 338.281C535.611 338.176 535.065 338.23 534.57 338.435C534.074 338.64 533.65 338.988 533.352 339.434C533.054 339.88 532.895 340.404 532.895 340.941C532.895 341.66 533.181 342.35 533.69 342.859C534.198 343.368 534.888 343.653 535.608 343.653Z" fill="#61345E"/>
<path fill-rule="evenodd" clip-rule="evenodd" d="M531.662 346.254C532.199 346.254 532.723 346.095 533.169 345.797C533.615 345.499 533.963 345.075 534.168 344.58C534.374 344.084 534.427 343.539 534.323 343.012C534.218 342.486 533.96 342.003 533.58 341.624C533.201 341.244 532.718 340.986 532.192 340.881C531.665 340.777 531.12 340.83 530.624 341.036C530.129 341.241 529.705 341.589 529.407 342.035C529.109 342.481 528.95 343.005 528.95 343.542C528.95 344.261 529.236 344.951 529.745 345.459C530.253 345.968 530.943 346.254 531.662 346.254V346.254Z" fill="#61345E"/>
<path fill-rule="evenodd" clip-rule="evenodd" d="M531.192 350.469C531.729 350.473 532.256 350.318 532.705 350.023C533.154 349.727 533.505 349.305 533.714 348.81C533.922 348.315 533.979 347.769 533.877 347.241C533.775 346.713 533.518 346.228 533.14 345.846C532.762 345.465 532.278 345.204 531.752 345.098C531.225 344.991 530.678 345.044 530.181 345.248C529.685 345.453 529.26 345.801 528.961 346.247C528.662 346.694 528.502 347.219 528.502 347.756C528.502 348.472 528.784 349.158 529.288 349.666C529.792 350.174 530.476 350.463 531.192 350.469Z" fill="#61345E"/>
<path fill-rule="evenodd" clip-rule="evenodd" d="M542.557 364.546C543.095 364.55 543.622 364.394 544.072 364.098C544.521 363.802 544.872 363.378 545.08 362.882C545.289 362.385 545.344 361.838 545.24 361.31C545.136 360.782 544.877 360.296 544.497 359.916C544.116 359.535 543.631 359.276 543.103 359.172C542.574 359.068 542.027 359.124 541.531 359.332C541.034 359.54 540.611 359.891 540.314 360.341C540.018 360.79 539.862 361.317 539.867 361.856C539.873 362.567 540.158 363.248 540.661 363.751C541.164 364.255 541.845 364.54 542.557 364.546V364.546Z" fill="#61345E"/>
<path fill-rule="evenodd" clip-rule="evenodd" d="M539.06 361.497C539.598 361.501 540.125 361.346 540.575 361.049C541.024 360.753 541.376 360.33 541.584 359.833C541.792 359.336 541.847 358.789 541.743 358.261C541.639 357.733 541.381 357.247 541 356.867C540.619 356.486 540.134 356.227 539.606 356.123C539.077 356.019 538.53 356.075 538.034 356.283C537.537 356.491 537.114 356.842 536.818 357.292C536.521 357.741 536.365 358.269 536.37 358.807C536.376 359.519 536.661 360.199 537.164 360.703C537.667 361.206 538.348 361.491 539.06 361.497V361.497Z" fill="#61345E"/>
<path fill-rule="evenodd" clip-rule="evenodd" d="M535.944 358.382C536.482 358.386 537.01 358.23 537.459 357.934C537.909 357.638 538.26 357.214 538.468 356.718C538.676 356.221 538.731 355.674 538.627 355.146C538.524 354.618 538.265 354.132 537.884 353.751C537.503 353.371 537.018 353.112 536.49 353.008C535.962 352.904 535.414 352.96 534.918 353.168C534.421 353.376 533.998 353.727 533.702 354.176C533.405 354.626 533.25 355.153 533.254 355.692C533.254 356.045 533.324 356.395 533.459 356.721C533.594 357.048 533.792 357.344 534.042 357.594C534.292 357.844 534.588 358.042 534.914 358.177C535.241 358.312 535.591 358.382 535.944 358.382V358.382Z" fill="#61345E"/>
<path fill-rule="evenodd" clip-rule="evenodd" d="M530.923 355.153C531.46 355.153 531.985 354.994 532.432 354.695C532.878 354.396 533.226 353.971 533.431 353.474C533.635 352.977 533.688 352.43 533.581 351.903C533.475 351.377 533.214 350.893 532.833 350.515C532.451 350.137 531.966 349.88 531.438 349.778C530.91 349.676 530.364 349.733 529.869 349.941C529.374 350.15 528.952 350.501 528.657 350.95C528.361 351.399 528.206 351.926 528.21 352.463C528.21 352.819 528.281 353.17 528.417 353.498C528.554 353.826 528.754 354.123 529.006 354.373C529.258 354.624 529.558 354.821 529.886 354.955C530.215 355.089 530.568 355.156 530.923 355.153V355.153Z" fill="#61345E"/>
<path fill-rule="evenodd" clip-rule="evenodd" d="M547.578 365.868C548.112 365.855 548.631 365.684 549.068 365.377C549.506 365.07 549.843 364.641 550.037 364.143C550.231 363.645 550.274 363.101 550.16 362.578C550.046 362.056 549.781 361.579 549.397 361.208C549.012 360.836 548.527 360.586 548.001 360.489C547.476 360.392 546.933 360.453 546.442 360.664C545.951 360.874 545.533 361.225 545.24 361.673C544.948 362.12 544.794 362.644 544.798 363.178C544.801 363.538 544.875 363.894 545.017 364.225C545.159 364.556 545.365 364.856 545.624 365.106C545.883 365.356 546.189 365.553 546.524 365.684C546.86 365.814 547.218 365.877 547.578 365.868V365.868Z" fill="#61345E"/>
<path fill-rule="evenodd" clip-rule="evenodd" d="M546.166 357.597C546.704 357.601 547.231 357.445 547.681 357.149C548.13 356.853 548.481 356.429 548.689 355.933C548.897 355.436 548.953 354.889 548.849 354.361C548.745 353.832 548.486 353.347 548.106 352.966C547.725 352.586 547.24 352.327 546.711 352.223C546.183 352.119 545.636 352.175 545.14 352.383C544.643 352.591 544.22 352.942 543.923 353.391C543.627 353.841 543.471 354.368 543.476 354.907C543.481 355.618 543.767 356.299 544.27 356.802C544.773 357.305 545.454 357.591 546.166 357.597Z" fill="#61345E"/>
<path fill-rule="evenodd" clip-rule="evenodd" d="M542.557 359.614C543.094 359.619 543.621 359.463 544.069 359.168C544.518 358.873 544.87 358.451 545.078 357.955C545.287 357.46 545.344 356.914 545.242 356.386C545.14 355.859 544.883 355.373 544.505 354.992C544.126 354.61 543.643 354.35 543.116 354.243C542.59 354.137 542.043 354.189 541.546 354.394C541.049 354.598 540.624 354.946 540.325 355.393C540.026 355.839 539.867 356.364 539.867 356.902C539.867 357.617 540.149 358.304 540.653 358.812C541.157 359.32 541.841 359.608 542.557 359.614Z" fill="#61345E"/>
<path fill-rule="evenodd" clip-rule="evenodd" d="M534.621 353.651C535.158 353.651 535.682 353.492 536.128 353.194C536.574 352.896 536.922 352.473 537.127 351.977C537.333 351.481 537.386 350.936 537.282 350.41C537.177 349.884 536.919 349.4 536.539 349.021C536.16 348.642 535.677 348.383 535.151 348.279C534.624 348.174 534.079 348.228 533.583 348.433C533.088 348.638 532.664 348.986 532.366 349.432C532.068 349.878 531.909 350.403 531.909 350.939C531.909 351.658 532.195 352.348 532.703 352.857C533.212 353.366 533.902 353.651 534.621 353.651V353.651Z" fill="#61345E"/>
<path fill-rule="evenodd" clip-rule="evenodd" d="M540.315 350.782C540.851 350.782 541.376 350.623 541.822 350.325C542.268 350.027 542.616 349.603 542.821 349.108C543.026 348.612 543.08 348.067 542.975 347.541C542.871 347.015 542.612 346.531 542.233 346.152C541.854 345.773 541.37 345.514 540.844 345.41C540.318 345.305 539.773 345.359 539.277 345.564C538.781 345.769 538.358 346.117 538.06 346.563C537.762 347.009 537.603 347.533 537.603 348.07C537.603 348.789 537.888 349.479 538.397 349.988C538.906 350.496 539.596 350.782 540.315 350.782Z" fill="#61345E"/>
<path fill-rule="evenodd" clip-rule="evenodd" d="M539.911 340.135C540.406 340.018 540.925 340.072 541.384 340.288C541.844 340.505 542.216 340.871 542.44 341.327C542.664 341.783 542.726 342.301 542.617 342.797C542.508 343.293 542.234 343.738 541.839 344.057C541.324 344.258 540.754 344.261 540.237 344.067C539.719 343.872 539.292 343.494 539.037 343.004C538.803 342.502 538.762 341.931 538.924 341.401C539.085 340.872 539.437 340.42 539.911 340.135Z" fill="#6E3B6E"/>
<path fill-rule="evenodd" clip-rule="evenodd" d="M534.733 338.878C535.09 338.596 535.523 338.429 535.977 338.399C536.43 338.369 536.882 338.478 537.272 338.711C537.663 338.943 537.973 339.289 538.162 339.702C538.352 340.115 538.411 340.576 538.332 341.024C538.254 341.471 538.041 341.885 537.722 342.208C537.404 342.532 536.994 342.752 536.548 342.838C536.102 342.923 535.64 342.872 535.224 342.689C534.808 342.506 534.457 342.202 534.218 341.815C534.056 341.589 533.94 341.334 533.879 341.063C533.817 340.792 533.81 340.512 533.858 340.238C533.906 339.965 534.008 339.703 534.158 339.47C534.309 339.236 534.504 339.035 534.733 338.878V338.878Z" fill="#6E3B6E"/>
<path fill-rule="evenodd" clip-rule="evenodd" d="M530.385 341.592C530.666 341.235 531.05 340.973 531.484 340.839C531.918 340.706 532.382 340.707 532.815 340.843C533.248 340.979 533.63 341.244 533.91 341.602C534.189 341.96 534.353 342.394 534.381 342.847C534.408 343.301 534.297 343.751 534.062 344.14C533.828 344.529 533.48 344.837 533.067 345.024C532.653 345.212 532.192 345.269 531.745 345.188C531.298 345.107 530.886 344.893 530.564 344.573C530.149 344.199 529.898 343.677 529.864 343.119C529.831 342.561 530.018 342.013 530.385 341.592V341.592Z" fill="#6E3B6E"/>
<path fill-rule="evenodd" clip-rule="evenodd" d="M529.802 345.716C530.228 345.424 530.741 345.288 531.255 345.331C531.77 345.374 532.254 345.593 532.625 345.951C532.996 346.31 533.233 346.785 533.294 347.298C533.356 347.81 533.239 348.328 532.963 348.764C532.767 348.96 532.535 349.116 532.279 349.222C532.023 349.328 531.749 349.382 531.472 349.382C531.195 349.382 530.921 349.328 530.665 349.222C530.409 349.116 530.177 348.96 529.981 348.764C529.572 348.373 529.325 347.841 529.292 347.275C529.259 346.71 529.441 346.152 529.802 345.716V345.716Z" fill="#6E3B6E"/>
<path fill-rule="evenodd" clip-rule="evenodd" d="M534.935 344.304C535.361 344.025 535.87 343.899 536.377 343.948C536.884 343.996 537.36 344.216 537.725 344.571C538.091 344.926 538.324 345.395 538.388 345.901C538.451 346.406 538.34 346.919 538.073 347.353C537.878 347.549 537.645 347.704 537.39 347.81C537.134 347.916 536.86 347.971 536.583 347.971C536.306 347.971 536.032 347.916 535.776 347.81C535.52 347.704 535.288 347.549 535.092 347.353C534.686 346.958 534.444 346.425 534.415 345.859C534.385 345.294 534.571 344.738 534.935 344.304Z" fill="#6E3B6E"/>
<path fill-rule="evenodd" clip-rule="evenodd" d="M538.836 346.433C539.118 346.076 539.503 345.813 539.938 345.68C540.374 345.547 540.839 345.549 541.273 345.688C541.707 345.826 542.089 346.093 542.368 346.453C542.646 346.813 542.808 347.25 542.832 347.705C542.856 348.16 542.741 348.611 542.503 348.999C542.264 349.387 541.913 349.693 541.496 349.876C541.079 350.059 540.616 350.111 540.169 350.025C539.721 349.938 539.311 349.718 538.992 349.392C538.787 349.209 538.619 348.987 538.5 348.739C538.38 348.49 538.311 348.221 538.297 347.946C538.282 347.67 538.322 347.395 538.415 347.135C538.507 346.876 538.65 346.637 538.836 346.433V346.433Z" fill="#6E3B6E"/>
<path fill-rule="evenodd" clip-rule="evenodd" d="M542.557 343.923C542.839 343.565 543.224 343.303 543.659 343.169C544.095 343.036 544.56 343.039 544.995 343.177C545.429 343.315 545.81 343.582 546.089 343.942C546.367 344.303 546.529 344.739 546.553 345.194C546.577 345.649 546.462 346.1 546.224 346.488C545.985 346.876 545.634 347.182 545.217 347.365C544.8 347.548 544.337 347.6 543.89 347.514C543.442 347.428 543.032 347.207 542.713 346.882C542.508 346.698 542.34 346.476 542.221 346.228C542.101 345.979 542.032 345.71 542.018 345.435C542.003 345.16 542.043 344.884 542.136 344.625C542.228 344.365 542.371 344.126 542.557 343.923V343.923Z" fill="#6E3B6E"/>
<path fill-rule="evenodd" clip-rule="evenodd" d="M543.498 348.899C543.862 348.547 544.348 348.351 544.854 348.351C545.36 348.351 545.847 348.547 546.21 348.899C546.451 349.162 546.61 349.49 546.668 349.842C546.726 350.194 546.68 350.555 546.536 350.881C546.393 351.207 546.157 351.485 545.858 351.68C545.56 351.875 545.211 351.978 544.854 351.978C544.498 351.978 544.149 351.875 543.85 351.68C543.551 351.485 543.316 351.207 543.172 350.881C543.028 350.555 542.983 350.194 543.04 349.842C543.098 349.49 543.257 349.162 543.498 348.899V348.899Z" fill="#6E3B6E"/>
<path fill-rule="evenodd" clip-rule="evenodd" d="M545.448 353.181C545.809 352.823 546.296 352.623 546.804 352.623C547.312 352.623 547.8 352.823 548.16 353.181C548.358 353.342 548.52 353.542 548.636 353.77C548.752 353.997 548.82 354.246 548.834 354.5C548.849 354.755 548.811 355.01 548.721 355.249C548.632 355.488 548.494 355.706 548.316 355.889C548.138 356.071 547.924 356.215 547.687 356.31C547.451 356.406 547.197 356.451 546.942 356.443C546.687 356.435 546.436 356.374 546.206 356.264C545.976 356.154 545.771 355.997 545.605 355.804C545.247 355.47 545.032 355.012 545.002 354.524C544.973 354.035 545.133 353.555 545.448 353.181V353.181Z" fill="#6E3B6E"/>
<path fill-rule="evenodd" clip-rule="evenodd" d="M541.212 355.131C541.573 354.774 542.06 354.573 542.568 354.573C543.076 354.573 543.563 354.774 543.924 355.131C544.122 355.292 544.284 355.493 544.4 355.72C544.516 355.947 544.583 356.196 544.598 356.451C544.613 356.705 544.574 356.96 544.485 357.199C544.395 357.438 544.257 357.656 544.079 357.839C543.901 358.021 543.687 358.165 543.451 358.261C543.214 358.356 542.96 358.401 542.705 358.393C542.45 358.385 542.2 358.324 541.97 358.214C541.739 358.104 541.535 357.947 541.369 357.754C541.011 357.42 540.795 356.962 540.766 356.474C540.737 355.985 540.896 355.505 541.212 355.131V355.131Z" fill="#6E3B6E"/>
<path fill-rule="evenodd" clip-rule="evenodd" d="M538.701 350.917C539.061 350.566 539.544 350.37 540.046 350.37C540.548 350.37 541.031 350.566 541.391 350.917C541.635 351.179 541.797 351.506 541.858 351.859C541.918 352.212 541.874 352.575 541.731 352.903C541.589 353.231 541.353 353.511 541.054 353.707C540.754 353.903 540.404 354.008 540.046 354.008C539.688 354.008 539.338 353.903 539.038 353.707C538.739 353.511 538.503 353.231 538.361 352.903C538.218 352.575 538.174 352.212 538.234 351.859C538.295 351.506 538.457 351.179 538.701 350.917V350.917Z" fill="#6E3B6E"/>
<path fill-rule="evenodd" clip-rule="evenodd" d="M538.073 357.328C538.43 356.972 538.914 356.772 539.418 356.772C539.922 356.772 540.406 356.972 540.763 357.328C540.953 357.493 541.108 357.694 541.218 357.919C541.329 358.144 541.394 358.39 541.408 358.64C541.423 358.891 541.387 359.142 541.303 359.379C541.22 359.615 541.089 359.833 540.92 360.018C540.544 360.288 540.085 360.418 539.623 360.387C539.161 360.356 538.725 360.164 538.388 359.846C538.052 359.528 537.836 359.103 537.779 358.644C537.721 358.184 537.825 357.719 538.073 357.328V357.328Z" fill="#6E3B6E"/>
<path fill-rule="evenodd" clip-rule="evenodd" d="M534.577 354.212C534.955 353.903 535.434 353.743 535.923 353.763C536.412 353.784 536.876 353.983 537.227 354.324C537.578 354.664 537.792 355.121 537.829 355.609C537.865 356.097 537.721 356.581 537.423 356.969C537.045 357.279 536.565 357.438 536.077 357.418C535.588 357.397 535.124 357.198 534.773 356.858C534.422 356.517 534.208 356.06 534.171 355.572C534.135 355.084 534.279 354.6 534.577 354.212Z" fill="#6E3B6E"/>
<path fill-rule="evenodd" clip-rule="evenodd" d="M541.391 360.287C541.752 359.93 542.239 359.729 542.747 359.729C543.255 359.729 543.742 359.93 544.103 360.287C544.291 360.453 544.444 360.655 544.553 360.882C544.662 361.108 544.724 361.353 544.737 361.604C544.749 361.854 544.711 362.105 544.626 362.341C544.54 362.577 544.408 362.793 544.238 362.977C543.859 363.287 543.38 363.446 542.891 363.426C542.403 363.405 541.939 363.206 541.587 362.866C541.236 362.525 541.022 362.068 540.986 361.58C540.95 361.092 541.094 360.608 541.391 360.22V360.287Z" fill="#6E3B6E"/>
<path fill-rule="evenodd" clip-rule="evenodd" d="M545.717 357.507C546.078 357.15 546.565 356.949 547.073 356.949C547.581 356.949 548.069 357.15 548.43 357.507C548.627 357.668 548.789 357.869 548.905 358.096C549.021 358.323 549.089 358.572 549.103 358.827C549.118 359.081 549.08 359.336 548.99 359.575C548.901 359.814 548.763 360.032 548.585 360.215C548.407 360.397 548.193 360.541 547.956 360.637C547.72 360.732 547.466 360.777 547.211 360.769C546.956 360.761 546.705 360.7 546.475 360.59C546.245 360.48 546.04 360.323 545.874 360.13C545.516 359.796 545.301 359.338 545.271 358.85C545.242 358.361 545.402 357.881 545.717 357.507V357.507Z" fill="#6E3B6E"/>
<path fill-rule="evenodd" clip-rule="evenodd" d="M546.659 361.52C547.007 361.221 547.455 361.063 547.914 361.077C548.373 361.091 548.81 361.277 549.139 361.598C549.468 361.918 549.665 362.35 549.691 362.809C549.718 363.268 549.571 363.719 549.281 364.075C548.942 364.426 548.478 364.628 547.99 364.636C547.503 364.645 547.032 364.459 546.681 364.12C546.33 363.781 546.129 363.317 546.12 362.829C546.112 362.342 546.297 361.871 546.636 361.52H546.659Z" fill="#6E3B6E"/>
<path fill-rule="evenodd" clip-rule="evenodd" d="M533.119 349.325C533.399 348.966 533.782 348.7 534.216 348.564C534.651 348.427 535.117 348.427 535.552 348.562C535.987 348.696 536.37 348.961 536.651 349.319C536.932 349.677 537.098 350.112 537.125 350.567C537.153 351.022 537.041 351.474 536.805 351.863C536.57 352.253 536.221 352.561 535.805 352.748C535.39 352.934 534.927 352.99 534.48 352.907C534.032 352.824 533.62 352.607 533.299 352.284C532.885 351.914 532.634 351.395 532.601 350.841C532.567 350.287 532.754 349.742 533.119 349.325V349.325Z" fill="#6E3B6E"/>
<path fill-rule="evenodd" clip-rule="evenodd" d="M528.95 350.939C529.233 350.582 529.617 350.319 530.053 350.186C530.488 350.053 530.954 350.055 531.388 350.193C531.822 350.332 532.204 350.599 532.482 350.959C532.761 351.319 532.923 351.756 532.947 352.211C532.971 352.666 532.856 353.117 532.617 353.505C532.378 353.893 532.027 354.199 531.61 354.382C531.193 354.565 530.73 354.617 530.283 354.531C529.836 354.444 529.426 354.224 529.107 353.898C528.697 353.525 528.45 353.005 528.421 352.451C528.391 351.897 528.582 351.354 528.95 350.939V350.939Z" fill="#6E3B6E"/>
<path fill-rule="evenodd" clip-rule="evenodd" d="M545.067 343.856C546.031 344.461 546.188 345.851 545.538 345.47C545.274 345.132 544.947 344.85 544.574 344.64C544.103 344.416 543.229 344.416 543.184 344.147C543.05 343.452 544.417 343.452 545.067 343.856Z" fill="#7D4F7C"/>
<path fill-rule="evenodd" clip-rule="evenodd" d="M541.839 340.582C542.803 341.187 542.96 342.577 542.288 342.174C542.026 341.84 541.698 341.565 541.324 341.367C540.875 341.143 540.001 341.143 539.956 340.874C539.822 340.179 541.189 340.179 541.839 340.582Z" fill="#7D4F7C"/>
<path fill-rule="evenodd" clip-rule="evenodd" d="M536.818 339.148C537.76 339.753 537.939 341.143 537.266 340.739C537.005 340.406 536.677 340.131 536.303 339.932C535.854 339.708 534.98 339.708 534.913 339.439C534.801 338.744 536.168 338.744 536.818 339.148Z" fill="#7D4F7C"/>
<path fill-rule="evenodd" clip-rule="evenodd" d="M532.806 341.525C533.77 342.13 533.949 343.52 533.276 343.116C533.015 342.783 532.687 342.508 532.313 342.309C531.864 342.085 530.968 342.085 530.923 341.816C530.811 341.121 532.178 341.121 532.806 341.525Z" fill="#7D4F7C"/>
<path fill-rule="evenodd" clip-rule="evenodd" d="M537.491 344.394C538.454 344.999 538.611 346.389 537.939 345.985C537.678 345.652 537.349 345.377 536.975 345.178C536.527 344.954 535.652 344.954 535.585 344.685C535.473 343.99 536.841 343.99 537.491 344.394Z" fill="#7D4F7C"/>
<path fill-rule="evenodd" clip-rule="evenodd" d="M541.346 346.321C542.31 346.926 542.467 348.316 541.794 347.935C541.548 347.59 541.226 347.307 540.853 347.105C540.382 346.881 539.508 346.881 539.463 346.612C539.329 345.917 540.696 345.94 541.346 346.321Z" fill="#7D4F7C"/>
<path fill-rule="evenodd" clip-rule="evenodd" d="M545.74 348.877C546.703 349.482 546.86 350.894 546.21 350.491C545.94 350.178 545.613 349.919 545.246 349.729C544.776 349.527 543.901 349.505 543.857 349.236C543.722 348.473 545.09 348.496 545.74 348.877Z" fill="#7D4F7C"/>
<path fill-rule="evenodd" clip-rule="evenodd" d="M547.667 353.225C548.631 353.83 548.811 355.243 548.138 354.839C547.875 354.502 547.547 354.22 547.174 354.01C546.703 353.808 545.829 353.786 545.784 353.517C545.65 352.822 547.04 352.844 547.667 353.225Z" fill="#7D4F7C"/>
<path fill-rule="evenodd" clip-rule="evenodd" d="M548.116 357.664C548.967 358.337 548.967 359.704 548.362 359.233C548.161 358.88 547.886 358.574 547.555 358.337C547.152 358.09 546.322 357.955 546.3 357.709C546.278 357.036 547.578 357.216 548.116 357.664Z" fill="#7D4F7C"/>
<path fill-rule="evenodd" clip-rule="evenodd" d="M548.945 361.542C549.797 362.237 549.797 363.582 549.192 363.111C548.999 362.752 548.722 362.444 548.385 362.214C547.981 361.968 547.152 361.833 547.129 361.587C547.04 360.937 548.407 361.094 548.945 361.542Z" fill="#7D4F7C"/>
<path fill-rule="evenodd" clip-rule="evenodd" d="M543.7 360.488C544.552 361.183 544.529 362.528 543.946 362.057C543.745 361.704 543.47 361.398 543.139 361.161C542.736 360.914 541.906 360.78 541.884 360.533C541.839 359.861 543.162 360.04 543.7 360.488Z" fill="#7D4F7C"/>
<path fill-rule="evenodd" clip-rule="evenodd" d="M543.565 355.333C544.417 356.005 544.395 357.373 543.812 356.902C543.611 356.549 543.335 356.243 543.005 356.005C542.601 355.759 541.772 355.624 541.75 355.378C541.705 354.705 543.027 354.885 543.565 355.333Z" fill="#7D4F7C"/>
<path fill-rule="evenodd" clip-rule="evenodd" d="M541.077 350.895C541.929 351.567 541.906 352.912 541.324 352.464C541.122 352.11 540.847 351.804 540.517 351.567C540.113 351.32 539.284 351.186 539.261 350.939C539.217 350.267 540.539 350.446 541.077 350.895Z" fill="#7D4F7C"/>
<path fill-rule="evenodd" clip-rule="evenodd" d="M535.832 349.549C536.684 350.221 536.661 351.566 536.078 351.118C535.877 350.765 535.602 350.459 535.271 350.221C534.868 349.975 534.016 349.84 534.016 349.594C533.859 348.921 535.159 349.078 535.832 349.549Z" fill="#7D4F7C"/>
<path fill-rule="evenodd" clip-rule="evenodd" d="M536.84 354.638C537.692 355.31 537.67 356.678 537.087 356.207C536.886 355.853 536.611 355.547 536.28 355.31C535.877 355.064 535.025 354.929 535.025 354.682C534.98 354.01 536.303 354.212 536.84 354.638Z" fill="#7D4F7C"/>
<path fill-rule="evenodd" clip-rule="evenodd" d="M540.315 357.462C541.167 358.134 541.144 359.502 540.562 359.031C540.36 358.678 540.085 358.372 539.755 358.134C539.351 357.888 538.522 357.753 538.499 357.507C538.522 356.834 539.844 357.014 540.315 357.462Z" fill="#7D4F7C"/>
<path fill-rule="evenodd" clip-rule="evenodd" d="M532.313 345.828C533.164 346.501 533.142 347.846 532.559 347.398C532.35 347.05 532.076 346.746 531.752 346.501C531.349 346.232 530.497 346.12 530.497 345.873C530.452 345.246 531.752 345.358 532.313 345.828Z" fill="#7D4F7C"/>
<path fill-rule="evenodd" clip-rule="evenodd" d="M531.349 351.253C532.2 351.925 532.178 353.27 531.595 352.822C531.394 352.469 531.119 352.163 530.788 351.925C530.385 351.679 529.533 351.544 529.533 351.298C529.421 350.625 530.721 350.805 531.349 351.253Z" fill="#7D4F7C"/>
<path fill-rule="evenodd" clip-rule="evenodd" d="M505.324 349.19H526.933H543.946H565.555L571.989 420.274H543.946H526.933H498.891L505.324 349.19Z" fill="#B49061"/>
<path fill-rule="evenodd" clip-rule="evenodd" d="M513.73 349.19H535.339H552.352H573.961L580.395 420.274H552.352H535.339H507.296L513.73 349.19Z" fill="#E2C077"/>
<path fill-rule="evenodd" clip-rule="evenodd" d="M529.6 359.615C530.04 359.615 530.462 359.44 530.773 359.129C531.084 358.818 531.259 358.396 531.259 357.956C531.259 357.516 531.084 357.094 530.773 356.783C530.462 356.472 530.04 356.297 529.6 356.297C529.382 356.297 529.167 356.34 528.965 356.423C528.764 356.507 528.581 356.629 528.427 356.783C528.273 356.937 528.151 357.12 528.068 357.321C527.984 357.522 527.941 357.738 527.941 357.956C527.941 358.174 527.984 358.389 528.068 358.591C528.151 358.792 528.273 358.975 528.427 359.129C528.581 359.283 528.764 359.405 528.965 359.488C529.167 359.572 529.382 359.615 529.6 359.615V359.615Z" fill="#764633"/>
<path fill-rule="evenodd" clip-rule="evenodd" d="M556.432 359.615C556.76 359.615 557.081 359.517 557.354 359.335C557.626 359.153 557.839 358.894 557.964 358.591C558.09 358.287 558.123 357.954 558.059 357.632C557.995 357.31 557.837 357.015 557.605 356.783C557.373 356.551 557.077 356.393 556.756 356.329C556.434 356.265 556.1 356.298 555.797 356.423C555.494 356.549 555.235 356.761 555.053 357.034C554.87 357.307 554.773 357.628 554.773 357.956C554.773 358.396 554.948 358.818 555.259 359.129C555.57 359.44 555.992 359.615 556.432 359.615V359.615Z" fill="#764633"/>
<path fill-rule="evenodd" clip-rule="evenodd" d="M555.625 358.449C555.625 358.229 555.712 358.018 555.868 357.862C556.023 357.707 556.234 357.619 556.454 357.619C556.674 357.619 556.885 357.707 557.041 357.862C557.196 358.018 557.284 358.229 557.284 358.449C557.138 362.123 555.576 365.599 552.924 368.147C550.273 370.695 546.738 372.119 543.061 372.119C539.384 372.119 535.849 370.695 533.198 368.147C530.546 365.599 528.984 362.123 528.838 358.449C528.818 358.33 528.825 358.208 528.857 358.092C528.889 357.976 528.946 357.868 529.024 357.777C529.101 357.685 529.198 357.611 529.308 357.56C529.417 357.51 529.536 357.483 529.656 357.483C529.777 357.483 529.896 357.51 530.005 357.56C530.114 357.611 530.211 357.685 530.289 357.777C530.367 357.868 530.424 357.976 530.456 358.092C530.488 358.208 530.494 358.33 530.474 358.449C530.474 361.784 531.799 364.983 534.158 367.341C536.516 369.7 539.715 371.024 543.05 371.024C546.385 371.024 549.583 369.7 551.942 367.341C554.3 364.983 555.625 361.784 555.625 358.449V358.449Z" fill="#E0A519"/>
<path fill-rule="evenodd" clip-rule="evenodd" d="M560.33 377.965H526.415C523.291 377.977 520.299 379.223 518.091 381.431C515.882 383.64 514.636 386.632 514.624 389.756V389.756C514.636 392.88 515.882 395.872 518.091 398.081C520.299 400.289 523.291 401.535 526.415 401.547H560.33C563.457 401.541 566.455 400.298 568.669 398.088C570.882 395.879 572.131 392.883 572.143 389.756V389.756C572.131 386.629 570.882 383.633 568.669 381.424C566.455 379.214 563.457 377.971 560.33 377.965V377.965Z" fill="#F26333"/>
<path d="M533.068 384.882H535.629C536.796 384.882 537.642 385.049 538.167 385.383C538.697 385.713 538.961 386.24 538.961 386.964C538.961 387.456 538.845 387.859 538.612 388.175C538.383 388.49 538.077 388.679 537.695 388.743V388.799C538.216 388.916 538.591 389.133 538.82 389.452C539.053 389.771 539.169 390.195 539.169 390.725C539.169 391.475 538.897 392.06 538.353 392.481C537.813 392.901 537.077 393.111 536.147 393.111H533.068V384.882ZM534.813 388.141H535.826C536.299 388.141 536.64 388.068 536.85 387.921C537.064 387.775 537.171 387.533 537.171 387.195C537.171 386.88 537.055 386.655 536.822 386.52C536.593 386.381 536.229 386.312 535.73 386.312H534.813V388.141ZM534.813 389.526V391.67H535.95C536.43 391.67 536.785 391.578 537.014 391.394C537.242 391.21 537.357 390.929 537.357 390.55C537.357 389.867 536.869 389.526 535.893 389.526H534.813Z" fill="white"/>
<path d="M547.511 384.882V390.207C547.511 390.815 547.374 391.347 547.1 391.805C546.83 392.263 546.438 392.614 545.924 392.858C545.41 393.102 544.802 393.224 544.1 393.224C543.042 393.224 542.22 392.954 541.635 392.413C541.049 391.869 540.757 391.126 540.757 390.184V384.882H542.496V389.92C542.496 390.554 542.623 391.019 542.879 391.316C543.134 391.612 543.556 391.76 544.145 391.76C544.715 391.76 545.128 391.612 545.383 391.316C545.642 391.015 545.772 390.546 545.772 389.908V384.882H547.511Z" fill="white"/>
<path d="M552.087 388.27L553.804 384.882H555.684L552.954 389.908V393.111H551.22V389.965L548.49 384.882H550.381L552.087 388.27Z" fill="white"/>
<path fill-rule="evenodd" clip-rule="evenodd" d="M470.602 641.348C471.566 645.607 470.355 654.798 468.696 663.764H575.037L610.028 563.158C610.252 562.665 610.454 562.149 610.633 561.634L612.875 554.662L618.389 538.365C619.904 533.852 619.577 528.923 617.478 524.65C615.379 520.377 611.679 517.105 607.181 515.545V515.545C604.096 514.509 600.788 514.326 597.607 515.017C594.427 515.707 591.492 517.245 589.114 519.468C589.851 515.23 589.049 510.869 586.855 507.17C584.66 503.471 581.216 500.677 577.144 499.293V499.293C572.631 497.772 567.7 498.096 563.426 500.196C559.151 502.296 555.88 506 554.325 510.501L552.083 517.226L556.006 505.502C557.527 500.989 557.203 496.058 555.103 491.783C553.004 487.509 549.299 484.237 544.798 482.682V482.682C541.199 481.463 537.306 481.418 533.68 482.554C530.054 483.69 526.883 485.949 524.624 489.004L543.476 429.286C544.96 424.772 544.619 419.856 542.524 415.591C540.429 411.325 536.748 408.05 532.268 406.466V406.466C530.034 405.697 527.67 405.378 525.312 405.525C522.954 405.673 520.649 406.285 518.529 407.327C516.408 408.368 514.514 409.819 512.956 411.594C511.398 413.37 510.206 415.436 509.448 417.674L482.908 499.472C482.567 500.473 482.312 501.5 482.146 502.543L466.679 549.82C397.392 488.107 379.235 533.322 395.912 546.996C414.45 562.261 417.835 567.91 436.395 583.131C447.782 602.589 447.558 613.685 470.602 641.348Z" fill="#E3AB92"/>
<path fill-rule="evenodd" clip-rule="evenodd" d="M537.199 426.147L538.522 421.462L515.658 415.006L514.335 419.713C513.492 422.742 513.882 425.982 515.419 428.724C516.956 431.467 519.516 433.49 522.539 434.351V434.351C525.571 435.201 528.816 434.815 531.564 433.277C534.311 431.739 536.338 429.175 537.199 426.147V426.147Z" fill="#E6B8A2"/>
</g>
<path d="M582.318 540.853C580.396 540.858 578.719 539.546 578.254 537.673C577.788 535.8 578.655 533.849 580.353 532.946C625.597 508.824 662.9 476.437 685.444 441.791C696.294 425.141 703.065 408.897 705.628 393.554C708.229 377.993 706.334 364.017 699.991 352.02C698.91 349.972 699.685 347.431 701.724 346.344C703.762 345.257 706.291 346.037 707.373 348.084C714.596 361.753 716.784 377.518 713.895 394.946C711.135 411.452 703.925 428.757 692.463 446.381C669.161 482.211 630.745 515.584 584.291 540.362C583.684 540.687 583.006 540.856 582.318 540.853Z" fill="#FAAD14"/>
<defs>
<clipPath id="clip0_413_7731">
<rect width="283" height="415" fill="white" transform="translate(390.129 248.854)"/>
</clipPath>
</defs>
</svg>
