<svg xmlns="http://www.w3.org/2000/svg" xmlns:xlink="http://www.w3.org/1999/xlink" width="1128" height="848" fill="none" xmlns:v="https://vecta.io/nano"><style><![CDATA[.B{fill:#637d2a}.C{fill-rule:evenodd}.D{fill:#506422}.E{fill:#7b913f}]]></style><path d="M880.581 243.492c107.768 100.678 225.459 198.52 243.899 314.796 18.43 116.276-62.4 250.986-170.163 281.473-107.768 30.487-242.478-43.249-370.098-50.339-126.911-7.799-247.441 51.757-355.918 21.27S21.982 659.675 3.548 520.711c-19.143-138.964 40.413-296.362 148.89-397.04C261.624 22.993 419.022-20.965 547.351 9.522c127.62 29.778 225.462 133.292 333.23 233.97z" fill="#fff"/><g clip-path="url(#A)"><g opacity=".497" fill="#adc6ff" class="C"><path d="M572.619 307.704c-83.26 0-160.615 67.447-172.782 150.668s45.487 150.669 128.721 150.669 160.615-67.448 172.782-150.669-45.486-150.668-128.721-150.668zM388.128 416.749l-219.999-12.263 231.632-12.187a195.15 195.15 0 0 0-11.633 24.45h0zm-12.854 60.476L197.503 464.86l180.367-11.831-.865 5.343a171.83 171.83 0 0 0-1.731 18.853zm9.418 60.781l-139.997-12.721 133.15-11.449a151.87 151.87 0 0 0 6.847 24.17h0z"/></g><g class="C"><g class="D"><path d="M565.645 285.441c22.908 52.742 35.05 93.246 30.977 121.919s-.687 40.962-18.327 28.164-25.454-.636-30.952-40.02-7.636-59.942-7.967-79.176 26.269-30.887 26.269-30.887z"/><path d="M586.441 285.086c-5.549-25.188-13.593-31.599-19.829-29.895s-5.091.993-9.164-2.01-11.759-1.043-14.177 10.762 4.25 30.531 6.949 34.22.585 9.007 8.348 10.38 27.873-23.457 27.873-23.457z"/></g><g class="B"><path d="M583.03 276.664c5.867 3.119 10.684 7.898 13.847 13.739 0 0 11.225 2.977 14.585 17.809s1.909 21.83 4.76 27.681 4.556 11.984 2.545 18.064a57.98 57.98 0 0 0-2.647 12.162s8.044 15.418 3.156 28.953-10.792 19.87-16.468 17.606-20.364-13.027-21.382-26.562 6.313-19.59-3.563-27.325-16.036-12.212-12.218-22.719 8.196-15.698.891-26.104 0-12.416 4.123-19.234-4.2-25.391 12.371-14.07zm-19.905 125.405c9.163-7.633 18.887-27.249 10.92-36.942s-14.458-16.029-10.182-32.821-6.084-14.527-6.516-26.79 3.741-14.731-4.887-23.738 2.774-15.494-4.786-20.99-13.694-.89-15.883 11.195-13.924 3.994-15.476 22.745 8.603 16.36.178 33.965 12.727 19.922 9.8 32.032a43.23 43.23 0 0 0-.414 20.175 43.24 43.24 0 0 0 8.788 18.166c9.774 11.526 29.934 22.466 28.458 3.003z"/></g><path d="M588.121 307.882c2.392 13.841 11.327 27.986 21.686 55.973s16.317 47.093 5.091 72.433-29.654 23.662-53.453 8.753-22.12-37.324-24.92-63.453-8.374-54.828-5.956-71.849 4.862-22.261 4.862-22.261 5.091 36.941 14.076 78.259 24.181 57.067 29.068 60.298 17.182-17.351 10.844-62.231-6.873-58.186-1.298-55.922z" fill="#c0c8a1"/><path d="M585.219 458.499c-8.629-.941-6.211-11.78 8.934-10.915 11.302.662 10.564 13.027-8.934 10.915z" fill="#8e9f6a"/><path d="M587.23 323.198c0 1.348.28 2.722.483 4.172.249.077.472.219.646.412s.295.428.347.682c6.745 27.758 30.825 79.202 3.996 106.069 17.131-33.228 11.913-51.801-.56-85.842a160.98 160.98 0 0 1 4.862 34.372c0 25.442-4.353 50.732-13.949 50.884s-25.454-13.891-33.319-48.492c-2.011-8.829-3.793-18.548-5.396-27.987.992 21.779 4.785 48.977 13.032 61.265 4.68 7.288 10.361 13.882 16.876 19.59-5.854-2.849-13.949-13.357-17.818-18.878-13.592-19.234-19.039-117.033-22.094-113.09-2.367 3.104 2.215 107.926 14.204 120.876 7.432 8.014 21.686 24.729 32.81 19.845a25.73 25.73 0 0 1 7.509-1.959 45.26 45.26 0 0 1 6.16-.255c7.967.305 5.294 3.358 10.181-4.376 4.404-6.869 10.895-19.641 10.029-34.169-1.247-20.811-9.24-43.455-24.258-82.356-1.12-3.053-4.352-8.09-3.741-.763z" fill="#ecefe9"/><g fill="#69822c"><path d="M582.419 358.664c-5.32-7.633-15.553-9.973-12.982-18.242s9.851-16.614 4.684-26.434-10.462-9.236-3.513-15.113 7.636-8.116 8.527-13.79 7.637-1.908 12.244 5.801 13.821 6.742 15.73 17.072-3.054 14.12-.432 19.361 11.556 14.757 10.665 19.769a31.99 31.99 0 0 1-3.131 9.032s.127-5.979-5.905-14.782-7.637-14.171-8.12-27.478-10.004-19.488-15.96-13.967-1.196 12.568-3.92 22.287-8.858 12.238-3.843 17.555 9.367 13.357 8.094 17.021-2.138 1.908-2.138 1.908zm-19.472 32.541c5.981-6.844 9.29-14.604 7.916-21.142-.993-4.885-6.695-9.77-9.8-14.96-3.36-5.598-5.651-8.956-4.302-15.673 1.502-7.632 5.829-13.687 2.368-20.862-3.666-7.633-8.986-11.169-5.855-17.199 4.149-8.04.178-13.154-4.022-17.606-5.32-5.623-5.09-3.18-5.09-11.271-1.859 8.014-3.259 9.643 1.781 15.596 3.386 3.995 4.811 8.498 1.604 12.238-5.956 6.996 2.545 9.922 6.236 18.115 2.876 6.411.255 17.402-.891 24.068-1.731 10.177 3.182 11.703 10.182 20.532 8.476 10.584 4.149 16.232-.127 28.164z"/></g><path d="M587.102 458.067c-6.414-.687-4.607-8.727 6.644-8.091 8.4.484 7.814 9.592-6.644 8.091z" fill="#aeb994"/><path d="M626.658 357.977c17.665-43.887 23.952-89.047 24.105-104.847s-14.992-2.926-15.272 12.136-15.146 13.001-10.691 31.523 0 16.741-3.538 29.92 5.396 31.268 5.396 31.268z" class="B"/><path d="M627.193 357.341c15.807-56.253 28.228-86.656 42.686-100.751s6.414 9.821 1.553 20.354 1.196 6.793.203 17.071-16.316 16.97-17.817 21.499 7.458 2.086-.764 13.612-25.861 28.215-25.861 28.215z" fill="#576e26"/><path d="M628.847 356.451c13.669-21.041 41.821-58.11 63.457-72.764s-.891 10.863-4.505 14.934 2.876 14.273-2.953 19.234-8.705 1.858-12.167 11.424-43.832 27.172-43.832 27.172z" class="B"/><g class="E"><path d="M636.891 304.371a163.69 163.69 0 0 0 8.679-58.186c-4.378 1.73-9.927 10.024-10.181 19.081-.306 15.036-15.145 13.001-10.691 31.523s0 16.741-3.538 29.92a27.97 27.97 0 0 0-.815 7.353c5.804-2.163 11.709-15.596 16.546-29.691zm32.988-47.78c-9.622 9.362-18.327 25.95-27.745 52.537-3.003 8.498-6.083 18.039-9.29 28.699.609-.452 1.164-.972 1.654-1.552 3.742-4.147 9.596-14.018 14.076-20.353 7.025-9.821 17.462-19.006 17.411-23.356s-2.546-14.172 2.825-24.577c2.851-5.623 5.447-11.602 5.574-15.113-1.648 1.049-3.161 2.296-4.505 3.715h0zm-27.032 84.772c2.316 0 6.643-3.256 13.669-8.039 11.378-7.633 8.96-10.864 13.312-17.021s11.124-3.791 12.982-9.439 5.091-12.721 17.538-24.094c2.545-4.121 1.68-5.699-8.095.916-11.352 7.633-24.512 21.55-36.399 36.026-5.345 6.513-10.436 13.128-15.018 19.362.306 1.577.942 2.264 2.011 2.289z"/></g><path d="M599.753 352.253c-21.967 16.385-55.337 102.939-48.592 130.976-3.767 12.721-5.727 14.553-8.756 12.721-4.174-2.315-4.963-10.177-9.138-4.376a53.24 53.24 0 0 0-6.44 14.095s5.295-11.551 9.469-7.938 4.887 13.255 27.771-6.182l.381-.306c6.415-1.959 15.273-8.039 27.058-19.616 25.938-25.442 59.639-82.229 55.795-99.911-4.785-21.982-28.635-33.634-47.548-19.463z" fill="#d8d6a6"/><path d="M620.6 413.569c8.603-17.81 26.829-49.485 17.665-58.67-.806-.833-1.656-1.622-2.545-2.366-.459-.356-.891-.712-1.375-1.043a25.88 25.88 0 0 0-2.876-1.806l-1.298-.687a28.53 28.53 0 0 0-8.655-2.545 29.13 29.13 0 0 0-11.425.793c-3.719 1.018-7.198 2.763-10.236 5.135-20.923 15.622-52.232 95.027-49.279 126.702 2.545.865-6.618 13.841 10.92 6.59s50.5-54.09 59.104-72.103z" fill="#f6f2d1"/><path d="M611.742 358.843c-20.847-1.501-58.672 89.047-44.519 88.004 12.854-.916 70.94-86.096 44.519-88.004z" fill="#fbfaed"/><path d="M551.721 375.761v177.637h-.407c-1.858 5.75-9.978 10.177-19.701 10.177a29.72 29.72 0 0 1-10.182-1.705 30.55 30.55 0 0 1-20.134 0 29.72 29.72 0 0 1-10.182 1.705c-9.723 0-17.818-4.351-19.701-10.177h-.407V375.761c0-40.224 20.032-36.764 30.061-55.158v-9.77h20.363v9.77c10.258 18.394 30.29 16.664 30.29 55.158z" fill="#55352a"/></g><g fill="#c10016"><path d="M551.721 377.059h-80.46v48.263h80.46v-48.263zm-30.188-77.141h-20.109v10.915h20.109v-10.915z"/></g><g class="C"><path d="M484.039 550.854a2.72 2.72 0 0 1-2.724 2.722 2.72 2.72 0 0 1-2.723-2.722V375.761c0-27.986 9.418-35.899 18.81-43.71 1.909-1.577 3.793-3.129 5.6-4.935.511-.508 1.202-.794 1.922-.794s1.411.286 1.922.794c.251.25.45.547.586.875s.205.678.205 1.033-.07.705-.205 1.033a2.71 2.71 0 0 1-.586.875c-1.909 1.883-3.92 3.562-5.931 5.241-8.425 6.997-16.825 13.993-16.825 39.537l-.051 175.144z" fill="#fff"/><path d="M541.667 377.059h10.054v-1.298c0-38.494-20.032-36.764-30.061-55.158v-9.77h-10.181v9.77c10.028 18.394 30.086 16.664 30.086 55.158l.102 1.298z" fill="#452c22"/></g><path d="M551.721 377.059h-10.054v48.263h10.054v-48.263z" fill="#911b19"/><g class="C"><path d="M551.721 425.297h-10.054v128.101h-.407c-1.553 4.732-7.28 8.498-14.687 9.693 1.683.27 3.386.406 5.091.407 9.723 0 17.817-4.35 19.701-10.176h.407V425.297h-.051z" fill="#452c22"/><path d="M470.574 330.653c9.749 19.005 3.131 29.665-5.091 30.301-4.087-.327-7.886-2.235-10.589-5.317-7.229-9.032-6.211-67.752 15.68-24.984z" class="D"/><g class="B"><path d="M449.371 327.268c2.545 11.958 9.341 9.541 9.112 5.292s-13.312-24.322-9.112-5.292zm18.937-2.696c-1.043 12.212-8.018 10.686-8.349 6.462s10.004-25.798 8.349-6.462z"/><path d="M461.283 319.254c4.124 11.551-2.851 13.052-4.913 9.337s-1.629-27.605 4.913-9.337z"/></g><path d="M460.265 340.651c5.676 36.535 13.312 58.11 36.221 98.131s31.487 33.507 32.709 25.874-24.309-19.692-47.091-74.011-14.89-57.932-21.839-49.994z" class="D"/><g class="B"><path d="M528.151 460.814c-5.091-8.319-26.523-23.788-46.047-70.296-21.025-50.147-15.934-56.965-20.363-51.495 5.626 33.075 13.618 54.42 35.33 92.202 18.658 32.668 27.72 34.296 31.08 29.589zm-75.548-106.399c2.749 7.506 11.582 8.371 10.564 3.969s-17.742-23.483-10.564-3.969z"/><path d="M476.326 347.215c0 16.97-7.636 13.459-8.247 8.981s8.375-25.925 8.247-8.981zm-24.792-7.073c5.091 12.161 11.582 8.396 10.564 3.969s-18.378-23.203-10.564-3.969zm19.498-6.157c1.095 13.078-6.542 12.721-7.636 8.32s5.905-29.004 7.636-8.32z"/></g><g class="D"><path d="M481.901 370.52c0 13.128-7.636 12.085-8.374 7.633s8.527-28.47 8.374-7.633zm-13.134 22.084c5.09 12.059 11.759 8.116 10.665 3.714s-18.913-22.77-10.665-3.714zm17.181 36.128c5.091 12.059 11.76 8.116 10.665 3.714s-18.912-22.77-10.665-3.714zm10.538-22.339c3.996 12.518-3.538 13.841-5.574 9.795s-.84-29.589 5.574-9.795z"/></g><path d="M466.832 347.342c4.225 10.584-.789 13.383-3.716 11.398a3.77 3.77 0 0 1-1.146-1.221c-2.52-4.172-2.876-29.462 4.862-10.177z" class="B"/><g class="E"><path d="M449.651 325.768c1.4 7.633 4.683 6.106 4.53 3.409s-6.745-15.545-4.53-3.409zm2.698 14.909c3.767 8.93 7.305 6.157 6.389 2.9s-12.371-17.046-6.389-2.9zm.865 13.102c3.767 8.955 7.305 6.182 6.389 2.926s-12.345-17.072-6.389-2.926z"/></g><path d="M461.792 349.175c.407 9.693 4.684 8.319 4.964 5.088s-5.6-20.43-4.964-5.088z" fill="#6d852c"/><g class="E"><path d="M466.374 334.011c-2.545 9.388 2.062 9.337 3.309 6.208s.56-21.066-3.309-6.208zm5.574 14.121c-2.545 9.388 2.037 9.337 3.284 6.182s.585-21.041-3.284-6.182zm-7.738-25.137c-3.461 8.065.586 8.625 2.113 5.979s3.36-18.726-2.113-5.979zm-4.327-5.674c1.858 6.411-1.247 7.251-2.163 5.088s-.739-15.239 2.163-5.088z"/></g><path d="M462.963 329.813c5.091 12.06-2.164 14.121-4.607 10.177s-3.615-29.182 4.607-10.177z" class="B"/><path d="M457.032 331.67c.407 9.693 4.684 8.345 5.091 5.088s-5.753-20.43-5.091-5.088z" class="E"/><g class="B"><path d="M477.497 368.994c-2.545 9.388 2.062 9.337 3.309 6.182s.586-21.04-3.309-6.182zm-5.498 21.879c5.091 6.641 1.528 8.142-.534 6.056s-7.611-16.639.534-6.056zm23.978 15.469c2.265 8.116-1.629 8.142-2.774 5.445s-.79-18.242 2.774-5.445zm-6.033 20.787c5.524 6.36 2.011 8.04-.178 6.081s-8.552-16.105.178-6.081z"/></g><path d="M547.954 332.535a19.28 19.28 0 0 0-6.758 4.009c-1.953 1.786-3.517 3.955-4.594 6.372-4.404 8.752-4.786 23.305 1.552 31.141l2.113 2.061-1.476-2.544a31.97 31.97 0 0 1-3.511-13.285c-.193-4.631.622-9.248 2.391-13.531a17.65 17.65 0 0 1 4.265-6.952 17.66 17.66 0 0 1 6.935-4.294c.397-.123.729-.398.924-.765s.238-.796.119-1.194a1.58 1.58 0 0 0-1.96-1.018z" class="D"/><path d="M531.104 363.294a19.27 19.27 0 0 1 6.439 3.562 19.13 19.13 0 0 1 1.935 2.545l-3.462.432 2.24 5.292-1.985-.331c.258 1.531.198 3.099-.178 4.605-.384 1.319-.931 2.584-1.63 3.766l-4.683-8.065c-.942-2.214-.84-.84-.84-.84v5.623h-1.171l-2.316 4.299a9.45 9.45 0 0 1-.688 1.196s-3.079-3.155-2.749-3.434c-1.191 1.823-2.915 3.235-4.938 4.045-1.831.915-3.786 1.557-5.803 1.908 0 0 1.273-8.294 2.392-9.668s1.63-1.348 1.146-1.399-2.164 0-2.164 0l6.797-6.793-7.458 5.673c-1.502.992-1.528 1.272-1.528 1.272l-1.247-1.603a12.43 12.43 0 0 1-2.774 2.545c-1.502.966-1.96.865-1.96.865l-.357-.636-5.574 1.374 1.654-4.605h-.738l1.4-1.68-5.727 1.4c-1.247.152-.967-2.01-.967-2.01l-8.731-1.4c1.425-1.094 7.382-4.172 7.382-4.172s-1.248-1.908 0-2.188 5.88-.636 5.88-.636l-2.037-1.069.687-.254-3.665-3.664 5.778-.61v-.687s.356-.229 2.189.152a13.98 13.98 0 0 1 3.767 1.476l.408-1.883s.152.229 1.985.662l9.469 2.722-9.367-3.969 1.934-.84c.408-.203 0 0-1.68-.89a49.93 49.93 0 0 1-6.592-8.167 22.24 22.24 0 0 1 6.236-.178 12.72 12.72 0 0 1 6.414 2.061c-.432 0 .917-4.071.917-4.071.425.262.833.551 1.222.865l4.098 3.18 1.043-.458 2.546 5.089s.432 1.552.432-.992c.031-3.002.218-6 .56-8.982a19.36 19.36 0 0 1 3.259 2.926c1.023 1.232 1.801 2.648 2.29 4.173l1.68-.967.382 5.597 3.386-.738c-.102 1.032-.29 2.053-.56 3.054-1.041 2.136-2.535 4.02-4.378 5.52z" class="E"/><g fill="#687e2c"><path d="M532.122 363.702c1.979.707 3.809 1.777 5.396 3.155a19.12 19.12 0 0 1 1.935 2.544l-3.462.433 2.24 5.292-1.986-.331a11.26 11.26 0 0 1-.178 4.605c-.383 1.318-.931 2.583-1.629 3.765l-4.683-8.065c-.942-2.213-.84-.839-.84-.839v5.622h-1.171l-2.317 4.3c-.2.415-.429.814-.687 1.196 0 0-3.08-3.155-2.749-3.435a10.61 10.61 0 0 1-4.938 4.045c-1.831.915-3.787 1.558-5.804 1.909 0 0 1.273-8.295 2.393-9.668s1.629-1.349 1.146-1.4-2.164 0-2.164 0l6.796-6.793-7.458 5.674c-1.502.992-1.527 1.272-1.527 1.272l-1.247-1.603a12.41 12.41 0 0 1-2.775 2.544c-1.502.967-1.96.865-1.96.865l-.331-.636-5.574 1.374 1.654-4.605h-.738l1.4-1.679-5.727 1.399c-1.247.153-.967-2.01-.967-2.01l-8.731-1.399 12.574-1.755 24.563-5.343 9.546-.433z"/><path d="M510.613 374.006c-6.287 2.722-12.727 9.999-12.472 17.174-2.19 1.806-3.691 5.393-2.826 11.703.586 4.147 1.527 5.979 1.222.178-.178-3.511-.484-7.149 1.196-9.388.185-.253.399-.483.637-.687 1.527 6.793 10.614 4.325 8.73-.763-.668-1.067-1.68-1.876-2.869-2.292a5.55 5.55 0 0 0-3.672.002 19.09 19.09 0 0 1 3.766-8.154c1.885-2.381 4.312-4.278 7.077-5.534a1.17 1.17 0 0 0 .395-.234c.115-.104.208-.229.274-.368a1.19 1.19 0 0 0 .112-.445c.007-.155-.016-.309-.068-.454s-.127-.285-.229-.402-.227-.214-.367-.283a1.2 1.2 0 0 0-.448-.118 1.17 1.17 0 0 0-.458.065h0zm-10.182 17.81a3.95 3.95 0 0 1 4.379.865c1.298 1.908-3.691 3.892-4.251-.891l-.128.026z"/></g><path d="M544.849 367.492c-9.647 4.198-18.073 9.516-18.2 15.952s2.546 21.982 4.2 23.534 30.112 20.354 32.785 22.415 4.76 8.269 8.96 1.526 9.545-14.273 3.232-26.459-15.501-36.484-30.977-36.968z" fill="#4b2747"/><g fill="#61345e"><path d="M577.175 431.581a7.06 7.06 0 0 0 3.918-1.187c1.159-.775 2.063-1.876 2.596-3.163a7.05 7.05 0 0 0-1.528-7.681c-.986-.985-2.242-1.656-3.61-1.928a7.05 7.05 0 0 0-7.238 2.996c-.775 1.159-1.188 2.522-1.188 3.916 0 1.869.743 3.661 2.065 4.983a7.05 7.05 0 0 0 4.985 2.064zM556.15 412.27a8.18 8.18 0 0 0 4.54-1.376 8.17 8.17 0 0 0 3.009-3.665c.619-1.493.78-3.135.465-4.719a8.16 8.16 0 0 0-2.236-4.181c-1.143-1.143-2.599-1.92-4.184-2.236s-3.227-.153-4.72.465-2.77 1.665-3.667 3.008a8.16 8.16 0 0 0 1.016 10.312 8.17 8.17 0 0 0 5.777 2.392zm11.887-20.76a8.17 8.17 0 0 0 7.539-5.019c.621-1.486.789-3.123.482-4.705a8.17 8.17 0 0 0-2.208-4.182 8.18 8.18 0 0 0-4.157-2.259c-1.578-.326-3.218-.179-4.713.424s-2.777 1.633-3.687 2.963a8.16 8.16 0 0 0-1.426 4.509c-.014 1.081.188 2.154.592 3.157a8.15 8.15 0 0 0 1.764 2.684 8.16 8.16 0 0 0 2.664 1.796 8.17 8.17 0 0 0 3.15.632h0z"/><path d="M570.608 407.106a8.18 8.18 0 0 0 4.54-1.376 8.17 8.17 0 0 0 3.474-8.384 8.16 8.16 0 0 0-2.236-4.181c-1.143-1.143-2.599-1.92-4.184-2.236a8.17 8.17 0 0 0-4.721.465c-1.493.618-2.769 1.665-3.666 3.008a8.16 8.16 0 0 0-1.377 4.537c.006 2.164.869 4.238 2.4 5.768s3.605 2.393 5.77 2.399h0zm-24.843-14.121a8.18 8.18 0 0 0 7.549-5.041 8.17 8.17 0 0 0 .465-4.719c-.315-1.584-1.094-3.039-2.236-4.182s-2.599-1.92-4.184-2.235-3.228-.153-4.721.465a8.17 8.17 0 0 0-5.044 7.545 8.16 8.16 0 0 0 2.394 5.775 8.17 8.17 0 0 0 5.777 2.392h0zm12.778-11.652c1.612 0 3.187-.477 4.529-1.37a8.17 8.17 0 0 0 3.01-3.649c.621-1.486.789-3.123.481-4.704s-1.075-3.037-2.207-4.183a8.17 8.17 0 0 0-8.87-1.835c-1.495.602-2.778 1.633-3.687 2.963a8.17 8.17 0 0 0-1.427 4.509 8.19 8.19 0 0 0 .6 3.153 8.18 8.18 0 0 0 4.425 4.478 8.19 8.19 0 0 0 3.146.638h0z"/><path d="M543.474 377.263a8.17 8.17 0 0 0 7.549-5.042 8.17 8.17 0 0 0 .465-4.719 8.16 8.16 0 0 0-2.236-4.181c-1.143-1.142-2.599-1.92-4.184-2.235s-3.228-.154-4.721.464-2.769 1.665-3.667 3.008a8.17 8.17 0 0 0-1.377 4.538 8.19 8.19 0 0 0 2.401 5.767 8.2 8.2 0 0 0 5.77 2.4h0z"/><path d="M531.511 385.124c1.616 0 3.196-.479 4.539-1.376a8.17 8.17 0 0 0 3.01-3.666c.618-1.492.78-3.134.465-4.718a8.17 8.17 0 0 0-6.42-6.417c-1.585-.315-3.228-.153-4.721.465a8.17 8.17 0 0 0-3.667 3.008 8.16 8.16 0 0 0-1.377 4.537c0 2.166.861 4.243 2.393 5.775s3.611 2.392 5.778 2.392h0z"/><path d="M530.162 397.871c1.614-.01 3.188-.498 4.525-1.401a8.17 8.17 0 0 0 2.987-3.676 8.16 8.16 0 0 0 .444-4.714 8.17 8.17 0 0 0-2.247-4.169c-1.145-1.137-2.601-1.91-4.185-2.221a8.17 8.17 0 0 0-4.714.474 8.16 8.16 0 0 0-4.405 10.677c.414.994 1.02 1.897 1.784 2.656a8.18 8.18 0 0 0 2.668 1.767c.998.407 2.066.614 3.143.607h0zm34.515 42.641a8.17 8.17 0 0 0 4.54-1.377 8.16 8.16 0 0 0 3.009-3.665c.619-1.492.781-3.134.465-4.719a8.16 8.16 0 0 0-2.236-4.181c-1.143-1.142-2.599-1.92-4.183-2.235s-3.228-.154-4.721.464a8.17 8.17 0 0 0-3.667 3.008c-.898 1.343-1.377 2.922-1.377 4.538 0 2.166.861 4.243 2.393 5.775a8.17 8.17 0 0 0 5.777 2.392z"/><path d="M553.961 431.276a8.17 8.17 0 0 0 7.531-5.059 8.17 8.17 0 0 0 .455-4.717c-.319-1.582-1.099-3.035-2.243-4.175a8.18 8.18 0 0 0-4.183-2.228c-1.585-.313-3.226-.149-4.718.469s-2.766 1.666-3.663 3.009-1.375 2.92-1.375 4.534a8.19 8.19 0 0 0 2.41 5.777c1.536 1.531 3.617 2.39 5.786 2.39h0z"/><path d="M544.518 421.862c1.626.005 3.217-.474 4.571-1.375s2.407-2.186 3.029-3.688a8.19 8.19 0 0 0 .459-4.75c-.322-1.593-1.111-3.055-2.266-4.199a8.19 8.19 0 0 0-4.223-2.225c-1.598-.306-3.249-.132-4.747.503a8.2 8.2 0 0 0-3.661 3.062c-.889 1.361-1.353 2.956-1.333 4.582.027 2.15.899 4.204 2.427 5.718s3.592 2.366 5.744 2.372h0zm-15.222-9.795a8.18 8.18 0 0 0 4.54-1.376c1.343-.898 2.391-2.173 3.009-3.665a8.17 8.17 0 0 0 .465-4.719c-.315-1.584-1.093-3.039-2.236-4.182s-2.599-1.92-4.184-2.235-3.228-.153-4.721.465-2.769 1.665-3.666 3.008a8.17 8.17 0 0 0-1.378 4.537 8.16 8.16 0 0 0 2.394 5.775 8.17 8.17 0 0 0 5.777 2.392h0zm50.45 32.439a8.17 8.17 0 0 0 7.549-5.042c.618-1.492.78-3.134.465-4.718a8.17 8.17 0 0 0-6.42-6.417 8.17 8.17 0 0 0-8.388 3.472c-.897 1.344-1.377 2.923-1.377 4.538 0 1.072.212 2.134.622 3.125a8.18 8.18 0 0 0 1.772 2.65 8.16 8.16 0 0 0 2.65 1.77c.992.41 2.054.622 3.127.622h0zm-4.352-25.035a8.17 8.17 0 0 0 4.552-1.334c1.352-.885 2.411-2.15 3.043-3.637a8.17 8.17 0 0 0-5.85-11.19c-1.582-.33-3.227-.184-4.725.42a8.17 8.17 0 0 0-3.695 2.974c-.911 1.334-1.405 2.909-1.42 4.524-.01 1.072.192 2.136.593 3.131a8.16 8.16 0 0 0 1.746 2.666c.752.766 1.647 1.376 2.635 1.795a8.19 8.19 0 0 0 3.121.651z"/><path d="M564.576 425.577a8.2 8.2 0 0 0 4.56-1.368 8.19 8.19 0 0 0 3.507-8.407c-.313-1.591-1.092-3.053-2.237-4.201a8.2 8.2 0 0 0-4.197-2.249 8.19 8.19 0 0 0-4.739.462c-1.499.619-2.78 1.669-3.682 3.017s-1.383 2.932-1.383 4.554a8.19 8.19 0 0 0 2.392 5.784 8.2 8.2 0 0 0 5.779 2.408h0zm-24.105-18.063a8.17 8.17 0 0 0 4.539-1.377 8.16 8.16 0 0 0 3.009-3.665c.619-1.492.781-3.134.465-4.719a8.16 8.16 0 0 0-2.236-4.181 8.17 8.17 0 0 0-12.571 1.237c-.898 1.343-1.377 2.922-1.377 4.538 0 2.166.861 4.243 2.393 5.774a8.17 8.17 0 0 0 5.778 2.393zm17.105-8.676c1.616 0 3.196-.479 4.539-1.377a8.17 8.17 0 0 0 3.01-3.665c.618-1.492.78-3.134.465-4.718a8.17 8.17 0 0 0-11.141-5.952c-1.493.618-2.769 1.664-3.667 3.008a8.16 8.16 0 0 0-1.377 4.537c0 2.166.861 4.243 2.393 5.775a8.17 8.17 0 0 0 5.778 2.392z"/></g><g fill="#6e3b6e"><path d="M556.481 366.628c1.147-.688 2.475-1.013 3.811-.934s2.615.56 3.673 1.378a6.64 6.64 0 0 1 2.254 3.209c.412 1.272.429 2.639.051 3.921a6.64 6.64 0 0 1-9.641 3.902 6.64 6.64 0 0 1-2.693-2.851 6.39 6.39 0 0 1 2.545-8.625zm-15.654-3.741a6.62 6.62 0 0 1 3.667-1.321c1.328-.063 2.643.276 3.775.971a6.62 6.62 0 0 1 2.574 2.927 6.61 6.61 0 0 1 .478 3.867c-.232 1.307-.853 2.515-1.781 3.465a6.62 6.62 0 0 1-3.425 1.862c-1.303.263-2.654.127-3.879-.388s-2.265-1.388-2.987-2.503c-.482-.686-.823-1.46-1.005-2.279a6.38 6.38 0 0 1-.053-2.489 6.36 6.36 0 0 1 2.636-4.112h0zm-13.109 8.193a6.64 6.64 0 0 1 4.502-1.54c1.64.059 3.199.724 4.378 1.864s1.894 2.676 2.007 4.312a6.64 6.64 0 0 1-1.392 4.548c-1.255 1.081-2.869 1.655-4.525 1.608s-3.235-.71-4.427-1.86a6.64 6.64 0 0 1-2.016-4.356c-.105-1.652.411-3.285 1.448-4.576h.025z"/><path d="M525.936 383.572c.85-1.021 1.988-1.763 3.265-2.129a6.62 6.62 0 0 1 3.897.078c1.262.416 2.369 1.202 3.178 2.256a6.61 6.61 0 0 1 .42 7.434 6.62 6.62 0 0 1-2.903 2.6c-1.207.555-2.553.735-3.864.515s-2.524-.828-3.483-1.747c-1.255-1.132-2.012-2.713-2.108-4.399a6.41 6.41 0 0 1 1.598-4.608h0zm15.553-4.274a6.61 6.61 0 0 1 3.27-2.12c1.279-.363 2.637-.332 3.897.088a6.61 6.61 0 0 1 4.518 5.921 6.62 6.62 0 0 1-.947 3.78c-.688 1.136-1.702 2.039-2.911 2.591a6.62 6.62 0 0 1-7.344-1.254 6.41 6.41 0 0 1-.483-9.006h0zm11.734 6.487c.851-1.029 1.992-1.779 3.275-2.15a6.65 6.65 0 0 1 3.918.069 6.64 6.64 0 0 1 4.563 5.935c.075 1.333-.253 2.658-.943 3.801s-1.708 2.053-2.922 2.61-2.568.734-3.885.509a6.65 6.65 0 0 1-3.497-1.767c-1.254-1.132-2.012-2.713-2.107-4.399s.479-3.342 1.598-4.608h0zm11.429-7.632c.853-1.019 1.992-1.757 3.27-2.12s2.637-.332 3.898.088a6.62 6.62 0 0 1 3.171 2.265 6.61 6.61 0 0 1 1.346 3.657c.071 1.326-.259 2.643-.947 3.779s-1.702 2.039-2.91 2.592a6.63 6.63 0 0 1-3.866.504 6.62 6.62 0 0 1-3.478-1.758 6.39 6.39 0 0 1-2.105-4.404c-.091-1.688.492-3.343 1.621-4.603h0zm2.749 15.011c.768-.923 1.797-1.593 2.951-1.923a5.98 5.98 0 0 1 3.522.07 5.99 5.99 0 0 1 2.872 2.04c.73.953 1.157 2.103 1.225 3.302s-.228 2.389-.847 3.418a5.99 5.99 0 0 1-2.624 2.349c-1.091.502-2.308.664-3.492.465a5.98 5.98 0 0 1-3.149-1.58c-1.138-1.02-1.826-2.45-1.912-3.976a5.77 5.77 0 0 1 1.454-4.165h0zm5.905 12.976c.772-.928 1.804-1.602 2.964-1.934s2.393-.309 3.539.069a6.01 6.01 0 0 1 2.885 2.049 6 6 0 0 1 1.23 3.317c.068 1.204-.229 2.4-.851 3.434a6.01 6.01 0 0 1-2.638 2.358c-1.097.504-2.319.665-3.509.464a6.01 6.01 0 0 1-3.161-1.59c-.568-.506-1.03-1.119-1.36-1.803s-.523-1.427-.565-2.186.065-1.518.316-2.235a5.78 5.78 0 0 1 1.15-1.943h0zm-12.828 5.876a6 6 0 0 1 2.961-1.944 6.01 6.01 0 0 1 7.668 5.43 6 6 0 0 1-.853 3.438 6.01 6.01 0 0 1-2.643 2.359 6.02 6.02 0 0 1-3.514.459 6.01 6.01 0 0 1-3.161-1.6 5.8 5.8 0 0 1-1.902-3.977c-.086-1.524.433-3.021 1.444-4.165zm-7.611-12.746a6 6 0 0 1 2.962-1.944 6.01 6.01 0 0 1 3.543.062c1.147.377 2.155 1.09 2.891 2.048a5.99 5.99 0 0 1 1.233 3.32 6 6 0 0 1-.853 3.438c-.624 1.034-1.545 1.856-2.643 2.358a6.02 6.02 0 0 1-3.514.46 6.01 6.01 0 0 1-3.161-1.601c-1.139-1.02-1.826-2.45-1.912-3.976a5.77 5.77 0 0 1 1.454-4.165z"/><path d="M550.983 418.682c.771-.92 1.802-1.587 2.957-1.914a5.98 5.98 0 0 1 6.388 2.13c.727.955 1.151 2.107 1.214 3.306a5.98 5.98 0 0 1-.857 3.415c-.622 1.026-1.54 1.843-2.632 2.341s-2.31.657-3.494.454-2.279-.757-3.143-1.59c-.568-.504-1.03-1.115-1.36-1.798a5.71 5.71 0 0 1-.235-4.412c.256-.715.651-1.371 1.162-1.932h0zm-10.589-9.362c.771-.92 1.802-1.587 2.957-1.914s2.383-.299 3.523.081a5.98 5.98 0 0 1 3.222 8.77 5.98 5.98 0 0 1-2.632 2.341c-1.092.498-2.31.656-3.494.454a5.97 5.97 0 0 1-3.143-1.591c-.565-.505-1.024-1.116-1.352-1.8a5.74 5.74 0 0 1-.557-2.18c-.04-.756.069-1.514.323-2.228a5.76 5.76 0 0 1 1.153-1.933h0zm20.618 18.318c.769-.931 1.801-1.608 2.962-1.944a6.01 6.01 0 0 1 6.434 2.11 6 6 0 0 1 .38 6.758c-.623 1.034-1.545 1.856-2.643 2.359a6.02 6.02 0 0 1-3.514.459c-1.19-.204-2.292-.761-3.161-1.6a5.78 5.78 0 0 1-1.912-3.976c-.086-1.527.437-3.024 1.454-4.166zm13.109-8.422c.768-.922 1.796-1.592 2.951-1.923a5.99 5.99 0 0 1 3.522.071c1.141.377 2.141 1.087 2.872 2.04a5.98 5.98 0 0 1 1.224 3.302c.068 1.198-.227 2.389-.846 3.418a5.98 5.98 0 0 1-2.625 2.349 5.99 5.99 0 0 1-6.64-1.115c-1.139-1.021-1.826-2.45-1.912-3.976s.437-3.024 1.454-4.166h0zm2.851 12.136c.72-.843 1.677-1.451 2.747-1.745a5.55 5.55 0 0 1 3.253.095c1.051.356 1.971 1.018 2.641 1.902s1.06 1.948 1.119 3.055a5.55 5.55 0 0 1-.787 3.157c-.573.95-1.417 1.707-2.424 2.172s-2.13.619-3.225.44a5.54 5.54 0 0 1-2.917-1.443c-.535-.47-.971-1.042-1.282-1.683a5.34 5.34 0 0 1-.529-2.048 5.32 5.32 0 0 1 .308-2.092c.241-.67.613-1.286 1.096-1.81h0zm-40.981-36.942a6.64 6.64 0 0 1 3.281-2.141 6.65 6.65 0 0 1 3.918.079c1.268.42 2.38 1.212 3.191 2.273a6.64 6.64 0 0 1 1.355 3.675c.072 1.334-.261 2.658-.953 3.799s-1.714 2.049-2.93 2.602a6.65 6.65 0 0 1-3.887.498c-1.316-.228-2.533-.848-3.492-1.778-1.257-1.132-2.014-2.715-2.104-4.404a6.38 6.38 0 0 1 1.621-4.603h0zm-12.625 4.885c.853-1.027 1.996-1.774 3.281-2.142a6.65 6.65 0 0 1 3.918.08c1.268.42 2.38 1.212 3.191 2.273a6.64 6.64 0 0 1 .401 7.474c-.692 1.142-1.713 2.048-2.929 2.601a6.64 6.64 0 0 1-3.887.498c-1.317-.228-2.533-.848-3.492-1.778a6.38 6.38 0 0 1-.483-9.006h0z"/></g><g fill="#7d4f7c"><path d="M572.11 377.899c2.902 1.806 3.436 6.055 1.4 4.859a9.04 9.04 0 0 0-2.902-2.544c-1.374-.636-4.072-.687-4.2-1.476-.382-2.06 3.895-2.035 5.702-.839zm-9.774-9.923c2.902 1.806 3.436 6.055 1.4 4.834a9.12 9.12 0 0 0-2.902-2.544c-1.375-.662-4.073-.687-4.2-1.476-.382-2.01 3.767-1.984 5.702-.814zm-15.196-4.325c2.901 1.806 3.41 6.055 1.4 4.834a9.12 9.12 0 0 0-2.902-2.544c-1.375-.636-4.073-.687-4.226-1.476-.381-2.035 3.793-2.01 5.728-.814zm-12.091 7.2c2.902 1.807 3.436 6.055 1.4 4.834a9.12 9.12 0 0 0-2.902-2.544c-1.374-.662-4.073-.687-4.2-1.476-.382-2.035 3.767-2.01 5.702-.814zm14.127 8.675c2.902 1.807 3.411 6.056 1.4 4.86a9.03 9.03 0 0 0-2.902-2.544c-1.374-.636-4.072-.687-4.225-1.476-.382-2.035 3.792-2.035 5.727-.84zm11.658 5.853c2.927 1.806 3.436 6.029 1.4 4.834a8.79 8.79 0 0 0-2.902-2.545c-1.374-.661-4.047-.712-4.2-1.475-.382-2.036 3.793-2.01 5.702-.814zm13.312 7.734c2.902 1.806 3.437 6.03 1.4 4.834-.774-1.046-1.763-1.913-2.901-2.544-1.375-.662-4.048-.713-4.2-1.476-.382-2.035 3.767-2.01 5.701-.814zm5.829 13.153c2.928 1.807 3.437 6.055 1.426 4.834-.787-1.043-1.784-1.91-2.927-2.544-1.375-.636-4.048-.687-4.2-1.476-.382-2.035 3.792-2.01 5.701-.814zm1.4 13.408c2.546 2.061 2.546 6.157.738 4.758a8.39 8.39 0 0 0-2.545-2.697c-1.222-.788-3.767-1.17-3.793-1.933 0-2.036 3.946-1.501 5.6-.128zm2.52 11.729c2.546 2.061 2.546 6.157.739 4.758-.637-1.078-1.507-1.999-2.546-2.697-1.222-.789-3.767-1.145-3.818-1.908 0-2.036 3.945-1.527 5.625-.153zm-15.883-3.18c2.545 2.061 2.545 6.157.738 4.758a8.76 8.76 0 0 0-2.545-2.697c-1.222-.788-3.767-1.17-3.818-1.908 0-2.061 3.945-1.526 5.625-.153zm-.407-15.622c2.545 2.086 2.545 6.157.738 4.758a9.06 9.06 0 0 0-2.546-2.697c-1.221-.789-3.767-1.145-3.818-1.908 0-2.036 3.946-1.527 5.626-.153zm-7.484-13.433c2.546 2.087 2.546 6.158.738 4.758a8.76 8.76 0 0 0-2.545-2.697c-1.222-.788-3.767-1.145-3.818-1.908-.051-2.035 3.894-1.526 5.625-.153zm-16.265-4.071c2.545 2.086 2.545 6.157.738 4.758-.651-1.066-1.518-1.985-2.545-2.697-1.222-.789-3.767-1.145-3.793-1.908-.025-2.036 4.047-1.527 5.6-.153zm3.385 15.393c2.546 2.086 2.546 6.157.739 4.783-.65-1.075-1.517-2.002-2.546-2.722-1.222-.764-3.767-1.145-3.818-1.909 0-1.959 3.945-1.501 5.625-.152zm10.717 8.574c2.545 2.061 2.545 6.132.738 4.758-.637-1.078-1.507-1.999-2.546-2.697-1.221-.789-3.767-1.17-3.792-1.934-.026-2.035 3.92-1.501 5.6-.127zm-24.436-35.238c2.545 2.087 2.545 6.157.738 4.784a8.37 8.37 0 0 0-2.546-2.723c-1.221-.763-3.767-1.145-3.792-1.908-.026-2.035 3.92-1.501 5.6-.153zm-3.131 16.436c2.545 2.061 2.545 6.157.763 4.758-.651-1.066-1.518-1.984-2.545-2.697-1.222-.788-3.767-1.145-3.793-1.908-.025-2.061 3.92-1.526 5.575-.153z"/></g><path d="M451.84 394.028h65.391 51.519 65.392l19.472 215.012H568.75h-51.519-84.864l19.473-215.012z" fill="#b49061"/><path d="M477.268 394.028h65.392 51.519 65.391l19.473 215.012h-84.864-51.519-84.864l19.472-215.012z" fill="#e2c077"/><g fill="#764633"><path d="M525.3 425.552a5.09 5.09 0 0 0 2.828-.858c.838-.559 1.49-1.354 1.875-2.283a5.09 5.09 0 0 0 .29-2.94c-.196-.987-.681-1.894-1.393-2.606a5.09 5.09 0 0 0-5.548-1.103 5.1 5.1 0 0 0-2.285 1.874 5.09 5.09 0 0 0 4.233 7.916zm81.224 0a5.09 5.09 0 0 0 4.703-3.141c.386-.93.486-1.953.29-2.94s-.681-1.894-1.393-2.606a5.09 5.09 0 0 0-5.548-1.103c-.93.385-1.726 1.038-2.285 1.874a5.09 5.09 0 0 0-.858 2.827c0 1.35.536 2.644 1.491 3.598a5.09 5.09 0 0 0 3.6 1.491z"/></g><path d="M604.106 422.015c-.085-.373-.085-.76 0-1.132s.253-.721.492-1.02.541-.54.885-.706.722-.252 1.105-.252.759.086 1.104.252.647.407.885.706.407.647.492 1.02.085.759 0 1.132a43.01 43.01 0 0 1-12.966 29.743c-8.04 7.843-18.829 12.233-30.064 12.233s-22.023-4.39-30.063-12.233a43.01 43.01 0 0 1-12.967-29.743 2.54 2.54 0 0 1 .746-1.799c.477-.477 1.124-.745 1.8-.745s1.322.268 1.799.745a2.54 2.54 0 0 1 .746 1.799c.744 9.581 5.077 18.529 12.134 25.056s16.318 10.153 25.933 10.153 18.875-3.626 25.932-10.153 11.39-15.475 12.134-25.056h-.127z" fill="#e0a519"/></g><g fill="#7a4533"><path d="M502.667 556.883v-24.074h6.799c2.096 0 3.949.463 5.559 1.389s2.851 2.243 3.722 3.951c.882 1.709 1.329 3.671 1.34 5.887v1.538c0 2.27-.441 4.26-1.324 5.969-.871 1.708-2.123 3.02-3.755 3.935-1.621.915-3.512 1.383-5.674 1.405h-6.667zm3.177-21.462v18.866h3.341c2.448 0 4.351-.76 5.707-2.281 1.368-1.522 2.052-3.688 2.052-6.499v-1.405c0-2.734-.646-4.856-1.936-6.366-1.279-1.521-3.099-2.293-5.459-2.315h-3.705z"/><use xlink:href="#B"/><path d="M547.349 554.287h11.414v2.596h-14.607v-24.074h3.193v21.478zm18.445 2.596h-3.176v-24.074h3.176v24.074zm13.797-4.216l6.881-19.858h3.474l-8.933 24.074h-2.812l-8.916-24.074h3.457l6.849 19.858zm27.212-6.912h-10.438v8.532h12.126v2.596h-15.302v-24.074h15.136v2.612h-11.96v7.738h10.438v2.596zm14.475 1.389h-5.657v9.739h-3.193v-24.074h7.973c2.713 0 4.798.617 6.253 1.851 1.467 1.235 2.201 3.032 2.201 5.391 0 1.499-.408 2.805-1.224 3.919-.806 1.113-1.93 1.945-3.375 2.496l5.657 10.219v.198h-3.407l-5.228-9.739zm-5.657-2.596h4.88c1.577 0 2.828-.408 3.755-1.223.937-.816 1.406-1.907 1.406-3.274 0-1.488-.447-2.629-1.34-3.423-.882-.794-2.162-1.196-3.838-1.207h-4.863v9.127zm24.251.348l6.286-12.087h3.607l-8.305 15.096v8.978h-3.176v-8.978l-8.304-15.096h3.639l6.253 12.087zm-128.187-20.349h-9.496V479.05h26.09v7.904h-16.594v11.732h15.443v7.874h-15.443v17.987zm53.364 0l-3.3-10.83h-16.595l-3.3 10.83h-10.399l16.065-45.684h11.8l16.127 45.684h-10.398zm-5.604-18.921l-5.169-16.649-.809-3.05c-.685 2.656-2.647 9.222-5.884 19.699h11.862zm48.631 6.286c0 4.108-1.484 7.344-4.452 9.709-2.948 2.365-7.057 3.548-12.329 3.548-4.857 0-9.154-.913-12.89-2.739v-8.962c3.072 1.369 5.667 2.334 7.784 2.894 2.138.56 4.089.84 5.853.84 2.117 0 3.736-.404 4.857-1.213 1.141-.809 1.712-2.013 1.712-3.61 0-.892-.249-1.681-.747-2.365-.498-.706-1.235-1.38-2.211-2.023-.954-.643-2.916-1.67-5.884-3.081-2.781-1.307-4.867-2.562-6.258-3.765s-2.501-2.604-3.331-4.201-1.246-3.465-1.246-5.602c0-4.025 1.36-7.188 4.079-9.491 2.74-2.303 6.517-3.455 11.333-3.455 2.366 0 4.618.281 6.756.841 2.159.56 4.411 1.348 6.756 2.365l-3.113 7.5c-2.429-.996-4.442-1.691-6.04-2.085-1.578-.395-3.135-.592-4.671-.592-1.826 0-3.227.426-4.203 1.276s-1.463 1.961-1.463 3.33c0 .851.197 1.597.592 2.241.394.622 1.017 1.234 1.868 1.836.871.58 2.916 1.639 6.133 3.174 4.255 2.033 7.171 4.076 8.749 6.13 1.577 2.033 2.366 4.533 2.366 7.5zm25.81 12.635h-9.652v-37.468h-12.36v-8.029h34.372v8.029h-12.36v37.468z"/></g><path d="M400.321 632.854h317.895a11.94 11.94 0 0 0 8.416-3.495 11.93 11.93 0 0 0 0-16.824 11.94 11.94 0 0 0-8.416-3.495H400.321c-3.156.013-6.178 1.272-8.409 3.502a11.96 11.96 0 0 0-3.504 8.405h0a11.96 11.96 0 0 0 3.504 8.405 11.97 11.97 0 0 0 8.409 3.502h0z" fill="#ebebeb" class="C"/></g><g class="C"><path opacity=".163" d="M859.894 475.165h-63.095c-7.906 0-14.376-6.472-14.376-14.381v-63.115c0-7.91 6.47-14.381 14.376-14.381h63.095c7.907 0 14.376 6.471 14.376 14.381v63.115c0 7.909-6.469 14.381-14.376 14.381z" fill="#597ef7"/><path d="M238.534 291.712h-27.99c-3.528 0-6.415-3.076-6.415-6.836V254.69c0-3.76 2.887-6.836 6.415-6.836h27.99c3.528 0 6.416 3.076 6.416 6.836v30.186c0 3.76-2.888 6.836-6.416 6.836z" fill="#0bb8e4"/><path d="M860.275 594.261c-3.529 0-6.415-2.865-6.415-6.365v-28.104c0-3.501 2.886-6.365 6.415-6.365h27.99c3.528 0 6.415 2.864 6.415 6.365v28.104c0 3.5-2.887 6.365-6.415 6.365h-27.99z" fill="#ff7a46"/></g><defs><clipPath id="A"><path fill="#fff" transform="translate(168.129 245.854)" d="M0 0h562v387H0z"/></clipPath><path id="B" d="M538.515 545.755h-10.438v8.532h12.126v2.596h-15.302v-24.074h15.136v2.612h-11.96v7.738h10.438v2.596z"/></defs></svg>