<svg xmlns="http://www.w3.org/2000/svg" xmlns:xlink="http://www.w3.org/1999/xlink" width="1128" height="848" fill="none" xmlns:v="https://vecta.io/nano"><style><![CDATA[.B{fill:#de9d80}.C{fill-rule:evenodd}.D{fill:#1f436d}.E{fill:#f26333}.F{fill:#af745f}.G{fill:#637d2a}.H{fill:#fff}.I{fill:#1a3855}.J{fill:#47291c}.K{fill:#613020}.L{fill:#506422}.M{fill:#7b913f}.N{fill:#323231}.O{fill:#575756}.P{fill:#afb0b0}]]></style><path d="M880.581 243.492c107.768 100.678 225.459 198.52 243.899 314.796 18.43 116.276-62.4 250.986-170.163 281.473-107.768 30.487-242.478-43.249-370.098-50.339-126.911-7.799-247.441 51.757-355.918 21.27S21.982 659.675 3.548 520.711c-19.143-138.964 40.413-296.362 148.89-397.04C261.624 22.993 419.022-20.965 547.351 9.522c127.62 29.778 225.462 133.292 333.23 233.97z" class="H"/><g class="C"><path opacity=".163" d="M804.333 455.793h-54.042c-6.773 0-12.314-5.543-12.314-12.317v-54.061c0-6.774 5.541-12.317 12.314-12.317h54.042c6.773 0 12.314 5.543 12.314 12.317v54.061c0 6.774-5.541 12.317-12.314 12.317z" fill="#597ef7"/><path d="M272.117 408.981h-23.974c-3.022 0-5.495-2.636-5.495-5.856V377.27c0-3.221 2.473-5.856 5.495-5.856h23.974c3.023 0 5.496 2.635 5.496 5.856v25.855c0 3.22-2.473 5.856-5.496 5.856z" fill="#0bb8e4"/><path d="M804.66 557.806c-3.023 0-5.495-2.454-5.495-5.452v-24.072c0-2.998 2.472-5.452 5.495-5.452h23.974c3.022 0 5.495 2.454 5.495 5.452v24.072c0 2.998-2.473 5.452-5.495 5.452H804.66z" fill="#ff7a46"/><path opacity=".497" d="M227.843 295.857c-8.093 0-14.714-6.621-14.714-14.713v-64.577c0-8.092 6.621-14.713 14.714-14.713h64.576c8.093 0 14.714 6.621 14.714 14.713v64.577c0 8.092-6.621 14.713-14.714 14.713h-64.576z" fill="#adc6ff"/></g><g clip-path="url(#A)"><g class="C"><path d="M377.789 359.414c-1.033-1.017-1.851-2.232-2.405-3.572s-.834-2.779-.822-4.229a10.82 10.82 0 0 1 3.357-7.747c1.05-1 2.29-1.778 3.646-2.289s2.802-.742 4.249-.682 2.869.411 4.179 1.031a10.81 10.81 0 0 1 3.444 2.583l8.337 8.974 4.577 4.924c-2.663-6.879-5.791-13.567-9.362-20.02a10.81 10.81 0 0 1-.457-7.943c.863-2.61 2.688-4.791 5.103-6.101s5.236-1.647 7.891-.945a10.79 10.79 0 0 1 6.397 4.723c3.798 6.825 10.103 19.373 12.837 29.487 2.83 10.438 2.051 19.677-6.191 24.506-15.325 9.012-19.617 4.354-36.595-14.068l-8.185-8.708v.076zm33.291 3.803c.323.247.513.323.627.266 1.101-.647.436-.495-.532-.266h-.095z" class="D"/><path d="M399.23 430.271l8.64 82.833-.702 84.449-21.555-.171.684-83.004-8.546-81.902 21.479-2.205z" class="N"/><g class="O"><path d="M374.978 415.004c13.617 0 24.688 9.506 24.688 21.312s-11.052 21.331-24.688 21.331-24.688-9.506-24.688-21.331 11.072-21.312 24.688-21.312z"/><path d="M382.727 429.282l-7.844 84.925-.057.951-10.748 83.727-22.694-.97 11.698-86.845-3.172-78.594 32.817-3.194z"/></g><path d="M347.916 428.883l-.152 6.844c15.877 14.791 54.846 4.639 53.175.494l.323-5.38s-32.532 6.255-53.346-1.958z" class="E"/><path d="M398.166 417.342c1.234-25.399 2.811-55.799-5.583-70.077-5.109-8.688-13.959-15-30.784-11.673-2.564.495-7.768 54.107-11.11 79.126-.893 6.636-4.444 9.506-4.444 10.932 0 7.282 13.104 13.175 29.246 13.175s29.246-5.893 29.246-13.175c-.019-3.156-2.469-6.046-6.571-8.308z" class="D"/><path d="M365.426 316.067h15.61v23.08c0 4.316-3.513 1.73-7.805 1.73s-7.805 2.586-7.805-1.73v-23.08z" class="B"/><path d="M365.426 316.067h15.61v17.757c-2.488 1.198-12.268-2.642-15.61-7.852v-9.905z" class="F"/><path d="M399.002 378.882l-.608-9.506c-12.247 2.132-24.627 3.402-37.051 3.802 0 .97 1.196 9.772 1.291 9.772a262.38 262.38 0 0 0 36.368-4.068h0z" class="E"/><path d="M349.113 596.184v-.323c-.045-.424-.003-.852.123-1.259s.332-.785.607-1.11a3.16 3.16 0 0 1 .993-.782c.38-.191.796-.302 1.22-.328h10.426a3.15 3.15 0 0 1 1.236.333 3.16 3.16 0 0 1 1.001.797 3.14 3.14 0 0 1 .602 1.13c.122.413.158.848.105 1.276v.665l1.386 1.274 10.464 1.369c.605.016 1.2.155 1.749.409a4.46 4.46 0 0 1 1.447 1.066 4.47 4.47 0 0 1 .909 1.551c.195.573.272 1.18.225 1.784v5.703h-40.697v-5.475-2.034-.818-1.426c-.053-.428-.017-.863.106-1.277a3.14 3.14 0 0 1 .608-1.128 3.13 3.13 0 0 1 1.008-.791c.387-.191.809-.3 1.24-.321h4.14c.362-.114.73-.21 1.102-.285h0z" fill="#3d3d3c"/><g class="E"><path d="M385.841 409.072c4.433.942 8.937 1.515 13.464 1.711a116.01 116.01 0 0 0 15.497-.38l1.386 15.209a131.43 131.43 0 0 1-17.547.457c-5.363-.216-10.699-.877-15.953-1.978l3.153-15.019z"/><path d="M425.247 426.506l7.862-.856c3.533-.57 3.798-2.186 3.324-3.156a2.48 2.48 0 0 0-.699-.697c-.277-.183-.589-.308-.916-.367 5.698 0 6.305-4.506 2.336-4.43 3.438-.323 3.172-3.175 2.07-3.802-.818-.422-1.748-.575-2.658-.438 0 0 4.538-.627 2.905-3.384-.987-1.692-12.173.78-15.193.78 0 0 2.906-4.81 1.121-6.236s-8.945 3.194-11.717 8.46-1.615 10.323 2.886 12.966c3.267 1.825 5.166 1.635 8.679 1.16z"/></g><g fill="#b12e02"><path d="M436.926 412.228c.093-.011.187.015.261.071a.36.36 0 0 1 .138.233.33.33 0 0 1-.005.14c-.011.046-.031.089-.06.126a.33.33 0 0 1-.105.092c-.041.023-.087.037-.134.041l-7.596.97a.33.33 0 0 1-.14-.005.34.34 0 0 1-.126-.06c-.037-.028-.068-.064-.091-.106a.35.35 0 0 1-.042-.133c-.005-.047-.006-.096.004-.143a.35.35 0 0 1 .06-.13.36.36 0 0 1 .105-.097c.042-.025.087-.041.135-.048l7.596-.951zm.57 4.373c.095-.006.188.024.262.084a.38.38 0 0 1 .137.239.38.38 0 0 1-.323.4l-7.596.95c-.047.008-.094.007-.14-.004a.33.33 0 0 1-.126-.061.34.34 0 0 1-.133-.239c-.011-.093.015-.186.071-.261s.14-.124.233-.138l7.615-.97zm-2.127 4.677c.047-.006.095-.001.141.012s.089.036.126.066a.35.35 0 0 1 .09.109.36.36 0 0 1 .042.136c.006.095-.024.188-.084.262a.38.38 0 0 1-.239.137l-5.469.684a.33.33 0 0 1-.14-.004.34.34 0 0 1-.126-.06c-.038-.029-.069-.065-.092-.106a.35.35 0 0 1-.041-.134.33.33 0 0 1 .005-.14.34.34 0 0 1 .165-.217.35.35 0 0 1 .134-.042l5.488-.703z"/></g><path d="M392.184 596.184v-.323c-.044-.424-.003-.852.123-1.259s.332-.785.607-1.11a3.16 3.16 0 0 1 .993-.782 3.15 3.15 0 0 1 1.221-.328h10.35a3.16 3.16 0 0 1 1.241.327c.387.194.73.465 1.008.796s.484.717.607 1.132a3.15 3.15 0 0 1 .106 1.281v.665l1.367 1.274 10.464 1.369c.605.016 1.2.155 1.75.409a4.47 4.47 0 0 1 2.355 2.617c.195.573.272 1.18.225 1.784v5.703h-40.697v-5.475-2.034-.818-1.426a3.11 3.11 0 0 1 .099-1.276c.12-.414.325-.798.602-1.129a3.12 3.12 0 0 1 1.005-.791c.386-.191.807-.301 1.238-.321h4.159c.386-.118.779-.213 1.177-.285z" class="N"/><path d="M372.623 353.711c-25.827 28.118-3.399 54.905 35.342 53.232 5.204-.475 8.052 22.339 2.07 22.814-21.042 1.901-46.261-2.662-60.296-20.342-6.364-7.674-10.275-17.087-11.223-27.016-1.747-24.392 12.477-49.43 27.555-47.016 1.558.343 11.756 10.4 6.552 18.328z" class="D"/><path d="M351.183 412.153c-.07-.072-.109-.167-.109-.267a.38.38 0 0 1 .109-.266c.074-.071.173-.11.275-.11a.4.4 0 0 1 .276.11c4.216 5.21 9.713 9.233 15.952 11.673 7.356 2.985 15.112 4.868 23.017 5.59 17.091 1.787 20.776.361 20.89.361a.38.38 0 0 1 .29.002c.092.04.165.114.203.207.018.047.027.098.025.149s-.013.1-.035.146a.38.38 0 0 1-.088.122.39.39 0 0 1-.13.077s-3.798 1.502-21.136-.304a81.09 81.09 0 0 1-23.226-5.57c-6.378-2.491-11.999-6.599-16.313-11.92h0z" fill="#9b261c"/><g class="I"><path d="M350.879 412.361a.78.78 0 0 1-.133-.532h0a.78.78 0 0 1 .285-.456c.077-.062.165-.107.26-.133s.193-.033.291-.019h0a.66.66 0 0 1 .255.086.65.65 0 0 1 .2.18 33.41 33.41 0 0 0 6.761 6.521 45.16 45.16 0 0 0 9.04 5.057c3.392 1.395 6.892 2.514 10.464 3.346a96.46 96.46 0 0 0 12.401 2.034c16.959 1.768 20.586.399 20.624.38a.78.78 0 0 1 .551 0 .74.74 0 0 1 .243.168c.068.072.121.157.155.251h0c.061.184.047.384-.038.559s-.235.308-.417.372c0 0-3.97 1.521-21.289-.285-4.164-.422-8.299-1.095-12.382-2.015-3.724-.856-7.37-2.02-10.901-3.479-6.409-2.537-12.059-6.681-16.408-12.035h.038zm10.141-43.079a.38.38 0 0 1 .111-.269c.071-.072.168-.112.269-.112s.197.04.268.112.112.168.112.269c-.399 12.053 3.418 20.399 9.248 26.141 7.919 7.794 19.58 10.855 29.417 11.863.101.018.191.073.254.153a.42.42 0 0 1 .088.284c-.005.05-.02.099-.043.143s-.056.084-.095.115a.38.38 0 0 1-.132.07.37.37 0 0 1-.148.014c-9.97-1.045-21.801-4.144-29.873-12.091-5.982-5.875-9.894-14.411-9.476-26.692z"/></g><path d="M410.377 327.152c-.252-.33-.362-.747-.307-1.159s.272-.785.602-1.037a1.56 1.56 0 0 1 1.157-.307c.412.055.784.272 1.036.602 4.708 6.789 8.537 14.148 11.394 21.901 3.21 8.479 5.128 16.673 5.128 21.978v6.654c0 .408-.162.8-.451 1.088s-.679.452-1.087.452-.8-.163-1.088-.452a1.54 1.54 0 0 1-.451-1.088v-6.654c0-4.962-1.899-12.738-4.918-20.913a94.1 94.1 0 0 0-11.015-21.065h0z" class="E"/><g class="D"><path d="M365.369 329.623c.266.438.532 2.529.893 2.928a32.79 32.79 0 0 0 12.628 8.422c1.444.323 2.279 7.89 2.279 7.89-3.798-1.236-18.421-8.707-19.237-12.396a11.07 11.07 0 0 1 1.557-5.532c.968-1.92 1.861-1.331 1.88-1.312z"/><path d="M380.941 347.132c-1.006-7.072-1.538-6.673-1.006-7.243a16.52 16.52 0 0 0 .854-6.787c-.227-2.11 3.438 1.141 3.799 4.962a12.11 12.11 0 0 1-.627 6.084c-.715 1.252-1.759 2.285-3.02 2.984h0z"/></g><path d="M379.365 342.076a.34.34 0 0 1-.024-.141.35.35 0 0 1 .036-.138.36.36 0 0 1 .089-.112.34.34 0 0 1 .127-.065c.093-.025.192-.013.277.033s.148.123.179.214c2.581 9.049 4.535 18.267 5.849 27.586 1.747 11.692 2.982 24.163 3.665 35.532a.38.38 0 0 1-.097.257c-.064.07-.151.114-.245.124-.047.002-.094-.005-.139-.021a.34.34 0 0 1-.121-.072.35.35 0 0 1-.085-.113.36.36 0 0 1-.034-.137c-.684-11.407-1.9-23.783-3.666-35.456-1.297-9.288-3.239-18.474-5.811-27.491h0zm10.407 88.024a.34.34 0 0 1 .1-.262.34.34 0 0 1 .12-.078c.045-.017.093-.024.141-.022s.093.005.137.021a.35.35 0 0 1 .117.073.33.33 0 0 1 .079.113c.018.043.028.089.028.136v3.213 3.136a.36.36 0 0 1-.361.362c-.048.002-.096-.005-.141-.022a.34.34 0 0 1-.198-.198.34.34 0 0 1-.022-.142v-3.136-3.194h0z" class="I"/><g class="E"><path d="M351.221 345.878a1.54 1.54 0 0 1 .931-.654c.382-.091.785-.031 1.125.166a1.54 1.54 0 0 1 .602 2.028 62.58 62.58 0 0 0-8.849 32.205 38.27 38.27 0 0 0 10.274 25.856c15.477 16.464 53.174 17.11 53.174 17.11a1.54 1.54 0 0 1 .586.132 1.55 1.55 0 0 1 .491.346c.139.147.248.319.321.508s.107.39.102.592a1.5 1.5 0 0 1-.125.583 1.51 1.51 0 0 1-.341.488 1.48 1.48 0 0 1-.504.316 1.49 1.49 0 0 1-.587.096c-.114 0-39.007-.646-55.377-18.042-7.058-7.576-11.016-17.53-11.091-27.89-.035-11.913 3.169-23.611 9.268-33.84h0zm6.419 1.254a1.54 1.54 0 0 1 .359-.498c.152-.14.331-.248.525-.318s.402-.099.608-.087a1.54 1.54 0 0 1 .594.158 1.55 1.55 0 0 1 .484.378 1.54 1.54 0 0 1 .298.537 1.56 1.56 0 0 1 .065.611 1.54 1.54 0 0 1-.18.588c-5.507 11.103-8.147 20.799-8.318 29.107a32.44 32.44 0 0 0 4.957 18.612 36.38 36.38 0 0 0 14.699 12.491c9.495 4.696 21.82 7.186 36.272 7.453a1.52 1.52 0 0 1 .639.063c.206.066.396.175.558.319a1.55 1.55 0 0 1 .378.519 1.53 1.53 0 0 1 0 1.258 1.55 1.55 0 0 1-.378.519c-.162.144-.352.253-.558.319s-.424.087-.639.063c-14.926-.285-27.764-2.851-37.602-7.756a39.47 39.47 0 0 1-15.895-13.575c-3.841-6.069-5.754-13.162-5.488-20.342.171-8.726 2.905-18.879 8.622-30.419zm61.72-43.422h-7.881c-.711 0-1.392.282-1.894.785s-.784 1.185-.784 1.896h0c-.003.354.065.706.198 1.034s.33.628.578.88a2.68 2.68 0 0 0 .871.591c.326.138.676.211 1.031.213h7.881c.713-.005 1.396-.291 1.901-.796a2.72 2.72 0 0 0 .795-1.903h0c0-.716-.284-1.403-.789-1.909s-1.192-.791-1.907-.791h0z"/></g><path d="M399.552 326.22c-3.893-4.011-3.988-11.084-3.798-15.209.171-4.715-4.064-8.213-2.279-9.677s5.698.323 6.989 3.251 7.976 3.004 9.761 7.605a28.22 28.22 0 0 1 1.121 10.095c-.171 4.106-9.496 6.236-11.794 3.935z" fill="#912400"/></g><use xlink:href="#B" class="N"/><path d="M411.593 294.242h-13.446a1.77 1.77 0 0 0-1.766 1.768v28.765a1.77 1.77 0 0 0 1.766 1.768h13.446a1.77 1.77 0 0 0 1.766-1.768V296.01a1.77 1.77 0 0 0-1.766-1.768z" class="O"/><path d="M411.536 295.991H398.09v27.776h13.446v-27.776z" fill="#a7bdcd"/><g class="C"><g class="E"><path d="M414.802 313.178h-3.627c-.711 0-1.392.282-1.894.785a2.68 2.68 0 0 0-.784 1.895h0a2.69 2.69 0 0 0 .182 1.05 2.67 2.67 0 0 0 .575.895c.25.257.548.462.878.601a2.69 2.69 0 0 0 1.043.211h3.646c.712 0 1.395-.282 1.9-.784a2.7 2.7 0 0 0 .797-1.897h0c.007-.36-.058-.719-.191-1.055a2.7 2.7 0 0 0-.585-.897 2.71 2.71 0 0 0-.889-.599 2.69 2.69 0 0 0-1.051-.205h0z"/><path d="M414.802 318.615h-3.627c-.712.005-1.393.292-1.895.798a2.7 2.7 0 0 0-.783 1.902h0c.015.701.304 1.368.804 1.859s1.173.765 1.874.764h3.646a2.69 2.69 0 0 0 1.9-.784 2.7 2.7 0 0 0 .797-1.896c-.02-.708-.315-1.38-.822-1.874a2.72 2.72 0 0 0-1.894-.769h0z"/></g><path d="M387.664 276.428c9.306 23.708 10.597 48.404-4.729 52.035-5.089 1.198-7.596.646-12.685-1.331-5.381-1.997-10.053-5.539-13.431-10.182s-5.312-10.182-5.56-15.921c-.551-18.536 8.831-43.536 36.405-24.601z" class="B"/><path d="M387.664 276.429l2.488 6.92a6.56 6.56 0 0 0-1.709-1.692c-1.967-.816-4.09-1.188-6.217-1.09s-4.206.666-6.089 1.66c-8.356 4.069-10.863 14.316-15.877 13.574-1.192-.157-2.323-.626-3.276-1.361a6.84 6.84 0 0 1-2.155-2.821c2.665-5.482 6.892-10.05 12.147-13.129a30.8 30.8 0 0 1 17.384-4.172 49.03 49.03 0 0 1 3.304 2.111z" class="F"/><path d="M353.31 300.973c-3.058-1.901-5.584-1.274-7.027.456-5.868 6.958 6.647 16.749 11.395 11.73 2.354-2.433-4.368-12.186-4.368-12.186z" class="B"/><path d="M383.562 288.501c2.083-.775 4.292-1.155 6.514-1.122-2.355-1.901-4.406-1.426-7.235-1.026a1.13 1.13 0 0 0-.381.218 1.15 1.15 0 0 0-.267.348c-.065.133-.104.277-.113.424s.01.296.058.435c.095.284.298.518.564.653a1.14 1.14 0 0 0 .86.07h0z" class="K"/><path d="M368.958 297.836c-1.272.475-1.766 2.319-1.101 4.144s2.26 2.909 3.551 2.434 1.766-2.339 1.083-4.164-2.241-2.89-3.533-2.414z" class="J"/><path d="M370.173 292.379c-2.126.628-4.125 1.625-5.906 2.947.741-2.985 2.716-3.802 5.223-5.095a1.11 1.11 0 0 1 .436-.049 1.12 1.12 0 0 1 .423.122c.131.068.248.161.343.274a1.12 1.12 0 0 1 .213.385c.045.141.061.289.049.437a1.14 1.14 0 0 1-.396.767c-.113.095-.244.167-.385.212h0z" class="K"/><path d="M394.33 298.844c0-.4-.399-1.597-.475-1.902-.949 1.902-.892 5.704-1.899 7.13-.456.646-3.988-.723-8.831 0s-11.071 3.517-12.743 3.897c-2.089-.266-11.888-6.255-15.192-7.605-.304-.133 0 1.008.57 1.483 2.24 1.902 11.831 8.727 11.869 8.746l1.595 10.836c-4.026-1.369-10.084-3.365-13.445-7.148l-.722.456c3.437 6.236 20.187 14.639 30.594 10.685a11.51 11.51 0 0 0 6.21-4.183c4.387-6.426 3.001-16.635 2.469-22.395z" class="D"/><path d="M357.735 307.627l.987-13.593-5.697-14.487s-9.59 0-9.59 5.855a24.35 24.35 0 0 0 3.019 11.407c1.886 3.163 4.432 5.88 7.464 7.966 1.671 1.388 3.76 3.727 3.817 2.852z" class="J"/><path d="M346.283 297.456c4.71-6.559 20.89-19.012 32.285-20.666s11.546 4.183 11.546 4.183-3.57-11.807-9.495-15.039-19.181-4.543-19.181-4.543-17.757 10.456-18.63 23.004c-.371 2.454-.048 4.963.93 7.243.599 2.039 1.454 3.994 2.545 5.818h0z" class="E"/><path d="M354.829 289.908a6.83 6.83 0 0 0 2.156 2.813c.954.731 2.084 1.197 3.275 1.351 5.014.684 7.597-9.677 15.877-13.632a14.47 14.47 0 0 1 12.306-.57c1.519.741 1.899 6.578 2.393 6.977 3.247 2.643 7.957-3.08 4.766-8.023-7.862-12.186-33.025-6.178-40.773 11.084z" class="D"/><path d="M349.018 304.452c-2.773 3.289 3.133 7.927 5.412 5.551 1.064-1.141-2.545-8.973-5.412-5.551z" class="F"/><g class="I"><path d="M372.661 313.577c-.046.011-.094.012-.141.004a.35.35 0 0 1-.228-.156c-.025-.041-.042-.086-.049-.133s-.013-.092-.005-.138.024-.089.049-.128.057-.073.095-.099.082-.044.127-.053l18.516-4.354c.047-.014.095-.018.143-.012a.35.35 0 0 1 .136.047.36.36 0 0 1 .104.098c.027.04.046.086.054.133s.014.094.006.141-.023.092-.048.133-.057.076-.096.104a.35.35 0 0 1-.128.059l-18.535 4.354zm.855 3.859c-.048.015-.098.02-.148.014a.35.35 0 0 1-.141-.047.36.36 0 0 1-.11-.099.38.38 0 0 1-.061-.136c-.01-.049-.01-.1 0-.149a.36.36 0 0 1 .059-.136.35.35 0 0 1 .249-.15l18.516-4.354a.37.37 0 0 1 .141-.006c.047.008.092.024.132.049s.076.057.104.095.049.082.06.129a.37.37 0 0 1 .006.141c-.007.047-.024.092-.049.132a.35.35 0 0 1-.095.104c-.038.028-.082.049-.128.06l-18.535 4.353zm.854 3.879c-.047.011-.096.012-.144.004a.37.37 0 0 1-.135-.054c-.041-.026-.076-.061-.103-.101a.37.37 0 0 1-.054-.135c-.012-.045-.013-.091-.006-.137s.024-.09.049-.129.057-.073.096-.099a.34.34 0 0 1 .127-.053l18.535-4.354a.37.37 0 0 1 .141-.006c.047.008.092.024.132.049a.35.35 0 0 1 .104.095.36.36 0 0 1 .059.129c.018.095-.002.194-.055.275s-.135.139-.229.162l-18.517 4.354z"/></g><path d="M360.773 262.227a.4.4 0 0 1 .551 0 .38.38 0 0 1 .108.266c0 .099-.039.195-.108.266l-1.899 2.224c-3.457 4.126-6.381 7.605-6.381 11.521a65.63 65.63 0 0 0 1.899 12.282.38.38 0 0 1 .013.15.37.37 0 0 1-.046.144c-.025.044-.058.083-.098.114a.38.38 0 0 1-.135.067c-.101.023-.206.007-.295-.047a.4.4 0 0 1-.18-.238c-1.026-4.088-1.662-8.264-1.899-12.472 0-4.163 3.001-7.756 6.552-12.015l1.918-2.262z" fill="#b98c32"/><g class="I"><path d="M402.648 351.923c-.032-.096-.026-.2.017-.292s.117-.164.211-.202a.42.42 0 0 1 .293.03c.091.046.162.123.201.217l2.886 8.175 2.545 7.091a.36.36 0 0 1 .024.145c-.002.049-.014.098-.035.142s-.052.085-.089.117a.37.37 0 0 1-.128.072c-.047.018-.098.026-.148.025a.39.39 0 0 1-.147-.035c-.046-.022-.087-.052-.121-.089s-.061-.082-.078-.13l-2.601-7.072-2.83-8.194z"/><path d="M405.079 358.692a.38.38 0 0 1 .067-.135.37.37 0 0 1 .114-.098c.044-.025.093-.041.143-.046s.102-.002.151.013a.42.42 0 0 1 .228.196c.049.091.062.197.037.298-.75 2.356-1.29 4.773-1.614 7.225a.38.38 0 0 1-.111.268c-.071.072-.168.112-.269.112s-.197-.04-.268-.112a.38.38 0 0 1-.111-.268 42.38 42.38 0 0 1 1.633-7.453h0z"/></g><path d="M403.806 311.239c1.538 1.711 2.811 1.692 3.798.855.218-.223.341-.523.341-.836a1.2 1.2 0 0 0-.341-.837 1.16 1.16 0 0 0-.383-.257 1.17 1.17 0 0 0-.452-.091c-.156 0-.309.031-.453.091a1.18 1.18 0 0 0-.383.257c-.646.59-.968.704-1.614-.114-.38-.494-.133-.95.285-1.349a1.18 1.18 0 0 0 .446-.85 1.16 1.16 0 0 0-.071-.485c-.057-.155-.146-.296-.261-.415-1.121-1.254-3.798.78-.912 4.05v-.019zm1.406-5.494c.521-.003 1.038.099 1.521.298a3.96 3.96 0 0 1 1.289.861 4.01 4.01 0 0 1 .911 1.291c.215.486.332 1.01.343 1.542 0 .524-.104 1.043-.306 1.526s-.498.921-.872 1.288a3.98 3.98 0 0 1-1.302.892c-.489.207-1.015.314-1.546.314a3.97 3.97 0 0 1-1.547-.314 3.98 3.98 0 0 1-1.302-.892c-.374-.367-.67-.805-.872-1.288s-.306-1.002-.306-1.526c.002-1.063.426-2.082 1.178-2.833.371-.372.812-.666 1.298-.865s1.007-.299 1.532-.294h-.019zm-3.533.475c.932-.925 2.192-1.445 3.504-1.445s2.572.52 3.504 1.445c.462.459.829 1.006 1.079 1.608s.379 1.247.379 1.9a4.93 4.93 0 0 1-.379 1.899c-.25.602-.617 1.149-1.079 1.608s-1.005.83-1.606 1.081a4.95 4.95 0 0 1-3.796 0c-.601-.251-1.147-.618-1.606-1.081-.924-.933-1.443-2.194-1.443-3.507s.519-2.575 1.443-3.508h0z" class="H"/><path d="M414.802 307.778h-3.627a2.68 2.68 0 0 0-2.678 2.681h0a2.7 2.7 0 0 0 .783 1.902c.502.506 1.183.793 1.895.798h3.646a2.71 2.71 0 0 0 1.901-.797 2.72 2.72 0 0 0 .796-1.903h0a2.71 2.71 0 0 0-.213-1.032c-.138-.326-.338-.622-.591-.871a2.68 2.68 0 0 0-.879-.579 2.69 2.69 0 0 0-1.033-.199h0z" class="E"/><path d="M387.949 279.964c-.099-.022-.186-.082-.243-.167s-.078-.188-.061-.289c.023-.099.083-.186.168-.243a.4.4 0 0 1 .288-.061 14.72 14.72 0 0 1 3.285 1.065 9.85 9.85 0 0 1 2.545 1.768c.071.074.11.173.11.275s-.039.202-.11.276c-.034.037-.075.066-.121.086s-.095.031-.145.031-.099-.01-.145-.031-.087-.049-.121-.086a8.99 8.99 0 0 0-2.336-1.616 12.45 12.45 0 0 0-3.114-1.008z" class="I"/><path d="M387.341 292.228c-1.348.247-2.146 1.996-1.785 3.897s1.728 3.232 3.058 2.985 2.146-1.901 1.899-3.898-1.823-3.213-3.172-2.984z" class="J"/><path d="M309.194 609.721h145.033a10.1 10.1 0 0 1 7.106 2.962 10.12 10.12 0 0 1 2.959 7.114h0a10.1 10.1 0 0 1-2.96 7.107 10.08 10.08 0 0 1-7.105 2.95H309.194a10.08 10.08 0 0 1-7.105-2.95 10.1 10.1 0 0 1-2.96-7.107h0c.005-2.671 1.067-5.231 2.953-7.12a10.08 10.08 0 0 1 7.112-2.956h0z" fill="#ebebeb"/></g><path d="M693.549 220.972H528.956V609.72H693.549V220.972Z" class="H"/><path d="M528.918 220.61h164.593a.36.36 0 0 1 .256.106c.067.068.105.16.105.256V609.72c0 .096-.038.188-.105.256a.36.36 0 0 1-.256.106H528.918c-.094-.005-.183-.045-.25-.111a.38.38 0 0 1-.111-.251V220.972a.38.38 0 0 1 .361-.362h0zm164.233.723H529.317v388.026h163.872l-.038-388.026z" fill="#1f1d1d" class="C"/><path d="M682.8 231.732H539.705V609.721H682.8V231.732Z" fill="#858584"/><path d="M679.876 231.732H539.705V609.721H679.876V231.732Z" fill="#d8d8d8"/><path d="M660.125 255.345h-100.67v330.782h100.67V255.345z" class="P"/><path d="M576.927 431.429v142.036h69.962V431.429h-69.962zm0-159.526v142.036h69.962V271.903h-69.962z" fill="#858584" class="C"/><g fill="#999a9a"><path d="M644.762 429.472h-69.943v142.054h69.943V429.472zm0-159.527h-69.943v142.036h69.943V269.945z"/></g><g class="C"><path d="M579.661 274.565V407.38h60.258V274.565h-60.258zm0 159.508v132.834h60.258V434.073h-60.258z" class="P"/><g fill="#c4c4c4"><path d="M575.028 429.472l4.633 4.6h60.258l4.634-4.6h-69.525zm0-159.527l4.633 4.62h60.258l4.634-4.62h-69.525zm0 301.562l4.633-4.601h60.258l4.634 4.601h-69.525zm0-159.525l4.633-4.601h60.258l4.634 4.601h-69.525z"/></g><path d="M671.349 405.403a5.94 5.94 0 0 1 2.257.547c.709.328 1.346.794 1.875 1.37s.94 1.25 1.209 1.984a5.97 5.97 0 0 1 .356 2.297v24.164c0 3.403-2.525 4.829-5.697 4.829-3.095 0-5.697-1.426-5.697-4.829v-24.164a5.97 5.97 0 0 1 .356-2.297 5.96 5.96 0 0 1 1.209-1.984c.529-.576 1.166-1.042 1.875-1.37a5.94 5.94 0 0 1 2.257-.547h0z" class="P"/><path d="M670.001 404.548a4.61 4.61 0 0 1 3.232 1.36c.856.861 1.339 2.025 1.344 3.241v24.715c-.005 1.215-.488 2.38-1.344 3.241s-2.018 1.35-3.232 1.36h0c-1.218-.005-2.384-.492-3.245-1.354s-1.346-2.029-1.351-3.247v-24.715c.005-1.219.491-2.386 1.351-3.248a4.61 4.61 0 0 1 3.245-1.353z" fill="#d5a835"/><path d="M668.102 404.548c1.215.005 2.379.492 3.237 1.354s1.339 2.03 1.339 3.247v24.715a4.6 4.6 0 0 1-1.339 3.246c-.858.863-2.022 1.349-3.237 1.355-1.218-.005-2.384-.492-3.245-1.354s-1.346-2.029-1.351-3.247v-24.715c.005-1.219.491-2.386 1.351-3.248a4.61 4.61 0 0 1 3.245-1.353z" fill="#f7db61"/><g fill="#d5a835"><path d="M666.962 411.145c.556.015 1.097.187 1.56.496s.83.742 1.059 1.249a2.98 2.98 0 0 1 .234 1.622 2.97 2.97 0 0 1-2.016 2.417c-.529.173-1.096.193-1.636.058s-1.031-.419-1.417-.82a2.97 2.97 0 0 1-.766-1.448l-12.363-1.768c-2.259-.323-3.114-1.901-.17-1.901l15.515.095zm1.14 15.475a1.46 1.46 0 0 1 .993.482c.255.284.39.657.374 1.039a1.56 1.56 0 0 1-.194.764 1.54 1.54 0 0 1-.547.567v2.852h-1.177v-2.852a1.5 1.5 0 0 1-.551-.565c-.131-.234-.196-.498-.19-.766-.021-.371.101-.736.341-1.02a1.44 1.44 0 0 1 .951-.501h0z"/></g><g class="L"><path d="M671.463 492.02c8.28 19.182 12.743 33.916 11.242 44.335s-.246 14.905-6.646 10.247-9.268-.228-11.243-14.563a235.69 235.69 0 0 1-2.962-28.784c0-6.996 9.609-11.235 9.609-11.235z"/><path d="M678.945 491.887c-2.013-9.164-4.899-11.521-7.216-10.875s-1.899.361-3.324-.741-4.273-.38-5.127 3.935c-.393 4.301.478 8.623 2.507 12.434.987 1.312.209 3.27 3.038 3.802s10.122-8.555 10.122-8.555z"/></g><g class="G"><path d="M677.806 488.826c2.128 1.133 3.873 2.873 5.013 5a8.23 8.23 0 0 1 3.544 2.532c.932 1.148 1.538 2.525 1.755 3.989 1.234 5.437.703 7.947 1.728 10.057.586.979.968 2.066 1.121 3.197s.076 2.281-.228 3.381a21.53 21.53 0 0 0-.969 4.372s2.925 5.704 1.14 10.533-3.913 7.224-5.983 6.407-7.406-4.734-7.767-9.658 2.298-7.129-1.291-9.943-5.83-4.449-4.425-8.27 2.982-5.704.323-9.506 0-4.506 1.5-6.996-1.5-9.202 4.539-5.095zm-7.255 45.609c3.324-2.738 6.856-9.905 3.969-13.442s-5.26-5.817-3.684-11.939-2.203-5.285-2.355-9.734 1.368-5.361-1.766-8.631.988-5.704-1.747-7.605-4.976-.323-5.697 4.069-5.052 1.464-5.697 8.27 3.133 5.95 0 12.376 4.595 7.225 3.551 11.636c-.634 2.398-.692 4.912-.171 7.337s1.608 4.692 3.171 6.617c3.628 4.145 10.958 8.118 10.426 1.046z"/></g><path d="M679.667 500.176c.855 5.038 4.102 10.19 7.862 20.343s5.944 17.11 1.899 26.331-10.767 8.612-19.37 3.194-8.033-13.594-9.059-23.08-3.038-19.944-2.165-26.141c.269-2.76.862-5.479 1.766-8.099 0 0 1.899 13.441 5.128 28.517s8.774 20.742 10.54 21.92 6.191-6.311 3.912-22.604-2.583-21.198-.513-20.381z" fill="#c0c8a1"/><path d="M678.565 554.967c-3.133-.342-2.241-4.297 3.248-3.974 4.121.229 3.836 4.734-3.248 3.974z" fill="#8e9f6a"/><path d="M679.306 505.746c0 .494.095.989.171 1.521a.52.52 0 0 1 .237.148c.064.071.107.158.124.251 2.45 10.095 11.205 28.803 1.462 38.575 6.21-12.092 4.311-18.841-.209-31.217 1.025 4.09 1.617 8.276 1.767 12.49 0 9.24-1.596 18.461-5.071 18.556s-9.23-5.057-12.097-17.643a142.86 142.86 0 0 1-1.899-10.209c.361 7.928 1.728 17.814 4.728 22.3 1.704 2.639 3.762 5.032 6.115 7.111-2.108-1.046-5.051-4.848-6.475-6.864-4.919-6.996-6.913-42.566-8.015-41.122-.854 1.122.798 39.24 5.166 43.955 2.697 2.909 7.862 8.993 11.907 7.206.872-.37 1.793-.607 2.735-.704.74-.052 1.482-.052 2.222 0 2.905.114 1.899 1.217 3.798-1.597a21.42 21.42 0 0 0 3.646-12.414c-.456-7.605-3.361-15.799-8.812-29.963-.55-1.197-1.728-3.099-1.5-.38z" fill="#ecefe9"/><g fill="#69822c"><path d="M677.559 518.655c-1.899-2.795-5.697-3.631-4.71-6.635s3.571-6.065 1.69-9.62-3.798-3.365-1.272-5.494 2.811-2.966 3.096-5.019 2.81-.685 4.443 2.11 5.033 2.453 5.698 6.217-1.102 5.133-.152 7.034 4.197 5.361 3.798 7.187c-.214 1.147-.598 2.255-1.139 3.289a10.34 10.34 0 0 0-2.146-5.381 15.69 15.69 0 0 1-2.963-10c-.19-4.848-3.627-7.072-5.697-5.076s-.418 4.563-1.444 8.061-3.209 4.449-1.386 6.388 3.399 4.867 2.944 6.179-.76.76-.76.76zm-7.064 11.825a9.51 9.51 0 0 0 2.307-3.524 9.5 9.5 0 0 0 .56-4.176c-.361-1.768-2.431-3.536-3.57-5.437s-2.051-3.251-1.557-5.704c.55-2.737 2.108-4.981.854-7.604s-3.247-4.069-2.127-6.274c1.52-2.909 0-4.772-1.443-6.388-1.899-2.053-1.899-1.16-1.899-4.106-.684 2.927-1.197 3.498.646 5.703 1.234 1.464 1.747 3.099.588 4.449-2.165 2.566.931 3.612 2.26 6.597 1.045 2.338 0 6.331-.323 8.745-.626 3.802 1.159 4.259 3.798 7.491 3.02 3.84 1.444 5.893-.094 10.228z"/></g><path d="M679.249 554.815c-2.317-.266-1.671-3.194 2.412-2.947 2.982.171 2.849 3.517-2.412 2.947z" fill="#aeb994"/><path d="M693.625 518.408a124.86 124.86 0 0 0 8.755-38.194c0-5.704-5.45-1.046-5.564 4.429s-5.489 4.715-3.798 11.407 0 6.084-1.292 10.894 1.899 11.464 1.899 11.464z" class="G"/><path d="M693.815 518.237c5.697-20.457 10.255-31.522 15.497-36.636s2.335 3.574.569 7.415.437 2.471 0 6.217-5.925 6.178-6.494 7.813 2.696.761-.285 4.962c-2.844 3.631-5.947 7.049-9.287 10.229h0z" fill="#576e26"/><path d="M694.404 517.838c4.956-7.605 15.192-21.122 23.036-26.464s-.323 3.954-1.634 5.437 1.045 5.19-1.063 6.996-3.171.666-4.425 4.145-15.914 9.886-15.914 9.886z" class="G"/><g class="M"><path d="M697.328 498.883c2.322-6.798 3.39-13.961 3.153-21.141-1.136.764-2.066 1.797-2.705 3.008s-.97 2.562-.96 3.931c0 5.476-5.489 4.715-3.799 11.407s0 6.084-1.291 10.894c-.22.869-.316 1.765-.285 2.662 1.994-.742 4.14-5.609 5.887-10.761zm12.003-17.358c-3.476 3.403-6.647 9.506-10.065 19.107-1.083 3.099-2.203 6.559-3.381 10.437a4.81 4.81 0 0 0 .608-.551c1.348-1.521 3.475-5.114 5.108-7.396 2.545-3.574 6.343-6.901 6.324-8.479-.531-3.021-.175-6.132 1.026-8.954.977-1.706 1.664-3.563 2.032-5.495a8.58 8.58 0 0 0-1.652 1.331h0zm-9.838 30.838c.855 0 2.431-1.179 4.976-2.928 4.14-2.814 3.247-3.955 4.824-6.198s4.045-1.369 4.728-3.422 1.9-4.658 6.362-8.783c.893-1.483.608-2.054-2.943.342-4.983 3.775-9.452 8.185-13.294 13.118-1.899 2.357-3.798 4.772-5.45 7.034.19.57.418.818.797.837z"/></g><path d="M683.845 516.335c-7.976 5.97-20.092 37.434-17.642 47.643-1.368 4.582-2.089 5.286-3.172 4.677-1.519-.855-1.899-3.802-3.323-1.597a19.01 19.01 0 0 0-2.336 5.133s1.899-4.258 3.437-2.927 1.766 4.829 10.084-2.244l.133-.114c2.336-.703 5.546-2.928 9.837-7.129 9.496-9.24 21.65-29.924 20.264-36.35-1.747-8.023-10.388-12.263-17.282-7.092z" fill="#d8d6a6"/><path d="M691.422 538.617c3.115-6.502 9.743-18.004 6.419-21.35a10.48 10.48 0 0 0-.968-.856 4.84 4.84 0 0 0-.494-.361 8.75 8.75 0 0 0-1.045-.665l-.474-.247c-.986-.491-2.044-.818-3.134-.97-1.39-.185-2.803-.09-4.157.279a10.54 10.54 0 0 0-3.724 1.869c-7.596 5.704-18.991 34.563-17.889 46.084.949.324-2.393 5.039 3.969 2.396s18.364-19.658 21.497-26.179z" fill="#f6f2d1"/><path d="M688.213 518.712c-7.596-.551-21.308 32.32-16.18 32.015 4.671-.342 25.77-31.312 16.18-32.015z" fill="#fbfaed"/><path d="M666.411 524.872v64.64h-.151c-.684 2.091-3.628 3.669-7.16 3.669-1.241.004-2.474-.202-3.646-.609-2.371.804-4.941.804-7.312 0-1.172.409-2.405.615-3.646.609-3.532 0-6.476-1.578-7.16-3.669h-.17v-64.64c0-14.639 7.273-13.308 10.919-20.057v-3.555h7.388v3.555c3.665 6.673 10.938 6.046 10.938 20.057z" fill="#55352a"/></g><g fill="#c10016"><path d="M666.411 525.328h-29.226v17.548h29.226v-17.548zm-10.957-28.042h-7.312v3.974h7.312v-3.974z"/></g><g class="C"><path d="M641.818 588.58c-.059.207-.183.388-.355.518a.99.99 0 0 1-1.189 0c-.171-.13-.296-.311-.355-.518v-63.689c0-10.209 3.4-13.061 6.818-15.893.684-.571 1.386-1.16 2.032-1.807a1.01 1.01 0 0 1 .703-.286c.262 0 .514.103.702.286a.99.99 0 0 1 0 1.388c-.702.685-1.424 1.293-2.165 1.901-3.057 2.548-6.115 5.096-6.115 14.392l-.076 63.708z" class="H"/><path d="M662.765 525.328h3.646v-.456c0-14.011-7.273-13.308-10.919-20.057v-3.555h-3.666v3.555c3.647 6.673 10.939 6.046 10.939 20.057v.456z" fill="#452c22"/></g><path d="M666.411 525.328h-3.646v17.548h3.646v-17.548z" fill="#911b19"/><g class="C"><path d="M666.411 542.952h-3.646v46.579h-.152c-.504 1.004-1.262 1.858-2.198 2.478a6.43 6.43 0 0 1-3.138 1.058 11.49 11.49 0 0 0 1.899.133c3.532 0 6.476-1.578 7.159-3.669h.152v-46.579h-.076z" fill="#452c22"/><path d="M636.938 508.465c3.532 6.901 1.139 10.78-1.899 11.008a5.7 5.7 0 0 1-3.799-1.901c-2.62-3.308-2.24-24.677 5.698-9.107z" class="L"/><g class="G"><path d="M629.246 507.191c.95 4.373 3.381 3.479 3.305 1.901s-4.881-8.783-3.305-1.901zm6.875-.932c-.38 4.43-2.924 3.803-3.038 2.339s3.627-9.373 3.038-2.339z"/><path d="M633.557 504.321c1.501 4.201-1.025 4.734-1.785 3.384s-.589-10.038 1.785-3.384z"/></g><path d="M633.197 512.096c2.07 13.308 4.842 21.141 13.179 35.685s11.395 12.168 11.85 9.373-8.83-7.168-17.091-26.921-5.413-21.026-7.938-18.137z" class="L"/><g class="G"><path d="M657.847 555.804c-1.9-3.023-9.629-8.65-16.712-25.571-7.597-18.232-5.793-20.722-7.445-18.726 2.051 12.015 4.957 19.791 12.838 33.536 6.818 11.883 10.103 12.472 11.319 10.761zm-27.442-38.707c1.006 2.737 4.216 3.061 3.798 1.445s-6.4-8.518-3.798-1.445z"/><path d="M639.065 514.434c0 6.16-2.735 4.886-3.001 3.251s3.001-9.372 3.001-3.251zm-9.04-2.528c1.804 4.43 4.216 3.061 3.798 1.445s-6.647-8.422-3.798-1.445zm7.141-2.224c.398 4.753-2.374 4.619-2.773 3.023s2.089-10.552 2.773-3.023z"/></g><g class="L"><path d="M640.964 522.932c0 4.772-2.773 4.392-3.02 2.757s3.153-10.304 3.02-2.757zm-4.672 8.062c1.899 4.372 4.273 2.947 3.798 1.35s-6.723-8.289-3.798-1.35zm6.229 13.137c1.899 4.391 4.273 2.966 3.798 1.35s-6.798-8.232-3.798-1.35z"/><path d="M646.319 536.013c1.443 4.543-1.291 5.038-2.032 3.555s-.266-10.761 2.032-3.555z"/></g><path d="M635.57 514.53c1.557 3.802-.285 4.867-1.348 4.144-.162-.122-.303-.27-.418-.437-.912-1.521-1.025-10.722 1.766-3.707z" class="G"/><g class="M"><path d="M629.341 506.678c.513 2.794 1.691 2.224 1.634 1.235s-2.431-5.646-1.634-1.235zm.969 5.437c1.386 3.251 2.659 2.225 2.336 1.046s-4.501-6.198-2.336-1.046zm.342 4.753c1.367 3.251 2.64 2.243 2.317 1.064s-4.501-6.197-2.317-1.064z"/></g><path d="M633.747 515.195c.152 3.517 1.709 3.022 1.899 1.806s-2.127-7.396-1.899-1.806z" fill="#6d852c"/><g class="M"><path d="M635.418 509.682c-.892 3.422.741 3.403 1.197 2.262s.209-7.662-1.197-2.262zm2.013 5.132c-.892 3.422.741 3.403 1.216 2.263s.19-7.662-1.216-2.263zm-2.81-9.144c-1.254 2.928.209 3.137.779 2.186s1.215-6.73-.779-2.186zm-1.557-2.053c.664 2.319-.456 2.623-.798 1.901s-.266-5.608.798-1.901z"/></g><path d="M634.165 508.18c1.899 4.392-.779 5.133-1.652 3.802s-1.311-10.741 1.652-3.802z" class="G"/><path d="M632.019 508.827c.152 3.536 1.709 3.041 1.899 1.806s-2.146-7.377-1.899-1.806z" class="M"/><g class="G"><path d="M639.463 522.4c-.892 3.422.741 3.403 1.197 2.263s.304-7.662-1.197-2.263zm-2.013 7.947c1.899 2.415.57 2.966-.19 2.206s-2.772-6.027.19-2.206zm8.717 5.647c.817 2.946-.607 2.946-1.006 1.901s-.304-6.559 1.006-1.901zm-2.184 7.567c1.899 2.3.722 2.908 0 2.205s-3.171-5.855 0-2.205z"/></g><path d="M665.044 509.149c-.912.315-1.749.816-2.458 1.47s-1.275 1.449-1.663 2.333c-1.614 3.194-1.747 8.479.551 11.407l.778.76-.531-.912a11.6 11.6 0 0 1-1.284-4.831 11.59 11.59 0 0 1 .866-4.922 6.52 6.52 0 0 1 1.552-2.529c.705-.712 1.565-1.252 2.512-1.578a.57.57 0 0 0 .285-.283c.057-.125.067-.268.028-.4s-.126-.246-.243-.32a.57.57 0 0 0-.393-.081v-.114z" class="L"/><path d="M658.929 520.328c.851.284 1.643.722 2.336 1.293a9.16 9.16 0 0 1 .703.969l-1.254.152.817 1.901-.722-.133a4.28 4.28 0 0 1 0 1.673c-.132.482-.33.942-.589 1.369l-1.709-2.928c-.342-.798-.304-.304-.304-.304v2.053h-.436l-.836 1.559c-.066.155-.149.301-.247.438 0 0-1.12-1.141-1.006-1.255a3.92 3.92 0 0 1-1.786 1.483c-.664.336-1.374.573-2.108.703.151-1.209.445-2.396.874-3.536.399-.494.589-.475.399-.494h-.779l2.469-2.472-2.697 2.053c-.531.362-.55.476-.55.476l-.456-.59a4.24 4.24 0 0 1-1.026.951c-.55.342-.702.323-.702.323l-.133-.228-2.032.494.607-1.673h-.265l.512-.608-2.089.513c-.455.057-.342-.741-.342-.741l-3.171-.494c.494-.381 2.659-1.521 2.659-1.521s-.437-.685 0-.78 2.146-.228 2.146-.228l-.741-.399h.228l-1.31-1.35 2.089-.209v-.266h.797c.478.115.938.294 1.368.532l.151-.665.722.228 3.437 1.007-3.494-1.578.684-.285c.152 0 0 0-.608-.323-.883-.92-1.672-1.926-2.355-3.004a8.13 8.13 0 0 1 2.279 0 4.42 4.42 0 0 1 2.317.761c-.152 0 .342-1.483.342-1.483l.437.304 1.5 1.16.38-.172.911 1.902s.19.494.133-.362c.012-1.093.082-2.184.209-3.27a7.13 7.13 0 0 1 1.178 1.065c.375.447.659.964.835 1.521l.608-.361.133 2.034 1.234-.266c-.016.62-.184 1.226-.489 1.767s-.736.997-1.258 1.332v-.038z" class="M"/><g fill="#687e2c"><path d="M659.309 520.48a6.46 6.46 0 0 1 1.899 1.141 9.28 9.28 0 0 1 .703.97l-1.254.152.817 1.901-.722-.133a4.28 4.28 0 0 1 0 1.673c-.132.481-.33.942-.588 1.369l-1.71-2.928c-.341-.798-.304-.304-.304-.304v2.053h-.436l-.836 1.559c-.066.154-.149.301-.247.437 0 0-1.12-1.14-1.006-1.254-.432.663-1.054 1.18-1.785 1.482-.665.337-1.375.574-2.108.704a15.49 15.49 0 0 1 .873-3.536c.399-.495.589-.476.399-.495h-.779l2.469-2.471-2.697 2.053c-.531.361-.55.475-.55.475l-.456-.589a4.22 4.22 0 0 1-1.026.951c-.55.342-.702.323-.702.323l-.133-.228-2.032.494.608-1.673h-.266l.512-.608-2.089.513c-.455.057-.341-.742-.341-.742l-3.172-.494 4.558-.627 8.926-1.901 3.475-.267z"/><path d="M651.485 524.225a7.49 7.49 0 0 0-3.138 2.496c-.8 1.102-1.284 2.402-1.401 3.759-.522.558-.891 1.242-1.07 1.985s-.165 1.519.044 2.254c.209 1.521.551 2.187.456 0a5.5 5.5 0 0 1 .437-3.422l.209-.247c.57 2.472 3.798 1.578 3.19-.285-.244-.385-.612-.676-1.044-.825a2.01 2.01 0 0 0-1.33.008 6.89 6.89 0 0 1 1.358-2.972 6.88 6.88 0 0 1 2.574-2.01c.107-.038.195-.118.245-.221a.44.44 0 0 0 .021-.33.44.44 0 0 0-.222-.246c-.103-.049-.221-.057-.329-.02v.076zm-3.647 6.483a1.42 1.42 0 0 1 .836-.091c.281.054.539.192.741.395.418.704-1.387 1.426-1.577-.304z"/></g><path d="M663.943 521.849c-3.514 1.54-6.571 3.46-6.628 5.817.048 2.915.56 5.803 1.519 8.555.57.571 10.958 7.377 11.926 8.156s1.729 3.004 3.248.552 3.456-5.19 1.177-9.62-5.735-13.27-11.242-13.46z" fill="#4b2747"/><g fill="#61345e"><path d="M675.641 545.176c.508.004 1.005-.144 1.429-.423a2.56 2.56 0 0 0 .953-1.148c.197-.469.25-.985.154-1.484a2.57 2.57 0 0 0-.697-1.32c-.357-.361-.815-.607-1.313-.707s-1.014-.051-1.484.143-.871.522-1.153.945-.434.919-.434 1.427a2.57 2.57 0 0 0 .744 1.809c.477.48 1.124.753 1.801.758h0zm-7.615-7.033c.585-.004 1.156-.181 1.64-.51a2.96 2.96 0 0 0 1.083-1.334c.221-.543.277-1.138.161-1.712a2.97 2.97 0 0 0-.815-1.514c-.415-.413-.943-.694-1.517-.806a2.96 2.96 0 0 0-1.71.171c-.54.226-1.001.606-1.326 1.093s-.498 1.06-.498 1.646a2.97 2.97 0 0 0 .227 1.139c.15.361.37.689.647.965a2.98 2.98 0 0 0 .968.641 2.97 2.97 0 0 0 1.14.221h0zm4.311-7.548a2.99 2.99 0 0 0 2.127-5.096 2.99 2.99 0 0 0-1.531-.818c-.581-.114-1.182-.053-1.727.175a2.98 2.98 0 0 0-1.832 2.773c0 .786.312 1.541.868 2.097a2.96 2.96 0 0 0 2.095.869h0z"/><path d="M673.248 536.279c.591.004 1.169-.168 1.662-.494a2.98 2.98 0 0 0 1.106-1.335 2.99 2.99 0 0 0-.634-3.259c-.416-.42-.947-.706-1.526-.823a2.98 2.98 0 0 0-1.725.167c-.546.225-1.013.608-1.342 1.099a2.99 2.99 0 0 0-.503 1.66c0 .789.311 1.545.866 2.104a2.98 2.98 0 0 0 2.096.881h0zm-9.002-5.152a2.96 2.96 0 0 0 1.646-.5c.488-.326.867-.789 1.092-1.331a2.97 2.97 0 0 0 .168-1.713 2.96 2.96 0 0 0-2.328-2.331c-.574-.114-1.17-.055-1.711.169a2.97 2.97 0 0 0-1.33 1.092c-.325.488-.499 1.062-.499 1.648 0 .787.312 1.541.868 2.097a2.96 2.96 0 0 0 2.094.869h0zm4.634-4.24a2.96 2.96 0 0 0 1.646-.5c.487-.326.867-.789 1.091-1.331s.283-1.138.169-1.714a2.97 2.97 0 0 0-.811-1.518 2.96 2.96 0 0 0-1.517-.812c-.574-.114-1.17-.056-1.711.169a2.96 2.96 0 0 0-1.33 1.092c-.326.488-.499 1.061-.499 1.648a2.97 2.97 0 0 0 .867 2.097c.556.556 1.31.869 2.095.869h0z"/><path d="M663.411 525.404a2.96 2.96 0 0 0 2.737-1.831c.224-.542.283-1.138.168-1.713a2.97 2.97 0 0 0-2.327-2.33 2.96 2.96 0 0 0-1.712.168c-.541.225-1.004.605-1.329 1.093a2.96 2.96 0 0 0-.5 1.647 2.97 2.97 0 0 0 .868 2.098 2.96 2.96 0 0 0 2.095.868h0z"/><path d="M659.062 528.275c.591.004 1.17-.168 1.664-.495a2.98 2.98 0 0 0 1.28-3.067 2.98 2.98 0 0 0-2.348-2.351 2.98 2.98 0 0 0-3.064 1.282c-.326.494-.498 1.073-.495 1.665 0 .787.313 1.541.868 2.098a2.96 2.96 0 0 0 2.095.868h0z"/><path d="M658.587 532.914a2.98 2.98 0 0 0 1.658-.504c.491-.329.873-.797 1.098-1.343s.283-1.148.167-1.727a2.99 2.99 0 0 0-.821-1.528 2.98 2.98 0 0 0-1.532-.813c-.58-.113-1.18-.051-1.724.178a2.98 2.98 0 0 0-1.827 2.771 2.97 2.97 0 0 0 .227 1.139 2.96 2.96 0 0 0 .647.965c.277.276.606.494.968.642a2.96 2.96 0 0 0 1.139.22h0zm12.534 15.494c.585-.004 1.156-.181 1.641-.509a2.97 2.97 0 0 0 1.083-1.335c.221-.542.277-1.138.16-1.712a2.96 2.96 0 0 0-4.041-2.148c-.54.225-1.002.605-1.326 1.093s-.498 1.06-.498 1.645c0 .391.077.779.227 1.14a2.96 2.96 0 0 0 .647.964c.277.276.606.494.968.642a2.95 2.95 0 0 0 1.139.22h0z"/><path d="M667.228 545.062c.59 0 1.168-.175 1.658-.504a2.98 2.98 0 0 0 1.098-1.343c.225-.546.283-1.147.167-1.727a2.99 2.99 0 0 0-.822-1.528 2.98 2.98 0 0 0-1.531-.812c-.58-.113-1.18-.051-1.724.177a2.98 2.98 0 0 0-1.334 1.108 2.99 2.99 0 0 0-.494 1.664 2.97 2.97 0 0 0 .228 1.139c.15.361.37.689.647.965s.606.493.967.641a2.95 2.95 0 0 0 1.14.22h0z"/><path d="M663.753 541.64a2.98 2.98 0 0 0 1.661-.493 2.99 2.99 0 0 0 1.284-3.062c-.113-.58-.395-1.114-.811-1.533a2.98 2.98 0 0 0-3.252-.656c-.546.226-1.013.608-1.341 1.099a2.99 2.99 0 0 0 .363 3.765 2.98 2.98 0 0 0 2.096.88h0zm-5.489-3.574c.586 0 1.159-.174 1.646-.499a2.97 2.97 0 0 0 1.091-1.331c.225-.542.283-1.139.169-1.714s-.396-1.104-.811-1.519a2.96 2.96 0 0 0-1.517-.811 2.95 2.95 0 0 0-1.711.169 2.96 2.96 0 0 0-1.33 1.092c-.325.488-.499 1.061-.499 1.648.005.785.318 1.536.873 2.091a2.98 2.98 0 0 0 2.089.874h0zm18.327 11.806a2.98 2.98 0 0 0 1.663-.495 2.99 2.99 0 0 0 .464-4.6c-.418-.419-.951-.704-1.531-.818s-1.182-.054-1.727.174a2.98 2.98 0 0 0-1.337 1.108c-.326.494-.499 1.073-.495 1.665 0 .787.312 1.541.868 2.097s1.309.869 2.095.869h0zm-1.558-9.107c.591.004 1.171-.168 1.664-.495a2.98 2.98 0 0 0 1.106-1.338c.228-.546.289-1.148.174-1.729a2.99 2.99 0 0 0-2.348-2.351 2.98 2.98 0 0 0-1.727.175c-.545.228-1.011.614-1.337 1.107a2.99 2.99 0 0 0-.494 1.666 2.97 2.97 0 0 0 .867 2.097 2.96 2.96 0 0 0 2.095.868h0z"/><path d="M671.083 542.952a2.98 2.98 0 0 0 1.657-.503c.49-.328.872-.794 1.098-1.34a2.99 2.99 0 0 0 .169-1.724c-.115-.579-.399-1.111-.816-1.528s-.948-.702-1.526-.817a2.98 2.98 0 0 0-3.061 1.269c-.328.491-.502 1.068-.502 1.658a2.99 2.99 0 0 0 .873 2.111c.559.56 1.317.874 2.108.874h0zm-8.755-6.54a2.96 2.96 0 0 0 1.646-.5c.487-.326.867-.789 1.091-1.331a2.97 2.97 0 0 0-.642-3.232 2.96 2.96 0 0 0-1.517-.812c-.574-.114-1.17-.055-1.711.169s-1.004.605-1.33 1.093a2.96 2.96 0 0 0-.499 1.647c0 .39.076.775.225 1.135a2.96 2.96 0 0 0 1.604 1.605c.359.149.744.226 1.133.226h0zm6.153-3.156a2.96 2.96 0 0 0 2.737-1.831c.225-.542.283-1.138.169-1.714a2.96 2.96 0 0 0-2.328-2.33c-.574-.114-1.17-.056-1.711.169s-1.004.605-1.33 1.092a2.96 2.96 0 0 0-.499 1.648 2.99 2.99 0 0 0 .873 2.092 2.98 2.98 0 0 0 2.089.874h0z"/></g><g fill="#6e3b6e"><path d="M668.14 521.545a2.39 2.39 0 0 1 1.829-.123c.601.203 1.098.637 1.38 1.207a2.4 2.4 0 0 1-1.082 3.213 2.39 2.39 0 0 1-2.64-.343c-.236-.207-.43-.459-.57-.741a2.39 2.39 0 0 1-.243-.903 2.38 2.38 0 0 1 .12-.928 2.39 2.39 0 0 1 .465-.811 2.4 2.4 0 0 1 .741-.571zm-5.679-1.407a2.41 2.41 0 0 1 1.337-.487c.484-.025.964.097 1.378.35a2.41 2.41 0 0 1 .941 1.068c.2.442.261.935.177 1.413s-.31.919-.649 1.266a2.41 2.41 0 0 1-3.753-.378 2.34 2.34 0 0 1-.377-1.733c.107-.604.447-1.143.946-1.499h0zm-4.766 3.023a2.41 2.41 0 0 1 1.193-.772c.466-.131.961-.119 1.42.035s.861.443 1.154.829.463.851.488 1.335-.096.964-.347 1.379a2.41 2.41 0 0 1-2.471 1.126 2.42 2.42 0 0 1-1.266-.643 2.34 2.34 0 0 1-.762-1.61c-.032-.616.18-1.22.591-1.679z"/><path d="M657.049 527.743a2.41 2.41 0 0 1 1.65-.602 2.42 2.42 0 0 1 1.62.678c.436.422.697.993.731 1.599a2.42 2.42 0 0 1-.545 1.671 2.41 2.41 0 0 1-3.456-3.346h0zm5.64-1.598c.31-.373.724-.644 1.189-.778a2.42 2.42 0 0 1 1.42.027c.46.152.864.438 1.159.822a2.42 2.42 0 0 1 .496 1.333c.027.483-.091.964-.34 1.38a2.41 2.41 0 0 1-1.056.95c-.439.203-.93.27-1.407.191a2.41 2.41 0 0 1-1.271-.636c-.229-.202-.416-.449-.55-.724a2.31 2.31 0 0 1-.229-.881 2.32 2.32 0 0 1 .126-.901c.101-.289.259-.555.463-.783zm4.273 2.32a2.41 2.41 0 0 1 1.65-.601c.606.014 1.185.256 1.62.678a2.42 2.42 0 0 1 .186 3.269 2.41 2.41 0 0 1-1.65.602c-.606-.014-1.184-.257-1.62-.678s-.696-.993-.731-1.599.16-1.202.545-1.671zm4.14-2.757a2.41 2.41 0 0 1 1.192-.779c.467-.134.963-.123 1.423.03a2.41 2.41 0 0 1 1.649 2.165c.026.485-.096.967-.348 1.382a2.41 2.41 0 0 1-1.066.944c-.442.201-.934.263-1.412.178a2.41 2.41 0 0 1-1.267-.65 2.32 2.32 0 0 1-.76-1.599c-.032-.613.18-1.214.589-1.671h0zm1.007 5.495c.194-.196.425-.351.679-.457s.527-.16.802-.16.548.054.802.16.485.261.679.457c.383.373.602.883.609 1.418s-.198 1.05-.571 1.433a2.01 2.01 0 0 1-1.416.61c-.535.007-1.05-.198-1.432-.572-.393-.369-.628-.875-.656-1.414a2.09 2.09 0 0 1 .504-1.475h0zm2.146 4.696a2.16 2.16 0 0 1 1.072-.686c.418-.116.861-.104 1.272.035a2.17 2.17 0 0 1 1.033.745c.262.346.414.763.436 1.197s-.086.864-.312 1.236a2.16 2.16 0 0 1-.951.846c-.394.181-.834.239-1.262.166a2.16 2.16 0 0 1-1.136-.573c-.411-.375-.657-.896-.686-1.452a2.11 2.11 0 0 1 .534-1.514h0zm-4.672 2.148c.394-.39.927-.609 1.481-.609a2.11 2.11 0 0 1 1.482.609 2.02 2.02 0 0 1 .618 1.414c.011.535-.191 1.052-.562 1.438s-.878.608-1.412.619a2.01 2.01 0 0 1-1.436-.562c-.393-.372-.629-.88-.66-1.42a2.13 2.13 0 0 1 .489-1.489h0z"/><path d="M666.829 533.446c.282-.338.658-.583 1.081-.703s.871-.11 1.287.03a2.18 2.18 0 0 1 1.49 1.961 2.19 2.19 0 0 1-1.281 2.105c-.4.181-.846.237-1.278.161s-.832-.281-1.147-.588c-.41-.375-.657-.897-.685-1.452s.163-1.1.533-1.514zm-.702 7.035a2.1 2.1 0 0 1 .684-.458c.255-.106.53-.161.806-.161a2.11 2.11 0 0 1 1.491.619c.224.176.408.396.541.648s.212.529.231.813-.021.569-.119.836-.25.512-.448.717a2.04 2.04 0 0 1-.7.472c-.263.106-.547.156-.831.146a2.03 2.03 0 0 1-1.484-.724 2.13 2.13 0 0 1-.661-1.42c-.032-.54.143-1.073.49-1.488zm-3.837-3.404c.28-.339.655-.586 1.076-.709s.871-.115 1.288.021a2.18 2.18 0 0 1 1.052.745c.268.349.425.769.45 1.208a2.19 2.19 0 0 1-1.268 2.112c-.399.184-.844.243-1.277.169a2.19 2.19 0 0 1-1.15-.58 2.1 2.1 0 0 1-.496-.653c-.12-.249-.191-.519-.207-.794a2.08 2.08 0 0 1 .115-.813c.091-.261.233-.501.417-.706h0zm7.502 6.654a2.16 2.16 0 0 1 1.072-.686c.418-.116.861-.104 1.272.035a2.17 2.17 0 0 1 1.033.745c.262.346.414.763.436 1.197s-.086.864-.312 1.236a2.16 2.16 0 0 1-.951.846c-.394.181-.834.239-1.262.166a2.16 2.16 0 0 1-1.136-.573c-.411-.375-.657-.896-.686-1.452a2.11 2.11 0 0 1 .534-1.514zm4.747-3.06c.28-.339.655-.586 1.076-.709s.871-.115 1.288.021a2.19 2.19 0 0 1 1.194 3.204c-.226.377-.561.677-.96.861a2.19 2.19 0 0 1-2.427-.411c-.413-.372-.663-.893-.695-1.448s.157-1.101.524-1.518h0z"/><path d="M675.584 545.081a2.01 2.01 0 0 1 .995-.642c.388-.11.8-.1 1.183.028a2.02 2.02 0 0 1 1.372 1.8 2.01 2.01 0 0 1-.285 1.15c-.208.346-.515.622-.881.791s-.775.225-1.173.159-.767-.251-1.059-.529c-.197-.167-.358-.373-.473-.604a1.9 1.9 0 0 1-.195-.742 1.89 1.89 0 0 1 .113-.759 1.9 1.9 0 0 1 .403-.652h0zm-14.889-13.422c.31-.373.725-.645 1.192-.779s.963-.123 1.423.03a2.41 2.41 0 0 1 1.649 2.165c.026.486-.096.967-.348 1.382a2.41 2.41 0 0 1-1.066.944c-.442.201-.934.263-1.412.178a2.41 2.41 0 0 1-1.267-.65c-.455-.411-.728-.986-.76-1.599s.18-1.214.589-1.671h0z"/><path d="M656.156 533.446a2.42 2.42 0 0 1 1.192-.779c.467-.133.963-.123 1.423.03s.865.441 1.159.828a2.42 2.42 0 0 1 .491 1.338c.025.485-.096.966-.349 1.381s-.624.744-1.066.945a2.41 2.41 0 0 1-1.412.178c-.478-.085-.919-.311-1.267-.651a2.34 2.34 0 0 1-.752-1.6c-.032-.611.177-1.211.581-1.67z"/></g><g fill="#7d4f7c"><path d="M673.818 525.652c1.044.646 1.234 2.186.513 1.749-.293-.365-.654-.669-1.064-.894-.494-.228-1.481-.247-1.519-.532-.152-.78 1.367-.761 2.07-.323zm-3.552-3.613c1.064.665 1.254 2.205.513 1.768a3.49 3.49 0 0 0-1.063-.912c-.494-.229-1.463-.248-1.52-.533-.152-.76 1.368-.76 2.07-.323zm-5.526-1.578c1.064.665 1.254 2.205.513 1.768a3.26 3.26 0 0 0-1.064-.913c-.493-.228-1.462-.247-1.519-.532-.133-.76 1.368-.76 2.07-.323zm-4.387 2.624c1.064.646 1.254 2.186.513 1.749-.293-.365-.654-.668-1.063-.894-.494-.228-1.463-.247-1.52-.532-.228-.76 1.368-.76 2.07-.323zm5.128 3.156c1.063.665 1.253 2.205.513 1.768-.284-.378-.647-.69-1.064-.913-.494-.228-1.481-.247-1.519-.532-.133-.723 1.367-.723 2.07-.323zm4.235 2.129c1.063.647 1.253 2.187.513 1.749-.288-.37-.65-.674-1.064-.893-.494-.247-1.462-.247-1.519-.533-.095-.779 1.386-.76 2.07-.323zm4.842 2.814c1.045.646 1.235 2.186.513 1.749-.293-.365-.654-.668-1.063-.894-.494-.247-1.482-.247-1.52-.532-.152-.78 1.368-.761 2.07-.323zm2.109 4.772c1.063.665 1.253 2.205.512 1.768a3.13 3.13 0 0 0-1.044-.893c-.513-.248-1.481-.267-1.538-.552-.133-.76 1.386-.76 2.07-.323zm.512 4.886c.931.741.912 2.224.266 1.73a3.25 3.25 0 0 0-.893-.989c-.436-.285-1.367-.418-1.367-.703-.038-.742 1.386-.551 1.994-.038zm.912 4.258c.93.761.911 2.244.266 1.73-.224-.384-.529-.715-.893-.969-.437-.285-1.367-.419-1.367-.704-.038-.741 1.386-.551 1.994-.057zm-5.773-1.159c.93.761.911 2.243.284 1.73-.23-.379-.533-.709-.892-.969-.456-.286-1.368-.419-1.387-.704-.037-.741 1.387-.551 1.995-.057zm-.133-5.665c.911.741.911 2.224.266 1.73-.227-.388-.531-.725-.893-.989-.456-.285-1.367-.418-1.386-.703-.038-.742 1.405-.552 2.013-.038zm-2.735-4.83c.911.742.892 2.224.266 1.73-.233-.383-.536-.718-.893-.988-.456-.286-1.367-.419-1.386-.704-.038-.798 1.386-.608 2.013-.038zm-5.906-1.539c.93.741.911 2.224.266 1.73a3.24 3.24 0 0 0-.893-.989c-.437-.285-1.348-.418-1.367-.684-.038-.761 1.386-.552 1.994-.057zm1.234 5.589c.931.76.912 2.243.266 1.749a3.05 3.05 0 0 0-.892-.989c-.437-.285-1.368-.418-1.368-.703-.038-.742 1.386-.552 1.994-.057zm3.893 3.118c.931.76.912 2.243.266 1.73a3.26 3.26 0 0 0-.892-.989c-.437-.285-1.349-.399-1.368-.684-.038-.741 1.387-.551 1.994-.057zm-8.868-12.871c.911.761.911 2.244.265 1.73a3.05 3.05 0 0 0-.892-.969c-.437-.286-1.367-.419-1.386-.704-.038-.684 1.405-.494 2.013-.057zm-1.14 6.026c.931.761.912 2.244.266 1.73a3.01 3.01 0 0 0-.892-.969c-.437-.285-1.368-.419-1.368-.704-.038-.741 1.387-.551 1.994-.057z"/></g><path d="M630.139 531.507h23.739 18.725 23.738l7.065 78.213h-30.803-18.725-30.804l7.065-78.213z" fill="#b49061"/><path d="M639.369 531.507h23.757 18.706 23.739l7.083 78.213h-30.822-18.706-30.822l7.065-78.213z" fill="#e2c077"/><g fill="#764633"><path d="M656.802 542.952c.376 0 .743-.112 1.055-.321a1.9 1.9 0 0 0 .7-.853 1.91 1.91 0 0 0 .108-1.098c-.074-.369-.254-.708-.52-.974s-.604-.447-.972-.52a1.9 1.9 0 0 0-1.098.108c-.347.144-.643.388-.852.7a1.9 1.9 0 0 0-.32 1.057c0 .504.2.987.556 1.344a1.9 1.9 0 0 0 1.343.557zm29.512 0a1.9 1.9 0 0 0 1.055-.321c.312-.209.556-.505.699-.853s.182-.73.108-1.098-.254-.708-.519-.974a1.89 1.89 0 0 0-.973-.52 1.9 1.9 0 0 0-1.949.808c-.209.313-.32.681-.32 1.057 0 .504.2.987.556 1.344a1.9 1.9 0 0 0 1.343.557z"/></g><path d="M685.44 541.697a.9.9 0 0 1 .063-.348.88.88 0 0 1 .192-.296c.083-.085.182-.153.292-.199a.89.89 0 0 1 .346-.07.91.91 0 0 1 .644.267c.171.172.267.404.267.646a15.65 15.65 0 0 1-4.578 11.063c-2.931 2.935-6.906 4.583-11.051 4.583a15.62 15.62 0 0 1-11.052-4.583c-2.931-2.934-4.578-6.914-4.578-11.063a.95.95 0 0 1 .95-.951c.252 0 .493.1.671.279a.95.95 0 0 1 .278.672c0 3.67 1.457 7.191 4.05 9.786s6.109 4.054 9.776 4.054a13.82 13.82 0 0 0 9.776-4.054 13.85 13.85 0 0 0 4.049-9.786h-.095z" fill="#e0a519"/><path d="M543.92 380.232a71.41 71.41 0 0 0 39.703-12.057 71.52 71.52 0 0 0 26.32-32.107c5.409-13.072 6.824-27.456 4.067-41.334s-9.564-26.625-19.558-36.63-22.728-16.819-36.59-19.579a71.39 71.39 0 0 0-41.289 4.071c-13.058 5.415-24.219 14.584-32.071 26.349s-12.044 25.597-12.044 39.746c.035 18.963 7.576 37.139 20.97 50.548s31.55 20.957 50.492 20.993h0z" class="E"/><path d="M518.473 323.653c1.262-.118 2.535.016 3.746.392s2.336.988 3.31 1.801a9.62 9.62 0 0 1 2.366 2.934c.588 1.124.949 2.354 1.061 3.618.494 5.324-4.254 11.407-9.496 11.978-33.746 3.099-50.914.361-54.788-10.723-3.665-10.532 8.831-24.069 35.968-45.628.998-.792 2.142-1.381 3.366-1.731a9.71 9.71 0 0 1 7.375.849c1.113.619 2.094 1.452 2.885 2.451s1.38 2.143 1.73 3.369.455 2.509.309 3.776a9.72 9.72 0 0 1-1.157 3.607 9.73 9.73 0 0 1-2.448 2.889l-26.303 20.95c-4.387 3.613 7.426 1.711 32.076-.532z" class="B"/><path d="M493.063 293.9c1.159-1.159 5.128-4.068 6.533-5.19l9.495-2.528a9.67 9.67 0 0 1 4.487 2.732c1.216 1.307 2.048 2.925 2.403 4.675s.222 3.565-.388 5.243-1.669 3.156-3.064 4.27l-13.939 11.141s1.31-2.757-5.527-20.343z" class="F"/><path d="M493.975 277.056h9.97a3.38 3.38 0 0 1 1.294.257c.41.17.782.42 1.096.734a3.38 3.38 0 0 1 .99 2.393h0a3.4 3.4 0 0 1-.989 2.399c-.633.638-1.493.999-2.391 1.004h-9.97a3.4 3.4 0 0 1-2.392-1.004c-.633-.637-.989-1.5-.989-2.399h0a3.38 3.38 0 0 1 .991-2.393c.313-.314.686-.564 1.096-.734a3.38 3.38 0 0 1 1.294-.257z" class="B"/><path d="M519.005 302.759c4.918-5.931 5.051-14.886 4.861-20.038-.209-5.932 5.147-11.293 2.887-12.738s-7.198 1.673-8.831 5.704-10.065 5.57-12.325 11.73c-1.209 4.202-1.671 8.584-1.367 12.947.152 5.285 11.888 5.893 14.775 2.395z" class="F"/></g><use xlink:href="#C" class="N"/><path d="M520.771 265.078h-16.997c-1.227 0-2.222.996-2.222 2.224v36.351c0 1.228.995 2.224 2.222 2.224h16.997c1.227 0 2.222-.996 2.222-2.224v-36.351c0-1.228-.995-2.224-2.222-2.224z" class="O"/><path d="M520.866 267.303h-16.997v35.095h16.997v-35.095z" fill="#a7bdcd"/><g class="C"><g class="B"><path d="M499.729 288.995h4.615c.901 0 1.766.359 2.403.997s.996 1.504.996 2.406h0c0 .903-.358 1.768-.996 2.407s-1.502.996-2.403.996h-4.615a3.4 3.4 0 0 1-2.397-.99c-.637-.634-.997-1.495-1.002-2.394h0a3.39 3.39 0 0 1 .253-1.308c.17-.415.42-.792.736-1.11s.691-.571 1.105-.743.857-.261 1.305-.261h0z"/><path d="M499.729 295.802h4.615c.9.005 1.762.365 2.398 1.002s.996 1.5 1.001 2.401h0c-.005.899-.365 1.76-1.002 2.394a3.4 3.4 0 0 1-2.397.99h-4.615a3.4 3.4 0 0 1-2.397-.99c-.637-.634-.997-1.495-1.002-2.394h0a3.42 3.42 0 0 1 1.001-2.401c.636-.637 1.498-.997 2.398-1.002h0z"/></g><path d="M510.098 286.562c1.899 2.148 3.551 2.129 4.729 1.065.277-.272.437-.64.449-1.028s-.128-.765-.388-1.053-.621-.463-1.008-.49-.769.097-1.066.346c-.817.761-1.216.894-2.051-.152-.475-.608-.152-1.197.38-1.692.292-.266.469-.636.49-1.031s-.114-.783-.377-1.079c-1.424-1.578-4.899.97-1.158 5.114zm1.766-6.958c.835-.007 1.658.194 2.397.583a5.06 5.06 0 0 1 1.835 1.65 5.07 5.07 0 0 1 .836 2.323c.082.832-.042 1.671-.363 2.443s-.827 1.452-1.474 1.979-1.416.887-2.235 1.045a5.04 5.04 0 0 1-4.566-1.43 5.08 5.08 0 0 1 0-7.129 5.05 5.05 0 0 1 3.57-1.483v.019zm-4.425.627c1.035-1.001 2.384-1.613 3.818-1.731a6.22 6.22 0 0 1 4.049 1.081 6.24 6.24 0 0 1 2.187 7.593 6.23 6.23 0 0 1-2.852 3.074c-1.277.664-2.744.865-4.152.569a6.23 6.23 0 0 1-3.573-2.193c-.902-1.122-1.388-2.523-1.376-3.963a6.24 6.24 0 0 1 .505-2.406c.326-.761.8-1.449 1.394-2.024h0z" class="H"/><path d="M499.729 282.189h4.615a3.4 3.4 0 0 1 2.397.99c.637.635.997 1.495 1.002 2.395h0c0 .902-.358 1.768-.996 2.406s-1.502.997-2.403.997h-4.615a3.4 3.4 0 0 1-1.301-.259 3.41 3.41 0 0 1-1.103-.738c-.315-.316-.566-.691-.737-1.104s-.258-.856-.258-1.302h0c.005-.9.365-1.76 1.002-2.395a3.4 3.4 0 0 1 2.397-.99h0z" class="B"/><g class="D"><path d="M491.81 324.68c2.203 12.624.228 24.107-.76 30.685 15.762.361 74.9-12.491 68.747-36.408-3.039-11.787-19.808-8.346-28.676-5.703-1.121.342-7.141 3.935-8.299 4.277-12.059 3.632-25.486 6.94-31.012 7.149z"/><path d="M508.218 370.65a.3.3 0 0 0 0-.133h0c.74-34.012 12.496-65.077 51.693-57.32 2.222.437 6.001 32.225 9.495 62.377-5.999 2.384-12.313 3.876-18.744 4.43-2.146 10.57 1.026 16.958 1.026 16.958s-33.367-2.3-43.451-26.312h-.019z"/></g><path d="M559.056 288.481h-19.731l-5.583 29.164c-1.026 5.438 4.026 2.168 9.495 2.168 5.412 0 9.229 3.27 10.274-2.168l5.545-29.164z" class="B"/><path d="M559.056 288.481h-19.731l-4.292 22.396c2.868 1.521 16.142-3.327 21.63-9.905l2.393-12.491z" class="F"/><g class="D"><path d="M555.391 305.611a31.59 31.59 0 0 1-1.12 3.688 41.42 41.42 0 0 1-15.858 10.647c-1.899.399-2.867 9.962-2.867 9.962 4.823-1.578 23.244-10.989 24.289-15.666.437-1.901-1.235-5.703-1.899-6.977-1.387-2.433-2.431-1.692-2.545-1.654zm-19.656 22.168l1.121-6.559c.855-4.049-1.69-6.521-1.158-11.901.322-3.194-8.964 4.296-3.799 14.639.905 1.601 2.232 2.923 3.836 3.821h0z"/></g><path d="M536.951 321.086a.36.36 0 0 1 .456-.228.34.34 0 0 1 .12.064c.036.029.065.065.087.106a.34.34 0 0 1 .037.132.34.34 0 0 1-.016.135 224.15 224.15 0 0 0-5.698 25.001c-1.899 10.19-3.266 21.141-4.387 31.977a.34.34 0 0 1-.041.136c-.023.042-.053.079-.091.109a.35.35 0 0 1-.125.066c-.046.013-.094.018-.141.012-.094-.014-.18-.062-.239-.136a.38.38 0 0 1-.084-.263c1.12-10.874 2.583-21.825 4.406-32.015 1.417-8.469 3.326-16.849 5.716-25.096h0z" class="I"/><path d="M567.526 367.076c-.322-2.546.379-5.116 1.95-7.145s3.882-3.35 6.425-3.673 5.111.38 7.138 1.952a9.68 9.68 0 0 1 3.668 6.433c0 .399 0 .817.152 1.216-5.576 4.204-11.738 7.567-18.288 9.981l-1.045-8.764z" class="B"/><path d="M546.237 336.03c10.673 11.635 15.193 30.532 14.244 42.263a71.32 71.32 0 0 0 28.961-14.468c-1.235-27.852-17.643-53.727-34.925-50.894-1.975.323-14.85 13.08-8.28 23.099z" class="D"/><path d="M525.746 272.094l9.192-14.544 2.298-19.525s-10.692-5.704-14.167.798c-2.347 4.499-3.547 9.508-3.495 14.582a32.6 32.6 0 0 0 3.571 13.308c1.082 2.472 1.975 6.274 2.601 5.381z" class="J"/><g class="B"><path d="M529.696 239.033c-11.755 29.962-13.293 61.141 5.983 65.723 6.418 1.521 9.628.817 16.028-1.673 12.895-5 23.681-17.244 24.08-32.966.608-23.537-11.242-55.001-46.091-31.084z"/><path d="M573.091 270.041c3.798-2.453 7.045-1.616 8.887.551 7.407 8.822-8.394 21.179-14.433 14.829-2.924-3.08 5.546-15.38 5.546-15.38z"/></g><path d="M535.394 254.888c-4.729-1.596-3.95-.931-8.204-1.406 2.962-2.51 5.545-1.902 9.115-1.293.19.056.366.152.516.282s.272.289.356.468.13.375.134.573-.035.396-.113.578c-.14.34-.406.614-.742.762a1.42 1.42 0 0 1-1.062.036h0z" class="K"/><path d="M553.321 266.067c1.614.59 2.241 2.947 1.386 5.247s-2.848 3.67-4.463 3.061-2.24-2.947-1.386-5.247 2.849-3.745 4.463-3.061z" class="J"/><path d="M551.802 259.185c4.747 1.521 3.798 1.597 7.463 3.802-.93-3.802-3.418-4.753-6.609-6.445a1.41 1.41 0 0 0-.562-.078 1.43 1.43 0 0 0-.548.147c-.171.086-.323.205-.447.351s-.217.314-.275.497a1.44 1.44 0 0 0 .107 1.108c.091.168.216.316.365.436s.322.206.506.258v-.076z" class="K"/><path d="M567.507 278.424l-1.234-17.11 7.178-18.308s12.116 0 12.116 7.414c-.049 5.07-1.354 10.047-3.798 14.487a32.64 32.64 0 0 1-9.495 10.076c-2.051 1.597-4.691 4.563-4.767 3.441z" class="J"/><path d="M578.522 274.432c3.57 4.259-4.026 9.962-6.837 6.996-1.348-1.426 3.21-11.312 6.837-6.996z" class="F"/><g class="J"><path d="M530.817 259.413c1.386.361 2.089 2.452 1.595 4.677s-1.899 3.802-3.361 3.365-2.089-2.453-1.595-4.677 1.918-3.726 3.361-3.365zm-2.621 22.244c4.311 3.099 17.871 4.943 17.871 4.943s-2.526 8.917-11.395 7.396c-2.867-.476-7.33-4.278-6.476-12.339z"/></g><path d="M543.237 291.353c-1.086 1.149-2.451 1.997-3.963 2.46s-3.116.526-4.659.182c-1.13-.238-2.178-.769-3.038-1.54a7.21 7.21 0 0 1 4.178-2.737c1.291-.277 2.627-.275 3.917.007a9.26 9.26 0 0 1 3.565 1.628z" fill="#7c2924"/><path d="M530 282.664c4.412 1.69 8.998 2.883 13.674 3.555-1.52 1.521-3.666 1.901-7.407 1.084-4.14-.875-5.716-2.662-6.267-4.639z" class="H"/><path d="M533.95 275.706a52.36 52.36 0 0 0 7.065 1.996s-5.868 4.354-7.065-1.996z" class="F"/><path d="M528.348 242.398c-2.659-1.901-6.457-6.882-2.146-13.86s23.606-16.255 43.679-6.388 22.371 6.578 22.371 6.578.209 18.309-12.306 20.552-23.055-17.776-51.598-6.882z" class="K"/><path d="M561.943 233.349c15.439 1.502 18.63-1.901 23.928-4.772-2.95-.833-5.838-1.875-8.641-3.118l-1.139.551c-8.299 3.898-24.954-1.749-43.052-3.479-2.719 1.412-5.063 3.452-6.837 5.951-.237.374-.452.761-.646 1.16a67.73 67.73 0 0 1 21.308 1.33h.38c5.887 1.255 10.711 1.978 14.699 2.377z" fill="#7a4533"/><g class="I"><path d="M564.716 376.962c.005.063-.003.126-.024.186a.44.44 0 0 1-.096.161c-.043.047-.095.084-.153.109a.46.46 0 0 1-.183.038c-.128.005-.253-.039-.349-.125a.5.5 0 0 1-.164-.331c-1.234-33.67-.361-33.67-.361-33.67.115-.057.246-.069.369-.034a.51.51 0 0 1 .296.224c.057.115.069.247.034.37s-.115.228-.224.296c0 0-.361-.229.855 32.776zm-54.789-22.7a.42.42 0 0 1-.166.249c-.084.06-.187.086-.29.074-.099-.023-.186-.083-.242-.168s-.079-.188-.062-.288c1.69-7.408 4.094-14.635 7.179-21.578a.38.38 0 0 1 .208-.196c.092-.035.195-.033.286.006a.4.4 0 0 1 .208.513c-3.066 6.879-5.452 14.043-7.121 21.388h0z"/></g><path d="M492.247 609.721h245.817a10.1 10.1 0 0 1 7.106 2.962 10.12 10.12 0 0 1 2.959 7.114h0a10.1 10.1 0 0 1-2.96 7.107 10.08 10.08 0 0 1-7.105 2.95H492.247a10.08 10.08 0 0 1-7.105-2.95c-1.886-1.885-2.951-4.44-2.961-7.107h0a10.12 10.12 0 0 1 2.959-7.114 10.1 10.1 0 0 1 7.107-2.962h0z" fill="#ebebeb"/></g></g><defs><clipPath id="A"><path transform="translate(299.129 217.854)" d="M0 0h449v412H0z" class="H"/></clipPath><path id="B" d="M412.903 294.242h-13.446a1.77 1.77 0 0 0-1.766 1.768v28.765a1.77 1.77 0 0 0 1.766 1.768h13.446a1.77 1.77 0 0 0 1.766-1.768V296.01a1.77 1.77 0 0 0-1.766-1.768z"/><path id="C" d="M519.119 265.078h-16.997c-1.227 0-2.222.996-2.222 2.224v36.351c0 1.228.995 2.224 2.222 2.224h16.997c1.227 0 2.222-.996 2.222-2.224v-36.351c0-1.228-.995-2.224-2.222-2.224z"/></defs></svg>