<svg width="1128" height="848" viewBox="0 0 1128 848" fill="none" xmlns="http://www.w3.org/2000/svg">
<path d="M880.581 243.492C988.349 344.17 1106.04 442.012 1124.48 558.288C1142.91 674.564 1062.08 809.274 954.317 839.761C846.549 870.248 711.839 796.512 584.219 789.422C457.308 781.623 336.778 841.179 228.301 810.692C119.824 780.205 21.9818 659.675 3.54781 520.711C-15.5952 381.747 43.9608 224.349 152.438 123.671C261.624 22.9929 419.022 -20.9651 547.351 9.52189C674.971 39.2999 772.813 142.814 880.581 243.492Z" fill="white"/>
<g clip-path="url(#clip0_413_7732)">
<g opacity="0.4971">
<path fill-rule="evenodd" clip-rule="evenodd" d="M572.619 307.704C489.359 307.704 412.004 375.151 399.837 458.372C387.67 541.593 445.324 609.041 528.558 609.041C611.793 609.041 689.173 541.593 701.34 458.372C713.507 375.151 655.854 307.704 572.619 307.704Z" fill="#ADC6FF"/>
<path fill-rule="evenodd" clip-rule="evenodd" d="M388.128 416.749L168.129 404.486L399.761 392.299C395.322 400.17 391.435 408.339 388.128 416.749V416.749Z" fill="#ADC6FF"/>
<path fill-rule="evenodd" clip-rule="evenodd" d="M375.274 477.225L197.503 464.86L377.87 453.029C377.565 454.81 377.259 456.591 377.005 458.372C376.082 464.62 375.504 470.914 375.274 477.225Z" fill="#ADC6FF"/>
<path fill-rule="evenodd" clip-rule="evenodd" d="M384.692 538.006L244.695 525.285L377.845 513.836C379.456 522.068 381.746 530.152 384.692 538.006V538.006Z" fill="#ADC6FF"/>
</g>
<path fill-rule="evenodd" clip-rule="evenodd" d="M565.645 285.441C588.553 338.183 600.695 378.687 596.622 407.36C592.55 436.033 595.935 448.322 578.295 435.524C560.656 422.727 552.841 434.888 547.343 395.504C541.845 356.12 539.707 335.562 539.376 316.328C539.045 297.094 565.645 285.441 565.645 285.441Z" fill="#506422"/>
<path fill-rule="evenodd" clip-rule="evenodd" d="M586.441 285.086C580.892 259.898 572.848 253.487 566.612 255.191C560.376 256.896 561.521 256.184 557.448 253.181C553.376 250.179 545.689 252.138 543.271 263.943C540.852 275.749 547.521 294.474 550.22 298.163C552.918 301.852 550.805 307.17 558.568 308.543C566.332 309.917 586.441 285.086 586.441 285.086Z" fill="#506422"/>
<path fill-rule="evenodd" clip-rule="evenodd" d="M583.03 276.664C588.897 279.783 593.714 284.562 596.877 290.403C596.877 290.403 608.102 293.38 611.462 308.212C614.822 323.045 613.371 330.042 616.222 335.893C619.073 341.745 620.778 347.877 618.767 353.957C617.451 357.905 616.563 361.982 616.12 366.119C616.12 366.119 624.164 381.537 619.276 395.072C614.389 408.607 608.484 414.942 602.808 412.678C597.131 410.413 582.444 399.651 581.426 386.116C580.408 372.581 587.739 366.526 577.863 358.791C567.986 351.057 561.827 346.579 565.645 336.072C569.463 325.564 573.841 320.374 566.536 309.968C559.23 299.562 566.536 297.552 570.659 290.734C574.783 283.915 566.459 265.343 583.03 276.664Z" fill="#637D2A"/>
<path fill-rule="evenodd" clip-rule="evenodd" d="M563.125 402.069C572.288 394.436 582.012 374.82 574.045 365.127C566.077 355.433 559.587 349.098 563.863 332.306C568.139 315.514 557.779 317.779 557.347 305.516C556.914 293.253 561.088 290.785 552.46 281.778C543.831 272.772 555.234 266.284 547.674 260.788C540.114 255.293 533.98 259.898 531.791 271.983C529.602 284.068 517.867 275.977 516.315 294.728C514.762 313.479 524.918 311.088 516.493 328.693C508.068 346.299 529.22 348.615 526.293 360.725C524.565 367.323 524.424 374.236 525.879 380.9C527.334 387.563 530.346 393.788 534.667 399.066C544.441 410.592 564.601 421.532 563.125 402.069Z" fill="#637D2A"/>
<path fill-rule="evenodd" clip-rule="evenodd" d="M588.121 307.882C590.513 321.723 599.448 335.868 609.807 363.855C620.167 391.841 626.124 410.948 614.898 436.288C603.673 461.629 585.244 459.95 561.445 445.041C537.645 430.131 539.325 407.717 536.525 381.588C533.725 355.459 528.151 326.76 530.569 309.739C532.987 292.719 535.431 287.478 535.431 287.478C535.431 287.478 540.522 324.419 549.507 365.737C558.492 407.055 573.688 422.804 578.575 426.035C583.463 429.266 595.757 408.684 589.419 363.804C583.081 318.924 582.546 305.618 588.121 307.882Z" fill="#C0C8A1"/>
<path fill-rule="evenodd" clip-rule="evenodd" d="M585.219 458.499C576.59 457.558 579.008 446.719 594.153 447.584C605.455 448.246 604.717 460.611 585.219 458.499Z" fill="#8E9F6A"/>
<path fill-rule="evenodd" clip-rule="evenodd" d="M587.23 323.198C587.23 324.546 587.51 325.92 587.713 327.37C587.962 327.447 588.185 327.589 588.359 327.782C588.534 327.974 588.654 328.21 588.706 328.464C595.451 356.222 619.531 407.666 592.702 434.533C609.833 401.305 604.615 382.732 592.142 348.691C594.997 359.94 596.627 371.464 597.004 383.063C597.004 408.505 592.651 433.795 583.055 433.947C573.459 434.1 557.601 420.056 549.736 385.455C547.725 376.626 545.943 366.907 544.34 357.468C545.332 379.247 549.125 406.445 557.372 418.733C562.052 426.021 567.733 432.615 574.248 438.323C568.394 435.474 560.299 424.966 556.43 419.445C542.838 400.211 537.391 302.412 534.336 306.355C531.969 309.459 536.551 414.281 548.54 427.231C555.972 435.245 570.226 451.96 581.35 447.076C583.739 446.047 586.271 445.387 588.859 445.117C590.904 444.892 592.962 444.807 595.019 444.862C602.986 445.167 600.313 448.22 605.2 440.486C609.604 433.617 616.095 420.845 615.229 406.317C613.982 385.506 605.989 362.862 590.971 323.961C589.851 320.908 586.619 315.871 587.23 323.198Z" fill="#ECEFE9"/>
<path fill-rule="evenodd" clip-rule="evenodd" d="M582.419 358.664C577.099 351.031 566.866 348.691 569.437 340.422C572.008 332.153 579.288 323.808 574.121 313.988C568.954 304.167 563.659 304.752 570.608 298.875C577.557 292.998 578.244 290.759 579.135 285.085C580.026 279.412 586.772 283.177 591.379 290.886C595.986 298.595 605.2 297.628 607.109 307.958C609.018 318.287 604.055 322.078 606.677 327.319C609.298 332.56 618.233 342.076 617.342 347.088C616.757 350.238 615.701 353.283 614.211 356.12C614.211 356.12 614.338 350.141 608.306 341.338C602.273 332.535 600.669 327.167 600.186 313.86C599.702 300.554 590.182 294.372 584.226 299.893C578.27 305.414 583.03 312.461 580.306 322.18C577.583 331.899 571.448 334.418 576.463 339.735C581.477 345.052 585.83 353.092 584.557 356.756C583.284 360.419 582.419 358.664 582.419 358.664Z" fill="#69822C"/>
<path fill-rule="evenodd" clip-rule="evenodd" d="M562.947 391.205C568.928 384.361 572.237 376.601 570.863 370.063C569.87 365.178 564.168 360.293 561.063 355.103C557.703 349.505 555.412 346.147 556.761 339.43C558.263 331.798 562.59 325.743 559.129 318.568C555.463 310.935 550.143 307.399 553.274 301.369C557.423 293.329 553.452 288.215 549.252 283.763C543.932 278.14 544.162 280.583 544.162 272.492C542.303 280.506 540.903 282.135 545.943 288.088C549.329 292.083 550.754 296.586 547.547 300.326C541.591 307.322 550.092 310.248 553.783 318.441C556.659 324.852 554.038 335.843 552.892 342.509C551.161 352.686 556.074 354.212 563.074 363.041C571.55 373.625 567.223 379.273 562.947 391.205Z" fill="#69822C"/>
<path fill-rule="evenodd" clip-rule="evenodd" d="M587.102 458.067C580.688 457.38 582.495 449.34 593.746 449.976C602.146 450.46 601.56 459.568 587.102 458.067Z" fill="#AEB994"/>
<path fill-rule="evenodd" clip-rule="evenodd" d="M626.658 357.977C644.323 314.09 650.61 268.93 650.763 253.13C650.916 237.331 635.771 250.204 635.491 265.266C635.211 280.328 620.345 278.267 624.8 296.789C629.254 315.311 624.8 313.53 621.262 326.709C617.724 339.888 626.658 357.977 626.658 357.977Z" fill="#637D2A"/>
<path fill-rule="evenodd" clip-rule="evenodd" d="M627.193 357.341C643 301.088 655.421 270.685 669.879 256.59C684.337 242.495 676.293 266.411 671.432 276.944C666.57 287.477 672.628 283.737 671.635 294.015C670.643 304.294 655.319 310.985 653.818 315.514C652.316 320.043 661.276 317.6 653.054 329.126C644.832 340.651 627.193 357.341 627.193 357.341Z" fill="#576E26"/>
<path fill-rule="evenodd" clip-rule="evenodd" d="M628.847 356.451C642.516 335.41 670.668 298.341 692.304 283.687C713.94 269.032 691.413 294.55 687.799 298.621C684.184 302.692 690.675 312.894 684.846 317.855C679.017 322.816 676.141 319.713 672.679 329.279C669.217 338.845 628.847 356.451 628.847 356.451Z" fill="#637D2A"/>
<path fill-rule="evenodd" clip-rule="evenodd" d="M636.891 304.371C643.274 285.658 646.215 265.945 645.57 246.185C641.192 247.915 635.643 256.209 635.389 265.266C635.083 280.302 620.244 278.267 624.698 296.789C629.153 315.311 624.698 313.53 621.16 326.709C620.564 329.113 620.29 331.585 620.345 334.062C626.149 331.899 632.054 318.466 636.891 304.371Z" fill="#7B913F"/>
<path fill-rule="evenodd" clip-rule="evenodd" d="M669.879 256.591C660.257 265.953 651.552 282.541 642.134 309.128C639.131 317.626 636.051 327.167 632.844 337.827C633.453 337.375 634.008 336.855 634.498 336.275C638.24 332.128 644.094 322.257 648.574 315.922C655.599 306.101 666.036 296.916 665.985 292.566C665.934 288.215 663.439 278.394 668.81 267.989C671.661 262.366 674.257 256.387 674.384 252.876C672.736 253.925 671.223 255.172 669.879 256.591V256.591Z" fill="#7B913F"/>
<path fill-rule="evenodd" clip-rule="evenodd" d="M642.847 341.363C645.163 341.363 649.49 338.107 656.516 333.324C667.894 325.691 665.476 322.46 669.828 316.303C674.181 310.146 680.952 312.512 682.81 306.864C684.668 301.216 687.901 294.143 700.348 282.77C702.893 278.649 702.028 277.071 692.253 283.686C680.901 291.319 667.741 305.236 655.854 319.712C650.509 326.225 645.418 332.84 640.836 339.074C641.142 340.651 641.778 341.338 642.847 341.363Z" fill="#7B913F"/>
<path fill-rule="evenodd" clip-rule="evenodd" d="M599.753 352.253C577.786 368.638 544.416 455.192 551.161 483.229C547.394 495.95 545.434 497.782 542.405 495.95C538.231 493.635 537.442 485.773 533.267 491.574C530.444 495.933 528.275 500.682 526.827 505.669C526.827 505.669 532.122 494.118 536.296 497.731C540.471 501.344 541.183 510.986 564.067 491.549L564.448 491.243C570.863 489.284 579.721 483.204 591.506 471.627C617.444 446.185 651.145 389.398 647.301 371.716C642.516 349.734 618.666 338.082 599.753 352.253Z" fill="#D8D6A6"/>
<path fill-rule="evenodd" clip-rule="evenodd" d="M620.6 413.569C629.203 395.759 647.429 364.084 638.265 354.899C637.459 354.066 636.609 353.277 635.72 352.533C635.261 352.177 634.829 351.821 634.345 351.49C633.427 350.826 632.466 350.222 631.469 349.684L630.171 348.997C627.439 347.695 624.518 346.836 621.516 346.452C617.693 345.958 613.809 346.227 610.091 347.245C606.372 348.263 602.893 350.008 599.855 352.38C578.932 368.002 547.623 447.407 550.576 479.082C553.121 479.947 543.958 492.923 561.496 485.672C579.034 478.421 611.996 431.582 620.6 413.569Z" fill="#F6F2D1"/>
<path fill-rule="evenodd" clip-rule="evenodd" d="M611.742 358.843C590.895 357.342 553.07 447.89 567.223 446.847C580.077 445.931 638.163 360.751 611.742 358.843Z" fill="#FBFAED"/>
<path fill-rule="evenodd" clip-rule="evenodd" d="M551.721 375.761V553.398H551.314C549.456 559.148 541.336 563.575 531.613 563.575C528.145 563.605 524.7 563.028 521.431 561.87C514.913 564.145 507.815 564.145 501.297 561.87C498.028 563.028 494.583 563.605 491.115 563.575C481.392 563.575 473.297 559.224 471.414 553.398H471.007V375.761C471.007 335.537 491.039 338.997 501.068 320.603V310.833H521.431V320.603C531.689 338.997 551.721 337.267 551.721 375.761Z" fill="#55352A"/>
<path d="M551.721 377.059H471.261V425.322H551.721V377.059Z" fill="#C10016"/>
<path d="M521.533 299.918H501.424V310.833H521.533V299.918Z" fill="#C10016"/>
<path fill-rule="evenodd" clip-rule="evenodd" d="M484.039 550.854C484.039 551.576 483.752 552.268 483.241 552.778C482.731 553.289 482.038 553.576 481.315 553.576C480.593 553.576 479.9 553.289 479.39 552.778C478.879 552.268 478.592 551.576 478.592 550.854V375.761C478.592 347.775 488.01 339.862 497.402 332.051C499.311 330.474 501.195 328.922 503.002 327.116C503.513 326.608 504.204 326.322 504.924 326.322C505.644 326.322 506.335 326.608 506.846 327.116C507.097 327.366 507.296 327.663 507.432 327.991C507.567 328.318 507.637 328.669 507.637 329.024C507.637 329.378 507.567 329.729 507.432 330.057C507.296 330.384 507.097 330.681 506.846 330.932C504.937 332.815 502.926 334.494 500.915 336.173C492.49 343.17 484.09 350.166 484.09 375.71L484.039 550.854Z" fill="white"/>
<path fill-rule="evenodd" clip-rule="evenodd" d="M541.667 377.059H551.721V375.761C551.721 337.267 531.689 338.997 521.66 320.603V310.833H511.479V320.603C521.507 338.997 541.565 337.267 541.565 375.761L541.667 377.059Z" fill="#452C22"/>
<path d="M551.721 377.059H541.667V425.322H551.721V377.059Z" fill="#911B19"/>
<path fill-rule="evenodd" clip-rule="evenodd" d="M551.721 425.297H541.667V553.398H541.26C539.707 558.13 533.98 561.896 526.573 563.091C528.256 563.361 529.959 563.497 531.664 563.498C541.387 563.498 549.481 559.148 551.365 553.322H551.772V425.297H551.721Z" fill="#452C22"/>
<path fill-rule="evenodd" clip-rule="evenodd" d="M470.574 330.653C480.323 349.658 473.705 360.318 465.483 360.954C461.396 360.627 457.597 358.719 454.894 355.637C447.665 346.605 448.683 287.885 470.574 330.653Z" fill="#506422"/>
<path fill-rule="evenodd" clip-rule="evenodd" d="M449.371 327.268C451.916 339.226 458.712 336.809 458.483 332.56C458.254 328.311 445.171 308.238 449.371 327.268Z" fill="#637D2A"/>
<path fill-rule="evenodd" clip-rule="evenodd" d="M468.308 324.572C467.265 336.784 460.29 335.258 459.959 331.034C459.629 326.811 469.963 305.236 468.308 324.572Z" fill="#637D2A"/>
<path fill-rule="evenodd" clip-rule="evenodd" d="M461.283 319.254C465.407 330.805 458.432 332.306 456.37 328.591C454.309 324.877 454.741 300.986 461.283 319.254Z" fill="#637D2A"/>
<path fill-rule="evenodd" clip-rule="evenodd" d="M460.265 340.651C465.941 377.186 473.577 398.761 496.486 438.782C519.395 478.802 527.973 472.289 529.195 464.656C530.416 457.024 504.886 444.964 482.104 390.645C459.323 336.326 467.214 332.713 460.265 340.651Z" fill="#506422"/>
<path fill-rule="evenodd" clip-rule="evenodd" d="M528.151 460.814C523.06 452.495 501.628 437.026 482.104 390.518C461.079 340.371 466.17 333.553 461.741 339.023C467.367 372.098 475.359 393.443 497.071 431.225C515.729 463.893 524.791 465.521 528.151 460.814Z" fill="#637D2A"/>
<path fill-rule="evenodd" clip-rule="evenodd" d="M452.603 354.415C455.352 361.921 464.185 362.786 463.167 358.384C462.149 353.983 445.425 334.901 452.603 354.415Z" fill="#637D2A"/>
<path fill-rule="evenodd" clip-rule="evenodd" d="M476.326 347.215C476.326 364.185 468.69 360.674 468.079 356.196C467.468 351.718 476.454 330.271 476.326 347.215Z" fill="#637D2A"/>
<path fill-rule="evenodd" clip-rule="evenodd" d="M451.534 340.142C456.625 352.303 463.116 348.538 462.098 344.111C461.079 339.684 443.72 320.908 451.534 340.142Z" fill="#637D2A"/>
<path fill-rule="evenodd" clip-rule="evenodd" d="M471.032 333.985C472.127 347.063 464.49 346.706 463.396 342.305C462.301 337.903 469.301 313.301 471.032 333.985Z" fill="#637D2A"/>
<path fill-rule="evenodd" clip-rule="evenodd" d="M481.901 370.52C481.901 383.648 474.265 382.605 473.527 378.153C472.788 373.7 482.054 349.683 481.901 370.52Z" fill="#506422"/>
<path fill-rule="evenodd" clip-rule="evenodd" d="M468.767 392.604C473.857 404.663 480.526 400.72 479.432 396.318C478.337 391.917 460.519 373.548 468.767 392.604Z" fill="#506422"/>
<path fill-rule="evenodd" clip-rule="evenodd" d="M485.948 428.732C491.039 440.791 497.708 436.848 496.613 432.446C495.519 428.045 477.701 409.676 485.948 428.732Z" fill="#506422"/>
<path fill-rule="evenodd" clip-rule="evenodd" d="M496.486 406.393C500.482 418.911 492.948 420.234 490.912 416.188C488.875 412.143 490.072 386.599 496.486 406.393Z" fill="#506422"/>
<path fill-rule="evenodd" clip-rule="evenodd" d="M466.832 347.342C471.057 357.926 466.043 360.725 463.116 358.74C462.647 358.424 462.256 358.007 461.97 357.519C459.45 353.347 459.094 328.057 466.832 347.342Z" fill="#637D2A"/>
<path fill-rule="evenodd" clip-rule="evenodd" d="M449.651 325.768C451.051 333.401 454.334 331.874 454.181 329.177C454.029 326.48 447.436 313.632 449.651 325.768Z" fill="#7B913F"/>
<path fill-rule="evenodd" clip-rule="evenodd" d="M452.349 340.677C456.116 349.607 459.654 346.834 458.738 343.577C457.821 340.321 446.367 326.531 452.349 340.677Z" fill="#7B913F"/>
<path fill-rule="evenodd" clip-rule="evenodd" d="M453.214 353.779C456.981 362.734 460.519 359.961 459.603 356.705C458.687 353.448 447.258 339.633 453.214 353.779Z" fill="#7B913F"/>
<path fill-rule="evenodd" clip-rule="evenodd" d="M461.792 349.175C462.199 358.868 466.476 357.494 466.756 354.263C467.036 351.032 461.156 333.833 461.792 349.175Z" fill="#6D852C"/>
<path fill-rule="evenodd" clip-rule="evenodd" d="M466.374 334.011C463.829 343.399 468.436 343.348 469.683 340.219C470.93 337.089 470.243 319.153 466.374 334.011Z" fill="#7B913F"/>
<path fill-rule="evenodd" clip-rule="evenodd" d="M471.948 348.132C469.403 357.52 473.985 357.469 475.232 354.314C476.479 351.159 475.817 333.273 471.948 348.132Z" fill="#7B913F"/>
<path fill-rule="evenodd" clip-rule="evenodd" d="M464.21 322.995C460.749 331.06 464.796 331.62 466.323 328.974C467.85 326.328 469.683 310.248 464.21 322.995Z" fill="#7B913F"/>
<path fill-rule="evenodd" clip-rule="evenodd" d="M459.883 317.321C461.741 323.732 458.636 324.572 457.72 322.409C456.803 320.247 456.981 307.17 459.883 317.321Z" fill="#7B913F"/>
<path fill-rule="evenodd" clip-rule="evenodd" d="M462.963 329.813C468.054 341.873 460.799 343.934 458.356 339.99C455.912 336.046 454.741 310.808 462.963 329.813Z" fill="#637D2A"/>
<path fill-rule="evenodd" clip-rule="evenodd" d="M457.032 331.67C457.439 341.363 461.716 340.015 462.123 336.758C462.53 333.502 456.37 316.328 457.032 331.67Z" fill="#7B913F"/>
<path fill-rule="evenodd" clip-rule="evenodd" d="M477.497 368.994C474.952 378.382 479.559 378.331 480.806 375.176C482.054 372.021 481.392 354.136 477.497 368.994Z" fill="#637D2A"/>
<path fill-rule="evenodd" clip-rule="evenodd" d="M471.999 390.873C477.09 397.514 473.527 399.015 471.465 396.929C469.403 394.842 463.854 380.29 471.999 390.873Z" fill="#637D2A"/>
<path fill-rule="evenodd" clip-rule="evenodd" d="M495.977 406.342C498.242 414.458 494.348 414.484 493.203 411.787C492.057 409.09 492.413 393.545 495.977 406.342Z" fill="#637D2A"/>
<path fill-rule="evenodd" clip-rule="evenodd" d="M489.944 427.129C495.468 433.489 491.955 435.169 489.766 433.21C487.577 431.25 481.214 417.105 489.944 427.129Z" fill="#637D2A"/>
<path fill-rule="evenodd" clip-rule="evenodd" d="M547.954 332.535C545.45 333.393 543.15 334.758 541.196 336.544C539.243 338.33 537.679 340.499 536.602 342.916C532.198 351.668 531.816 366.221 538.154 374.057L540.267 376.118L538.791 373.574C536.671 369.452 535.474 364.919 535.28 360.289C535.087 355.658 535.902 351.041 537.671 346.758C538.53 344.14 539.991 341.759 541.936 339.806C543.88 337.854 546.255 336.383 548.871 335.512C549.268 335.389 549.6 335.114 549.795 334.747C549.991 334.38 550.033 333.951 549.914 333.553C549.786 333.161 549.508 332.835 549.142 332.644C548.776 332.454 548.349 332.415 547.954 332.535Z" fill="#506422"/>
<path fill-rule="evenodd" clip-rule="evenodd" d="M531.104 363.294C533.459 364.057 535.646 365.266 537.543 366.856C538.258 367.649 538.905 368.5 539.478 369.401L536.016 369.833L538.256 375.125L536.271 374.794C536.529 376.325 536.469 377.893 536.093 379.399C535.709 380.718 535.162 381.983 534.463 383.165C534.463 383.165 530.722 377.313 529.78 375.1C528.838 372.886 528.94 374.26 528.94 374.26V379.883H527.769C527.769 379.883 526.115 382.987 525.453 384.182C525.253 384.597 525.023 384.997 524.765 385.378C524.765 385.378 521.686 382.223 522.016 381.944C520.825 383.767 519.101 385.179 517.078 385.989C515.247 386.904 513.292 387.546 511.275 387.897C511.275 387.897 512.548 379.603 513.667 378.229C514.787 376.855 515.297 376.881 514.813 376.83C514.329 376.779 512.649 376.83 512.649 376.83L519.446 370.037C519.446 370.037 513.489 374.718 511.988 375.71C510.486 376.702 510.46 376.982 510.46 376.982L509.213 375.379C508.423 376.364 507.487 377.221 506.439 377.924C504.937 378.89 504.479 378.789 504.479 378.789L504.122 378.153L498.548 379.527L500.202 374.922H499.464L500.864 373.242C500.864 373.242 496.384 374.489 495.137 374.642C493.89 374.794 494.17 372.632 494.17 372.632C494.17 372.632 487.246 371.767 485.439 371.232C486.864 370.138 492.821 367.06 492.821 367.06C492.821 367.06 491.573 365.152 492.821 364.872C494.068 364.592 498.701 364.236 498.701 364.236L496.664 363.167L497.351 362.913L493.686 359.249L499.464 358.639V357.952C499.464 357.952 499.82 357.723 501.653 358.104C502.974 358.411 504.243 358.908 505.42 359.58L505.828 357.697C505.828 357.697 505.98 357.926 507.813 358.359C509.646 358.791 517.282 361.081 517.282 361.081L507.915 357.112L509.849 356.272C510.257 356.069 509.849 356.272 508.169 355.382C505.691 352.899 503.481 350.161 501.577 347.215C503.637 346.863 505.736 346.803 507.813 347.037C510.098 347.135 512.313 347.847 514.227 349.098C513.795 349.098 515.144 345.027 515.144 345.027C515.569 345.289 515.977 345.578 516.366 345.892L520.464 349.072L521.507 348.614L524.053 353.703C524.053 353.703 524.485 355.255 524.485 352.711C524.516 349.709 524.703 346.711 525.045 343.729C526.239 344.578 527.332 345.56 528.304 346.655C529.327 347.887 530.105 349.303 530.594 350.828L532.274 349.861L532.656 355.458L536.042 354.72C535.94 355.752 535.752 356.773 535.482 357.774C534.441 359.91 532.947 361.794 531.104 363.294Z" fill="#7B913F"/>
<path fill-rule="evenodd" clip-rule="evenodd" d="M532.122 363.702C534.101 364.409 535.931 365.479 537.518 366.857C538.233 367.649 538.88 368.501 539.453 369.401L535.991 369.834L538.231 375.126L536.245 374.795C536.504 376.326 536.443 377.894 536.067 379.4C535.684 380.718 535.136 381.983 534.438 383.165C534.438 383.165 530.696 377.314 529.755 375.1C528.813 372.887 528.915 374.261 528.915 374.261V379.883H527.744C527.744 379.883 526.089 382.987 525.427 384.183C525.227 384.598 524.998 384.997 524.74 385.379C524.74 385.379 521.66 382.224 521.991 381.944C520.799 383.767 519.075 385.18 517.053 385.989C515.222 386.904 513.266 387.547 511.249 387.898C511.249 387.898 512.522 379.603 513.642 378.23C514.762 376.856 515.271 376.881 514.788 376.83C514.304 376.779 512.624 376.83 512.624 376.83L519.42 370.037C519.42 370.037 513.464 374.719 511.962 375.711C510.46 376.703 510.435 376.983 510.435 376.983L509.188 375.38C508.398 376.364 507.462 377.222 506.413 377.924C504.911 378.891 504.453 378.789 504.453 378.789L504.122 378.153L498.548 379.527L500.202 374.922H499.464L500.864 373.243C500.864 373.243 496.384 374.49 495.137 374.642C493.89 374.795 494.17 372.632 494.17 372.632C494.17 372.632 487.246 371.767 485.439 371.233C497.81 369.554 498.013 369.478 498.013 369.478L522.576 364.135L532.122 363.702Z" fill="#687E2C"/>
<path fill-rule="evenodd" clip-rule="evenodd" d="M510.613 374.006C504.326 376.728 497.886 384.005 498.141 391.18C495.951 392.986 494.45 396.573 495.315 402.883C495.901 407.03 496.842 408.862 496.537 403.061C496.359 399.55 496.053 395.912 497.733 393.673C497.918 393.42 498.132 393.19 498.37 392.986C499.897 399.779 508.984 397.311 507.1 392.223C506.432 391.156 505.42 390.347 504.231 389.931C503.042 389.515 501.747 389.516 500.559 389.933C501.148 386.954 502.439 384.159 504.325 381.779C506.21 379.398 508.637 377.501 511.402 376.245C511.548 376.194 511.682 376.114 511.797 376.011C511.912 375.907 512.005 375.782 512.071 375.643C512.137 375.503 512.175 375.352 512.183 375.198C512.19 375.043 512.167 374.889 512.115 374.744C512.066 374.596 511.988 374.459 511.886 374.342C511.784 374.224 511.659 374.128 511.519 374.059C511.379 373.991 511.227 373.951 511.071 373.941C510.916 373.932 510.76 373.954 510.613 374.006V374.006ZM500.431 391.816C501.163 391.501 501.973 391.416 502.755 391.57C503.536 391.724 504.252 392.112 504.81 392.681C506.108 394.589 501.119 396.573 500.559 391.79L500.431 391.816Z" fill="#687E2C"/>
<path fill-rule="evenodd" clip-rule="evenodd" d="M544.849 367.492C535.202 371.69 526.776 377.008 526.649 383.444C526.522 389.881 529.195 405.426 530.849 406.978C532.504 408.53 560.961 427.332 563.634 429.393C566.307 431.454 568.394 437.662 572.594 430.919C576.794 424.177 582.139 416.646 575.826 404.46C569.514 392.273 560.325 367.976 544.849 367.492Z" fill="#4B2747"/>
<path fill-rule="evenodd" clip-rule="evenodd" d="M577.175 431.581C578.57 431.581 579.933 431.168 581.093 430.394C582.252 429.619 583.156 428.518 583.689 427.231C584.223 425.943 584.363 424.526 584.091 423.159C583.819 421.792 583.147 420.536 582.161 419.55C581.175 418.565 579.919 417.894 578.551 417.622C577.183 417.35 575.766 417.489 574.477 418.023C573.189 418.556 572.088 419.459 571.313 420.618C570.538 421.777 570.125 423.14 570.125 424.534C570.125 426.403 570.868 428.195 572.19 429.517C573.512 430.839 575.305 431.581 577.175 431.581Z" fill="#61345E"/>
<path fill-rule="evenodd" clip-rule="evenodd" d="M556.15 412.27C557.766 412.27 559.346 411.791 560.69 410.894C562.033 409.997 563.081 408.721 563.699 407.229C564.318 405.736 564.479 404.094 564.164 402.51C563.849 400.926 563.071 399.471 561.928 398.329C560.785 397.186 559.329 396.409 557.744 396.093C556.159 395.778 554.517 395.94 553.024 396.558C551.531 397.176 550.254 398.223 549.357 399.566C548.459 400.909 547.98 402.488 547.98 404.103C547.98 406.269 548.84 408.347 550.373 409.878C551.905 411.41 553.983 412.27 556.15 412.27Z" fill="#61345E"/>
<path fill-rule="evenodd" clip-rule="evenodd" d="M568.037 391.51C569.649 391.51 571.225 391.033 572.566 390.14C573.907 389.247 574.955 387.977 575.576 386.491C576.197 385.005 576.365 383.368 576.058 381.786C575.751 380.205 574.982 378.75 573.85 377.604C572.717 376.458 571.271 375.672 569.693 375.345C568.115 375.019 566.475 375.166 564.98 375.769C563.486 376.371 562.203 377.402 561.293 378.732C560.383 380.061 559.887 381.63 559.867 383.241C559.853 384.322 560.055 385.395 560.459 386.398C560.864 387.4 561.463 388.313 562.223 389.082C562.984 389.851 563.889 390.462 564.887 390.878C565.885 391.295 566.956 391.51 568.037 391.51V391.51Z" fill="#61345E"/>
<path fill-rule="evenodd" clip-rule="evenodd" d="M570.608 407.106C572.224 407.106 573.804 406.627 575.148 405.73C576.491 404.833 577.539 403.557 578.157 402.065C578.775 400.572 578.937 398.93 578.622 397.346C578.307 395.762 577.529 394.307 576.386 393.165C575.243 392.022 573.787 391.245 572.202 390.929C570.617 390.614 568.974 390.776 567.481 391.394C565.988 392.012 564.712 393.059 563.815 394.402C562.917 395.745 562.438 397.324 562.438 398.939C562.444 401.103 563.307 403.177 564.838 404.707C566.369 406.237 568.443 407.1 570.608 407.106V407.106Z" fill="#61345E"/>
<path fill-rule="evenodd" clip-rule="evenodd" d="M545.765 392.985C547.381 392.985 548.961 392.506 550.305 391.609C551.648 390.711 552.695 389.436 553.314 387.944C553.932 386.451 554.094 384.809 553.779 383.225C553.464 381.641 552.685 380.186 551.543 379.043C550.4 377.901 548.944 377.123 547.359 376.808C545.774 376.493 544.131 376.655 542.638 377.273C541.145 377.891 539.869 378.938 538.971 380.281C538.074 381.624 537.594 383.203 537.594 384.818C537.594 386.984 538.455 389.062 539.988 390.593C541.52 392.125 543.598 392.985 545.765 392.985V392.985Z" fill="#61345E"/>
<path fill-rule="evenodd" clip-rule="evenodd" d="M558.543 381.333C560.155 381.333 561.73 380.856 563.072 379.963C564.413 379.07 565.46 377.801 566.082 376.314C566.703 374.828 566.871 373.191 566.563 371.61C566.256 370.028 565.488 368.573 564.356 367.427C563.223 366.281 561.777 365.495 560.199 365.169C558.62 364.842 556.981 364.989 555.486 365.592C553.991 366.194 552.708 367.225 551.799 368.555C550.889 369.885 550.392 371.453 550.372 373.064C550.362 374.144 550.566 375.216 550.972 376.217C551.378 377.218 551.977 378.129 552.737 378.897C553.496 379.666 554.4 380.277 555.397 380.695C556.393 381.113 557.462 381.33 558.543 381.333V381.333Z" fill="#61345E"/>
<path fill-rule="evenodd" clip-rule="evenodd" d="M543.474 377.263C545.09 377.263 546.67 376.784 548.014 375.886C549.357 374.989 550.405 373.713 551.023 372.221C551.641 370.729 551.803 369.087 551.488 367.502C551.173 365.918 550.395 364.463 549.252 363.321C548.109 362.179 546.653 361.401 545.068 361.086C543.483 360.771 541.84 360.932 540.347 361.55C538.854 362.169 537.578 363.215 536.68 364.558C535.783 365.901 535.303 367.48 535.303 369.096C535.31 371.26 536.173 373.333 537.704 374.863C539.235 376.393 541.309 377.256 543.474 377.263V377.263Z" fill="#61345E"/>
<path fill-rule="evenodd" clip-rule="evenodd" d="M531.511 385.124C533.127 385.124 534.707 384.645 536.05 383.748C537.394 382.85 538.441 381.575 539.06 380.082C539.678 378.59 539.84 376.948 539.525 375.364C539.209 373.779 538.431 372.324 537.288 371.182C536.146 370.04 534.69 369.262 533.105 368.947C531.52 368.632 529.877 368.794 528.384 369.412C526.891 370.03 525.615 371.077 524.717 372.42C523.819 373.763 523.34 375.342 523.34 376.957C523.34 379.123 524.201 381.2 525.733 382.732C527.266 384.263 529.344 385.124 531.511 385.124V385.124Z" fill="#61345E"/>
<path fill-rule="evenodd" clip-rule="evenodd" d="M530.162 397.871C531.776 397.861 533.35 397.373 534.687 396.47C536.024 395.566 537.064 394.287 537.674 392.794C538.285 391.301 538.439 389.66 538.118 388.08C537.797 386.499 537.015 385.048 535.871 383.911C534.726 382.774 533.27 382.001 531.686 381.69C530.103 381.379 528.463 381.544 526.972 382.164C525.482 382.783 524.209 383.83 523.314 385.172C522.418 386.514 521.94 388.091 521.94 389.704C521.94 390.781 522.153 391.847 522.567 392.841C522.981 393.835 523.587 394.738 524.351 395.497C525.115 396.256 526.022 396.856 527.019 397.264C528.017 397.671 529.085 397.878 530.162 397.871V397.871Z" fill="#61345E"/>
<path fill-rule="evenodd" clip-rule="evenodd" d="M564.677 440.512C566.293 440.512 567.873 440.033 569.217 439.135C570.561 438.238 571.608 436.962 572.226 435.47C572.845 433.978 573.007 432.336 572.691 430.751C572.376 429.167 571.598 427.712 570.455 426.57C569.312 425.428 567.856 424.65 566.272 424.335C564.687 424.02 563.044 424.181 561.551 424.799C560.058 425.418 558.782 426.464 557.884 427.807C556.986 429.15 556.507 430.729 556.507 432.345C556.507 434.511 557.368 436.588 558.9 438.12C560.432 439.651 562.51 440.512 564.677 440.512Z" fill="#61345E"/>
<path fill-rule="evenodd" clip-rule="evenodd" d="M553.961 431.276C555.576 431.271 557.153 430.788 558.494 429.887C559.834 428.987 560.877 427.71 561.492 426.217C562.106 424.724 562.265 423.083 561.947 421.5C561.628 419.918 560.848 418.465 559.704 417.325C558.561 416.186 557.105 415.411 555.521 415.097C553.936 414.784 552.295 414.948 550.803 415.566C549.312 416.185 548.037 417.232 547.14 418.575C546.244 419.917 545.765 421.495 545.765 423.109C545.772 425.278 546.638 427.355 548.175 428.886C549.711 430.417 551.792 431.276 553.961 431.276V431.276Z" fill="#61345E"/>
<path fill-rule="evenodd" clip-rule="evenodd" d="M544.518 421.862C546.144 421.867 547.735 421.388 549.089 420.487C550.442 419.585 551.496 418.301 552.118 416.799C552.739 415.296 552.899 413.643 552.577 412.049C552.255 410.456 551.466 408.994 550.311 407.85C549.155 406.706 547.686 405.931 546.088 405.625C544.491 405.318 542.839 405.493 541.341 406.128C539.844 406.763 538.57 407.829 537.68 409.19C536.791 410.551 536.327 412.146 536.347 413.772C536.374 415.922 537.246 417.976 538.774 419.49C540.303 421.004 542.366 421.856 544.518 421.862V421.862Z" fill="#61345E"/>
<path fill-rule="evenodd" clip-rule="evenodd" d="M529.296 412.067C530.912 412.067 532.492 411.588 533.836 410.691C535.179 409.793 536.227 408.518 536.845 407.026C537.463 405.533 537.625 403.891 537.31 402.307C536.995 400.723 536.217 399.268 535.074 398.125C533.931 396.983 532.475 396.205 530.89 395.89C529.305 395.575 527.662 395.737 526.169 396.355C524.676 396.973 523.4 398.02 522.503 399.363C521.605 400.706 521.125 402.285 521.125 403.9C521.125 406.066 521.986 408.144 523.519 409.675C525.051 411.207 527.129 412.067 529.296 412.067V412.067Z" fill="#61345E"/>
<path fill-rule="evenodd" clip-rule="evenodd" d="M579.746 444.506C581.362 444.506 582.942 444.027 584.286 443.129C585.629 442.232 586.677 440.956 587.295 439.464C587.913 437.972 588.075 436.33 587.76 434.746C587.445 433.161 586.666 431.706 585.524 430.564C584.381 429.422 582.925 428.644 581.34 428.329C579.755 428.014 578.112 428.175 576.619 428.794C575.126 429.412 573.85 430.458 572.952 431.801C572.055 433.145 571.575 434.724 571.575 436.339C571.575 437.411 571.787 438.473 572.197 439.464C572.608 440.455 573.21 441.355 573.969 442.114C574.727 442.872 575.628 443.474 576.619 443.884C577.611 444.294 578.673 444.506 579.746 444.506V444.506Z" fill="#61345E"/>
<path fill-rule="evenodd" clip-rule="evenodd" d="M575.394 419.471C577.01 419.486 578.594 419.022 579.946 418.137C581.298 417.252 582.357 415.987 582.989 414.5C583.621 413.014 583.798 411.373 583.498 409.786C583.197 408.199 582.433 406.737 581.301 405.584C580.169 404.431 578.721 403.64 577.139 403.31C575.557 402.98 573.912 403.126 572.414 403.73C570.915 404.335 569.629 405.369 568.719 406.704C567.808 408.038 567.314 409.613 567.299 411.228C567.289 412.3 567.491 413.364 567.892 414.359C568.293 415.354 568.887 416.26 569.638 417.025C570.39 417.791 571.285 418.401 572.273 418.82C573.26 419.24 574.321 419.461 575.394 419.471Z" fill="#61345E"/>
<path fill-rule="evenodd" clip-rule="evenodd" d="M564.576 425.577C566.198 425.582 567.785 425.106 569.136 424.209C570.487 423.312 571.542 422.034 572.166 420.537C572.79 419.041 572.956 417.393 572.643 415.802C572.33 414.211 571.551 412.749 570.406 411.601C569.26 410.453 567.8 409.67 566.209 409.352C564.619 409.033 562.97 409.194 561.47 409.814C559.971 410.433 558.69 411.483 557.788 412.831C556.886 414.178 556.405 415.763 556.405 417.385C556.405 419.553 557.265 421.633 558.797 423.169C560.328 424.704 562.406 425.57 564.576 425.577V425.577Z" fill="#61345E"/>
<path fill-rule="evenodd" clip-rule="evenodd" d="M540.471 407.514C542.087 407.514 543.666 407.035 545.01 406.137C546.354 405.24 547.401 403.964 548.019 402.472C548.638 400.98 548.8 399.338 548.484 397.753C548.169 396.169 547.391 394.714 546.248 393.572C545.106 392.43 543.65 391.652 542.065 391.337C540.48 391.021 538.837 391.183 537.344 391.801C535.851 392.419 534.575 393.466 533.677 394.809C532.779 396.152 532.3 397.731 532.3 399.347C532.3 401.513 533.161 403.59 534.693 405.121C536.225 406.653 538.304 407.514 540.471 407.514Z" fill="#61345E"/>
<path fill-rule="evenodd" clip-rule="evenodd" d="M557.576 398.838C559.192 398.838 560.772 398.359 562.115 397.461C563.459 396.564 564.506 395.288 565.125 393.796C565.743 392.304 565.905 390.662 565.59 389.078C565.274 387.493 564.496 386.038 563.353 384.896C562.211 383.754 560.755 382.976 559.17 382.661C557.585 382.346 555.942 382.507 554.449 383.126C552.956 383.744 551.68 384.79 550.782 386.134C549.884 387.477 549.405 389.056 549.405 390.671C549.405 392.837 550.266 394.914 551.798 396.446C553.331 397.977 555.409 398.838 557.576 398.838Z" fill="#61345E"/>
<path fill-rule="evenodd" clip-rule="evenodd" d="M556.481 366.628C557.628 365.94 558.956 365.615 560.292 365.694C561.627 365.774 562.907 366.254 563.965 367.072C565.022 367.89 565.808 369.009 566.219 370.281C566.631 371.553 566.648 372.92 566.27 374.202C565.891 375.484 565.135 376.622 564.098 377.468C563.062 378.313 561.795 378.826 560.462 378.939C559.129 379.053 557.794 378.762 556.629 378.104C555.465 377.446 554.526 376.453 553.936 375.253C553.137 373.77 552.956 372.032 553.432 370.417C553.909 368.801 555.005 367.44 556.481 366.628Z" fill="#6E3B6E"/>
<path fill-rule="evenodd" clip-rule="evenodd" d="M540.827 362.887C541.889 362.089 543.167 361.628 544.494 361.566C545.822 361.503 547.137 361.842 548.269 362.537C549.402 363.232 550.298 364.252 550.843 365.464C551.387 366.675 551.554 368.023 551.321 369.331C551.089 370.638 550.468 371.846 549.54 372.796C548.611 373.746 547.418 374.395 546.115 374.658C544.813 374.921 543.461 374.785 542.236 374.27C541.012 373.754 539.971 372.882 539.249 371.767C538.767 371.081 538.426 370.307 538.244 369.488C538.063 368.67 538.045 367.824 538.191 366.999C538.338 366.174 538.646 365.386 539.099 364.68C539.551 363.975 540.138 363.365 540.827 362.887V362.887Z" fill="#6E3B6E"/>
<path fill-rule="evenodd" clip-rule="evenodd" d="M527.718 371.08C528.977 370.028 530.581 369.48 532.22 369.54C533.86 369.599 535.419 370.264 536.598 371.404C537.777 372.544 538.492 374.08 538.605 375.716C538.719 377.352 538.223 378.972 537.213 380.264C535.958 381.345 534.344 381.919 532.688 381.872C531.032 381.825 529.453 381.162 528.261 380.012C527.07 378.862 526.35 377.309 526.245 375.656C526.14 374.004 526.656 372.371 527.693 371.08H527.718Z" fill="#6E3B6E"/>
<path fill-rule="evenodd" clip-rule="evenodd" d="M525.936 383.572C526.786 382.551 527.924 381.809 529.201 381.443C530.478 381.078 531.836 381.104 533.098 381.521C534.36 381.937 535.467 382.723 536.276 383.777C537.084 384.831 537.557 386.103 537.632 387.429C537.707 388.755 537.381 390.073 536.696 391.211C536.011 392.349 535 393.255 533.793 393.811C532.586 394.366 531.24 394.546 529.929 394.326C528.619 394.106 527.405 393.498 526.446 392.579C525.191 391.447 524.434 389.866 524.338 388.18C524.243 386.494 524.817 384.838 525.936 383.572V383.572Z" fill="#6E3B6E"/>
<path fill-rule="evenodd" clip-rule="evenodd" d="M541.489 379.298C542.341 378.279 543.481 377.54 544.759 377.178C546.038 376.815 547.396 376.846 548.656 377.266C549.917 377.685 551.022 378.474 551.828 379.531C552.634 380.587 553.103 381.861 553.174 383.187C553.245 384.513 552.915 385.83 552.227 386.967C551.539 388.103 550.525 389.006 549.316 389.558C548.108 390.11 546.761 390.286 545.451 390.062C544.141 389.839 542.929 389.226 541.972 388.304C540.721 387.169 539.969 385.587 539.878 383.9C539.788 382.214 540.366 380.56 541.489 379.298V379.298Z" fill="#6E3B6E"/>
<path fill-rule="evenodd" clip-rule="evenodd" d="M553.223 385.785C554.074 384.756 555.215 384.006 556.498 383.635C557.782 383.264 559.147 383.288 560.416 383.704C561.686 384.12 562.8 384.909 563.614 385.968C564.428 387.026 564.903 388.306 564.979 389.639C565.054 390.972 564.726 392.297 564.036 393.44C563.347 394.584 562.328 395.493 561.114 396.05C559.9 396.606 558.546 396.784 557.229 396.559C555.912 396.335 554.694 395.719 553.732 394.792C552.478 393.66 551.72 392.079 551.625 390.393C551.53 388.707 552.104 387.051 553.223 385.785V385.785Z" fill="#6E3B6E"/>
<path fill-rule="evenodd" clip-rule="evenodd" d="M564.652 378.153C565.505 377.134 566.644 376.396 567.922 376.033C569.201 375.671 570.559 375.701 571.82 376.121C573.08 376.541 574.185 377.33 574.991 378.386C575.797 379.442 576.266 380.716 576.337 382.043C576.408 383.369 576.078 384.686 575.39 385.822C574.702 386.958 573.688 387.861 572.48 388.414C571.271 388.966 569.924 389.141 568.614 388.918C567.305 388.694 566.092 388.082 565.136 387.16C563.879 386.028 563.122 384.445 563.031 382.756C562.94 381.068 563.523 379.413 564.652 378.153V378.153Z" fill="#6E3B6E"/>
<path fill-rule="evenodd" clip-rule="evenodd" d="M567.401 393.164C568.169 392.241 569.198 391.571 570.352 391.241C571.507 390.91 572.734 390.935 573.874 391.311C575.015 391.688 576.015 392.399 576.746 393.351C577.476 394.304 577.903 395.454 577.971 396.653C578.038 397.851 577.743 399.042 577.124 400.071C576.505 401.099 575.59 401.918 574.5 402.42C573.409 402.922 572.192 403.084 571.008 402.885C569.823 402.686 568.726 402.136 567.859 401.305C566.721 400.285 566.033 398.855 565.947 397.329C565.861 395.803 566.384 394.305 567.401 393.164V393.164Z" fill="#6E3B6E"/>
<path fill-rule="evenodd" clip-rule="evenodd" d="M573.306 406.14C574.078 405.212 575.11 404.538 576.27 404.206C577.43 403.873 578.663 403.897 579.809 404.275C580.954 404.653 581.96 405.367 582.694 406.324C583.428 407.281 583.857 408.437 583.924 409.641C583.992 410.845 583.695 412.041 583.073 413.075C582.45 414.108 581.531 414.93 580.435 415.433C579.338 415.937 578.116 416.098 576.926 415.897C575.736 415.697 574.635 415.142 573.765 414.307C573.197 413.801 572.735 413.188 572.405 412.504C572.074 411.82 571.882 411.077 571.84 410.318C571.797 409.559 571.905 408.8 572.156 408.083C572.408 407.366 572.799 406.705 573.306 406.14V406.14Z" fill="#6E3B6E"/>
<path fill-rule="evenodd" clip-rule="evenodd" d="M560.478 412.016C561.247 411.085 562.279 410.407 563.439 410.072C564.6 409.736 565.834 409.758 566.982 410.134C568.13 410.511 569.138 411.224 569.874 412.182C570.609 413.139 571.039 414.297 571.107 415.502C571.175 416.708 570.878 417.906 570.254 418.94C569.63 419.974 568.709 420.796 567.611 421.299C566.512 421.801 565.288 421.961 564.097 421.758C562.906 421.554 561.805 420.997 560.936 420.158C559.803 419.134 559.12 417.705 559.034 416.181C558.948 414.657 559.467 413.16 560.478 412.016Z" fill="#6E3B6E"/>
<path fill-rule="evenodd" clip-rule="evenodd" d="M552.867 399.27C553.636 398.339 554.668 397.661 555.829 397.326C556.989 396.99 558.224 397.012 559.372 397.388C560.519 397.765 561.527 398.478 562.263 399.436C562.999 400.393 563.429 401.55 563.496 402.756C563.564 403.962 563.267 405.16 562.643 406.194C562.019 407.228 561.098 408.05 560 408.552C558.901 409.055 557.677 409.215 556.486 409.012C555.295 408.808 554.194 408.25 553.325 407.411C552.186 406.391 551.499 404.961 551.413 403.435C551.327 401.909 551.85 400.411 552.867 399.27Z" fill="#6E3B6E"/>
<path fill-rule="evenodd" clip-rule="evenodd" d="M550.983 418.682C551.754 417.762 552.785 417.095 553.94 416.768C555.096 416.441 556.323 416.469 557.462 416.849C558.602 417.229 559.6 417.943 560.328 418.898C561.055 419.853 561.479 421.005 561.542 422.204C561.606 423.402 561.307 424.593 560.685 425.619C560.063 426.646 559.145 427.462 558.053 427.96C556.96 428.458 555.743 428.617 554.559 428.414C553.375 428.211 552.28 427.657 551.416 426.824C550.848 426.32 550.386 425.709 550.056 425.026C549.726 424.343 549.536 423.601 549.496 422.843C549.455 422.086 549.566 421.328 549.821 420.614C550.077 419.899 550.472 419.243 550.983 418.682V418.682Z" fill="#6E3B6E"/>
<path fill-rule="evenodd" clip-rule="evenodd" d="M540.394 409.32C541.165 408.4 542.196 407.733 543.351 407.406C544.507 407.079 545.734 407.107 546.874 407.487C548.013 407.867 549.011 408.581 549.739 409.536C550.467 410.491 550.89 411.643 550.954 412.841C551.017 414.04 550.719 415.23 550.096 416.257C549.474 417.284 548.557 418.099 547.464 418.598C546.372 419.096 545.154 419.254 543.97 419.052C542.787 418.849 541.691 418.295 540.827 417.461C540.262 416.956 539.803 416.345 539.475 415.661C539.147 414.978 538.958 414.237 538.918 413.481C538.877 412.724 538.987 411.967 539.241 411.253C539.494 410.539 539.886 409.882 540.394 409.32V409.32Z" fill="#6E3B6E"/>
<path fill-rule="evenodd" clip-rule="evenodd" d="M561.012 427.638C561.781 426.707 562.813 426.03 563.974 425.694C565.134 425.358 566.369 425.38 567.517 425.756C568.665 426.133 569.672 426.846 570.408 427.804C571.144 428.761 571.574 429.919 571.642 431.124C571.71 432.33 571.412 433.528 570.788 434.562C570.165 435.596 569.243 436.418 568.145 436.921C567.047 437.423 565.822 437.583 564.631 437.38C563.441 437.176 562.339 436.619 561.47 435.78C560.332 434.759 559.644 433.33 559.558 431.804C559.472 430.277 559.995 428.78 561.012 427.638Z" fill="#6E3B6E"/>
<path fill-rule="evenodd" clip-rule="evenodd" d="M574.121 419.216C574.889 418.294 575.917 417.624 577.072 417.293C578.227 416.963 579.454 416.988 580.594 417.364C581.735 417.741 582.735 418.451 583.466 419.404C584.196 420.357 584.623 421.507 584.69 422.706C584.758 423.904 584.463 425.095 583.844 426.124C583.225 427.152 582.31 427.971 581.219 428.473C580.128 428.974 578.912 429.137 577.727 428.938C576.543 428.739 575.446 428.188 574.579 427.358C573.44 426.337 572.753 424.908 572.667 423.382C572.581 421.856 573.104 420.358 574.121 419.216V419.216Z" fill="#6E3B6E"/>
<path fill-rule="evenodd" clip-rule="evenodd" d="M576.972 431.352C577.692 430.509 578.649 429.901 579.719 429.607C580.788 429.313 581.922 429.346 582.972 429.702C584.023 430.058 584.943 430.72 585.613 431.604C586.283 432.488 586.673 433.552 586.732 434.659C586.791 435.766 586.517 436.866 585.945 437.816C585.372 438.766 584.528 439.523 583.521 439.988C582.514 440.454 581.391 440.607 580.296 440.428C579.201 440.25 578.185 439.747 577.379 438.985C576.844 438.515 576.408 437.943 576.097 437.302C575.786 436.662 575.606 435.965 575.568 435.254C575.53 434.543 575.634 433.832 575.876 433.162C576.117 432.492 576.489 431.876 576.972 431.352V431.352Z" fill="#6E3B6E"/>
<path fill-rule="evenodd" clip-rule="evenodd" d="M535.991 394.41C536.844 393.383 537.988 392.636 539.272 392.269C540.556 391.901 541.921 391.929 543.19 392.348C544.458 392.768 545.57 393.56 546.381 394.621C547.192 395.682 547.664 396.963 547.736 398.296C547.808 399.63 547.475 400.954 546.783 402.095C546.09 403.237 545.069 404.144 543.853 404.697C542.637 405.249 541.282 405.423 539.966 405.195C538.65 404.966 537.433 404.347 536.474 403.417C535.217 402.285 534.46 400.702 534.37 399.013C534.279 397.325 534.862 395.669 535.991 394.41V394.41Z" fill="#6E3B6E"/>
<path fill-rule="evenodd" clip-rule="evenodd" d="M523.366 399.295C524.219 398.268 525.362 397.521 526.647 397.153C527.931 396.786 529.296 396.813 530.565 397.233C531.833 397.653 532.945 398.445 533.756 399.506C534.567 400.567 535.039 401.848 535.111 403.181C535.182 404.514 534.85 405.838 534.157 406.98C533.465 408.122 532.444 409.028 531.228 409.581C530.012 410.134 528.657 410.308 527.341 410.079C526.024 409.851 524.808 409.231 523.849 408.301C522.592 407.17 521.835 405.586 521.745 403.898C521.654 402.21 522.237 400.554 523.366 399.295V399.295Z" fill="#6E3B6E"/>
<path fill-rule="evenodd" clip-rule="evenodd" d="M572.11 377.899C575.012 379.705 575.546 383.954 573.51 382.758C572.737 381.711 571.747 380.843 570.608 380.214C569.234 379.578 566.536 379.527 566.408 378.738C566.026 376.678 570.303 376.703 572.11 377.899Z" fill="#7D4F7C"/>
<path fill-rule="evenodd" clip-rule="evenodd" d="M562.336 367.976C565.238 369.782 565.772 374.031 563.736 372.81C562.961 371.765 561.972 370.897 560.834 370.266C559.459 369.604 556.761 369.579 556.634 368.79C556.252 366.78 560.401 366.806 562.336 367.976Z" fill="#7D4F7C"/>
<path fill-rule="evenodd" clip-rule="evenodd" d="M547.14 363.651C550.041 365.457 550.55 369.706 548.54 368.485C547.765 367.44 546.776 366.572 545.638 365.941C544.263 365.305 541.565 365.254 541.412 364.465C541.031 362.43 545.205 362.455 547.14 363.651Z" fill="#7D4F7C"/>
<path fill-rule="evenodd" clip-rule="evenodd" d="M535.049 370.851C537.951 372.658 538.485 376.906 536.449 375.685C535.674 374.64 534.685 373.772 533.547 373.141C532.173 372.479 529.474 372.454 529.347 371.665C528.965 369.63 533.114 369.655 535.049 370.851Z" fill="#7D4F7C"/>
<path fill-rule="evenodd" clip-rule="evenodd" d="M549.176 379.526C552.078 381.333 552.587 385.582 550.576 384.386C549.803 383.339 548.814 382.471 547.674 381.842C546.3 381.206 543.602 381.155 543.449 380.366C543.067 378.331 547.241 378.331 549.176 379.526Z" fill="#7D4F7C"/>
<path fill-rule="evenodd" clip-rule="evenodd" d="M560.834 385.379C563.761 387.185 564.27 391.408 562.234 390.213C561.467 389.16 560.476 388.291 559.332 387.668C557.958 387.007 555.285 386.956 555.132 386.193C554.75 384.157 558.925 384.183 560.834 385.379Z" fill="#7D4F7C"/>
<path fill-rule="evenodd" clip-rule="evenodd" d="M574.146 393.113C577.048 394.919 577.583 399.143 575.546 397.947C574.772 396.901 573.783 396.034 572.645 395.403C571.27 394.741 568.597 394.69 568.445 393.927C568.063 391.892 572.212 391.917 574.146 393.113Z" fill="#7D4F7C"/>
<path fill-rule="evenodd" clip-rule="evenodd" d="M579.975 406.266C582.903 408.073 583.412 412.321 581.401 411.1C580.614 410.057 579.617 409.19 578.474 408.556C577.099 407.92 574.426 407.869 574.274 407.08C573.892 405.045 578.066 405.07 579.975 406.266Z" fill="#7D4F7C"/>
<path fill-rule="evenodd" clip-rule="evenodd" d="M581.375 419.674C583.921 421.735 583.921 425.831 582.113 424.432C581.477 423.355 580.607 422.433 579.568 421.735C578.346 420.947 575.801 420.565 575.775 419.802C575.775 417.766 579.721 418.301 581.375 419.674Z" fill="#7D4F7C"/>
<path fill-rule="evenodd" clip-rule="evenodd" d="M583.895 431.403C586.441 433.464 586.441 437.56 584.634 436.161C583.997 435.083 583.127 434.162 582.088 433.464C580.866 432.675 578.321 432.319 578.27 431.556C578.27 429.52 582.215 430.029 583.895 431.403Z" fill="#7D4F7C"/>
<path fill-rule="evenodd" clip-rule="evenodd" d="M568.012 428.223C570.557 430.284 570.557 434.38 568.75 432.981C568.104 431.911 567.236 430.991 566.205 430.284C564.983 429.496 562.438 429.114 562.387 428.376C562.387 426.315 566.332 426.85 568.012 428.223Z" fill="#7D4F7C"/>
<path fill-rule="evenodd" clip-rule="evenodd" d="M567.605 412.601C570.15 414.687 570.15 418.758 568.343 417.359C567.689 416.294 566.823 415.376 565.797 414.662C564.576 413.873 562.03 413.517 561.979 412.754C561.979 410.718 565.925 411.227 567.605 412.601Z" fill="#7D4F7C"/>
<path fill-rule="evenodd" clip-rule="evenodd" d="M560.121 399.168C562.667 401.255 562.667 405.326 560.859 403.926C560.213 402.856 559.345 401.936 558.314 401.229C557.092 400.441 554.547 400.084 554.496 399.321C554.445 397.286 558.39 397.795 560.121 399.168Z" fill="#7D4F7C"/>
<path fill-rule="evenodd" clip-rule="evenodd" d="M543.856 395.097C546.401 397.183 546.401 401.254 544.594 399.855C543.943 398.789 543.076 397.87 542.049 397.158C540.827 396.369 538.282 396.013 538.256 395.25C538.231 393.214 542.303 393.723 543.856 395.097Z" fill="#7D4F7C"/>
<path fill-rule="evenodd" clip-rule="evenodd" d="M547.241 410.49C549.787 412.576 549.787 416.647 547.98 415.273C547.33 414.198 546.463 413.271 545.434 412.551C544.212 411.787 541.667 411.406 541.616 410.642C541.616 408.683 545.561 409.141 547.241 410.49Z" fill="#7D4F7C"/>
<path fill-rule="evenodd" clip-rule="evenodd" d="M557.958 419.064C560.503 421.125 560.503 425.196 558.696 423.822C558.059 422.744 557.189 421.823 556.15 421.125C554.929 420.336 552.383 419.955 552.358 419.191C552.332 417.156 556.278 417.69 557.958 419.064Z" fill="#7D4F7C"/>
<path fill-rule="evenodd" clip-rule="evenodd" d="M533.522 383.826C536.067 385.913 536.067 389.983 534.26 388.61C533.627 387.523 532.757 386.592 531.714 385.887C530.493 385.124 527.947 384.742 527.922 383.979C527.896 381.944 531.842 382.478 533.522 383.826Z" fill="#7D4F7C"/>
<path fill-rule="evenodd" clip-rule="evenodd" d="M530.391 400.262C532.936 402.323 532.936 406.419 531.154 405.02C530.503 403.954 529.636 403.036 528.609 402.323C527.387 401.535 524.842 401.178 524.816 400.415C524.791 398.354 528.736 398.889 530.391 400.262Z" fill="#7D4F7C"/>
<path fill-rule="evenodd" clip-rule="evenodd" d="M451.84 394.028H517.231H568.75H634.142L653.614 609.04H568.75H517.231H432.367L451.84 394.028Z" fill="#B49061"/>
<path fill-rule="evenodd" clip-rule="evenodd" d="M477.268 394.028H542.66H594.179H659.57L679.043 609.04H594.179H542.66H457.796L477.268 394.028Z" fill="#E2C077"/>
<path fill-rule="evenodd" clip-rule="evenodd" d="M525.3 425.552C526.307 425.552 527.291 425.253 528.128 424.694C528.966 424.135 529.618 423.34 530.003 422.411C530.389 421.481 530.489 420.458 530.293 419.471C530.097 418.484 529.612 417.577 528.9 416.865C528.188 416.154 527.281 415.669 526.293 415.473C525.306 415.276 524.282 415.377 523.352 415.762C522.422 416.147 521.627 416.8 521.067 417.636C520.508 418.473 520.209 419.457 520.209 420.463C520.209 421.813 520.746 423.107 521.7 424.061C522.655 425.016 523.95 425.552 525.3 425.552Z" fill="#764633"/>
<path fill-rule="evenodd" clip-rule="evenodd" d="M606.524 425.552C607.531 425.552 608.515 425.253 609.352 424.694C610.189 424.135 610.842 423.34 611.227 422.411C611.613 421.481 611.713 420.458 611.517 419.471C611.32 418.484 610.836 417.577 610.124 416.865C609.412 416.154 608.505 415.669 607.517 415.473C606.53 415.276 605.506 415.377 604.576 415.762C603.646 416.147 602.85 416.8 602.291 417.636C601.732 418.473 601.433 419.457 601.433 420.463C601.433 421.813 601.969 423.107 602.924 424.061C603.879 425.016 605.174 425.552 606.524 425.552Z" fill="#764633"/>
<path fill-rule="evenodd" clip-rule="evenodd" d="M604.106 422.015C604.021 421.642 604.021 421.255 604.106 420.883C604.191 420.51 604.359 420.162 604.598 419.863C604.836 419.564 605.139 419.323 605.483 419.157C605.828 418.991 606.205 418.905 606.588 418.905C606.97 418.905 607.347 418.991 607.692 419.157C608.036 419.323 608.339 419.564 608.577 419.863C608.816 420.162 608.984 420.51 609.069 420.883C609.154 421.255 609.154 421.642 609.069 422.015C608.796 433.241 604.143 443.915 596.103 451.758C588.063 459.601 577.274 463.991 566.039 463.991C554.805 463.991 544.016 459.601 535.976 451.758C527.936 443.915 523.282 433.241 523.009 422.015C523.009 421.34 523.277 420.693 523.755 420.216C524.232 419.739 524.879 419.471 525.555 419.471C526.23 419.471 526.877 419.739 527.354 420.216C527.832 420.693 528.1 421.34 528.1 422.015C528.844 431.596 533.177 440.544 540.234 447.071C547.291 453.598 556.552 457.224 566.167 457.224C575.781 457.224 585.042 453.598 592.099 447.071C599.156 440.544 603.489 431.596 604.233 422.015H604.106Z" fill="#E0A519"/>
<path d="M502.667 556.883V532.809H509.466C511.562 532.809 513.415 533.272 515.025 534.198C516.635 535.123 517.876 536.441 518.747 538.149C519.629 539.858 520.076 541.82 520.087 544.036V545.574C520.087 547.844 519.646 549.834 518.763 551.543C517.892 553.251 516.64 554.563 515.008 555.478C513.387 556.393 511.496 556.861 509.334 556.883H502.667ZM505.844 535.421V554.287H509.185C511.633 554.287 513.536 553.527 514.892 552.006C516.26 550.484 516.944 548.318 516.944 545.507V544.102C516.944 541.368 516.298 539.246 515.008 537.736C513.729 536.215 511.909 535.443 509.549 535.421H505.844Z" fill="#7A4533"/>
<path d="M538.515 545.755H528.077V554.287H540.203V556.883H524.901V532.809H540.037V535.421H528.077V543.159H538.515V545.755Z" fill="#7A4533"/>
<path d="M547.349 554.287H558.763V556.883H544.156V532.809H547.349V554.287Z" fill="#7A4533"/>
<path d="M565.794 556.883H562.618V532.809H565.794V556.883Z" fill="#7A4533"/>
<path d="M579.591 552.667L586.472 532.809H589.946L581.013 556.883H578.201L569.285 532.809H572.742L579.591 552.667Z" fill="#7A4533"/>
<path d="M606.803 545.755H596.365V554.287H608.491V556.883H593.189V532.809H608.325V535.421H596.365V543.159H606.803V545.755Z" fill="#7A4533"/>
<path d="M621.278 547.144H615.621V556.883H612.428V532.809H620.401C623.114 532.809 625.199 533.426 626.654 534.66C628.121 535.895 628.855 537.692 628.855 540.051C628.855 541.55 628.447 542.856 627.631 543.97C626.825 545.083 625.701 545.915 624.256 546.466L629.913 556.685V556.883H626.506L621.278 547.144ZM615.621 544.548H620.501C622.078 544.548 623.329 544.14 624.256 543.325C625.193 542.509 625.662 541.418 625.662 540.051C625.662 538.563 625.215 537.422 624.322 536.628C623.44 535.834 622.16 535.432 620.484 535.421H615.621V544.548Z" fill="#7A4533"/>
<path d="M639.872 544.896L646.158 532.809H649.765L641.46 547.905V556.883H638.284V547.905L629.98 532.809H633.619L639.872 544.896Z" fill="#7A4533"/>
<path d="M511.685 524.547H502.189V479.05H528.279V486.954H511.685V498.686H527.128V506.56H511.685V524.547Z" fill="#7A4533"/>
<path d="M565.049 524.547L561.749 513.717H545.154L541.854 524.547H531.455L547.52 478.863H559.32L575.447 524.547H565.049ZM559.445 505.626C556.393 495.813 554.671 490.263 554.276 488.977C553.903 487.691 553.633 486.674 553.467 485.927C552.782 488.583 550.82 495.149 547.583 505.626H559.445Z" fill="#7A4533"/>
<path d="M608.076 511.912C608.076 516.02 606.592 519.256 603.624 521.621C600.676 523.986 596.567 525.169 591.295 525.169C586.438 525.169 582.141 524.256 578.405 522.43V513.468C581.477 514.837 584.072 515.802 586.189 516.362C588.327 516.922 590.278 517.202 592.042 517.202C594.159 517.202 595.778 516.798 596.899 515.989C598.04 515.18 598.611 513.976 598.611 512.379C598.611 511.487 598.362 510.698 597.864 510.014C597.366 509.308 596.629 508.634 595.653 507.991C594.699 507.348 592.737 506.321 589.769 504.91C586.988 503.603 584.902 502.348 583.511 501.145C582.121 499.941 581.01 498.541 580.18 496.944C579.35 495.346 578.934 493.479 578.934 491.342C578.934 487.317 580.294 484.154 583.013 481.851C585.753 479.548 589.53 478.396 594.346 478.396C596.712 478.396 598.964 478.677 601.102 479.237C603.261 479.797 605.513 480.585 607.858 481.602L604.745 489.102C602.316 488.106 600.303 487.411 598.705 487.017C597.127 486.622 595.57 486.425 594.034 486.425C592.208 486.425 590.807 486.851 589.831 487.701C588.856 488.552 588.368 489.662 588.368 491.031C588.368 491.882 588.565 492.628 588.96 493.272C589.354 493.894 589.977 494.506 590.828 495.108C591.699 495.688 593.744 496.747 596.961 498.282C601.216 500.315 604.132 502.358 605.71 504.412C607.287 506.445 608.076 508.945 608.076 511.912Z" fill="#7A4533"/>
<path d="M633.886 524.547H624.234V487.079H611.874V479.05H646.246V487.079H633.886V524.547Z" fill="#7A4533"/>
<path fill-rule="evenodd" clip-rule="evenodd" d="M400.321 632.854H718.216C721.374 632.847 724.4 631.59 726.632 629.359C728.865 627.127 730.122 624.103 730.129 620.947C730.122 617.791 728.865 614.766 726.632 612.535C724.4 610.303 721.374 609.047 718.216 609.04H400.321C397.165 609.053 394.143 610.312 391.912 612.542C389.681 614.772 388.422 617.793 388.408 620.947V620.947C388.422 624.101 389.681 627.122 391.912 629.352C394.143 631.582 397.165 632.84 400.321 632.854V632.854Z" fill="#EBEBEB"/>
</g>
<path opacity="0.163388" fill-rule="evenodd" clip-rule="evenodd" d="M859.894 475.165H796.799C788.893 475.165 782.423 468.693 782.423 460.784V397.669C782.423 389.759 788.893 383.288 796.799 383.288H859.894C867.801 383.288 874.27 389.759 874.27 397.669V460.784C874.27 468.693 867.801 475.165 859.894 475.165Z" fill="#597EF7"/>
<path fill-rule="evenodd" clip-rule="evenodd" d="M238.534 291.712H210.544C207.016 291.712 204.129 288.636 204.129 284.876V254.69C204.129 250.93 207.016 247.854 210.544 247.854H238.534C242.062 247.854 244.95 250.93 244.95 254.69V284.876C244.95 288.636 242.062 291.712 238.534 291.712Z" fill="#0BB8E4"/>
<path fill-rule="evenodd" clip-rule="evenodd" d="M860.275 594.261C856.746 594.261 853.86 591.396 853.86 587.896V559.792C853.86 556.291 856.746 553.427 860.275 553.427H888.265C891.793 553.427 894.68 556.291 894.68 559.792V587.896C894.68 591.396 891.793 594.261 888.265 594.261H860.275Z" fill="#FF7A46"/>
<defs>
<clipPath id="clip0_413_7732">
<rect width="562" height="387" fill="white" transform="translate(168.129 245.854)"/>
</clipPath>
</defs>
</svg>
