<svg xmlns="http://www.w3.org/2000/svg" width="185" height="185" fill="none" xmlns:v="https://vecta.io/nano"><path fill="#fff" d="M0 0h185v185H0z"/><path d="M125.047 41.783H65.282a3.38 3.38 0 0 0-3.385 3.374v92.086a3.38 3.38 0 0 0 3.385 3.374h74.329a3.38 3.38 0 0 0 3.385-3.374V59.812l-17.949-18.029z" fill="#4e5c93"/><path d="M125.047 41.643l.029 14.803a3.38 3.38 0 0 0 3.385 3.374h14.535M98.013 51H38.385A3.38 3.38 0 0 0 35 54.374v92.086a3.38 3.38 0 0 0 3.385 3.374h74.47a3.38 3.38 0 0 0 3.385-3.374V70.715h-13.008c-1.869 0-5.219-1.51-5.219-3.374V51z" fill="#e4ebf7"/><path d="M59.732 60H46.321A2.32 2.32 0 0 0 44 62.321v13.353a2.32 2.32 0 0 0 2.321 2.321h13.411a2.32 2.32 0 0 0 2.321-2.321V62.321A2.32 2.32 0 0 0 59.732 60z" fill="#a3b5d6"/><path d="M52.04 72.864h1.784v-3.04h3.04V68.04h-3.04V65H52.04v3.04H49v1.784h3.04v3.04z" fill="#e4ebf7"/><path d="M56 100a5 5 0 0 1 5-5h30a5 5 0 0 1 5 5v12.5H56V100zm28.75 2.5a1.25 1.25 0 0 0-1.25 1.25v2.5a1.25 1.25 0 0 0 1.25 1.25h5a1.25 1.25 0 0 0 1.25-1.25v-2.5a1.25 1.25 0 0 0-1.25-1.25h-5zM56 117.5v2.5a5 5 0 0 0 5 5h30a5 5 0 0 0 5-5v-2.5H56z" fill="#a3b5d6"/><path d="M97.971 50.806v16.341a3.38 3.38 0 0 0 3.385 3.374h14.842" fill="#fff"/><g fill-rule="evenodd"><path d="M122.152 28.18c-15.449 0-27.972 12.523-27.972 27.972s12.523 27.972 27.972 27.972 27.972-12.523 27.972-27.972S137.6 28.18 122.152 28.18z" fill="#0bb8e4"/><g fill="#fff"><path d="M117.645 65.654l-1.766-1.766 17.113-17.175a1.5 1.5 0 0 1 2.119 0l.706.706a1.5 1.5 0 0 1 0 2.119l-16.053 16.116a1.5 1.5 0 0 1-2.119 0z"/><path d="M121.527 63.888l-1.766 1.766a1.5 1.5 0 0 1-2.12 0l-7.032-7.032a1.5 1.5 0 0 1 0-2.119l.707-.706a1.5 1.5 0 0 1 2.119 0l8.092 8.092z"/></g></g></svg>