<svg width="32" height="32" viewBox="0 0 32 32" fill="none" xmlns="http://www.w3.org/2000/svg">
<circle cx="16" cy="16" r="16" fill="url(#paint0_linear_245_99)"/>
<path d="M20.9947 20.3864H10.2589C10.0614 20.3864 9.90125 20.5465 9.90089 20.7439L9.89948 21.7877C9.89914 22.1782 10.0508 22.5453 10.3266 22.8214C10.6028 23.0979 10.9695 23.25 11.36 23.25H19.8922C20.6976 23.25 21.3526 22.5949 21.3526 21.7895V20.7443C21.3526 20.5465 21.1926 20.3864 20.9947 20.3864Z" fill="white"/>
<path d="M19.5625 8.93183C19.3433 8.93183 19.1182 8.95384 18.8798 8.99824C18.0608 8.04321 16.8869 7.5 15.625 7.5C13.2564 7.5 11.3296 9.42681 11.3296 11.7955C11.3296 11.9929 11.1691 12.1534 10.9716 12.1534C10.7741 12.1534 10.6136 11.993 10.6136 11.7955C10.6136 11.0205 10.7919 10.2706 11.1436 9.56699C11.2062 9.44185 11.1901 9.29188 11.1027 9.18281C11.0153 9.07445 10.8723 9.0262 10.7367 9.05942C8.97803 9.49813 7.75 11.0649 7.75 12.8693C7.75 14.3571 8.58896 15.7095 9.90612 16.3782L9.90226 19.3121C9.90226 19.4069 9.93968 19.4981 10.0068 19.5656C10.0742 19.6327 10.1652 19.6704 10.2602 19.6704H20.9943C21.1922 19.6704 21.3523 19.5103 21.3523 19.3125V16.373C22.6646 15.7025 23.5 14.3521 23.5 12.8693C23.5 10.6982 21.7337 8.93183 19.5625 8.93183ZM12.9886 17.4416C12.9218 17.4962 12.8414 17.5227 12.7617 17.5227C12.6583 17.5227 12.5555 17.478 12.4845 17.392C12.3664 17.2476 11.3296 15.9571 11.3296 15.0171C11.3296 14.8192 11.4897 14.6591 11.6875 14.6591C11.8854 14.6591 12.0455 14.8192 12.0455 15.0171C12.0455 15.5351 12.6544 16.4699 13.0382 16.9376C13.1634 17.0907 13.1413 17.3161 12.9886 17.4416ZM15.9829 17.1648C15.9829 17.3626 15.8228 17.5227 15.625 17.5227C15.4271 17.5227 15.2671 17.3626 15.2671 17.1648V15.0171C15.2671 14.8192 15.4272 14.6591 15.625 14.6591C15.8229 14.6591 15.983 14.8192 15.983 15.0171V17.1648H15.9829ZM18.7655 17.392C18.6945 17.478 18.5921 17.5227 18.4886 17.5227C18.4086 17.5227 18.3282 17.4962 18.2618 17.4416C18.109 17.3161 18.0867 17.0907 18.2118 16.9379C18.5956 16.4692 19.2045 15.5334 19.2045 15.0171C19.2045 14.8192 19.3646 14.6591 19.5625 14.6591C19.7604 14.6591 19.9205 14.8192 19.9205 15.0171C19.9205 15.957 18.8837 17.2476 18.7655 17.392Z" fill="white"/>
<defs>
<linearGradient id="paint0_linear_245_99" x1="16" y1="0" x2="16" y2="32" gradientUnits="userSpaceOnUse">
<stop stop-color="#0BB8E4"/>
<stop offset="1" stop-color="#3D90D9"/>
</linearGradient>
</defs>
</svg>
