<svg width="32" height="32" viewBox="0 0 32 32" fill="none" xmlns="http://www.w3.org/2000/svg">
<circle cx="16" cy="16" r="16" fill="url(#paint0_linear_223_21)"/>
<path d="M24.7974 11.9641L18.0786 8.2748C17.9616 8.21056 17.8197 8.21056 17.7026 8.2748L15.1761 9.66213C15.119 9.678 15.0658 9.70715 15.0206 9.74743L10.9839 11.9641C10.8589 12.0327 10.7812 12.164 10.7812 12.3065V13.1051H6.27441C6.05865 13.1051 5.88379 13.2801 5.88379 13.4958C5.88379 13.7115 6.05865 13.8864 6.27441 13.8864H10.7812V15.2926H8.54172C8.32596 15.2926 8.15109 15.4676 8.15109 15.6833C8.15109 15.899 8.32596 16.0739 8.54172 16.0739H10.7812V18.1051H7.5C7.28424 18.1051 7.10937 18.2801 7.10937 18.4958C7.10937 18.7115 7.28424 18.8864 7.5 18.8864H10.7812V19.6852C10.7812 19.8277 10.8589 19.9589 10.9839 20.0276L17.7026 23.7168C17.7612 23.749 17.8259 23.7651 17.8906 23.7651C17.9553 23.7651 18.02 23.749 18.0786 23.7168L24.7974 20.0276C24.9223 19.9589 25 19.8277 25 19.6852V17.9359C25 17.7203 24.8251 17.5453 24.6094 17.5453C24.3936 17.5453 24.2187 17.7203 24.2187 17.9359V19.454L18.2812 22.7143V16.2269L20.1695 15.1901V16.8356C20.1695 16.9738 20.2425 17.1017 20.3613 17.1719C20.4225 17.2081 20.4913 17.2262 20.5601 17.2262C20.6248 17.2262 20.6897 17.2102 20.7484 17.1778L22.1883 16.3855C22.3129 16.3168 22.3904 16.1857 22.3904 16.0432V13.9706L24.2187 12.9667V14.8109C24.2187 15.0267 24.3936 15.2015 24.6094 15.2015C24.8251 15.2015 25 15.0267 25 14.8109V12.3065C25 12.164 24.9223 12.0327 24.7974 11.9641ZM17.8906 15.5502L11.9835 12.3065L13.84 11.287L19.7473 14.5308L17.8906 15.5502ZM22.0108 13.2878L16.1037 10.0441L17.8906 9.06292L23.7978 12.3065L22.0108 13.2878Z" fill="white"/>
<path d="M24.6094 15.9829C24.5067 15.9829 24.4058 16.0243 24.3332 16.0974C24.2606 16.17 24.2188 16.2704 24.2188 16.3735C24.2188 16.4762 24.2606 16.5771 24.3332 16.6497C24.4058 16.7224 24.5067 16.7642 24.6094 16.7642C24.7121 16.7642 24.8129 16.7224 24.8856 16.6497C24.9582 16.5771 25 16.4762 25 16.3735C25 16.2704 24.9582 16.17 24.8856 16.0974C24.8129 16.0243 24.7121 15.9829 24.6094 15.9829Z" fill="white"/>
<path d="M5.95047 18.1051H5.39062C5.17487 18.1051 5 18.2801 5 18.4957C5 18.7115 5.17487 18.8864 5.39062 18.8864H5.95047C6.16623 18.8864 6.34109 18.7115 6.34109 18.4957C6.34109 18.2801 6.16623 18.1051 5.95047 18.1051Z" fill="white"/>
<path d="M7.37 15.6832C7.37 15.5805 7.32819 15.4798 7.2554 15.4072C7.18277 15.3344 7.08206 15.2926 6.97937 15.2926C6.87653 15.2926 6.77582 15.3344 6.70319 15.4072C6.6301 15.4798 6.58875 15.5805 6.58875 15.6832C6.58875 15.7861 6.6301 15.8868 6.70319 15.9594C6.77582 16.032 6.87653 16.0739 6.97937 16.0739C7.08206 16.0739 7.18277 16.0322 7.2554 15.9594C7.32819 15.8868 7.37 15.7861 7.37 15.6832Z" fill="white"/>
<defs>
<linearGradient id="paint0_linear_223_21" x1="16" y1="0" x2="16" y2="32" gradientUnits="userSpaceOnUse">
<stop stop-color="#0BB8E4"/>
<stop offset="1" stop-color="#3D90D9"/>
</linearGradient>
</defs>
</svg>
