<svg width="32" height="32" viewBox="0 0 32 32" fill="none" xmlns="http://www.w3.org/2000/svg">
<circle cx="16" cy="16" r="16" fill="url(#paint0_linear_223_66)"/>
<path d="M16.8835 11.2188L18.0085 10.0938H9.96875C9.85407 10.0938 9.6875 10.3129 9.6875 10.6562C9.6875 10.9996 9.85407 11.2188 9.96875 11.2188H16.8835Z" fill="white"/>
<path d="M18.1992 13.3923C17.9713 13.5695 17.6888 13.6616 17.4003 13.6526C17.1118 13.6436 16.8355 13.5341 16.6191 13.3431C16.4027 13.152 16.2599 12.8914 16.2153 12.6062C16.1706 12.3211 16.227 12.0293 16.3747 11.7812H10.4602L9.14884 16.2205C9.13302 16.2857 9.12502 16.3526 9.125 16.4197V24.1562H18.4062V16.4197C18.4063 16.3048 18.4203 16.1903 18.4482 16.0787C18.4492 16.0749 18.4502 16.071 18.4514 16.0672L19.5523 12.3398L18.1992 13.3923ZM13.625 17.4062H13.6245C13.6247 17.4499 13.6147 17.493 13.5953 17.532L13.0673 18.5881L13.3 21.8461C13.3082 21.9617 13.2926 22.0777 13.254 22.187C13.2155 22.2963 13.1548 22.3964 13.0759 22.4812C12.9969 22.566 12.9013 22.6337 12.7951 22.6799C12.6889 22.7261 12.5742 22.75 12.4584 22.75H11.9791C11.8633 22.75 11.7486 22.7261 11.6424 22.6799C11.5362 22.6337 11.4406 22.566 11.3616 22.4812C11.2827 22.3964 11.222 22.2963 11.1835 22.187C11.1449 22.0777 11.1293 21.9617 11.1375 21.8461L11.3702 18.5881L10.8422 17.532C10.8228 17.493 10.8128 17.4499 10.813 17.4062H10.8125V16.2812C10.8125 16.2067 10.8421 16.1351 10.8949 16.0824C10.9476 16.0296 11.0192 16 11.0938 16C11.1683 16 11.2399 16.0296 11.2926 16.0824C11.3454 16.1351 11.375 16.2067 11.375 16.2812V17.125H11.9375V16.2812C11.9375 16.2067 11.9671 16.1351 12.0199 16.0824C12.0726 16.0296 12.1442 16 12.2188 16C12.2933 16 12.3649 16.0296 12.4176 16.0824C12.4704 16.1351 12.5 16.2067 12.5 16.2812V17.125H13.0625V16.2812C13.0625 16.2067 13.0921 16.1351 13.1449 16.0824C13.1976 16.0296 13.2692 16 13.3438 16C13.4183 16 13.4899 16.0296 13.5426 16.0824C13.5954 16.1351 13.625 16.2067 13.625 16.2812V17.4062ZM16.1603 22.4723C16.0811 22.5596 15.9846 22.6295 15.8768 22.6773C15.769 22.7252 15.6524 22.7499 15.5345 22.75H15.0903C14.9724 22.75 14.8559 22.7253 14.7481 22.6775C14.6404 22.6297 14.5438 22.5598 14.4647 22.4724C14.3856 22.385 14.3257 22.282 14.2889 22.17C14.252 22.058 14.2391 21.9396 14.2508 21.8223L14.4688 19.6422V19.5487L14.0617 19.3452C14.0118 19.3202 13.9704 19.2809 13.9429 19.2324C13.9153 19.1839 13.9028 19.1282 13.907 19.0726C13.9164 18.9473 14.1573 16 15.875 16C15.9496 16 16.0211 16.0296 16.0739 16.0824C16.1266 16.1351 16.1562 16.2067 16.1562 16.2812V19.6422L16.3742 21.8222C16.3859 21.9394 16.3729 22.0579 16.336 22.1698C16.2992 22.2818 16.2393 22.3848 16.1603 22.4723V22.4723Z" fill="white"/>
<path d="M23.1875 7.84375H24.875V10.9375H23.1875V7.84375Z" fill="white"/>
<path d="M16.2949 8.52311L14.4467 9.53125H18.6875C18.7431 9.53125 18.7975 9.54774 18.8438 9.57865C18.89 9.60955 18.9261 9.65348 18.9474 9.70487C18.9686 9.75626 18.9742 9.81281 18.9634 9.86737C18.9525 9.92193 18.9257 9.97205 18.8864 10.0114L16.9609 11.9369C16.8392 12.0585 16.7685 12.2219 16.7631 12.3939C16.7577 12.5658 16.8181 12.7334 16.932 12.8623C17.0458 12.9913 17.2046 13.072 17.3759 13.088C17.5472 13.104 17.7182 13.054 17.8539 12.9483L19.6092 11.5831C19.6785 11.5294 19.7637 11.5002 19.8514 11.5H20.5428C20.7966 11.4997 21.0399 11.3988 21.2193 11.2193C21.3988 11.0399 21.4997 10.7966 21.5 10.5428C21.5001 10.4237 21.5475 10.3096 21.6317 10.2254C21.7159 10.1412 21.83 10.0939 21.9491 10.0938H22.625V8.40625H16.7533C16.5931 8.40636 16.4356 8.44653 16.2949 8.52311V8.52311Z" fill="white"/>
<path d="M12.5194 18.8125H11.9182L11.6984 21.8862C11.6957 21.9248 11.7009 21.9634 11.7138 21.9999C11.7266 22.0363 11.7468 22.0697 11.7732 22.0979C11.7995 22.1262 11.8313 22.1487 11.8667 22.1641C11.9022 22.1795 11.9404 22.1875 11.979 22.1875H12.4582C12.4968 22.1875 12.5351 22.1795 12.5705 22.1641C12.6059 22.1487 12.6377 22.1262 12.6641 22.0979C12.6904 22.0697 12.7106 22.0363 12.7234 21.9999C12.7363 21.9634 12.7415 21.9248 12.7388 21.8862L12.5194 18.8125Z" fill="white"/>
<path d="M15.0313 19.375H15.5938V16.6138C15.2471 16.7459 14.9631 17.1327 14.747 17.7688C14.6235 18.1465 14.5368 18.5352 14.4881 18.9296L14.8758 19.1235C14.9225 19.1468 14.9618 19.1827 14.9892 19.2272C15.0167 19.2716 15.0313 19.3228 15.0313 19.375V19.375Z" fill="white"/>
<path d="M11.8301 18.25H12.6074L12.8887 17.6875H11.5488L11.8301 18.25Z" fill="white"/>
<path d="M19.3665 24.1563H20.821L20.0937 23.429L19.3665 24.1563Z" fill="white"/>
<path d="M15.6205 19.9375H15.0045L14.8104 21.8781C14.8065 21.9172 14.8108 21.9567 14.8231 21.9941C14.8354 22.0314 14.8553 22.0658 14.8817 22.0949C14.9081 22.1241 14.9403 22.1474 14.9762 22.1633C15.0121 22.1793 15.051 22.1875 15.0903 22.1875H15.5347C15.574 22.1875 15.6129 22.1793 15.6488 22.1633C15.6847 22.1474 15.7169 22.1241 15.7433 22.0949C15.7697 22.0658 15.7896 22.0314 15.8019 21.9941C15.8142 21.9567 15.8185 21.9172 15.8146 21.8781L15.6205 19.9375Z" fill="white"/>
<path d="M18.9926 16.2204C18.9768 16.2856 18.9688 16.3525 18.9688 16.4197V23.7584L19.8125 22.9147V16.8437C19.8125 16.7691 19.8421 16.6976 19.8949 16.6448C19.9476 16.5921 20.0192 16.5624 20.0938 16.5624C20.1683 16.5624 20.2399 16.5921 20.2926 16.6448C20.3454 16.6976 20.375 16.7691 20.375 16.8437V22.9147L21.2188 23.7584V16.4432C21.2188 16.3626 21.2072 16.2825 21.1845 16.2052L20.0932 12.4947L18.9926 16.2204Z" fill="white"/>
<defs>
<linearGradient id="paint0_linear_223_66" x1="16" y1="0" x2="16" y2="32" gradientUnits="userSpaceOnUse">
<stop stop-color="#0BB8E4"/>
<stop offset="1" stop-color="#3D90D9"/>
</linearGradient>
</defs>
</svg>
