<svg width="32" height="32" viewBox="0 0 32 32" fill="none" xmlns="http://www.w3.org/2000/svg">
<circle cx="16" cy="16" r="16" fill="url(#paint0_linear_223_389)"/>
<g clip-path="url(#clip0_223_389)">
<path d="M13.3546 24.4375C13.0876 24.4375 12.8206 24.3857 12.5694 24.2822C12.0466 24.0655 11.6326 23.6372 11.4339 23.107L10.8999 21.6835C10.7986 21.4135 10.5864 21.2012 10.3171 21.1L8.89287 20.566C8.36337 20.3672 7.93512 19.9532 7.71837 19.4305C7.50162 18.9077 7.51137 18.3115 7.74612 17.7962L8.37537 16.4125C8.49387 16.1507 8.49387 15.85 8.37537 15.5875L7.74612 14.203C7.51137 13.6885 7.50162 13.0922 7.71762 12.5695C7.93362 12.0467 8.36262 11.6327 8.89287 11.434L10.3164 10.9C10.5864 10.7987 10.7986 10.5865 10.8999 10.3165L11.4339 8.89224C11.6326 8.36274 12.0466 7.93449 12.5694 7.71774C13.0921 7.50174 13.6884 7.51074 14.2036 7.74549L15.5874 8.37474C15.8491 8.49324 16.1491 8.49324 16.4124 8.37474L17.7969 7.74549C18.3114 7.51074 18.9076 7.50099 19.4304 7.71774C19.9531 7.93449 20.3671 8.36274 20.5659 8.89299L21.0999 10.3165C21.2011 10.5865 21.4134 10.7987 21.6826 10.9L23.1069 11.434C23.6364 11.6327 24.0646 12.0467 24.2814 12.5695C24.4981 13.0922 24.4884 13.6885 24.2536 14.2037L23.6244 15.5875C23.5059 15.8492 23.5059 16.15 23.6244 16.4125L24.2529 17.797C24.4876 18.3122 24.4974 18.9077 24.2806 19.4305C24.0639 19.9532 23.6356 20.3672 23.1054 20.566L21.6834 21.1C21.4134 21.2012 21.2011 21.4135 21.0999 21.6827L20.5659 23.107C20.3671 23.6365 19.9531 24.0647 19.4304 24.2815C18.9069 24.4975 18.3114 24.4885 17.7961 24.2537L16.4124 23.6245C16.1499 23.506 15.8499 23.5052 15.5874 23.6245L14.2029 24.253C13.9351 24.376 13.6441 24.4375 13.3546 24.4375V24.4375ZM16.6306 8.85474H16.6374H16.6306Z" fill="white"/>
<path d="M13.375 13.9375C12.6513 13.9375 12.0625 13.3488 12.0625 12.625C12.0625 11.9013 12.6513 11.3125 13.375 11.3125C14.0988 11.3125 14.6875 11.9013 14.6875 12.625C14.6875 13.3488 14.0988 13.9375 13.375 13.9375Z" fill="white"/>
<path d="M18.6254 20.6253C17.9361 20.6253 17.3751 20.0643 17.3751 19.375C17.3751 18.6858 17.9361 18.1248 18.6254 18.1248C19.3146 18.1248 19.8756 18.6858 19.8756 19.375C19.8756 20.0643 19.3146 20.6253 18.6254 20.6253V20.6253Z" fill="white"/>
<path d="M13.1785 24.9995C12.8935 24.9995 12.6085 24.944 12.3415 24.8338C11.7835 24.6028 11.3418 24.146 11.1303 23.5805L10.5603 22.0625C10.4523 21.7745 10.2258 21.548 9.93853 21.44L8.41978 20.87C7.85503 20.6585 7.39828 20.2168 7.16728 19.6588C6.93628 19.1008 6.94678 18.4655 7.19728 17.9158L7.86853 16.4398C7.99528 16.16 7.99528 15.8398 7.86853 15.56L7.19653 14.084C6.94678 13.535 6.93553 12.899 7.16653 12.3418C7.39753 11.7845 7.85503 11.342 8.42053 11.1305L9.93853 10.5605C10.2265 10.4525 10.453 10.226 10.561 9.93878L11.131 8.42003C11.3425 7.85528 11.7843 7.39853 12.3423 7.16753C12.9003 6.93653 13.5355 6.94703 14.0853 7.19753L15.5613 7.86878C15.841 7.99478 16.1605 7.99478 16.441 7.86878L17.9178 7.19753C18.4668 6.94703 19.1028 6.93728 19.66 7.16753C20.218 7.39853 20.6598 7.85528 20.8713 8.42078L21.4413 9.93878C21.5493 10.2268 21.7758 10.4533 22.063 10.5613L23.5818 11.1313C24.1465 11.3428 24.6033 11.7845 24.8343 12.3425C25.0653 12.9005 25.0548 13.5358 24.8043 14.0855L24.133 15.5615C24.0063 15.8413 24.0063 16.1615 24.133 16.4413L24.8035 17.918C25.0533 18.467 25.0645 19.103 24.8335 19.6603C24.6025 20.2175 24.1458 20.66 23.5803 20.8715L22.0623 21.4415C21.7743 21.5495 21.5478 21.776 21.4398 22.0633L20.8698 23.582C20.6583 24.1468 20.2165 24.6035 19.6585 24.8345C19.1005 25.0655 18.4653 25.055 17.9155 24.8045L16.4395 24.1333C16.1598 24.0065 15.8395 24.0065 15.5598 24.1333L14.083 24.8038C13.7973 24.9343 13.4875 24.9995 13.1785 24.9995V24.9995ZM13.1793 8.12528C13.0413 8.12528 12.904 8.15228 12.772 8.20703C12.4968 8.32028 12.2875 8.53703 12.1833 8.81528L11.6133 10.334C11.3913 10.925 10.9248 11.3915 10.333 11.6135L8.81503 12.1835C8.53678 12.2878 8.32003 12.497 8.20603 12.7723C8.09278 13.0468 8.09728 13.3475 8.22028 13.6183L8.89153 15.095C9.15328 15.6703 9.15328 16.3295 8.89153 16.9048L8.22028 18.3815C8.09728 18.6523 8.09203 18.9538 8.20603 19.2283C8.32003 19.5035 8.53603 19.7128 8.81503 19.817L10.3338 20.387C10.9255 20.609 11.392 21.0755 11.614 21.6673L12.184 23.1853C12.2883 23.4643 12.4975 23.6803 12.7728 23.7943C13.0473 23.9075 13.348 23.9038 13.6188 23.78L15.0955 23.1088C15.6708 22.847 16.33 22.8478 16.9053 23.1088L18.382 23.78C18.6535 23.9038 18.9543 23.9075 19.2288 23.7943C19.504 23.6803 19.7133 23.4643 19.8175 23.1853L20.3875 21.6665C20.6095 21.0748 21.076 20.6083 21.6678 20.3863L23.1858 19.8163C23.4648 19.712 23.6808 19.5028 23.7948 19.2275C23.9088 18.953 23.9035 18.6515 23.7805 18.3815L23.1093 16.9048C22.8475 16.3295 22.8475 15.6703 23.1093 15.095L23.7805 13.6183C23.9035 13.3475 23.9088 13.046 23.7948 12.7715C23.6808 12.4963 23.4648 12.287 23.1858 12.1828L21.667 11.6128C21.0753 11.3908 20.6088 10.9243 20.3868 10.3325L19.8168 8.81453C19.7125 8.53553 19.5033 8.31953 19.228 8.20553C18.9535 8.09228 18.6528 8.09678 18.382 8.21978L16.9053 8.89103C16.33 9.15203 15.6708 9.15203 15.0955 8.89103L13.6188 8.22053C13.477 8.15678 13.3285 8.12528 13.1793 8.12528V8.12528ZM16.672 8.37953H16.6795H16.672Z" fill="white"/>
<path d="M13.375 14.5C12.3415 14.5 11.5 13.6585 11.5 12.625C11.5 11.5915 12.3415 10.75 13.375 10.75C14.4085 10.75 15.25 11.5915 15.25 12.625C15.25 13.6585 14.4085 14.5 13.375 14.5ZM13.375 11.875C12.9618 11.875 12.625 12.2118 12.625 12.625C12.625 13.0383 12.9618 13.375 13.375 13.375C13.7883 13.375 14.125 13.0383 14.125 12.625C14.125 12.2118 13.7883 11.875 13.375 11.875Z" fill="#0BB8E4"/>
<path d="M18.6252 21.25C17.5917 21.25 16.7502 20.4085 16.7502 19.375C16.7502 18.3415 17.5917 17.5 18.6252 17.5C19.6587 17.5 20.5002 18.3415 20.5002 19.375C20.5002 20.4085 19.6587 21.25 18.6252 21.25ZM18.6252 18.625C18.212 18.625 17.8752 18.9618 17.8752 19.375C17.8752 19.7883 18.212 20.125 18.6252 20.125C19.0385 20.125 19.3752 19.7883 19.3752 19.375C19.3752 18.9618 19.0385 18.625 18.6252 18.625Z" fill="#0BB8E4"/>
<path d="M13.5626 20.5C13.4613 20.5 13.3593 20.473 13.2671 20.416C13.0023 20.2525 12.9213 19.906 13.0848 19.642L17.9598 11.767C18.1233 11.5022 18.4713 11.4212 18.7338 11.5847C18.9986 11.7482 19.0796 12.0947 18.9161 12.3587L14.0411 20.2337C13.9346 20.4055 13.7501 20.5 13.5626 20.5V20.5Z" fill="#0BB8E4"/>
</g>
<defs>
<linearGradient id="paint0_linear_223_389" x1="16" y1="0" x2="16" y2="32" gradientUnits="userSpaceOnUse">
<stop stop-color="#0BB8E4"/>
<stop offset="1" stop-color="#3D90D9"/>
</linearGradient>
<clipPath id="clip0_223_389">
<rect width="18" height="18" fill="white" transform="translate(7 7)"/>
</clipPath>
</defs>
</svg>
