<svg width="32" height="32" viewBox="0 0 32 32" fill="none" xmlns="http://www.w3.org/2000/svg">
<circle cx="16" cy="16" r="16" fill="url(#paint0_linear_223_390)"/>
<g clip-path="url(#clip0_223_390)">
<path d="M13.375 13.75H13V14.5H13.375C13.5815 14.5 13.75 14.3319 13.75 14.125C13.75 13.9181 13.5815 13.75 13.375 13.75Z" fill="white"/>
<path d="M24.8901 14.6099L21.1401 10.8599C21.0698 10.7896 20.9746 10.75 20.875 10.75H17.5V9.62501C17.5 9.41773 17.3323 9.25 17.125 9.25H8.50001C7.6731 9.25 7 9.92271 7 10.75V20.125C7 20.7454 7.50463 21.25 8.125 21.25H9.01326C9.32383 22.1211 10.1486 22.75 11.125 22.75C12.1015 22.75 12.9262 22.1211 13.2368 21.25H18.7632C19.0739 22.1211 19.8985 22.75 20.875 22.75C21.8515 22.75 22.6762 22.1211 22.9868 21.25H23.5C24.3269 21.25 25 20.5773 25 19.75V14.875C25 14.7754 24.9604 14.6802 24.8901 14.6099ZM9.25 16.375V13.375C9.25 13.1677 9.41773 13 9.62501 13H11.125C11.3323 13 11.5 13.1677 11.5 13.375C11.5 13.5823 11.3323 13.75 11.125 13.75H10V14.5H10.75C10.9573 14.5 11.125 14.6678 11.125 14.875C11.125 15.0823 10.9573 15.25 10.75 15.25H9.99999V16.375C9.99999 16.5823 9.83226 16.7501 9.62498 16.7501C9.41773 16.75 9.25 16.5823 9.25 16.375ZM11.125 22C10.2981 22 9.62498 21.3273 9.62498 20.5C9.62498 19.6727 10.2981 19 11.125 19C11.9519 19 12.625 19.6727 12.625 20.5C12.625 21.3273 11.9519 22 11.125 22ZM14.5 15.625V16.375C14.5 16.5823 14.3323 16.75 14.125 16.75C13.9177 16.75 13.75 16.5823 13.75 16.375V15.625C13.75 15.4181 13.5815 15.25 13.375 15.25H12.9999V16.375C12.9999 16.5823 12.8322 16.75 12.6249 16.75C12.4176 16.75 12.2499 16.5823 12.2499 16.375V13.375C12.2499 13.1677 12.4176 13 12.6249 13H13.3749C13.9953 13 14.4999 13.5046 14.4999 14.125C14.4999 14.4128 14.3915 14.6758 14.2128 14.875C14.3916 15.0742 14.5 15.3372 14.5 15.625ZM16.75 14.5C16.9573 14.5 17.125 14.6677 17.125 14.875C17.125 15.0823 16.9573 15.25 16.75 15.25H16V16H17.125C17.3323 16 17.5 16.1677 17.5 16.375C17.5 16.5823 17.3323 16.75 17.125 16.75H15.625C15.4177 16.75 15.25 16.5823 15.25 16.375V13.375C15.25 13.1677 15.4177 13 15.625 13H17.125C17.3323 13 17.5 13.1677 17.5 13.375C17.5 13.5823 17.3323 13.75 17.125 13.75H16V14.5H16.75V14.5ZM18.625 16.75C18.4177 16.75 18.25 16.5823 18.25 16.375V13.375C18.25 13.1677 18.4177 13 18.625 13H20.125C20.3323 13 20.5 13.1677 20.5 13.375C20.5 13.5823 20.3323 13.75 20.125 13.75H19V14.5H19.75C19.9573 14.5 20.125 14.6677 20.125 14.875C20.125 15.0823 19.9573 15.25 19.75 15.25H19V16H20.125C20.3323 16 20.5 16.1677 20.5 16.375C20.5 16.5823 20.3323 16.75 20.125 16.75H18.625V16.75ZM20.875 22C20.0481 22 19.375 21.3273 19.375 20.5C19.375 19.6727 20.0481 19 20.875 19C21.7019 19 22.375 19.6727 22.375 20.5C22.375 21.3273 21.7019 22 20.875 22Z" fill="white"/>
</g>
<defs>
<linearGradient id="paint0_linear_223_390" x1="16" y1="0" x2="16" y2="32" gradientUnits="userSpaceOnUse">
<stop stop-color="#0BB8E4"/>
<stop offset="1" stop-color="#3D90D9"/>
</linearGradient>
<clipPath id="clip0_223_390">
<rect width="18" height="18" fill="white" transform="translate(7 7)"/>
</clipPath>
</defs>
</svg>
