<svg width="32" height="32" viewBox="0 0 32 32" fill="none" xmlns="http://www.w3.org/2000/svg">
<circle cx="16" cy="16" r="16" fill="url(#paint0_linear_223_259)"/>
<g clip-path="url(#clip0_223_259)">
<path d="M17.6923 14.6923H22V12.6923C22 11.4199 20.9648 10.3846 19.6923 10.3846H8.30769C7.03522 10.3846 6 11.4199 6 12.6923V21.3077C6 22.5802 7.03522 23.6154 8.30769 23.6154H19.6923C20.9648 23.6154 22 22.5802 22 21.3077V19.3077H17.6923C16.4198 19.3077 15.3846 18.2725 15.3846 17C15.3846 15.7275 16.4198 14.6923 17.6923 14.6923Z" fill="white"/>
<path d="M17.6923 15.6154C16.9289 15.6154 16.3077 16.2365 16.3077 17C16.3077 17.7635 16.9288 18.3846 17.6923 18.3846H22V15.6154H17.6923V15.6154ZM18.3077 17.4615H17.6923C17.4374 17.4615 17.2308 17.2549 17.2308 17C17.2308 16.7451 17.4375 16.5384 17.6923 16.5384H18.3077C18.5626 16.5384 18.7692 16.7451 18.7692 17C18.7692 17.2549 18.5626 17.4615 18.3077 17.4615Z" fill="#0BB8E4"/>
</g>
<path d="M23.4009 12H24.5947V9.59467H27V8.40089H24.5947V6H23.4009V8.40089H21V9.59467H23.4009V12Z" fill="white"/>
<defs>
<linearGradient id="paint0_linear_223_259" x1="16" y1="0" x2="16" y2="32" gradientUnits="userSpaceOnUse">
<stop stop-color="#0BB8E4"/>
<stop offset="1" stop-color="#3D90D9"/>
</linearGradient>
<clipPath id="clip0_223_259">
<rect width="16" height="16" fill="white" transform="translate(6 9)"/>
</clipPath>
</defs>
</svg>
