<svg width="64" height="40" viewBox="0 0 64 40" fill="none" xmlns="http://www.w3.org/2000/svg">
<rect width="64" height="40" rx="4" fill="#E8EBEE"/>
<path d="M20.9712 27.0858V21.4338H26.9408L27.5812 22.2708L28.2429 21.4338H49.9108V26.696C49.9108 26.696 49.3441 27.0802 48.6888 27.0858H36.6908L35.9687 26.1949V27.0858H33.6024V25.5649C33.6024 25.5649 33.2792 25.7772 32.5804 25.7772H31.775V27.0858H28.1922L27.5527 26.2309L26.9033 27.0858H20.9712Z" fill="white"/>
<path d="M14 17.174L15.3462 14.0278H17.6742L18.4381 15.7902V14.0278H21.3321L21.7869 15.3016L22.2278 14.0278H35.2186V14.6682C35.2186 14.6682 35.9016 14.0278 37.0239 14.0278L41.2389 14.0426L41.9897 15.7819V14.0278H44.4115L45.0781 15.0269V14.0278H47.5221V19.6798H45.0781L44.4393 18.6775V19.6798H40.8811L40.5233 18.7888H39.5667L39.2147 19.6798H36.8017C35.836 19.6798 35.2186 19.0525 35.2186 19.0525V19.6798H31.5804L30.8583 18.7888V19.6798H17.3293L16.9717 18.7888H16.0182L15.6632 19.6798H14V17.174Z" fill="white"/>
<path d="M15.8222 14.7246L14.0065 18.9566H15.1886L15.5236 18.1092H17.4712L17.8045 18.9566H19.0126L17.1987 14.7246H15.8222ZM16.4939 15.7095L17.0876 17.1904H15.8985L16.4939 15.7095Z" fill="#016FD0"/>
<path d="M19.138 18.9559V14.7239L20.8178 14.7301L21.7948 17.4587L22.7485 14.7239H24.4149V18.9559H23.3595V15.8376L22.2408 18.9559H21.3152L20.1933 15.8376V18.9559H19.138Z" fill="#016FD0"/>
<path d="M25.1367 18.9559V14.7239H28.5806V15.6705H26.2032V16.3944H28.525V17.2854H26.2032V18.0371H28.5806V18.9559H25.1367Z" fill="#016FD0"/>
<path d="M29.1917 14.7246V18.9566H30.2471V17.4531H30.6914L31.9568 18.9566H33.2466L31.8579 17.3975C32.4278 17.3493 33.0157 16.8589 33.0157 16.0976C33.0157 15.207 32.3184 14.7246 31.5402 14.7246H29.1917ZM30.2471 15.6712H31.4535C31.7429 15.6712 31.9534 15.8982 31.9534 16.1167C31.9534 16.3979 31.6806 16.5622 31.4691 16.5622H30.2471V15.6712Z" fill="#016FD0"/>
<path d="M34.5243 18.9559H33.4467V14.7239H34.5243V18.9559Z" fill="#016FD0"/>
<path d="M37.0796 18.9559H36.847C35.7215 18.9559 35.0382 18.067 35.0382 16.8573C35.0382 15.6177 35.7139 14.7239 37.1351 14.7239H38.3016V15.7262H37.0925C36.5155 15.7262 36.1075 16.1776 36.1075 16.8677C36.1075 17.6873 36.5741 18.0315 37.2462 18.0315H37.5239L37.0796 18.9559Z" fill="#016FD0"/>
<path d="M39.3758 14.7246L37.5601 18.9566H38.7422L39.0772 18.1092H41.0248L41.3581 18.9566H42.5662L40.7523 14.7246H39.3758ZM40.0475 15.7095L40.6412 17.1904H39.4522L40.0475 15.7095Z" fill="#016FD0"/>
<path d="M42.6898 18.9559V14.7239H44.0316L45.7449 17.3828V14.7239H46.8002V18.9559H45.5018L43.7452 16.2274V18.9559H42.6898Z" fill="#016FD0"/>
<path d="M21.6929 26.3619V22.1299H25.1368V23.0765H22.7594V23.8004H25.0812V24.6914H22.7594V25.4431H25.1368V26.3619H21.6929Z" fill="#016FD0"/>
<path d="M38.5684 26.3619V22.1299H42.0122V23.0765H39.6348V23.8004H41.9456V24.6914H39.6348V25.4431H42.0122V26.3619H38.5684Z" fill="#016FD0"/>
<path d="M25.2707 26.3619L26.9475 24.272L25.2307 22.1299H26.5604L27.5828 23.4541L28.6086 22.1299H29.8862L28.192 24.2459L29.8719 26.3619H28.5425L27.5498 25.0585L26.5812 26.3619H25.2707Z" fill="#016FD0"/>
<path d="M29.9974 22.1306V26.3626H31.0806V25.0262H32.1915C33.1315 25.0262 33.844 24.5263 33.844 23.554C33.844 22.7487 33.2852 22.1306 32.3286 22.1306H29.9974ZM31.0806 23.0877H32.2505C32.5542 23.0877 32.7712 23.2743 32.7712 23.5749C32.7712 23.8574 32.5553 24.0622 32.247 24.0622H31.0806V23.0877Z" fill="#016FD0"/>
<path d="M34.3025 22.1299V26.3619H35.3579V24.8584H35.8023L37.0677 26.3619H38.3574L36.9687 24.8027C37.5387 24.7545 38.1265 24.2642 38.1265 23.5029C38.1265 22.6123 37.4293 22.1299 36.6511 22.1299H34.3025ZM35.3579 23.0765H36.5643C36.8537 23.0765 37.0642 23.3035 37.0642 23.522C37.0642 23.8032 36.7914 23.9675 36.5799 23.9675H35.3579V23.0765Z" fill="#016FD0"/>
<path d="M42.501 26.3619V25.4431H44.6132C44.9257 25.4431 45.061 25.2738 45.061 25.0881C45.061 24.9102 44.9261 24.7304 44.6132 24.7304H43.6587C42.8291 24.7304 42.367 24.2236 42.367 23.4628C42.367 22.7843 42.7902 22.1299 44.023 22.1299H46.0782L45.6338 23.0821H43.8564C43.5166 23.0821 43.412 23.2608 43.412 23.4315C43.412 23.607 43.5413 23.8004 43.8008 23.8004H44.8007C45.7255 23.8004 46.1268 24.3263 46.1268 25.015C46.1268 25.7555 45.6796 26.3619 44.7503 26.3619H42.501Z" fill="#016FD0"/>
<path d="M46.3739 26.3619V25.4431H48.4861C48.7986 25.4431 48.9339 25.2738 48.9339 25.0881C48.9339 24.9102 48.799 24.7304 48.4861 24.7304H47.5316C46.702 24.7304 46.2399 24.2236 46.2399 23.4628C46.2399 22.7843 46.6631 22.1299 47.8959 22.1299H49.9511L49.5067 23.0821H47.7293C47.3895 23.0821 47.2849 23.2608 47.2849 23.4315C47.2849 23.607 47.4141 23.8004 47.6737 23.8004H48.6736C49.5984 23.8004 49.9997 24.3263 49.9997 25.015C49.9997 25.7555 49.5525 26.3619 48.6232 26.3619H46.3739Z" fill="#016FD0"/>
</svg>
