<svg width="40" height="40" viewBox="0 0 40 40" fill="none" xmlns="http://www.w3.org/2000/svg">
<rect width="40" height="40" rx="8" fill="#0BB8E4"/>
<g clip-path="url(#clip0_209_2816)">
<path d="M25.5385 16.5384H32V13.5384C32 11.6297 30.4472 10.0769 28.5385 10.0769H11.4615C9.55283 10.0769 8 11.6297 8 13.5384V26.4615C8 28.3702 9.55283 29.923 11.4615 29.923H28.5385C30.4472 29.923 32 28.3702 32 26.4615V23.4615H25.5385C23.6298 23.4615 22.0769 21.9087 22.0769 20C22.0769 18.0913 23.6298 16.5384 25.5385 16.5384Z" fill="white"/>
<path d="M25.5385 17.9231C24.3933 17.9231 23.4616 18.8548 23.4616 20C23.4616 21.1453 24.3933 22.077 25.5385 22.077H32V17.9231H25.5385V17.9231ZM26.4616 20.6923H25.5385C25.1562 20.6923 24.8462 20.3823 24.8462 20C24.8462 19.6177 25.1562 19.3077 25.5385 19.3077H26.4616C26.8439 19.3077 27.1539 19.6177 27.1539 20C27.1539 20.3823 26.8439 20.6923 26.4616 20.6923Z" fill="#87DDF3"/>
</g>
<defs>
<clipPath id="clip0_209_2816">
<rect width="24" height="24" fill="white" transform="translate(8 8)"/>
</clipPath>
</defs>
</svg>
