<svg width="60" height="95" viewBox="0 0 60 95" fill="none" xmlns="http://www.w3.org/2000/svg">
<path d="M30 20C24.4858 20 20 24.4858 20 30C20 35.5142 24.4858 40 30 40C35.5142 40 40 35.5142 40 30C40 24.4858 35.5142 20 30 20Z" fill="#F26333"/>
<path d="M35.0684 27.8809L29.6516 33.2974C29.4891 33.4599 29.2758 33.5417 29.0625 33.5417C28.8492 33.5417 28.6359 33.4599 28.4734 33.2974L25.7651 30.5891C25.4391 30.2634 25.4391 29.7366 25.7651 29.4109C26.0909 29.0849 26.6174 29.0849 26.9434 29.4109L29.0625 31.53L33.8901 26.7026C34.2159 26.3766 34.7424 26.3766 35.0684 26.7026C35.3941 27.0284 35.3941 27.5549 35.0684 27.8809Z" fill="#FAFAFA"/>
<path d="M20.75 65C20.75 59.9 24.9 55.75 30 55.75C35.1 55.75 39.25 59.9 39.25 65C39.25 70.1 35.1 74.25 30 74.25C24.9 74.25 20.75 70.1 20.75 65Z" stroke="#A7AAB2" stroke-width="1.5"/>
<rect x="0.5" y="0.5" width="59" height="94" rx="4.5" stroke="#7B61FF" stroke-dasharray="10 5"/>
</svg>
