<svg width="64" height="40" viewBox="0 0 64 40" fill="none" xmlns="http://www.w3.org/2000/svg">
<rect width="64" height="40" rx="4" fill="#E8EBEE"/>
<path d="M20 14C20 13.2044 20.3161 12.4413 20.8787 11.8787C21.4413 11.3161 22.2044 11 23 11H41C41.7956 11 42.5587 11.3161 43.1213 11.8787C43.6839 12.4413 44 13.2044 44 14V21.5H20V14ZM37.25 15.5C37.0511 15.5 36.8603 15.579 36.7197 15.7197C36.579 15.8603 36.5 16.0511 36.5 16.25V17.75C36.5 17.9489 36.579 18.1397 36.7197 18.2803C36.8603 18.421 37.0511 18.5 37.25 18.5H40.25C40.4489 18.5 40.6397 18.421 40.7803 18.2803C40.921 18.1397 41 17.9489 41 17.75V16.25C41 16.0511 40.921 15.8603 40.7803 15.7197C40.6397 15.579 40.4489 15.5 40.25 15.5H37.25ZM20 24.5V26C20 26.7956 20.3161 27.5587 20.8787 28.1213C21.4413 28.6839 22.2044 29 23 29H41C41.7956 29 42.5587 28.6839 43.1213 28.1213C43.6839 27.5587 44 26.7956 44 26V24.5H20Z" fill="#363D4E"/>
</svg>
