<svg width="36" height="36" viewBox="0 0 36 36" fill="none" xmlns="http://www.w3.org/2000/svg">
<rect width="36" height="36" rx="6" fill="#0BB8E4"/>
<g clip-path="url(#clip0_197_6899)">
<path d="M15.0607 27.375C14.764 27.375 14.4673 27.3175 14.1882 27.2025C13.6073 26.9617 13.1473 26.4858 12.9265 25.8967L12.3332 24.315C12.2207 24.015 11.9848 23.7792 11.6857 23.6667L10.1032 23.0733C9.51485 22.8525 9.03901 22.3925 8.79818 21.8117C8.55735 21.2308 8.56818 20.5683 8.82901 19.9958L9.52818 18.4583C9.65985 18.1675 9.65985 17.8333 9.52818 17.5417L8.82901 16.0033C8.56818 15.4317 8.55735 14.7692 8.79735 14.1883C9.03735 13.6075 9.51401 13.1475 10.1032 12.9267L11.6848 12.3333C11.9848 12.2208 12.2207 11.985 12.3332 11.685L12.9265 10.1025C13.1473 9.51415 13.6073 9.03832 14.1882 8.79748C14.769 8.55748 15.4315 8.56748 16.004 8.82832L17.5415 9.52748C17.8323 9.65915 18.1657 9.65915 18.4582 9.52748L19.9965 8.82832C20.5682 8.56748 21.2307 8.55665 21.8115 8.79748C22.3923 9.03832 22.8523 9.51415 23.0732 10.1033L23.6665 11.685C23.779 11.985 24.0148 12.2208 24.314 12.3333L25.8965 12.9267C26.4848 13.1475 26.9607 13.6075 27.2015 14.1883C27.4424 14.7692 27.4315 15.4317 27.1707 16.0042L26.4715 17.5417C26.3398 17.8325 26.3398 18.1667 26.4715 18.4583L27.1698 19.9967C27.4307 20.5692 27.4415 21.2308 27.2007 21.8117C26.9599 22.3925 26.484 22.8525 25.8948 23.0733L24.3148 23.6667C24.0148 23.7792 23.779 24.015 23.6665 24.3142L23.0732 25.8967C22.8523 26.485 22.3923 26.9608 21.8115 27.2017C21.2298 27.4417 20.5682 27.4317 19.9957 27.1708L18.4582 26.4717C18.1665 26.34 17.8332 26.3392 17.5415 26.4717L16.0032 27.17C15.7057 27.3067 15.3823 27.375 15.0607 27.375ZM18.7007 10.0608H18.7082H18.7007Z" fill="#E5F9FE"/>
<path d="M15.0833 15.7084C14.2792 15.7084 13.625 15.0542 13.625 14.25C13.625 13.4459 14.2792 12.7917 15.0833 12.7917C15.8875 12.7917 16.5417 13.4459 16.5417 14.25C16.5417 15.0542 15.8875 15.7084 15.0833 15.7084Z" fill="white"/>
<path d="M20.9171 23.1392C20.1512 23.1392 19.5279 22.5158 19.5279 21.75C19.5279 20.9842 20.1512 20.3608 20.9171 20.3608C21.6829 20.3608 22.3062 20.9842 22.3062 21.75C22.3062 22.5158 21.6829 23.1392 20.9171 23.1392Z" fill="white"/>
<path d="M14.865 27.9995C14.5484 27.9995 14.2317 27.9378 13.935 27.8153C13.315 27.5586 12.8242 27.0511 12.5892 26.4228L11.9559 24.7361C11.8359 24.4161 11.5842 24.1645 11.265 24.0445L9.57752 23.4111C8.95002 23.1761 8.44252 22.6853 8.18585 22.0653C7.92919 21.4453 7.94085 20.7395 8.21919 20.1286L8.96502 18.4886C9.10585 18.1778 9.10585 17.822 8.96502 17.5111L8.21835 15.8711C7.94085 15.2611 7.92835 14.5545 8.18502 13.9353C8.44169 13.3161 8.95002 12.8245 9.57835 12.5895L11.265 11.9561C11.585 11.8361 11.8367 11.5845 11.9567 11.2653L12.59 9.57781C12.825 8.95031 13.3159 8.44281 13.9359 8.18614C14.5559 7.92948 15.2617 7.94114 15.8725 8.21948L17.5125 8.96531C17.8234 9.10531 18.1784 9.10531 18.49 8.96531L20.1309 8.21948C20.7409 7.94114 21.4475 7.93031 22.0667 8.18614C22.6867 8.44281 23.1775 8.95031 23.4125 9.57864L24.0459 11.2653C24.1659 11.5853 24.4175 11.837 24.7367 11.957L26.4242 12.5903C27.0517 12.8253 27.5592 13.3161 27.8159 13.9361C28.0725 14.5561 28.0609 15.262 27.7825 15.8728L27.0367 17.5128C26.8959 17.8236 26.8959 18.1795 27.0367 18.4903L27.7817 20.1311C28.0592 20.7411 28.0717 21.4478 27.815 22.067C27.5584 22.6861 27.0509 23.1778 26.4225 23.4128L24.7359 24.0461C24.4159 24.1661 24.1642 24.4178 24.0442 24.737L23.4109 26.4245C23.1759 27.052 22.685 27.5595 22.065 27.8161C21.445 28.0728 20.7392 28.0611 20.1284 27.7828L18.4884 27.037C18.1775 26.8961 17.8217 26.8961 17.5109 27.037L15.87 27.782C15.5525 27.927 15.2084 27.9995 14.865 27.9995ZM14.8659 9.25031C14.7125 9.25031 14.56 9.28031 14.4134 9.34114C14.1075 9.46698 13.875 9.70781 13.7592 10.017L13.1259 11.7045C12.8792 12.3611 12.3609 12.8795 11.7034 13.1261L10.0167 13.7595C9.70752 13.8753 9.46669 14.1078 9.34002 14.4136C9.21419 14.7186 9.21919 15.0528 9.35585 15.3536L10.1017 16.9945C10.3925 17.6336 10.3925 18.3661 10.1017 19.0053L9.35585 20.6461C9.21919 20.947 9.21335 21.282 9.34002 21.587C9.46669 21.8928 9.70669 22.1253 10.0167 22.2411L11.7042 22.8745C12.3617 23.1211 12.88 23.6395 13.1267 24.297L13.76 25.9836C13.8759 26.2936 14.1084 26.5336 14.4142 26.6603C14.7192 26.7861 15.0534 26.782 15.3542 26.6445L16.995 25.8986C17.6342 25.6078 18.3667 25.6086 19.0059 25.8986L20.6467 26.6445C20.9484 26.782 21.2825 26.7861 21.5875 26.6603C21.8934 26.5336 22.1259 26.2936 22.2417 25.9836L22.875 24.2961C23.1217 23.6386 23.64 23.1203 24.2975 22.8736L25.9842 22.2403C26.2942 22.1245 26.5342 21.892 26.6609 21.5861C26.7875 21.2811 26.7817 20.9461 26.645 20.6461L25.8992 19.0053C25.6084 18.3661 25.6084 17.6336 25.8992 16.9945L26.645 15.3536C26.7817 15.0528 26.7875 14.7178 26.6609 14.4128C26.5342 14.107 26.2942 13.8745 25.9842 13.7586L24.2967 13.1253C23.6392 12.8786 23.1209 12.3603 22.8742 11.7028L22.2409 10.0161C22.125 9.70614 21.8925 9.46614 21.5867 9.33948C21.2817 9.21364 20.9475 9.21864 20.6467 9.35531L19.0059 10.1011C18.3667 10.3911 17.6342 10.3911 16.995 10.1011L15.3542 9.35614C15.1967 9.28531 15.0317 9.25031 14.8659 9.25031ZM18.7467 9.53281H18.755H18.7467Z" fill="#E5F9FE"/>
<path d="M15.0833 16.3334C13.935 16.3334 13 15.3984 13 14.25C13 13.1017 13.935 12.1667 15.0833 12.1667C16.2317 12.1667 17.1667 13.1017 17.1667 14.25C17.1667 15.3984 16.2317 16.3334 15.0833 16.3334ZM15.0833 13.4167C14.6242 13.4167 14.25 13.7909 14.25 14.25C14.25 14.7092 14.6242 15.0834 15.0833 15.0834C15.5425 15.0834 15.9167 14.7092 15.9167 14.25C15.9167 13.7909 15.5425 13.4167 15.0833 13.4167Z" fill="#0BB8E4"/>
<path d="M20.9169 23.8334C19.7686 23.8334 18.8336 22.8984 18.8336 21.75C18.8336 20.6017 19.7686 19.6667 20.9169 19.6667C22.0653 19.6667 23.0003 20.6017 23.0003 21.75C23.0003 22.8984 22.0653 23.8334 20.9169 23.8334ZM20.9169 20.9167C20.4578 20.9167 20.0836 21.2909 20.0836 21.75C20.0836 22.2092 20.4578 22.5834 20.9169 22.5834C21.3761 22.5834 21.7503 22.2092 21.7503 21.75C21.7503 21.2909 21.3761 20.9167 20.9169 20.9167Z" fill="#0BB8E4"/>
<path d="M15.2918 23C15.1793 23 15.0659 22.97 14.9634 22.9067C14.6693 22.725 14.5793 22.34 14.7609 22.0467L20.1776 13.2967C20.3593 13.0025 20.7459 12.9125 21.0376 13.0942C21.3318 13.2758 21.4218 13.6608 21.2401 13.9542L15.8234 22.7042C15.7051 22.895 15.5001 23 15.2918 23Z" fill="#0BB8E4"/>
</g>
<defs>
<clipPath id="clip0_197_6899">
<rect width="20" height="20" fill="white" transform="translate(8 8)"/>
</clipPath>
</defs>
</svg>
