<svg width="36" height="36" viewBox="0 0 36 36" fill="none" xmlns="http://www.w3.org/2000/svg">
<rect width="36" height="36" rx="6" fill="#0BB8E4"/>
<g clip-path="url(#clip0_197_7643)">
<path d="M15.0833 15.5H14.6666V16.3333H15.0833C15.3128 16.3333 15.5 16.1466 15.5 15.9166C15.5 15.6868 15.3128 15.5 15.0833 15.5Z" fill="#E5F9FE"/>
<path d="M27.8779 16.4554L23.7113 12.2887C23.6331 12.2106 23.5273 12.1667 23.4166 12.1667H19.6666V10.9167C19.6667 10.6864 19.4803 10.5 19.25 10.5H9.66668C8.74789 10.5 8 11.2475 8 12.1667V22.5834C8 23.2727 8.5607 23.8334 9.25 23.8334H10.237C10.582 24.8013 11.4984 25.5 12.5833 25.5C13.6683 25.5 14.5846 24.8013 14.9298 23.8333H21.0703C21.4154 24.8013 22.3317 25.5 23.4167 25.5C24.5016 25.5 25.418 24.8013 25.7631 23.8333H26.3334C27.2521 23.8333 28 23.0859 28 22.1666V16.75C28 16.6393 27.9561 16.5335 27.8779 16.4554ZM10.5 18.4167V15.0834C10.5 14.853 10.6864 14.6667 10.9167 14.6667H12.5834C12.8137 14.6667 13 14.853 13 15.0834C13 15.3137 12.8137 15.5 12.5834 15.5H11.3334V16.3334H12.1667C12.397 16.3334 12.5834 16.5197 12.5834 16.75C12.5834 16.9804 12.397 17.1667 12.1667 17.1667H11.3333V18.4167C11.3333 18.647 11.147 18.8334 10.9166 18.8334C10.6864 18.8333 10.5 18.647 10.5 18.4167ZM12.5833 24.6667C11.6645 24.6667 10.9166 23.9192 10.9166 23C10.9166 22.0808 11.6645 21.3333 12.5833 21.3333C13.5021 21.3333 14.25 22.0808 14.25 23C14.25 23.9192 13.5021 24.6667 12.5833 24.6667ZM16.3333 17.5833V18.4166C16.3333 18.647 16.147 18.8333 15.9166 18.8333C15.6863 18.8333 15.5 18.647 15.5 18.4166V17.5833C15.5 17.3534 15.3128 17.1666 15.0833 17.1666H14.6666V18.4166C14.6666 18.647 14.4802 18.8333 14.2499 18.8333C14.0196 18.8333 13.8332 18.647 13.8332 18.4166V15.0833C13.8332 14.853 14.0196 14.6666 14.2499 14.6666H15.0832C15.7725 14.6666 16.3332 15.2273 16.3332 15.9166C16.3332 16.2365 16.2128 16.5286 16.0142 16.75C16.2129 16.9714 16.3333 17.2635 16.3333 17.5833ZM18.8333 16.3333C19.0636 16.3333 19.25 16.5197 19.25 16.75C19.25 16.9803 19.0636 17.1667 18.8333 17.1667H18V18H19.25C19.4803 18 19.6667 18.1864 19.6667 18.4167C19.6667 18.647 19.4803 18.8334 19.25 18.8334H17.5833C17.353 18.8334 17.1666 18.647 17.1666 18.4167V15.0834C17.1666 14.853 17.353 14.6667 17.5833 14.6667H19.25C19.4803 14.6667 19.6667 14.853 19.6667 15.0834C19.6667 15.3137 19.4803 15.5 19.25 15.5H18V16.3334H18.8333V16.3333ZM20.9167 18.8333C20.6864 18.8333 20.5 18.647 20.5 18.4166V15.0833C20.5 14.853 20.6864 14.6666 20.9167 14.6666H22.5834C22.8137 14.6666 23 14.853 23 15.0833C23 15.3136 22.8137 15.5 22.5834 15.5H21.3334V16.3333H22.1667C22.397 16.3333 22.5834 16.5197 22.5834 16.75C22.5834 16.9803 22.397 17.1667 22.1667 17.1667H21.3334V18H22.5834C22.8137 18 23 18.1864 23 18.4167C23 18.647 22.8137 18.8334 22.5834 18.8334H20.9167V18.8333ZM23.4167 24.6667C22.4979 24.6667 21.75 23.9192 21.75 23C21.75 22.0808 22.4979 21.3333 23.4167 21.3333C24.3355 21.3333 25.0834 22.0808 25.0834 23C25.0834 23.9192 24.3355 24.6667 23.4167 24.6667Z" fill="#E5F9FE"/>
</g>
<defs>
<clipPath id="clip0_197_7643">
<rect width="20" height="20" fill="white" transform="translate(8 8)"/>
</clipPath>
</defs>
</svg>
