<svg width="64" height="40" viewBox="0 0 64 40" fill="none" xmlns="http://www.w3.org/2000/svg">
<rect width="64" height="40" rx="4" fill="#E8EBEE"/>
<g clip-path="url(#clip0_56_2825)">
<path fill-rule="evenodd" clip-rule="evenodd" d="M27.7347 27.8362H36.4331V12.135H27.7347V27.8362Z" fill="#FF5F00"/>
<path fill-rule="evenodd" clip-rule="evenodd" d="M28.287 19.9856C28.287 16.8002 29.7718 13.9632 32.0839 12.135C30.3928 10.7977 28.2593 10 25.9403 10C20.4504 10 16.0001 14.4708 16.0001 19.9856C16.0001 25.5004 20.4504 29.9712 25.9403 29.9712C28.2593 29.9712 30.3928 29.1734 32.0839 27.8362C29.7718 26.0077 28.287 23.171 28.287 19.9856Z" fill="#EB001B"/>
<path fill-rule="evenodd" clip-rule="evenodd" d="M47.8571 26.1732V25.7857H47.7563L47.6406 26.0523L47.5246 25.7857H47.4238V26.1732H47.4948V25.8809L47.6036 26.133H47.6773L47.7861 25.8803V26.1732H47.8571ZM47.2189 26.1732V25.8517H47.3482V25.7863H47.0196V25.8517H47.1485V26.1732H47.2189ZM48.1675 19.9855C48.1675 25.5003 43.7169 29.9711 38.2273 29.9711C35.9083 29.9711 33.7745 29.1733 32.0837 27.8361C34.3959 26.0079 35.8807 23.1709 35.8807 19.9855C35.8807 16.8003 34.3959 13.9633 32.0837 12.1349C33.7745 10.7976 35.9083 9.99988 38.2273 9.99988C43.7169 9.99988 48.1675 14.4706 48.1675 19.9855Z" fill="#F79E1B"/>
</g>
<defs>
<clipPath id="clip0_56_2825">
<rect width="32.5" height="20" fill="white" transform="translate(16 10)"/>
</clipPath>
</defs>
</svg>
