<svg width="32" height="32" viewBox="0 0 32 32" fill="none" xmlns="http://www.w3.org/2000/svg">
<circle cx="16" cy="16" r="16" fill="url(#paint0_linear_223_237)"/>
<path fill-rule="evenodd" clip-rule="evenodd" d="M18.8125 10.9375C18.8125 10.1916 18.5162 9.47621 17.9887 8.94876C17.4613 8.42132 16.7459 8.125 16 8.125C15.2541 8.125 14.5387 8.42132 14.0113 8.94876C13.4838 9.47621 13.1875 10.1916 13.1875 10.9375V11.5H18.8125V10.9375ZM19.9375 10.9375V11.5H23.875V22.75C23.875 23.3467 23.6379 23.919 23.216 24.341C22.794 24.7629 22.2217 25 21.625 25H10.375C9.77826 25 9.20597 24.7629 8.78401 24.341C8.36205 23.919 8.125 23.3467 8.125 22.75V11.5H12.0625V10.9375C12.0625 9.89321 12.4773 8.89169 13.2158 8.15327C13.9542 7.41484 14.9557 7 16 7C17.0443 7 18.0458 7.41484 18.7842 8.15327C19.5227 8.89169 19.9375 9.89321 19.9375 10.9375ZM19.2108 16.9608C19.3164 16.8551 19.3757 16.7119 19.3757 16.5625C19.3757 16.4131 19.3164 16.2699 19.2108 16.1642C19.1051 16.0586 18.9619 15.9993 18.8125 15.9993C18.6631 15.9993 18.5199 16.0586 18.4142 16.1642L15.4375 19.1421L14.1483 17.8517C14.096 17.7995 14.0339 17.758 13.9655 17.7297C13.8972 17.7014 13.824 17.6868 13.75 17.6868C13.676 17.6868 13.6028 17.7014 13.5345 17.7297C13.4661 17.758 13.404 17.7995 13.3517 17.8517C13.2995 17.904 13.258 17.9661 13.2297 18.0345C13.2014 18.1028 13.1868 18.176 13.1868 18.25C13.1868 18.324 13.2014 18.3972 13.2297 18.4655C13.258 18.5339 13.2995 18.596 13.3517 18.6483L15.0392 20.3358C15.0915 20.3881 15.1536 20.4297 15.2219 20.4581C15.2903 20.4864 15.3635 20.501 15.4375 20.501C15.5115 20.501 15.5847 20.4864 15.6531 20.4581C15.7214 20.4297 15.7835 20.3881 15.8358 20.3358L19.2108 16.9608Z" fill="white"/>
<defs>
<linearGradient id="paint0_linear_223_237" x1="16" y1="0" x2="16" y2="32" gradientUnits="userSpaceOnUse">
<stop stop-color="#0BB8E4"/>
<stop offset="1" stop-color="#3D90D9"/>
</linearGradient>
</defs>
</svg>
