<svg width="64" height="40" viewBox="0 0 64 40" fill="none" xmlns="http://www.w3.org/2000/svg">
<rect width="64" height="40" rx="4" fill="#E8EBEE"/>
<path d="M25.8879 16.6125H23.2406C23.1529 16.6125 23.0681 16.6437 23.0015 16.7007C22.9348 16.7576 22.8907 16.8364 22.8771 16.923L21.8064 23.7115C21.8014 23.743 21.8034 23.7752 21.8121 23.8059C21.8208 23.8366 21.8361 23.865 21.8568 23.8892C21.8776 23.9134 21.9033 23.9328 21.9323 23.9461C21.9613 23.9594 21.9928 23.9663 22.0247 23.9662H23.2885C23.3762 23.9663 23.4611 23.935 23.5277 23.878C23.5944 23.821 23.6385 23.742 23.652 23.6554L23.9408 21.8244C23.9544 21.7378 23.9984 21.659 24.065 21.602C24.1315 21.545 24.2163 21.5136 24.3039 21.5136H25.142C26.8858 21.5136 27.8923 20.6697 28.1551 18.9975C28.2736 18.2658 28.1602 17.691 27.8176 17.2884C27.4413 16.8464 26.774 16.6125 25.8879 16.6125ZM26.1933 19.0919C26.0486 20.0418 25.3227 20.0418 24.6209 20.0418H24.2215L24.5017 18.2678C24.5099 18.2159 24.5364 18.1686 24.5763 18.1345C24.6163 18.1003 24.6671 18.0816 24.7196 18.0816H24.9027C25.3808 18.0816 25.8318 18.0816 26.0648 18.3541C26.2038 18.5167 26.2464 18.7582 26.1933 19.0919ZM33.8013 19.0613H32.5336C32.481 19.0613 32.4302 19.0801 32.3903 19.1142C32.3503 19.1483 32.3239 19.1956 32.3156 19.2475L32.2595 19.6021L32.1709 19.4736C31.8964 19.0753 31.2844 18.9421 30.6736 18.9421C29.2727 18.9421 28.0762 20.0031 27.8431 21.4915C27.722 22.234 27.8942 22.9439 28.3154 23.439C28.7017 23.8942 29.2545 24.0839 29.9122 24.0839C31.0409 24.0839 31.6669 23.3581 31.6669 23.3581L31.6104 23.7104C31.6053 23.7419 31.6072 23.7741 31.6158 23.8048C31.6244 23.8355 31.6396 23.864 31.6602 23.8882C31.6809 23.9125 31.7066 23.932 31.7356 23.9454C31.7645 23.9588 31.796 23.9658 31.8279 23.9658H32.9698C33.0575 23.9659 33.1424 23.9346 33.209 23.8776C33.2757 23.8206 33.3198 23.7416 33.3333 23.655L34.0185 19.316C34.0235 19.2846 34.0217 19.2525 34.0131 19.2218C34.0045 19.1912 33.9894 19.1628 33.9687 19.1385C33.9481 19.1143 33.9224 19.0949 33.8935 19.0815C33.8646 19.0682 33.8332 19.0613 33.8013 19.0613ZM32.0342 21.5287C31.9119 22.2529 31.3371 22.7391 30.6039 22.7391C30.2358 22.7391 29.9416 22.6211 29.7527 22.3973C29.5653 22.1751 29.4941 21.8589 29.5537 21.5066C29.6679 20.7886 30.2524 20.2865 30.9744 20.2865C31.3344 20.2865 31.627 20.4061 31.8198 20.6318C32.0129 20.8598 32.0896 21.178 32.0342 21.5287ZM40.5531 19.0613H39.2791C39.2191 19.0614 39.1599 19.0762 39.1068 19.1043C39.0537 19.1324 39.0083 19.1731 38.9745 19.2227L37.2175 21.8109L36.4727 19.3238C36.4498 19.2479 36.4031 19.1814 36.3396 19.1342C36.276 19.0869 36.1989 19.0614 36.1196 19.0613H34.8678C34.8326 19.0612 34.798 19.0695 34.7667 19.0855C34.7354 19.1015 34.7084 19.1248 34.6879 19.1533C34.6674 19.1819 34.6541 19.2149 34.6489 19.2497C34.6438 19.2844 34.647 19.3199 34.6584 19.3532L36.0616 23.4711L34.7424 25.3335C34.7189 25.3665 34.705 25.4053 34.7022 25.4457C34.6993 25.4861 34.7076 25.5265 34.7262 25.5625C34.7448 25.5985 34.773 25.6286 34.8075 25.6497C34.8421 25.6707 34.8819 25.6819 34.9224 25.6818H36.1947C36.2542 25.6819 36.3127 25.6676 36.3653 25.6401C36.418 25.6126 36.4632 25.5727 36.4971 25.5239L40.7342 19.4078C40.7572 19.3747 40.7707 19.3359 40.7732 19.2957C40.7757 19.2555 40.7672 19.2154 40.7485 19.1797C40.7298 19.144 40.7017 19.1141 40.6673 19.0933C40.6329 19.0724 40.5933 19.0613 40.5531 19.0613Z" fill="#253B80"/>
<path d="M44.771 16.6126H42.1232C42.0357 16.6126 41.951 16.6439 41.8844 16.7008C41.8179 16.7577 41.7738 16.8365 41.7602 16.923L40.6894 23.7115C40.6845 23.743 40.6864 23.7751 40.695 23.8058C40.7036 23.8364 40.7188 23.8648 40.7395 23.889C40.7602 23.9132 40.7859 23.9327 40.8148 23.946C40.8437 23.9593 40.8752 23.9662 40.907 23.9662H42.2657C42.327 23.9662 42.3863 23.9442 42.4328 23.9043C42.4794 23.8644 42.5101 23.8093 42.5196 23.7487L42.8235 21.8244C42.8371 21.7379 42.8811 21.659 42.9477 21.602C43.0142 21.545 43.099 21.5137 43.1866 21.5136H44.0243C45.7685 21.5136 46.7746 20.6697 47.0378 18.9975C47.1567 18.2659 47.0425 17.691 46.6999 17.2884C46.324 16.8464 45.6571 16.6126 44.771 16.6126ZM45.0764 19.0919C44.932 20.0419 44.2062 20.0419 43.504 20.0419H43.1049L43.3856 18.2678C43.3936 18.2159 43.42 18.1686 43.4599 18.1344C43.4998 18.1003 43.5506 18.0815 43.6031 18.0816H43.7862C44.2639 18.0816 44.7152 18.0816 44.9483 18.3541C45.0872 18.5167 45.1294 18.7582 45.0764 19.0919ZM52.684 19.0613H51.4171C51.3645 19.0612 51.3137 19.0799 51.2737 19.1141C51.2338 19.1482 51.2075 19.1956 51.1995 19.2475L51.1434 19.6021L51.0544 19.4736C50.7799 19.0753 50.1683 18.9421 49.5574 18.9421C48.1565 18.9421 46.9604 20.0032 46.7274 21.4915C46.6066 22.234 46.7781 22.9439 47.1993 23.439C47.5863 23.8942 48.1384 24.0839 48.796 24.0839C49.9248 24.0839 50.5507 23.3581 50.5507 23.3581L50.4942 23.7104C50.4892 23.7419 50.491 23.7742 50.4997 23.805C50.5084 23.8357 50.5236 23.8643 50.5444 23.8886C50.5651 23.9129 50.5909 23.9324 50.62 23.9457C50.649 23.959 50.6806 23.9659 50.7125 23.9659H51.8541C51.9417 23.9658 52.0265 23.9345 52.093 23.8775C52.1596 23.8205 52.2036 23.7416 52.2172 23.655L52.9027 19.3161C52.9076 19.2845 52.9056 19.2523 52.8968 19.2217C52.8881 19.191 52.8728 19.1626 52.852 19.1384C52.8312 19.1142 52.8054 19.0948 52.7764 19.0815C52.7475 19.0682 52.7159 19.0613 52.684 19.0613ZM50.9169 21.5287C50.7954 22.253 50.2198 22.7392 49.4866 22.7392C49.1193 22.7392 48.8243 22.6211 48.6354 22.3973C48.448 22.1752 48.3776 21.8589 48.4364 21.5066C48.5514 20.7886 49.1351 20.2865 49.8571 20.2865C50.2171 20.2865 50.5097 20.4061 50.7025 20.6318C50.8964 20.8598 50.9731 21.178 50.9169 21.5287ZM54.1786 16.7988L53.092 23.7115C53.0871 23.743 53.089 23.7751 53.0976 23.8058C53.1062 23.8364 53.1214 23.8648 53.1421 23.889C53.1628 23.9132 53.1885 23.9327 53.2174 23.946C53.2463 23.9593 53.2777 23.9662 53.3096 23.9662H54.402C54.5835 23.9662 54.7376 23.8346 54.7655 23.6554L55.8369 16.8673C55.8419 16.8358 55.84 16.8036 55.8314 16.773C55.8227 16.7423 55.8076 16.7139 55.7869 16.6897C55.7662 16.6654 55.7405 16.6459 55.7116 16.6326C55.6827 16.6192 55.6512 16.6122 55.6194 16.6122H54.3962C54.3436 16.6124 54.2929 16.6312 54.253 16.6654C54.2132 16.6996 54.1868 16.7469 54.1786 16.7988Z" fill="#179BD7"/>
<path d="M10.8129 25.2854L11.0154 23.9995L10.5644 23.989H8.41098L9.9075 14.5001C9.91195 14.4711 9.92668 14.4447 9.94899 14.4256C9.9713 14.4066 9.99971 14.3962 10.029 14.3964H13.66C14.8654 14.3964 15.6973 14.6472 16.1316 15.1423C16.3352 15.3746 16.4649 15.6173 16.5276 15.8844C16.5934 16.1646 16.5946 16.4995 16.5303 16.9078L16.5257 16.9377V17.1993L16.7293 17.3147C16.8847 17.3934 17.0245 17.5 17.1416 17.629C17.3158 17.8276 17.4284 18.08 17.476 18.3792C17.5252 18.6869 17.5089 19.0531 17.4284 19.4677C17.3355 19.9446 17.1853 20.36 16.9825 20.6998C16.8035 21.0043 16.5629 21.268 16.276 21.474C16.0066 21.6653 15.6865 21.8104 15.3245 21.9033C14.9738 21.9947 14.5739 22.0408 14.1354 22.0408H13.8528C13.6507 22.0408 13.4545 22.1135 13.3004 22.244C13.1466 22.3758 13.0445 22.558 13.0124 22.758L12.9911 22.8738L12.6334 25.1402L12.6172 25.2235C12.6129 25.2498 12.6056 25.2629 12.5947 25.2718C12.5842 25.2804 12.5711 25.2852 12.5576 25.2854H10.8129Z" fill="#253B80"/>
<path d="M16.922 16.9679C16.9111 17.0372 16.8987 17.108 16.8848 17.1808C16.406 19.6393 14.7678 20.4885 12.6755 20.4885H11.6102C11.3544 20.4885 11.1387 20.6743 11.0989 20.9267L10.5535 24.3858L10.399 25.3664C10.3928 25.4052 10.3952 25.445 10.4059 25.4829C10.4166 25.5208 10.4353 25.5559 10.4609 25.5859C10.4865 25.6158 10.5182 25.6399 10.554 25.6564C10.5898 25.6729 10.6287 25.6814 10.668 25.6814H12.5575C12.7812 25.6814 12.9713 25.5189 13.0065 25.2982L13.0251 25.2022L13.3808 22.9447L13.4036 22.8208C13.4385 22.5994 13.6289 22.4368 13.8527 22.4368H14.1353C15.9658 22.4368 17.3989 21.6936 17.8177 19.5429C17.9927 18.6444 17.9021 17.8942 17.4391 17.3666C17.2924 17.2034 17.1171 17.0683 16.922 16.9679Z" fill="#179BD7"/>
<path d="M16.4205 16.7681C16.2676 16.7238 16.1121 16.6893 15.9548 16.6647C15.6441 16.617 15.3301 16.5941 15.0157 16.5962H12.1698C12.0615 16.5961 11.9567 16.6348 11.8744 16.7052C11.7921 16.7756 11.7378 16.8732 11.7211 16.9802L11.1157 20.8148L11.0983 20.9267C11.1172 20.8046 11.1791 20.6933 11.2729 20.6129C11.3667 20.5326 11.4861 20.4884 11.6096 20.4885H12.6749C14.7672 20.4885 16.4054 19.6388 16.8842 17.1807C16.8985 17.1079 16.9105 17.0371 16.9214 16.9678C16.795 16.9016 16.6633 16.846 16.5277 16.8018C16.4922 16.79 16.4564 16.7787 16.4205 16.7681Z" fill="#222D65"/>
<path d="M11.7216 16.9803C11.7381 16.8732 11.7924 16.7756 11.8748 16.7052C11.9571 16.6348 12.0619 16.5963 12.1702 16.5966H15.0162C15.3533 16.5966 15.6681 16.6187 15.9553 16.6652C16.1496 16.6957 16.3413 16.7414 16.5286 16.8018C16.6699 16.8486 16.8011 16.904 16.9222 16.9679C17.0647 16.0594 16.9211 15.4408 16.4299 14.8806C15.8883 14.264 14.9109 14 13.6602 14H10.0292C9.77373 14 9.5558 14.1858 9.51631 14.4386L8.00393 24.025C7.99688 24.0695 7.99956 24.115 8.01178 24.1584C8.024 24.2018 8.04547 24.242 8.07472 24.2763C8.10396 24.3106 8.14029 24.3381 8.18119 24.357C8.22209 24.3759 8.26661 24.3857 8.31167 24.3858H10.5533L11.1162 20.8148L11.7216 16.9803Z" fill="#253B80"/>
</svg>
