<svg width="20" height="20" viewBox="0 0 20 20" fill="none" xmlns="http://www.w3.org/2000/svg">
<g clip-path="url(#clip0_41_2192)">
<path d="M17.9441 20L18.4415 18.8638L17.8059 4.04212H13.5483C13.0326 1.65627 11.716 0 10.138 0C8.55841 0 7.2456 1.65627 6.72771 4.04212H2.58892L1.55908 19.1808L2.22386 20.0005H17.9441V20ZM12.3586 6.31403C12.3586 6.70825 12.6767 7.02687 13.0693 7.02687C13.4635 7.02687 13.7827 6.70825 13.7827 6.31403C13.7827 6.20008 13.7805 6.08505 13.7783 5.97219C14.0343 6.17686 14.1985 6.49008 14.1985 6.8411C14.1985 7.45511 13.7017 7.95194 13.0887 7.95194C12.4752 7.95194 11.9784 7.45511 11.9784 6.8411C11.9784 6.5133 12.1237 6.2179 12.35 6.01539C12.3554 6.11368 12.3586 6.21412 12.3586 6.31403ZM10.138 1.42676C10.8816 1.42676 11.6836 2.43283 12.0891 4.04266H8.18579C8.59297 2.43391 9.39546 1.42676 10.138 1.42676ZM6.49711 6.00783C6.49387 6.10936 6.49225 6.21196 6.49225 6.31403C6.49225 6.70825 6.81249 7.02687 7.20563 7.02687C7.59986 7.02687 7.91847 6.70825 7.91847 6.31403C7.91847 6.20224 7.92171 6.09153 7.92495 5.98083C8.17499 6.18496 8.33538 6.49494 8.33538 6.84218C8.33538 7.45565 7.83855 7.95248 7.22453 7.95248C6.6116 7.95248 6.11585 7.45565 6.11585 6.84218C6.11747 6.50952 6.26436 6.21034 6.49711 6.00783Z" fill="white"/>
</g>
<defs>
<clipPath id="clip0_41_2192">
<rect width="20" height="20" fill="#F26333"/>
</clipPath>
</defs>
</svg>
