<svg width="64" height="95" viewBox="0 0 64 95" fill="none" xmlns="http://www.w3.org/2000/svg">
<g clip-path="url(#clip0_93_111)">
<path d="M43.9369 25.2054C43.7789 24.7194 43.3479 24.3754 42.8399 24.3294L35.9118 23.7004L33.1738 17.2902C32.9717 16.8192 32.5117 16.5153 31.9997 16.5153C31.4878 16.5153 31.0276 16.8192 30.8267 17.2902L28.0887 23.7004L21.1595 24.3294C20.6516 24.3763 20.2215 24.7203 20.0625 25.2054C19.9045 25.6914 20.0504 26.2244 20.4346 26.5613L25.6717 31.1535L24.1275 37.9545C24.0145 38.4546 24.2086 38.9717 24.6236 39.2716C24.8466 39.4337 25.1086 39.5146 25.3716 39.5146C25.5975 39.5146 25.8237 39.4545 26.0256 39.3337L31.9997 35.7616L37.9727 39.3337C38.4109 39.5955 38.9619 39.5715 39.3759 39.2716C39.7908 38.9717 39.9849 38.4546 39.8719 37.9545L38.3278 31.1535L43.5649 26.5613C43.9488 26.2244 44.095 25.6925 43.9369 25.2054Z" fill="#A7AAB2"/>
</g>
<g clip-path="url(#clip1_93_111)">
<path d="M43.9369 64.2054C43.7789 63.7194 43.3479 63.3754 42.8399 63.3294L35.9118 62.7004L33.1738 56.2902C32.9717 55.8192 32.5117 55.5153 31.9997 55.5153C31.4878 55.5153 31.0276 55.8192 30.8267 56.2902L28.0887 62.7004L21.1595 63.3294C20.6516 63.3763 20.2215 63.7203 20.0625 64.2054C19.9045 64.6914 20.0504 65.2244 20.4346 65.5613L25.6717 70.1535L24.1275 76.9545C24.0145 77.4546 24.2086 77.9717 24.6236 78.2716C24.8466 78.4337 25.1086 78.5146 25.3716 78.5146C25.5975 78.5146 25.8237 78.4545 26.0256 78.3337L31.9997 74.7616L37.9727 78.3337C38.4109 78.5955 38.9619 78.5715 39.3759 78.2716C39.7908 77.9717 39.9849 77.4546 39.8719 76.9545L38.3278 70.1535L43.5649 65.5613C43.9488 65.2244 44.095 64.6925 43.9369 64.2054Z" fill="#F2C94C"/>
</g>
<rect x="0.5" y="0.5" width="63" height="94" rx="4.5" stroke="#7B61FF" stroke-dasharray="10 5"/>
<defs>
<clipPath id="clip0_93_111">
<rect width="24" height="24" fill="white" transform="translate(20 16)"/>
</clipPath>
<clipPath id="clip1_93_111">
<rect width="24" height="24" fill="white" transform="translate(20 55)"/>
</clipPath>
</defs>
</svg>
