<svg width="24" height="24" viewBox="0 0 24 24" fill="none" xmlns="http://www.w3.org/2000/svg">
<g clip-path="url(#clip0_93_112)">
<path d="M23.9369 9.2054C23.7789 8.71943 23.3479 8.37537 22.8399 8.32941L15.9118 7.70043L13.1738 1.29017C12.9717 0.819219 12.5117 0.515259 11.9997 0.515259C11.4878 0.515259 11.0276 0.819219 10.8267 1.29017L8.08871 7.70043L1.15952 8.32941C0.651576 8.37629 0.221454 8.72035 0.0625156 9.2054C-0.0955071 9.69137 0.0504304 10.2244 0.434592 10.5613L5.67168 15.1535L4.12752 21.9545C4.01455 22.4546 4.20864 22.9717 4.62357 23.2716C4.84659 23.4337 5.10862 23.5146 5.37156 23.5146C5.59752 23.5146 5.82366 23.4545 6.02563 23.3337L11.9997 19.7616L17.9727 23.3337C18.4109 23.5955 18.9619 23.5715 19.3759 23.2716C19.7908 22.9717 19.9849 22.4546 19.8719 21.9545L18.3278 15.1535L23.5649 10.5613C23.9488 10.2244 24.095 9.69247 23.9369 9.2054Z" fill="#F2C94C"/>
</g>
<defs>
<clipPath id="clip0_93_112">
<rect width="24" height="24" fill="white"/>
</clipPath>
</defs>
</svg>
