<svg width="64" height="40" viewBox="0 0 64 40" fill="none" xmlns="http://www.w3.org/2000/svg">
<rect width="64" height="40" rx="4" fill="#E8EBEE"/>
<g clip-path="url(#clip0_56_2826)">
<path d="M28.7777 26.7981H25.2674L27.463 13.2457H30.9731L28.7777 26.7981Z" fill="#00579F"/>
<path d="M41.5031 13.577C40.8107 13.3028 39.7125 13 38.3546 13C34.8881 13 32.447 14.8453 32.432 17.4836C32.4032 19.4301 34.1797 20.5113 35.5085 21.1603C36.8666 21.8235 37.3282 22.2564 37.3282 22.8475C37.3144 23.7554 36.2308 24.1739 35.2201 24.1739C33.8187 24.1739 33.0677 23.9582 31.9266 23.4531L31.4643 23.2365L30.9731 26.2787C31.7964 26.6532 33.3133 26.9854 34.8881 27C38.5713 27 40.9692 25.1832 40.9977 22.3717C41.0117 20.829 40.0736 19.6468 38.0511 18.6809C36.8234 18.0608 36.0715 17.6427 36.0715 17.0082C36.0859 16.4314 36.7074 15.8406 38.0934 15.8406C39.2345 15.8117 40.073 16.0855 40.7082 16.3595L41.0257 16.5034L41.5031 13.577Z" fill="#00579F"/>
<path d="M46.1684 21.997C46.4575 21.2184 47.5698 18.2051 47.5698 18.2051C47.5553 18.2341 47.8584 17.4122 48.0317 16.9076L48.277 18.0754C48.277 18.0754 48.9418 21.3194 49.0861 21.997C48.5375 21.997 46.8617 21.997 46.1684 21.997ZM50.5014 13.2457H47.7862C46.9489 13.2457 46.3127 13.4906 45.9515 14.3702L40.7374 26.7979H44.4206C44.4206 26.7979 45.027 25.1252 45.1573 24.765C45.5614 24.765 49.1445 24.765 49.6643 24.765C49.7651 25.2408 50.0831 26.7979 50.0831 26.7979H53.3333L50.5014 13.2457Z" fill="#00579F"/>
<path d="M22.3356 13.2457L18.8978 22.4872L18.5222 20.6129C17.8866 18.4502 15.8933 16.1005 13.6689 14.9322L16.8178 26.7837H20.5298L26.0474 13.2457H22.3356Z" fill="#00579F"/>
<path d="M15.7055 13.2457H10.0578L10 13.5196C14.4056 14.6442 17.3233 17.3551 18.5221 20.6135L17.2943 14.3849C17.0922 13.5194 16.471 13.2743 15.7055 13.2457Z" fill="#FAA61A"/>
</g>
<defs>
<clipPath id="clip0_56_2826">
<rect width="43.3333" height="14" fill="white" transform="translate(10 13)"/>
</clipPath>
</defs>
</svg>
