<svg width="56" height="56" viewBox="0 0 56 56" fill="none" xmlns="http://www.w3.org/2000/svg">
<circle cx="28" cy="28" r="28" fill="url(#paint0_linear_209_933)"/>
<path d="M43.6758 21.5425L32.9258 15.6396C32.7385 15.5369 32.5115 15.5369 32.3242 15.6396L28.2817 17.8594C28.1904 17.8848 28.1052 17.9314 28.033 17.9958L21.5742 21.5425C21.3743 21.6523 21.25 21.8623 21.25 22.0903V23.3682H14.0391C13.6938 23.3682 13.4141 23.6482 13.4141 23.9932C13.4141 24.3384 13.6938 24.6182 14.0391 24.6182H21.25V26.8682H17.6667C17.3215 26.8682 17.0417 27.1482 17.0417 27.4932C17.0417 27.8384 17.3215 28.1182 17.6667 28.1182H21.25V31.3682H16C15.6548 31.3682 15.375 31.6482 15.375 31.9932C15.375 32.3384 15.6548 32.6182 16 32.6182H21.25V33.8962C21.25 34.1243 21.3743 34.3342 21.5742 34.4441L32.3242 40.3469C32.418 40.3984 32.5215 40.4241 32.625 40.4241C32.7285 40.4241 32.832 40.3984 32.9258 40.3469L43.6758 34.4441C43.8757 34.3342 44 34.1243 44 33.8962V31.0974C44 30.7524 43.7202 30.4724 43.375 30.4724C43.0298 30.4724 42.75 30.7524 42.75 31.0974V33.5264L33.25 38.7429V28.363L36.2712 26.7041V29.3369C36.2712 29.5581 36.3879 29.7627 36.5781 29.875C36.676 29.9329 36.7861 29.9619 36.8962 29.9619C36.9998 29.9619 37.1035 29.9363 37.1975 29.8845L39.5012 28.6167C39.7007 28.5068 39.8247 28.2971 39.8247 28.0691V24.7529L42.75 23.1467V26.0974C42.75 26.4426 43.0298 26.7224 43.375 26.7224C43.7202 26.7224 44 26.4426 44 26.0974V22.0903C44 21.8623 43.8757 21.6523 43.6758 21.5425ZM32.625 27.2803L23.1736 22.0903L26.144 20.4592L35.5957 25.6492L32.625 27.2803ZM39.2173 23.6604L29.7659 18.4705L32.625 16.9006L42.0764 22.0903L39.2173 23.6604Z" fill="white"/>
<path d="M43.375 27.9727C43.2107 27.9727 43.0493 28.0388 42.9331 28.1558C42.8169 28.272 42.75 28.4326 42.75 28.5977C42.75 28.762 42.8169 28.9233 42.9331 29.0396C43.0493 29.1558 43.2107 29.2227 43.375 29.2227C43.5393 29.2227 43.7007 29.1558 43.8169 29.0396C43.9331 28.9233 44 28.762 44 28.5977C44 28.4326 43.9331 28.272 43.8169 28.1558C43.7007 28.0388 43.5393 27.9727 43.375 27.9727Z" fill="white"/>
<path d="M13.5208 31.3682H12.625C12.2798 31.3682 12 31.6482 12 31.9932C12 32.3384 12.2798 32.6182 12.625 32.6182H13.5208C13.866 32.6182 14.1458 32.3384 14.1458 31.9932C14.1458 31.6482 13.866 31.3682 13.5208 31.3682Z" fill="white"/>
<path d="M15.792 27.4932C15.792 27.3289 15.7251 27.1677 15.6086 27.0515C15.4924 26.9351 15.3313 26.8682 15.167 26.8682C15.0024 26.8682 14.8413 26.9351 14.7251 27.0515C14.6082 27.1677 14.542 27.3289 14.542 27.4932C14.542 27.6577 14.6082 27.8188 14.7251 27.9351C14.8413 28.0513 15.0024 28.1182 15.167 28.1182C15.3313 28.1182 15.4924 28.0515 15.6086 27.9351C15.7251 27.8188 15.792 27.6577 15.792 27.4932Z" fill="white"/>
<defs>
<linearGradient id="paint0_linear_209_933" x1="28" y1="0" x2="28" y2="56" gradientUnits="userSpaceOnUse">
<stop stop-color="#0BB8E4"/>
<stop offset="1" stop-color="#3D90D9"/>
</linearGradient>
</defs>
</svg>
