<svg width="56" height="56" viewBox="0 0 56 56" fill="none" xmlns="http://www.w3.org/2000/svg">
<circle cx="28" cy="28" r="28" fill="url(#paint0_linear_209_930)"/>
<path d="M34.9248 29.3461C34.9284 29.3362 37.5723 23.1609 37.4343 23.0891C37.3006 23.0187 35.5918 26.5109 34.3467 28.8754L33.9556 28.6699C35.0407 26.2215 36.726 22.7172 36.5881 22.6468C36.4544 22.5764 34.6368 26.0096 33.3141 28.3349L32.923 28.1301C34.0836 25.7195 35.8763 22.2734 35.7419 22.203C35.6068 22.1326 33.6768 25.5076 32.278 27.7924L31.8848 27.5854C33.1236 25.2167 35.0258 21.8283 34.8921 21.7579C34.7563 21.686 31.9396 26.1852 31.173 27.3785C30.5052 28.4217 30.55 29.8709 31.4041 30.6489C30.235 32.6933 29.0681 34.7356 27.8997 36.7794C26.7008 34.7378 25.5019 32.6948 24.3022 30.6532C25.6981 29.5723 25.9314 27.4268 24.7865 25.7508C23.5854 23.9595 21.0745 21.9705 19.579 22.7214C18.1305 23.5598 18.4142 26.7506 19.254 28.7374C20.027 30.6133 21.9506 31.5968 23.6181 31.0222C24.7893 33.3902 25.9598 35.7575 27.1296 38.1248C26.6176 39.0215 26.1056 39.9175 25.5929 40.8149C19.5385 39.6828 14.954 34.3815 14.954 28C14.9554 20.795 20.795 14.9547 28 14.9547C35.205 14.9547 41.0446 20.7943 41.0446 27.9993C41.0446 34.4235 36.3975 39.7497 30.2827 40.832C29.7508 39.9268 29.2196 39.0222 28.6891 38.117C29.8268 35.749 30.9625 33.381 32.1003 31.0116C33.2124 31.2924 34.3836 30.5977 34.9212 29.3433C35.4844 28.0306 34.9234 29.3461 34.9248 29.3461ZM29.2011 42.3083C28.8021 42.3417 28.4053 42.3694 28 42.3694C27.5548 42.3694 27.1154 42.3424 26.6802 42.3026C26.432 42.8188 26.1838 43.3344 25.9371 43.8514C26.614 43.9396 27.3003 44 28 44C28.6677 44 29.3234 43.9452 29.9705 43.8656C29.7145 43.3472 29.4578 42.8281 29.2011 42.3083ZM28 12C19.178 12 12 19.178 12 28C12 35.4624 17.142 41.7294 24.0647 43.4901C24.3442 43.0009 24.6229 42.5131 24.9024 42.0245C18.464 40.603 13.6299 34.8587 13.6299 28C13.6299 20.0761 20.0761 13.6306 27.9993 13.6306C35.9225 13.6306 42.3687 20.0768 42.3687 28C42.3687 34.8942 37.4848 40.6663 30.9966 42.0494C31.2818 42.5365 31.5684 43.0236 31.8542 43.5115C38.8174 41.7785 44 35.4916 44 28C44 19.178 36.822 12 28 12ZM28.5618 41.0169C28.3484 40.5838 28.1344 40.1515 27.9204 39.7184C27.7141 40.1493 27.5072 40.5796 27.301 41.0091C27.5342 41.0212 27.7646 41.0439 28 41.0439C28.1899 41.0446 28.3733 41.0233 28.5618 41.0169Z" fill="white"/>
<defs>
<linearGradient id="paint0_linear_209_930" x1="28" y1="0" x2="28" y2="56" gradientUnits="userSpaceOnUse">
<stop stop-color="#0BB8E4"/>
<stop offset="1" stop-color="#3D90D9"/>
</linearGradient>
</defs>
</svg>
