<svg width="56" height="56" viewBox="0 0 56 56" fill="none" xmlns="http://www.w3.org/2000/svg">
<circle cx="28" cy="28" r="28" fill="url(#paint0_linear_209_470)"/>
<g clip-path="url(#clip0_209_470)">
<path d="M37.6339 31.133C37.636 31.1298 37.6382 31.1268 37.6404 31.1236C37.658 31.0937 37.6325 31.1344 37.6339 31.133Z" fill="white"/>
<path d="M37.6402 24.7064C37.6383 24.7029 37.6362 24.6997 37.6342 24.6962C37.6383 24.7034 37.6433 24.7123 37.647 24.719C37.6446 24.7148 37.6424 24.7106 37.6402 24.7064Z" fill="white"/>
<path d="M37.8631 15.5117C37.8881 15.4821 37.8375 15.5411 37.8631 15.5117V15.5117Z" fill="white"/>
<path d="M30.6511 36.4165C30.6675 36.409 30.6636 36.4109 30.6511 36.4165V36.4165Z" fill="white"/>
<path d="M41.6698 13.2147C41.595 13.0616 41.5202 12.9084 41.4455 12.7552C41.1914 12.8866 40.9446 13.0324 40.7018 13.1834C40.5637 13.2694 40.4271 13.3579 40.2917 13.4481L40.1132 13.5688C40.0585 13.4858 40.0036 13.4029 39.949 13.3198L40.1253 13.211C40.2714 13.1222 40.4185 13.0352 40.5673 12.9512C40.8211 12.8077 41.0791 12.6697 41.3436 12.5469C41.2928 12.4428 41.2419 12.3387 41.191 12.2346C41.1609 12.1728 41.1308 12.1111 41.1006 12.0494C41.0772 12.0015 41.0859 11.9898 41.0343 12.0084C40.5712 12.1756 40.1177 12.3683 39.6742 12.5815C38.6039 13.096 37.5632 13.7244 36.6643 14.5044C35.7316 15.3137 34.9031 16.2483 34.335 17.3526C33.7654 18.4601 33.466 19.6785 33.4489 20.9233C33.4404 21.5507 33.5219 22.1666 33.6362 22.782C33.752 23.4056 33.9624 23.9999 34.1786 24.5943C34.3262 25.023 34.5583 25.4193 34.7203 25.8429C34.8258 26.1185 34.9026 26.3958 34.9685 26.6827C35.0292 26.9469 35.0406 27.2413 35.0094 27.5103C34.9789 27.7741 34.8893 28.0028 34.756 28.2303C34.6161 28.469 34.4026 28.6753 34.1986 28.8594C33.9828 29.0542 33.7511 29.2303 33.51 29.3925C32.482 30.084 31.3114 30.5562 30.1408 30.9445C30.103 30.9571 30.0651 30.9687 30.0274 30.981L27.6214 35.9427C27.6544 35.9318 27.6875 35.9214 27.7205 35.9104C28.3002 35.7174 28.8766 35.5145 29.4467 35.2945C29.6913 35.2001 29.9345 35.1025 30.1774 35.0035C30.1973 34.9953 30.2442 34.975 30.2442 34.975C30.2442 34.975 30.2758 35.0524 30.2899 35.0842C30.4133 35.3642 30.5366 35.6439 30.6601 35.9239C30.711 36.0393 30.762 36.155 30.8129 36.2703C30.8216 36.2903 30.8303 36.3104 30.8392 36.3302C30.8396 36.3313 30.6654 36.4105 30.6294 36.4268C30.6376 36.423 30.6453 36.4196 30.6514 36.4167C30.645 36.4197 30.6364 36.4236 30.6231 36.4297C29.6668 36.8681 28.6893 37.2607 27.7004 37.619C27.3446 37.7478 26.9868 37.8711 26.6281 37.9917L23.7605 43.9054C24.1958 43.7484 24.6285 43.5845 25.0592 43.4183C26.2068 42.9751 27.3408 42.4959 28.4575 41.9797C30.7269 40.9305 32.9385 39.7296 34.9728 38.2708C36.9169 36.8686 38.7511 35.1997 39.9597 33.1046C40.5665 32.0527 41.0089 30.8894 41.1745 29.6827C41.3439 28.4498 41.2278 27.1867 40.8441 26.0032C40.5912 25.223 40.23 24.4682 39.7769 23.7835C39.5758 23.4795 39.364 23.1868 39.1434 22.897C39.0181 22.7326 38.8803 22.5777 38.7445 22.4221C38.5403 22.1882 38.3725 21.9216 38.2057 21.6609C37.9229 21.2189 37.7148 20.7141 37.6121 20.1995C37.4852 19.5643 37.5301 18.9283 37.6973 18.3054C38.018 17.1107 38.7726 16.0483 39.6038 15.1516C40.1147 14.6003 40.6751 14.0927 41.2708 13.6346C41.3896 13.5432 41.5101 13.4537 41.6323 13.3672C41.7276 13.2994 41.7176 13.3125 41.6698 13.2147ZM37.6727 31.0661C37.6727 31.0661 37.6599 31.0903 37.6403 31.1236C37.6357 31.1305 37.6342 31.1327 37.6338 31.133C37.0997 31.9434 36.4712 32.6571 35.7384 33.2948C35.0477 33.8959 34.2961 34.4141 33.5225 34.9011C33.2939 34.5118 33.0652 34.1223 32.8366 33.7328C33.8061 33.1776 34.7493 32.5672 35.5675 31.8007C35.9707 31.4229 36.3285 31.0119 36.652 30.5646L36.7282 30.4649L37.6727 31.0661ZM37.6343 24.6962C37.6266 24.6824 37.6229 24.6756 37.6403 24.7064C37.6565 24.7356 37.654 24.7313 37.647 24.7191C38.1998 25.7223 38.5794 26.8318 38.5746 27.9876C38.2405 27.9812 37.9062 27.9748 37.5721 27.9684C37.6142 27.1106 37.3906 26.2581 37.0474 25.4776C36.8575 25.0455 36.6165 24.6391 36.3823 24.23C36.1799 23.877 36.004 23.517 35.8329 23.1481C35.9627 23.0895 36.0926 23.0309 36.2225 22.9724C36.306 22.9349 36.5403 22.8281 36.5403 22.8281L36.5614 22.8724C36.7152 23.1692 36.8733 23.4569 37.0493 23.741C37.2461 24.0586 37.4509 24.3709 37.6343 24.6962ZM37.863 15.5118C37.2817 16.1814 36.7612 16.8903 36.3975 17.704C36.0573 18.4657 35.864 19.2925 35.8774 20.1281C35.6607 20.125 35.4439 20.1219 35.2271 20.1188C35.2593 19.0061 35.6128 17.9279 36.1814 16.9746C36.4702 16.4902 36.8122 16.0443 37.181 15.6185C37.2698 15.5159 37.3651 15.4187 37.4584 15.3202C37.4919 15.2848 37.5949 15.1704 37.5949 15.1704C37.5949 15.1704 37.8057 15.3746 37.8996 15.4646C37.9009 15.4657 37.9018 15.4668 37.9031 15.4679C37.8891 15.4819 37.8758 15.4967 37.863 15.5118Z" fill="white"/>
<path d="M30.5461 25.382C30.5461 20.9014 26.9009 17.2562 22.4204 17.2562C17.9399 17.2562 14.2947 20.9014 14.2947 25.382C14.2947 26.695 14.6081 27.936 15.1634 29.0348L22.4204 44.0002L29.6784 29.0325C30.233 27.9342 30.5461 26.694 30.5461 25.382ZM22.4204 29.8786C19.9409 29.8786 17.9236 27.8615 17.9236 25.3819C17.9236 22.9024 19.9409 20.8851 22.4204 20.8851C24.8998 20.8851 26.9171 22.9024 26.9171 25.3819C26.917 27.8615 24.8998 29.8786 22.4204 29.8786Z" fill="white"/>
</g>
<defs>
<linearGradient id="paint0_linear_209_470" x1="28" y1="0" x2="28" y2="56" gradientUnits="userSpaceOnUse">
<stop stop-color="#0BB8E4"/>
<stop offset="1" stop-color="#3D90D9"/>
</linearGradient>
<clipPath id="clip0_209_470">
<rect width="32" height="32" fill="white" transform="translate(12 12)"/>
</clipPath>
</defs>
</svg>
