<svg width="40" height="40" viewBox="0 0 40 40" fill="none" xmlns="http://www.w3.org/2000/svg">
<circle cx="20" cy="20" r="20" fill="url(#paint0_linear_209_307)"/>
<path d="M30.7568 15.1569L22.6943 10.7298C22.5539 10.6527 22.3836 10.6527 22.2432 10.7298L19.2113 12.3945C19.1428 12.4136 19.0789 12.4486 19.0247 12.4969L14.1807 15.1569C14.0307 15.2393 13.9375 15.3967 13.9375 15.5678V16.5261H8.5293C8.27039 16.5261 8.06055 16.7362 8.06055 16.9949C8.06055 17.2538 8.27039 17.4636 8.5293 17.4636H13.9375V19.1511H11.2501C10.9911 19.1511 10.7813 19.3612 10.7813 19.6199C10.7813 19.8788 10.9911 20.0886 11.2501 20.0886H13.9375V22.5261H10C9.74109 22.5261 9.53125 22.7362 9.53125 22.9949C9.53125 23.2538 9.74109 23.4636 10 23.4636H13.9375V24.4222C13.9375 24.5932 14.0307 24.7507 14.1807 24.8331L22.2432 29.2602C22.3135 29.2988 22.3911 29.3181 22.4688 29.3181C22.5464 29.3181 22.624 29.2988 22.6943 29.2602L30.7568 24.8331C30.9068 24.7507 31 24.5932 31 24.4222V22.3231C31 22.0643 30.7902 21.8543 30.5312 21.8543C30.2723 21.8543 30.0625 22.0643 30.0625 22.3231V24.1448L22.9375 28.0572V20.2723L25.2034 19.0281V21.0027C25.2034 21.1686 25.291 21.322 25.4336 21.4063C25.507 21.4497 25.5896 21.4715 25.6722 21.4715C25.7498 21.4715 25.8276 21.4522 25.8981 21.4134L27.6259 20.4625C27.7755 20.3801 27.8685 20.2229 27.8685 20.0518V17.5647L30.0625 16.3601V18.5731C30.0625 18.832 30.2723 19.0418 30.5312 19.0418C30.7902 19.0418 31 18.832 31 18.5731V15.5678C31 15.3967 30.9068 15.2393 30.7568 15.1569ZM22.4688 19.4602L15.3802 15.5678L17.608 14.3444L24.6968 18.2369L22.4688 19.4602ZM27.413 16.7453L20.3244 12.8529L22.4688 11.6755L29.5573 15.5678L27.413 16.7453Z" fill="white"/>
<path d="M30.5312 19.9795C30.408 19.9795 30.287 20.0291 30.1998 20.1168C30.1127 20.204 30.0625 20.3245 30.0625 20.4482C30.0625 20.5715 30.1127 20.6925 30.1998 20.7797C30.287 20.8668 30.408 20.917 30.5312 20.917C30.6545 20.917 30.7755 20.8668 30.8627 20.7797C30.9498 20.6925 31 20.5715 31 20.4482C31 20.3245 30.9498 20.204 30.8627 20.1168C30.7755 20.0291 30.6545 19.9795 30.5312 19.9795Z" fill="white"/>
<path d="M8.14056 22.5261H7.46875C7.20984 22.5261 7 22.7361 7 22.9949C7 23.2538 7.20984 23.4636 7.46875 23.4636H8.14056C8.39948 23.4636 8.60931 23.2538 8.60931 22.9949C8.60931 22.7361 8.39948 22.5261 8.14056 22.5261Z" fill="white"/>
<path d="M9.84399 19.6199C9.84399 19.4966 9.79382 19.3758 9.70648 19.2886C9.61932 19.2013 9.49847 19.1511 9.37524 19.1511C9.25183 19.1511 9.13098 19.2013 9.04382 19.2886C8.95612 19.3758 8.90649 19.4966 8.90649 19.6199C8.90649 19.7433 8.95612 19.8641 9.04382 19.9513C9.13098 20.0385 9.25183 20.0886 9.37524 20.0886C9.49847 20.0886 9.61932 20.0386 9.70648 19.9513C9.79382 19.8641 9.84399 19.7433 9.84399 19.6199Z" fill="white"/>
<defs>
<linearGradient id="paint0_linear_209_307" x1="20" y1="0" x2="20" y2="40" gradientUnits="userSpaceOnUse">
<stop stop-color="#0BB8E4"/>
<stop offset="1" stop-color="#3D90D9"/>
</linearGradient>
</defs>
</svg>
